<?xml version="1.0" encoding="utf-8" standalone="no"?>
<!DOCTYPE svg PUBLIC "-//W3C//DTD SVG 1.1//EN"
  "http://www.w3.org/Graphics/SVG/1.1/DTD/svg11.dtd">
<svg xmlns:xlink="http://www.w3.org/1999/xlink" width="541.8pt" height="809.079654pt" viewBox="0 0 541.8 809.079654" xmlns="http://www.w3.org/2000/svg" version="1.1">
 <metadata>
  <rdf:RDF xmlns:dc="http://purl.org/dc/elements/1.1/" xmlns:cc="http://creativecommons.org/ns#" xmlns:rdf="http://www.w3.org/1999/02/22-rdf-syntax-ns#">
   <cc:Work>
    <dc:type rdf:resource="http://purl.org/dc/dcmitype/StillImage"/>
    <dc:date>2024-01-01T22:24:45.459182</dc:date>
    <dc:format>image/svg+xml</dc:format>
    <dc:creator>
     <cc:Agent>
      <dc:title>Matplotlib v3.8.2, https://matplotlib.org/</dc:title>
     </cc:Agent>
    </dc:creator>
   </cc:Work>
  </rdf:RDF>
 </metadata>
 <defs>
  <style type="text/css">*{stroke-linejoin: round; stroke-linecap: butt}</style>
 </defs>
 <g id="figure_1">
  <g id="patch_1">
   <path d="M 0 809.079654 
L 541.8 809.079654 
L 541.8 0 
L 0 0 
z
" style="fill: #ffffff"/>
  </g>
  <g id="axes_1">
   <g id="patch_2">
    <path d="M 231.92325 85.049075 
L 232.280234 85.046243 
L 232.637129 85.037747 
L 232.993843 85.02359 
L 233.350288 85.003775 
L 233.706374 84.978308 
L 234.062011 84.947193 
L 234.417109 84.910441 
L 234.77158 84.868058 
L 235.125334 84.820058 
L 235.478281 84.76645 
L 235.830334 84.70725 
L 236.181403 84.642471 
L 236.5314 84.57213 
L 236.880237 84.496245 
L 237.227826 84.414835 
L 237.57408 84.327921 
L 237.918911 84.235524 
L 238.262233 84.137667 
L 238.603958 84.034376 
L 238.944003 83.925675 
L 239.282279 83.811594 
L 239.618703 83.692159 
L 239.95319 83.567402 
L 240.285655 83.437354 
L 240.616015 83.302047 
L 240.944187 83.161515 
L 241.270088 83.015795 
L 241.593636 82.864922 
L 241.914749 82.708935 
L 242.233347 82.547873 
L 242.549349 82.381776 
L 242.862677 82.210686 
L 243.17325 82.034647 
L 243.480991 81.853702 
L 243.785823 81.667897 
L 244.087668 81.47728 
L 244.386451 81.281897 
L 244.682097 81.081798 
L 244.97453 80.877034 
L 245.263678 80.667656 
L 245.549468 80.453717 
L 245.831827 80.23527 
L 246.110685 80.012371 
L 246.385971 79.785075 
L 246.657617 79.553441 
L 246.925553 79.317525 
L 247.189712 79.077389 
L 247.450028 78.833091 
L 247.706435 78.584694 
L 247.958869 78.33226 
L 248.207266 78.075853 
L 248.451563 77.815537 
L 248.6917 77.551378 
L 248.927615 77.283442 
L 249.15925 77.011796 
L 249.386545 76.73651 
L 249.609445 76.457652 
L 249.827891 76.175293 
L 250.041831 75.889504 
L 250.251209 75.600356 
L 250.455973 75.307922 
L 250.656072 75.012277 
L 250.851454 74.713494 
L 251.042072 74.411648 
L 251.227877 74.106816 
L 251.408822 73.799075 
L 251.584861 73.488502 
L 251.755951 73.175174 
L 251.922048 72.859172 
L 252.08311 72.540574 
L 252.239097 72.219461 
L 252.38997 71.895913 
L 252.53569 71.570012 
L 252.676222 71.241841 
L 252.811528 70.91148 
L 252.941577 70.579015 
L 253.066334 70.244528 
L 253.185768 69.908104 
L 253.29985 69.569828 
L 253.40855 69.229784 
L 253.511842 68.888058 
L 253.609699 68.544736 
L 253.702096 68.199905 
L 253.78901 67.853651 
L 253.87042 67.506062 
L 253.946305 67.157225 
L 254.016646 66.807228 
L 254.081424 66.456159 
L 254.140625 66.104107 
L 254.194232 65.751159 
L 254.242233 65.397405 
L 254.284615 65.042935 
L 254.321368 64.687836 
L 254.352482 64.332199 
L 254.37795 63.976113 
L 254.397765 63.619668 
L 254.411922 63.262954 
L 254.420418 62.906059 
L 254.42325 62.549075 
L 254.42325 62.549075 
L 254.420418 62.192091 
L 254.411922 61.835197 
L 254.397765 61.478482 
L 254.37795 61.122037 
L 254.352482 60.765951 
L 254.321368 60.410314 
L 254.284615 60.055216 
L 254.242233 59.700745 
L 254.194232 59.346991 
L 254.140625 58.994044 
L 254.081424 58.641991 
L 254.016646 58.290922 
L 253.946305 57.940925 
L 253.87042 57.592088 
L 253.78901 57.244499 
L 253.702096 56.898245 
L 253.609699 56.553414 
L 253.511842 56.210093 
L 253.40855 55.868367 
L 253.29985 55.528323 
L 253.185768 55.190046 
L 253.066334 54.853622 
L 252.941577 54.519135 
L 252.811528 54.18667 
L 252.676222 53.85631 
L 252.53569 53.528138 
L 252.38997 53.202237 
L 252.239097 52.87869 
L 252.08311 52.557576 
L 251.922048 52.238978 
L 251.755951 51.922976 
L 251.584861 51.609649 
L 251.408822 51.299075 
L 251.227877 50.991334 
L 251.042072 50.686502 
L 250.851454 50.384657 
L 250.656072 50.085874 
L 250.455973 49.790228 
L 250.251209 49.497795 
L 250.041831 49.208647 
L 249.827891 48.922857 
L 249.609445 48.640498 
L 249.386545 48.36164 
L 249.15925 48.086354 
L 248.927615 47.814709 
L 248.6917 47.546773 
L 248.451563 47.282613 
L 248.207266 47.022297 
L 247.958869 46.76589 
L 247.706435 46.513456 
L 247.450028 46.265059 
L 247.189712 46.020762 
L 246.925553 45.780625 
L 246.657617 45.54471 
L 246.385971 45.313075 
L 246.110685 45.08578 
L 245.831827 44.862881 
L 245.549468 44.644434 
L 245.263678 44.430494 
L 244.97453 44.221116 
L 244.682097 44.016352 
L 244.386451 43.816253 
L 244.087668 43.620871 
L 243.785823 43.430253 
L 243.480991 43.244448 
L 243.17325 43.063504 
L 242.862677 42.887464 
L 242.549349 42.716375 
L 242.233347 42.550278 
L 241.914749 42.389215 
L 241.593636 42.233228 
L 241.270088 42.082355 
L 240.944187 41.936635 
L 240.616015 41.796104 
L 240.285655 41.660797 
L 239.95319 41.530748 
L 239.618703 41.405991 
L 239.282279 41.286557 
L 238.944003 41.172475 
L 238.603958 41.063775 
L 238.262233 40.960483 
L 237.918911 40.862627 
L 237.57408 40.770229 
L 237.227826 40.683315 
L 236.880237 40.601905 
L 236.5314 40.52602 
L 236.181403 40.45568 
L 235.830334 40.390901 
L 235.478281 40.3317 
L 235.125334 40.278093 
L 234.77158 40.230092 
L 234.417109 40.18771 
L 234.062011 40.150957 
L 233.706374 40.119843 
L 233.350288 40.094375 
L 232.993843 40.07456 
L 232.637129 40.060403 
L 232.280234 40.051907 
L 231.92325 40.049075 
L 75.87675 40.049075 
L 75.519766 40.051907 
L 75.162871 40.060403 
L 74.806157 40.07456 
L 74.449712 40.094375 
L 74.093626 40.119843 
L 73.737989 40.150957 
L 73.382891 40.18771 
L 73.02842 40.230092 
L 72.674666 40.278093 
L 72.321719 40.3317 
L 71.969666 40.390901 
L 71.618597 40.45568 
L 71.2686 40.52602 
L 70.919763 40.601905 
L 70.572174 40.683315 
L 70.22592 40.770229 
L 69.881089 40.862627 
L 69.537767 40.960483 
L 69.196042 41.063775 
L 68.855997 41.172475 
L 68.517721 41.286557 
L 68.181297 41.405991 
L 67.84681 41.530748 
L 67.514345 41.660797 
L 67.183985 41.796104 
L 66.855813 41.936635 
L 66.529912 42.082355 
L 66.206364 42.233228 
L 65.885251 42.389215 
L 65.566653 42.550278 
L 65.250651 42.716375 
L 64.937323 42.887464 
L 64.62675 43.063504 
L 64.319009 43.244448 
L 64.014177 43.430253 
L 63.712332 43.620871 
L 63.413549 43.816253 
L 63.117903 44.016352 
L 62.82547 44.221116 
L 62.536322 44.430494 
L 62.250532 44.644434 
L 61.968173 44.862881 
L 61.689315 45.08578 
L 61.414029 45.313075 
L 61.142383 45.54471 
L 60.874447 45.780625 
L 60.610288 46.020762 
L 60.349972 46.265059 
L 60.093565 46.513456 
L 59.841131 46.76589 
L 59.592734 47.022297 
L 59.348437 47.282613 
L 59.1083 47.546773 
L 58.872385 47.814709 
L 58.64075 48.086354 
L 58.413455 48.36164 
L 58.190555 48.640498 
L 57.972109 48.922857 
L 57.758169 49.208647 
L 57.548791 49.497795 
L 57.344027 49.790228 
L 57.143928 50.085874 
L 56.948546 50.384657 
L 56.757928 50.686502 
L 56.572123 50.991334 
L 56.391178 51.299075 
L 56.215139 51.609649 
L 56.044049 51.922976 
L 55.877952 52.238978 
L 55.71689 52.557576 
L 55.560903 52.87869 
L 55.41003 53.202237 
L 55.26431 53.528138 
L 55.123778 53.85631 
L 54.988472 54.18667 
L 54.858423 54.519135 
L 54.733666 54.853622 
L 54.614232 55.190046 
L 54.50015 55.528323 
L 54.39145 55.868367 
L 54.288158 56.210093 
L 54.190301 56.553414 
L 54.097904 56.898245 
L 54.01099 57.244499 
L 53.92958 57.592088 
L 53.853695 57.940925 
L 53.783354 58.290922 
L 53.718576 58.641991 
L 53.659375 58.994044 
L 53.605768 59.346991 
L 53.557767 59.700745 
L 53.515385 60.055216 
L 53.478632 60.410314 
L 53.447518 60.765951 
L 53.42205 61.122037 
L 53.402235 61.478482 
L 53.388078 61.835197 
L 53.379582 62.192091 
L 53.37675 62.549075 
L 53.37675 62.549075 
L 53.379582 62.906059 
L 53.388078 63.262954 
L 53.402235 63.619668 
L 53.42205 63.976113 
L 53.447518 64.332199 
L 53.478632 64.687836 
L 53.515385 65.042935 
L 53.557767 65.397405 
L 53.605768 65.751159 
L 53.659375 66.104107 
L 53.718576 66.456159 
L 53.783354 66.807228 
L 53.853695 67.157225 
L 53.92958 67.506062 
L 54.01099 67.853651 
L 54.097904 68.199905 
L 54.190301 68.544736 
L 54.288158 68.888058 
L 54.39145 69.229784 
L 54.50015 69.569828 
L 54.614232 69.908104 
L 54.733666 70.244528 
L 54.858423 70.579015 
L 54.988472 70.91148 
L 55.123778 71.241841 
L 55.26431 71.570012 
L 55.41003 71.895913 
L 55.560903 72.219461 
L 55.71689 72.540574 
L 55.877952 72.859172 
L 56.044049 73.175174 
L 56.215139 73.488502 
L 56.391178 73.799075 
L 56.572123 74.106816 
L 56.757928 74.411648 
L 56.948546 74.713494 
L 57.143928 75.012277 
L 57.344027 75.307922 
L 57.548791 75.600356 
L 57.758169 75.889504 
L 57.972109 76.175293 
L 58.190555 76.457652 
L 58.413455 76.73651 
L 58.64075 77.011796 
L 58.872385 77.283442 
L 59.1083 77.551378 
L 59.348437 77.815537 
L 59.592734 78.075853 
L 59.841131 78.33226 
L 60.093565 78.584694 
L 60.349972 78.833091 
L 60.610288 79.077389 
L 60.874447 79.317525 
L 61.142383 79.553441 
L 61.414029 79.785075 
L 61.689315 80.012371 
L 61.968173 80.23527 
L 62.250532 80.453717 
L 62.536322 80.667656 
L 62.82547 80.877034 
L 63.117903 81.081798 
L 63.413549 81.281897 
L 63.712332 81.47728 
L 64.014177 81.667897 
L 64.319009 81.853702 
L 64.62675 82.034647 
L 64.937323 82.210686 
L 65.250651 82.381776 
L 65.566653 82.547873 
L 65.885251 82.708935 
L 66.206364 82.864922 
L 66.529912 83.015795 
L 66.855813 83.161515 
L 67.183985 83.302047 
L 67.514345 83.437354 
L 67.84681 83.567402 
L 68.181297 83.692159 
L 68.517721 83.811594 
L 68.855997 83.925675 
L 69.196042 84.034376 
L 69.537767 84.137667 
L 69.881089 84.235524 
L 70.22592 84.327921 
L 70.572174 84.414835 
L 70.919763 84.496245 
L 71.2686 84.57213 
L 71.618597 84.642471 
L 71.969666 84.70725 
L 72.321719 84.76645 
L 72.674666 84.820058 
L 73.02842 84.868058 
L 73.382891 84.910441 
L 73.737989 84.947193 
L 74.093626 84.978308 
L 74.449712 85.003775 
L 74.806157 85.02359 
L 75.162871 85.037747 
L 75.519766 85.046243 
L 75.87675 85.049075 
L 231.92325 85.049075 
z
" clip-path="url(#p4dab61a588)" style="fill: none; stroke: #000000; stroke-width: 2; stroke-linecap: round"/>
   </g>
   <g id="patch_3">
    <path d="M 36.9 175.049075 
L 45.9 139.049075 
L 261.9 139.049075 
L 243.9 211.049075 
L 27.9 211.049075 
L 36.9 175.049075 
z
" clip-path="url(#p4dab61a588)" style="fill: none; stroke: #000000; stroke-width: 2; stroke-linecap: round"/>
   </g>
   <g id="patch_4">
    <path d="M 45.9 454.049075 
L 135.9 391.049075 
L 225.9 454.049075 
L 135.9 517.049075 
L 45.9 454.049075 
z
" clip-path="url(#p4dab61a588)" style="fill: none; stroke: #000000; stroke-width: 2; stroke-linecap: round"/>
   </g>
   <g id="line2d_1">
    <path d="M 153.9 85.049075 
L 153.9 112.049075 
L 153.9 130.049075 
" clip-path="url(#p4dab61a588)" style="fill: none; stroke: #000000; stroke-width: 2; stroke-linecap: round"/>
   </g>
   <g id="patch_5">
    <path d="M 156.6 130.049075 
L 153.9 139.049075 
L 151.2 130.049075 
z
" clip-path="url(#p4dab61a588)"/>
   </g>
   <g id="line2d_2">
    <path d="M 135.9 211.049075 
L 135.9 238.049075 
L 135.9 256.049075 
" clip-path="url(#p4dab61a588)" style="fill: none; stroke: #000000; stroke-width: 2; stroke-linecap: round"/>
   </g>
   <g id="patch_6">
    <path d="M 138.6 256.049075 
L 135.9 265.049075 
L 133.2 256.049075 
z
" clip-path="url(#p4dab61a588)"/>
   </g>
   <g id="line2d_3">
    <path d="M 27.9 301.049075 
L 27.9 265.049075 
L 243.9 265.049075 
L 243.9 337.049075 
L 27.9 337.049075 
L 27.9 301.049075 
" clip-path="url(#p4dab61a588)" style="fill: none; stroke: #000000; stroke-width: 2; stroke-linecap: round"/>
   </g>
   <g id="line2d_4">
    <path d="M 135.9 337.049075 
L 135.9 364.049075 
L 135.9 382.049075 
" clip-path="url(#p4dab61a588)" style="fill: none; stroke: #000000; stroke-width: 2; stroke-linecap: round"/>
   </g>
   <g id="patch_7">
    <path d="M 138.6 382.049075 
L 135.9 391.049075 
L 133.2 382.049075 
z
" clip-path="url(#p4dab61a588)"/>
   </g>
   <g id="line2d_5">
    <path d="M 135.9 517.049075 
L 135.9 544.049075 
L 135.9 562.049075 
" clip-path="url(#p4dab61a588)" style="fill: none; stroke: #000000; stroke-width: 2; stroke-linecap: round"/>
   </g>
   <g id="patch_8">
    <path d="M 138.6 562.049075 
L 135.9 571.049075 
L 133.2 562.049075 
z
" clip-path="url(#p4dab61a588)"/>
   </g>
   <g id="line2d_6">
    <path d="M 27.9 607.049075 
L 27.9 571.049075 
L 243.9 571.049075 
L 243.9 643.049075 
L 27.9 643.049075 
L 27.9 607.049075 
" clip-path="url(#p4dab61a588)" style="fill: none; stroke: #000000; stroke-width: 2; stroke-linecap: round"/>
   </g>
   <g id="line2d_7">
    <path d="M 135.9 643.049075 
L 135.9 670.049075 
L 135.9 688.049075 
" clip-path="url(#p4dab61a588)" style="fill: none; stroke: #000000; stroke-width: 2; stroke-linecap: round"/>
   </g>
   <g id="patch_9">
    <path d="M 138.6 688.049075 
L 135.9 697.049075 
L 133.2 688.049075 
z
" clip-path="url(#p4dab61a588)"/>
   </g>
   <g id="line2d_8">
    <path d="M 189.9 733.049075 
L 189.456661 728.445497 
L 188.133923 723.91751 
L 185.953505 719.539463 
L 182.95121 715.383243 
L 179.176336 711.517096 
L 174.690865 708.004503 
L 169.568449 704.903142 
L 163.893199 702.263936 
L 157.758301 700.130221 
L 151.26449 698.537032 
L 144.518394 697.510531 
L 137.630785 697.067571 
L 130.714757 697.215427 
L 123.88387 697.95167 
L 117.250287 699.264212 
L 110.922932 701.1315 
L 105.0057 703.522874 
L 99.595752 706.399067 
L 94.781918 709.712853 
L 90.643242 713.409819 
L 87.247681 717.429261 
L 84.65099 721.705179 
L 82.895806 726.167365 
L 82.010949 730.742547 
L 82.010949 735.355603 
L 82.895806 739.930786 
L 84.65099 744.392971 
L 87.247681 748.66889 
L 90.643242 752.688332 
L 94.781918 756.385297 
L 99.595752 759.699083 
L 105.0057 762.575276 
L 110.922932 764.96665 
L 117.250287 766.833938 
L 123.88387 768.14648 
L 130.714757 768.882723 
L 137.630785 769.030579 
L 144.518394 768.587619 
L 151.26449 767.561118 
L 157.758301 765.96793 
L 163.893199 763.834215 
L 169.568449 761.195009 
L 174.690865 758.093647 
L 179.176336 754.581054 
L 182.95121 750.714907 
L 185.953505 746.558687 
L 188.133923 742.18064 
L 189.456661 737.652653 
L 189.9 733.049075 
" clip-path="url(#p4dab61a588)" style="fill: none; stroke: #000000; stroke-width: 2; stroke-linecap: round"/>
   </g>
   <g id="line2d_9">
    <path d="M 225.9 454.049075 
L 279.9 454.049075 
L 324.9 454.049075 
" clip-path="url(#p4dab61a588)" style="fill: none; stroke: #000000; stroke-width: 2; stroke-linecap: round"/>
   </g>
   <g id="patch_10">
    <path d="M 324.9 451.349075 
L 333.9 454.049075 
L 324.9 456.749075 
z
" clip-path="url(#p4dab61a588)"/>
   </g>
   <g id="line2d_10">
    <path d="M 333.9 454.049075 
L 333.9 418.049075 
L 513.9 418.049075 
L 513.9 490.049075 
L 333.9 490.049075 
L 333.9 454.049075 
" clip-path="url(#p4dab61a588)" style="fill: none; stroke: #000000; stroke-width: 2; stroke-linecap: round"/>
   </g>
   <g id="line2d_11">
    <path d="M 423.9 490.049075 
L 423.9 607.049075 
L 252.9 607.049075 
" clip-path="url(#p4dab61a588)" style="fill: none; stroke: #000000; stroke-width: 2; stroke-linecap: round"/>
   </g>
   <g id="patch_11">
    <path d="M 252.9 609.749075 
L 243.9 607.049075 
L 252.9 604.349075 
z
" clip-path="url(#p4dab61a588)"/>
   </g>
   <g id="text_1">
    <!-- Data Preprocessing: Start -->
    <g transform="translate(74.018164 65.998294) scale(0.125 -0.125)">
     <defs>
      <path id="DejaVuSans-44" d="M 1259 4147 
L 1259 519 
L 2022 519 
Q 2988 519 3436 956 
Q 3884 1394 3884 2338 
Q 3884 3275 3436 3711 
Q 2988 4147 2022 4147 
L 1259 4147 
z
M 628 4666 
L 1925 4666 
Q 3281 4666 3915 4102 
Q 4550 3538 4550 2338 
Q 4550 1131 3912 565 
Q 3275 0 1925 0 
L 628 0 
L 628 4666 
z
" transform="scale(0.015625)"/>
      <path id="DejaVuSans-61" d="M 2194 1759 
Q 1497 1759 1228 1600 
Q 959 1441 959 1056 
Q 959 750 1161 570 
Q 1363 391 1709 391 
Q 2188 391 2477 730 
Q 2766 1069 2766 1631 
L 2766 1759 
L 2194 1759 
z
M 3341 1997 
L 3341 0 
L 2766 0 
L 2766 531 
Q 2569 213 2275 61 
Q 1981 -91 1556 -91 
Q 1019 -91 701 211 
Q 384 513 384 1019 
Q 384 1609 779 1909 
Q 1175 2209 1959 2209 
L 2766 2209 
L 2766 2266 
Q 2766 2663 2505 2880 
Q 2244 3097 1772 3097 
Q 1472 3097 1187 3025 
Q 903 2953 641 2809 
L 641 3341 
Q 956 3463 1253 3523 
Q 1550 3584 1831 3584 
Q 2591 3584 2966 3190 
Q 3341 2797 3341 1997 
z
" transform="scale(0.015625)"/>
      <path id="DejaVuSans-74" d="M 1172 4494 
L 1172 3500 
L 2356 3500 
L 2356 3053 
L 1172 3053 
L 1172 1153 
Q 1172 725 1289 603 
Q 1406 481 1766 481 
L 2356 481 
L 2356 0 
L 1766 0 
Q 1100 0 847 248 
Q 594 497 594 1153 
L 594 3053 
L 172 3053 
L 172 3500 
L 594 3500 
L 594 4494 
L 1172 4494 
z
" transform="scale(0.015625)"/>
      <path id="DejaVuSans-20" transform="scale(0.015625)"/>
      <path id="DejaVuSans-50" d="M 1259 4147 
L 1259 2394 
L 2053 2394 
Q 2494 2394 2734 2622 
Q 2975 2850 2975 3272 
Q 2975 3691 2734 3919 
Q 2494 4147 2053 4147 
L 1259 4147 
z
M 628 4666 
L 2053 4666 
Q 2838 4666 3239 4311 
Q 3641 3956 3641 3272 
Q 3641 2581 3239 2228 
Q 2838 1875 2053 1875 
L 1259 1875 
L 1259 0 
L 628 0 
L 628 4666 
z
" transform="scale(0.015625)"/>
      <path id="DejaVuSans-72" d="M 2631 2963 
Q 2534 3019 2420 3045 
Q 2306 3072 2169 3072 
Q 1681 3072 1420 2755 
Q 1159 2438 1159 1844 
L 1159 0 
L 581 0 
L 581 3500 
L 1159 3500 
L 1159 2956 
Q 1341 3275 1631 3429 
Q 1922 3584 2338 3584 
Q 2397 3584 2469 3576 
Q 2541 3569 2628 3553 
L 2631 2963 
z
" transform="scale(0.015625)"/>
      <path id="DejaVuSans-65" d="M 3597 1894 
L 3597 1613 
L 953 1613 
Q 991 1019 1311 708 
Q 1631 397 2203 397 
Q 2534 397 2845 478 
Q 3156 559 3463 722 
L 3463 178 
Q 3153 47 2828 -22 
Q 2503 -91 2169 -91 
Q 1331 -91 842 396 
Q 353 884 353 1716 
Q 353 2575 817 3079 
Q 1281 3584 2069 3584 
Q 2775 3584 3186 3129 
Q 3597 2675 3597 1894 
z
M 3022 2063 
Q 3016 2534 2758 2815 
Q 2500 3097 2075 3097 
Q 1594 3097 1305 2825 
Q 1016 2553 972 2059 
L 3022 2063 
z
" transform="scale(0.015625)"/>
      <path id="DejaVuSans-70" d="M 1159 525 
L 1159 -1331 
L 581 -1331 
L 581 3500 
L 1159 3500 
L 1159 2969 
Q 1341 3281 1617 3432 
Q 1894 3584 2278 3584 
Q 2916 3584 3314 3078 
Q 3713 2572 3713 1747 
Q 3713 922 3314 415 
Q 2916 -91 2278 -91 
Q 1894 -91 1617 61 
Q 1341 213 1159 525 
z
M 3116 1747 
Q 3116 2381 2855 2742 
Q 2594 3103 2138 3103 
Q 1681 3103 1420 2742 
Q 1159 2381 1159 1747 
Q 1159 1113 1420 752 
Q 1681 391 2138 391 
Q 2594 391 2855 752 
Q 3116 1113 3116 1747 
z
" transform="scale(0.015625)"/>
      <path id="DejaVuSans-6f" d="M 1959 3097 
Q 1497 3097 1228 2736 
Q 959 2375 959 1747 
Q 959 1119 1226 758 
Q 1494 397 1959 397 
Q 2419 397 2687 759 
Q 2956 1122 2956 1747 
Q 2956 2369 2687 2733 
Q 2419 3097 1959 3097 
z
M 1959 3584 
Q 2709 3584 3137 3096 
Q 3566 2609 3566 1747 
Q 3566 888 3137 398 
Q 2709 -91 1959 -91 
Q 1206 -91 779 398 
Q 353 888 353 1747 
Q 353 2609 779 3096 
Q 1206 3584 1959 3584 
z
" transform="scale(0.015625)"/>
      <path id="DejaVuSans-63" d="M 3122 3366 
L 3122 2828 
Q 2878 2963 2633 3030 
Q 2388 3097 2138 3097 
Q 1578 3097 1268 2742 
Q 959 2388 959 1747 
Q 959 1106 1268 751 
Q 1578 397 2138 397 
Q 2388 397 2633 464 
Q 2878 531 3122 666 
L 3122 134 
Q 2881 22 2623 -34 
Q 2366 -91 2075 -91 
Q 1284 -91 818 406 
Q 353 903 353 1747 
Q 353 2603 823 3093 
Q 1294 3584 2113 3584 
Q 2378 3584 2631 3529 
Q 2884 3475 3122 3366 
z
" transform="scale(0.015625)"/>
      <path id="DejaVuSans-73" d="M 2834 3397 
L 2834 2853 
Q 2591 2978 2328 3040 
Q 2066 3103 1784 3103 
Q 1356 3103 1142 2972 
Q 928 2841 928 2578 
Q 928 2378 1081 2264 
Q 1234 2150 1697 2047 
L 1894 2003 
Q 2506 1872 2764 1633 
Q 3022 1394 3022 966 
Q 3022 478 2636 193 
Q 2250 -91 1575 -91 
Q 1294 -91 989 -36 
Q 684 19 347 128 
L 347 722 
Q 666 556 975 473 
Q 1284 391 1588 391 
Q 1994 391 2212 530 
Q 2431 669 2431 922 
Q 2431 1156 2273 1281 
Q 2116 1406 1581 1522 
L 1381 1569 
Q 847 1681 609 1914 
Q 372 2147 372 2553 
Q 372 3047 722 3315 
Q 1072 3584 1716 3584 
Q 2034 3584 2315 3537 
Q 2597 3491 2834 3397 
z
" transform="scale(0.015625)"/>
      <path id="DejaVuSans-69" d="M 603 3500 
L 1178 3500 
L 1178 0 
L 603 0 
L 603 3500 
z
M 603 4863 
L 1178 4863 
L 1178 4134 
L 603 4134 
L 603 4863 
z
" transform="scale(0.015625)"/>
      <path id="DejaVuSans-6e" d="M 3513 2113 
L 3513 0 
L 2938 0 
L 2938 2094 
Q 2938 2591 2744 2837 
Q 2550 3084 2163 3084 
Q 1697 3084 1428 2787 
Q 1159 2491 1159 1978 
L 1159 0 
L 581 0 
L 581 3500 
L 1159 3500 
L 1159 2956 
Q 1366 3272 1645 3428 
Q 1925 3584 2291 3584 
Q 2894 3584 3203 3211 
Q 3513 2838 3513 2113 
z
" transform="scale(0.015625)"/>
      <path id="DejaVuSans-67" d="M 2906 1791 
Q 2906 2416 2648 2759 
Q 2391 3103 1925 3103 
Q 1463 3103 1205 2759 
Q 947 2416 947 1791 
Q 947 1169 1205 825 
Q 1463 481 1925 481 
Q 2391 481 2648 825 
Q 2906 1169 2906 1791 
z
M 3481 434 
Q 3481 -459 3084 -895 
Q 2688 -1331 1869 -1331 
Q 1566 -1331 1297 -1286 
Q 1028 -1241 775 -1147 
L 775 -588 
Q 1028 -725 1275 -790 
Q 1522 -856 1778 -856 
Q 2344 -856 2625 -561 
Q 2906 -266 2906 331 
L 2906 616 
Q 2728 306 2450 153 
Q 2172 0 1784 0 
Q 1141 0 747 490 
Q 353 981 353 1791 
Q 353 2603 747 3093 
Q 1141 3584 1784 3584 
Q 2172 3584 2450 3431 
Q 2728 3278 2906 2969 
L 2906 3500 
L 3481 3500 
L 3481 434 
z
" transform="scale(0.015625)"/>
      <path id="DejaVuSans-3a" d="M 750 794 
L 1409 794 
L 1409 0 
L 750 0 
L 750 794 
z
M 750 3309 
L 1409 3309 
L 1409 2516 
L 750 2516 
L 750 3309 
z
" transform="scale(0.015625)"/>
      <path id="DejaVuSans-53" d="M 3425 4513 
L 3425 3897 
Q 3066 4069 2747 4153 
Q 2428 4238 2131 4238 
Q 1616 4238 1336 4038 
Q 1056 3838 1056 3469 
Q 1056 3159 1242 3001 
Q 1428 2844 1947 2747 
L 2328 2669 
Q 3034 2534 3370 2195 
Q 3706 1856 3706 1288 
Q 3706 609 3251 259 
Q 2797 -91 1919 -91 
Q 1588 -91 1214 -16 
Q 841 59 441 206 
L 441 856 
Q 825 641 1194 531 
Q 1563 422 1919 422 
Q 2459 422 2753 634 
Q 3047 847 3047 1241 
Q 3047 1584 2836 1778 
Q 2625 1972 2144 2069 
L 1759 2144 
Q 1053 2284 737 2584 
Q 422 2884 422 3419 
Q 422 4038 858 4394 
Q 1294 4750 2059 4750 
Q 2388 4750 2728 4690 
Q 3069 4631 3425 4513 
z
" transform="scale(0.015625)"/>
     </defs>
     <use xlink:href="#DejaVuSans-44"/>
     <use xlink:href="#DejaVuSans-61" x="77.001953"/>
     <use xlink:href="#DejaVuSans-74" x="138.28125"/>
     <use xlink:href="#DejaVuSans-61" x="177.490234"/>
     <use xlink:href="#DejaVuSans-20" x="238.769531"/>
     <use xlink:href="#DejaVuSans-50" x="270.556641"/>
     <use xlink:href="#DejaVuSans-72" x="329.109375"/>
     <use xlink:href="#DejaVuSans-65" x="367.972656"/>
     <use xlink:href="#DejaVuSans-70" x="429.496094"/>
     <use xlink:href="#DejaVuSans-72" x="492.972656"/>
     <use xlink:href="#DejaVuSans-6f" x="531.835938"/>
     <use xlink:href="#DejaVuSans-63" x="593.017578"/>
     <use xlink:href="#DejaVuSans-65" x="647.998047"/>
     <use xlink:href="#DejaVuSans-73" x="709.521484"/>
     <use xlink:href="#DejaVuSans-73" x="761.621094"/>
     <use xlink:href="#DejaVuSans-69" x="813.720703"/>
     <use xlink:href="#DejaVuSans-6e" x="841.503906"/>
     <use xlink:href="#DejaVuSans-67" x="904.882812"/>
     <use xlink:href="#DejaVuSans-3a" x="968.359375"/>
     <use xlink:href="#DejaVuSans-20" x="1002.050781"/>
     <use xlink:href="#DejaVuSans-53" x="1033.837891"/>
     <use xlink:href="#DejaVuSans-74" x="1097.314453"/>
     <use xlink:href="#DejaVuSans-61" x="1136.523438"/>
     <use xlink:href="#DejaVuSans-72" x="1197.802734"/>
     <use xlink:href="#DejaVuSans-74" x="1238.916016"/>
    </g>
   </g>
   <g id="text_2">
    <!-- Retrieve and read data from sources -->
    <g transform="translate(57.923047 177.670481) scale(0.095 -0.095)">
     <defs>
      <path id="DejaVuSans-52" d="M 2841 2188 
Q 3044 2119 3236 1894 
Q 3428 1669 3622 1275 
L 4263 0 
L 3584 0 
L 2988 1197 
Q 2756 1666 2539 1819 
Q 2322 1972 1947 1972 
L 1259 1972 
L 1259 0 
L 628 0 
L 628 4666 
L 2053 4666 
Q 2853 4666 3247 4331 
Q 3641 3997 3641 3322 
Q 3641 2881 3436 2590 
Q 3231 2300 2841 2188 
z
M 1259 4147 
L 1259 2491 
L 2053 2491 
Q 2509 2491 2742 2702 
Q 2975 2913 2975 3322 
Q 2975 3731 2742 3939 
Q 2509 4147 2053 4147 
L 1259 4147 
z
" transform="scale(0.015625)"/>
      <path id="DejaVuSans-76" d="M 191 3500 
L 800 3500 
L 1894 563 
L 2988 3500 
L 3597 3500 
L 2284 0 
L 1503 0 
L 191 3500 
z
" transform="scale(0.015625)"/>
      <path id="DejaVuSans-64" d="M 2906 2969 
L 2906 4863 
L 3481 4863 
L 3481 0 
L 2906 0 
L 2906 525 
Q 2725 213 2448 61 
Q 2172 -91 1784 -91 
Q 1150 -91 751 415 
Q 353 922 353 1747 
Q 353 2572 751 3078 
Q 1150 3584 1784 3584 
Q 2172 3584 2448 3432 
Q 2725 3281 2906 2969 
z
M 947 1747 
Q 947 1113 1208 752 
Q 1469 391 1925 391 
Q 2381 391 2643 752 
Q 2906 1113 2906 1747 
Q 2906 2381 2643 2742 
Q 2381 3103 1925 3103 
Q 1469 3103 1208 2742 
Q 947 2381 947 1747 
z
" transform="scale(0.015625)"/>
      <path id="DejaVuSans-66" d="M 2375 4863 
L 2375 4384 
L 1825 4384 
Q 1516 4384 1395 4259 
Q 1275 4134 1275 3809 
L 1275 3500 
L 2222 3500 
L 2222 3053 
L 1275 3053 
L 1275 0 
L 697 0 
L 697 3053 
L 147 3053 
L 147 3500 
L 697 3500 
L 697 3744 
Q 697 4328 969 4595 
Q 1241 4863 1831 4863 
L 2375 4863 
z
" transform="scale(0.015625)"/>
      <path id="DejaVuSans-6d" d="M 3328 2828 
Q 3544 3216 3844 3400 
Q 4144 3584 4550 3584 
Q 5097 3584 5394 3201 
Q 5691 2819 5691 2113 
L 5691 0 
L 5113 0 
L 5113 2094 
Q 5113 2597 4934 2840 
Q 4756 3084 4391 3084 
Q 3944 3084 3684 2787 
Q 3425 2491 3425 1978 
L 3425 0 
L 2847 0 
L 2847 2094 
Q 2847 2600 2669 2842 
Q 2491 3084 2119 3084 
Q 1678 3084 1418 2786 
Q 1159 2488 1159 1978 
L 1159 0 
L 581 0 
L 581 3500 
L 1159 3500 
L 1159 2956 
Q 1356 3278 1631 3431 
Q 1906 3584 2284 3584 
Q 2666 3584 2933 3390 
Q 3200 3197 3328 2828 
z
" transform="scale(0.015625)"/>
      <path id="DejaVuSans-75" d="M 544 1381 
L 544 3500 
L 1119 3500 
L 1119 1403 
Q 1119 906 1312 657 
Q 1506 409 1894 409 
Q 2359 409 2629 706 
Q 2900 1003 2900 1516 
L 2900 3500 
L 3475 3500 
L 3475 0 
L 2900 0 
L 2900 538 
Q 2691 219 2414 64 
Q 2138 -91 1772 -91 
Q 1169 -91 856 284 
Q 544 659 544 1381 
z
M 1991 3584 
L 1991 3584 
z
" transform="scale(0.015625)"/>
     </defs>
     <use xlink:href="#DejaVuSans-52"/>
     <use xlink:href="#DejaVuSans-65" x="64.982422"/>
     <use xlink:href="#DejaVuSans-74" x="126.505859"/>
     <use xlink:href="#DejaVuSans-72" x="165.714844"/>
     <use xlink:href="#DejaVuSans-69" x="206.828125"/>
     <use xlink:href="#DejaVuSans-65" x="234.611328"/>
     <use xlink:href="#DejaVuSans-76" x="296.134766"/>
     <use xlink:href="#DejaVuSans-65" x="355.314453"/>
     <use xlink:href="#DejaVuSans-20" x="416.837891"/>
     <use xlink:href="#DejaVuSans-61" x="448.625"/>
     <use xlink:href="#DejaVuSans-6e" x="509.904297"/>
     <use xlink:href="#DejaVuSans-64" x="573.283203"/>
     <use xlink:href="#DejaVuSans-20" x="636.759766"/>
     <use xlink:href="#DejaVuSans-72" x="668.546875"/>
     <use xlink:href="#DejaVuSans-65" x="707.410156"/>
     <use xlink:href="#DejaVuSans-61" x="768.933594"/>
     <use xlink:href="#DejaVuSans-64" x="830.212891"/>
     <use xlink:href="#DejaVuSans-20" x="893.689453"/>
     <use xlink:href="#DejaVuSans-64" x="925.476562"/>
     <use xlink:href="#DejaVuSans-61" x="988.953125"/>
     <use xlink:href="#DejaVuSans-74" x="1050.232422"/>
     <use xlink:href="#DejaVuSans-61" x="1089.441406"/>
     <use xlink:href="#DejaVuSans-20" x="1150.720703"/>
     <use xlink:href="#DejaVuSans-66" x="1182.507812"/>
     <use xlink:href="#DejaVuSans-72" x="1217.712891"/>
     <use xlink:href="#DejaVuSans-6f" x="1256.576172"/>
     <use xlink:href="#DejaVuSans-6d" x="1317.757812"/>
     <use xlink:href="#DejaVuSans-20" x="1415.169922"/>
     <use xlink:href="#DejaVuSans-73" x="1446.957031"/>
     <use xlink:href="#DejaVuSans-6f" x="1499.056641"/>
     <use xlink:href="#DejaVuSans-75" x="1560.238281"/>
     <use xlink:href="#DejaVuSans-72" x="1623.617188"/>
     <use xlink:href="#DejaVuSans-63" x="1662.480469"/>
     <use xlink:href="#DejaVuSans-65" x="1717.460938"/>
     <use xlink:href="#DejaVuSans-73" x="1778.984375"/>
    </g>
   </g>
   <g id="text_3">
    <!-- Combine related food categories into one  -->
    <g transform="translate(46.146641 293.876403) scale(0.085 -0.085)">
     <defs>
      <path id="DejaVuSans-43" d="M 4122 4306 
L 4122 3641 
Q 3803 3938 3442 4084 
Q 3081 4231 2675 4231 
Q 1875 4231 1450 3742 
Q 1025 3253 1025 2328 
Q 1025 1406 1450 917 
Q 1875 428 2675 428 
Q 3081 428 3442 575 
Q 3803 722 4122 1019 
L 4122 359 
Q 3791 134 3420 21 
Q 3050 -91 2638 -91 
Q 1578 -91 968 557 
Q 359 1206 359 2328 
Q 359 3453 968 4101 
Q 1578 4750 2638 4750 
Q 3056 4750 3426 4639 
Q 3797 4528 4122 4306 
z
" transform="scale(0.015625)"/>
      <path id="DejaVuSans-62" d="M 3116 1747 
Q 3116 2381 2855 2742 
Q 2594 3103 2138 3103 
Q 1681 3103 1420 2742 
Q 1159 2381 1159 1747 
Q 1159 1113 1420 752 
Q 1681 391 2138 391 
Q 2594 391 2855 752 
Q 3116 1113 3116 1747 
z
M 1159 2969 
Q 1341 3281 1617 3432 
Q 1894 3584 2278 3584 
Q 2916 3584 3314 3078 
Q 3713 2572 3713 1747 
Q 3713 922 3314 415 
Q 2916 -91 2278 -91 
Q 1894 -91 1617 61 
Q 1341 213 1159 525 
L 1159 0 
L 581 0 
L 581 4863 
L 1159 4863 
L 1159 2969 
z
" transform="scale(0.015625)"/>
      <path id="DejaVuSans-6c" d="M 603 4863 
L 1178 4863 
L 1178 0 
L 603 0 
L 603 4863 
z
" transform="scale(0.015625)"/>
     </defs>
     <use xlink:href="#DejaVuSans-43"/>
     <use xlink:href="#DejaVuSans-6f" x="69.824219"/>
     <use xlink:href="#DejaVuSans-6d" x="131.005859"/>
     <use xlink:href="#DejaVuSans-62" x="228.417969"/>
     <use xlink:href="#DejaVuSans-69" x="291.894531"/>
     <use xlink:href="#DejaVuSans-6e" x="319.677734"/>
     <use xlink:href="#DejaVuSans-65" x="383.056641"/>
     <use xlink:href="#DejaVuSans-20" x="444.580078"/>
     <use xlink:href="#DejaVuSans-72" x="476.367188"/>
     <use xlink:href="#DejaVuSans-65" x="515.230469"/>
     <use xlink:href="#DejaVuSans-6c" x="576.753906"/>
     <use xlink:href="#DejaVuSans-61" x="604.537109"/>
     <use xlink:href="#DejaVuSans-74" x="665.816406"/>
     <use xlink:href="#DejaVuSans-65" x="705.025391"/>
     <use xlink:href="#DejaVuSans-64" x="766.548828"/>
     <use xlink:href="#DejaVuSans-20" x="830.025391"/>
     <use xlink:href="#DejaVuSans-66" x="861.8125"/>
     <use xlink:href="#DejaVuSans-6f" x="897.017578"/>
     <use xlink:href="#DejaVuSans-6f" x="958.199219"/>
     <use xlink:href="#DejaVuSans-64" x="1019.380859"/>
     <use xlink:href="#DejaVuSans-20" x="1082.857422"/>
     <use xlink:href="#DejaVuSans-63" x="1114.644531"/>
     <use xlink:href="#DejaVuSans-61" x="1169.625"/>
     <use xlink:href="#DejaVuSans-74" x="1230.904297"/>
     <use xlink:href="#DejaVuSans-65" x="1270.113281"/>
     <use xlink:href="#DejaVuSans-67" x="1331.636719"/>
     <use xlink:href="#DejaVuSans-6f" x="1395.113281"/>
     <use xlink:href="#DejaVuSans-72" x="1456.294922"/>
     <use xlink:href="#DejaVuSans-69" x="1497.408203"/>
     <use xlink:href="#DejaVuSans-65" x="1525.191406"/>
     <use xlink:href="#DejaVuSans-73" x="1586.714844"/>
     <use xlink:href="#DejaVuSans-20" x="1638.814453"/>
     <use xlink:href="#DejaVuSans-69" x="1670.601562"/>
     <use xlink:href="#DejaVuSans-6e" x="1698.384766"/>
     <use xlink:href="#DejaVuSans-74" x="1761.763672"/>
     <use xlink:href="#DejaVuSans-6f" x="1800.972656"/>
     <use xlink:href="#DejaVuSans-20" x="1862.154297"/>
     <use xlink:href="#DejaVuSans-6f" x="1893.941406"/>
     <use xlink:href="#DejaVuSans-6e" x="1955.123047"/>
     <use xlink:href="#DejaVuSans-65" x="2018.501953"/>
     <use xlink:href="#DejaVuSans-20" x="2080.025391"/>
    </g>
    <!--              (e.g., Combine milk and oat milk  -->
    <g transform="translate(47.526563 303.394544) scale(0.085 -0.085)">
     <defs>
      <path id="DejaVuSans-28" d="M 1984 4856 
Q 1566 4138 1362 3434 
Q 1159 2731 1159 2009 
Q 1159 1288 1364 580 
Q 1569 -128 1984 -844 
L 1484 -844 
Q 1016 -109 783 600 
Q 550 1309 550 2009 
Q 550 2706 781 3412 
Q 1013 4119 1484 4856 
L 1984 4856 
z
" transform="scale(0.015625)"/>
      <path id="DejaVuSans-2e" d="M 684 794 
L 1344 794 
L 1344 0 
L 684 0 
L 684 794 
z
" transform="scale(0.015625)"/>
      <path id="DejaVuSans-2c" d="M 750 794 
L 1409 794 
L 1409 256 
L 897 -744 
L 494 -744 
L 750 256 
L 750 794 
z
" transform="scale(0.015625)"/>
      <path id="DejaVuSans-6b" d="M 581 4863 
L 1159 4863 
L 1159 1991 
L 2875 3500 
L 3609 3500 
L 1753 1863 
L 3688 0 
L 2938 0 
L 1159 1709 
L 1159 0 
L 581 0 
L 581 4863 
z
" transform="scale(0.015625)"/>
     </defs>
     <use xlink:href="#DejaVuSans-20"/>
     <use xlink:href="#DejaVuSans-20" x="31.787109"/>
     <use xlink:href="#DejaVuSans-20" x="63.574219"/>
     <use xlink:href="#DejaVuSans-20" x="95.361328"/>
     <use xlink:href="#DejaVuSans-20" x="127.148438"/>
     <use xlink:href="#DejaVuSans-20" x="158.935547"/>
     <use xlink:href="#DejaVuSans-20" x="190.722656"/>
     <use xlink:href="#DejaVuSans-20" x="222.509766"/>
     <use xlink:href="#DejaVuSans-20" x="254.296875"/>
     <use xlink:href="#DejaVuSans-20" x="286.083984"/>
     <use xlink:href="#DejaVuSans-20" x="317.871094"/>
     <use xlink:href="#DejaVuSans-20" x="349.658203"/>
     <use xlink:href="#DejaVuSans-20" x="381.445312"/>
     <use xlink:href="#DejaVuSans-28" x="413.232422"/>
     <use xlink:href="#DejaVuSans-65" x="452.246094"/>
     <use xlink:href="#DejaVuSans-2e" x="513.769531"/>
     <use xlink:href="#DejaVuSans-67" x="545.556641"/>
     <use xlink:href="#DejaVuSans-2e" x="609.033203"/>
     <use xlink:href="#DejaVuSans-2c" x="640.820312"/>
     <use xlink:href="#DejaVuSans-20" x="672.607422"/>
     <use xlink:href="#DejaVuSans-43" x="704.394531"/>
     <use xlink:href="#DejaVuSans-6f" x="774.21875"/>
     <use xlink:href="#DejaVuSans-6d" x="835.400391"/>
     <use xlink:href="#DejaVuSans-62" x="932.8125"/>
     <use xlink:href="#DejaVuSans-69" x="996.289062"/>
     <use xlink:href="#DejaVuSans-6e" x="1024.072266"/>
     <use xlink:href="#DejaVuSans-65" x="1087.451172"/>
     <use xlink:href="#DejaVuSans-20" x="1148.974609"/>
     <use xlink:href="#DejaVuSans-6d" x="1180.761719"/>
     <use xlink:href="#DejaVuSans-69" x="1278.173828"/>
     <use xlink:href="#DejaVuSans-6c" x="1305.957031"/>
     <use xlink:href="#DejaVuSans-6b" x="1333.740234"/>
     <use xlink:href="#DejaVuSans-20" x="1391.650391"/>
     <use xlink:href="#DejaVuSans-61" x="1423.4375"/>
     <use xlink:href="#DejaVuSans-6e" x="1484.716797"/>
     <use xlink:href="#DejaVuSans-64" x="1548.095703"/>
     <use xlink:href="#DejaVuSans-20" x="1611.572266"/>
     <use xlink:href="#DejaVuSans-6f" x="1643.359375"/>
     <use xlink:href="#DejaVuSans-61" x="1704.541016"/>
     <use xlink:href="#DejaVuSans-74" x="1765.820312"/>
     <use xlink:href="#DejaVuSans-20" x="1805.029297"/>
     <use xlink:href="#DejaVuSans-6d" x="1836.816406"/>
     <use xlink:href="#DejaVuSans-69" x="1934.228516"/>
     <use xlink:href="#DejaVuSans-6c" x="1962.011719"/>
     <use xlink:href="#DejaVuSans-6b" x="1989.794922"/>
     <use xlink:href="#DejaVuSans-20" x="2047.705078"/>
    </g>
    <!--  into one category) -->
    <g transform="translate(95.356328 312.912685) scale(0.085 -0.085)">
     <defs>
      <path id="DejaVuSans-79" d="M 2059 -325 
Q 1816 -950 1584 -1140 
Q 1353 -1331 966 -1331 
L 506 -1331 
L 506 -850 
L 844 -850 
Q 1081 -850 1212 -737 
Q 1344 -625 1503 -206 
L 1606 56 
L 191 3500 
L 800 3500 
L 1894 763 
L 2988 3500 
L 3597 3500 
L 2059 -325 
z
" transform="scale(0.015625)"/>
      <path id="DejaVuSans-29" d="M 513 4856 
L 1013 4856 
Q 1481 4119 1714 3412 
Q 1947 2706 1947 2009 
Q 1947 1309 1714 600 
Q 1481 -109 1013 -844 
L 513 -844 
Q 928 -128 1133 580 
Q 1338 1288 1338 2009 
Q 1338 2731 1133 3434 
Q 928 4138 513 4856 
z
" transform="scale(0.015625)"/>
     </defs>
     <use xlink:href="#DejaVuSans-20"/>
     <use xlink:href="#DejaVuSans-69" x="31.787109"/>
     <use xlink:href="#DejaVuSans-6e" x="59.570312"/>
     <use xlink:href="#DejaVuSans-74" x="122.949219"/>
     <use xlink:href="#DejaVuSans-6f" x="162.158203"/>
     <use xlink:href="#DejaVuSans-20" x="223.339844"/>
     <use xlink:href="#DejaVuSans-6f" x="255.126953"/>
     <use xlink:href="#DejaVuSans-6e" x="316.308594"/>
     <use xlink:href="#DejaVuSans-65" x="379.6875"/>
     <use xlink:href="#DejaVuSans-20" x="441.210938"/>
     <use xlink:href="#DejaVuSans-63" x="472.998047"/>
     <use xlink:href="#DejaVuSans-61" x="527.978516"/>
     <use xlink:href="#DejaVuSans-74" x="589.257812"/>
     <use xlink:href="#DejaVuSans-65" x="628.466797"/>
     <use xlink:href="#DejaVuSans-67" x="689.990234"/>
     <use xlink:href="#DejaVuSans-6f" x="753.466797"/>
     <use xlink:href="#DejaVuSans-72" x="814.648438"/>
     <use xlink:href="#DejaVuSans-79" x="855.761719"/>
     <use xlink:href="#DejaVuSans-29" x="914.941406"/>
    </g>
   </g>
   <g id="text_4">
    <!-- YES -->
    <g transform="translate(140.58 531.227122) scale(0.125 -0.125)">
     <defs>
      <path id="DejaVuSans-59" d="M -13 4666 
L 666 4666 
L 1959 2747 
L 3244 4666 
L 3922 4666 
L 2272 2222 
L 2272 0 
L 1638 0 
L 1638 2222 
L -13 4666 
z
" transform="scale(0.015625)"/>
      <path id="DejaVuSans-45" d="M 628 4666 
L 3578 4666 
L 3578 4134 
L 1259 4134 
L 1259 2753 
L 3481 2753 
L 3481 2222 
L 1259 2222 
L 1259 531 
L 3634 531 
L 3634 0 
L 628 0 
L 628 4666 
z
" transform="scale(0.015625)"/>
     </defs>
     <use xlink:href="#DejaVuSans-59"/>
     <use xlink:href="#DejaVuSans-45" x="61.083984"/>
     <use xlink:href="#DejaVuSans-53" x="124.267578"/>
    </g>
   </g>
   <g id="text_5">
    <!-- NO -->
    <g transform="translate(230.58 446.769466) scale(0.125 -0.125)">
     <defs>
      <path id="DejaVuSans-4e" d="M 628 4666 
L 1478 4666 
L 3547 763 
L 3547 4666 
L 4159 4666 
L 4159 0 
L 3309 0 
L 1241 3903 
L 1241 0 
L 628 0 
L 628 4666 
z
" transform="scale(0.015625)"/>
      <path id="DejaVuSans-4f" d="M 2522 4238 
Q 1834 4238 1429 3725 
Q 1025 3213 1025 2328 
Q 1025 1447 1429 934 
Q 1834 422 2522 422 
Q 3209 422 3611 934 
Q 4013 1447 4013 2328 
Q 4013 3213 3611 3725 
Q 3209 4238 2522 4238 
z
M 2522 4750 
Q 3503 4750 4090 4092 
Q 4678 3434 4678 2328 
Q 4678 1225 4090 567 
Q 3503 -91 2522 -91 
Q 1538 -91 948 565 
Q 359 1222 359 2328 
Q 359 3434 948 4092 
Q 1538 4750 2522 4750 
z
" transform="scale(0.015625)"/>
     </defs>
     <use xlink:href="#DejaVuSans-4e"/>
     <use xlink:href="#DejaVuSans-4f" x="74.804688"/>
    </g>
   </g>
   <g id="text_6">
    <!-- Does the food have  -->
    <g transform="translate(87.949492 451.351521) scale(0.095 -0.095)">
     <defs>
      <path id="DejaVuSans-68" d="M 3513 2113 
L 3513 0 
L 2938 0 
L 2938 2094 
Q 2938 2591 2744 2837 
Q 2550 3084 2163 3084 
Q 1697 3084 1428 2787 
Q 1159 2491 1159 1978 
L 1159 0 
L 581 0 
L 581 4863 
L 1159 4863 
L 1159 2956 
Q 1366 3272 1645 3428 
Q 1925 3584 2291 3584 
Q 2894 3584 3203 3211 
Q 3513 2838 3513 2113 
z
" transform="scale(0.015625)"/>
     </defs>
     <use xlink:href="#DejaVuSans-44"/>
     <use xlink:href="#DejaVuSans-6f" x="77.001953"/>
     <use xlink:href="#DejaVuSans-65" x="138.183594"/>
     <use xlink:href="#DejaVuSans-73" x="199.707031"/>
     <use xlink:href="#DejaVuSans-20" x="251.806641"/>
     <use xlink:href="#DejaVuSans-74" x="283.59375"/>
     <use xlink:href="#DejaVuSans-68" x="322.802734"/>
     <use xlink:href="#DejaVuSans-65" x="386.181641"/>
     <use xlink:href="#DejaVuSans-20" x="447.705078"/>
     <use xlink:href="#DejaVuSans-66" x="479.492188"/>
     <use xlink:href="#DejaVuSans-6f" x="514.697266"/>
     <use xlink:href="#DejaVuSans-6f" x="575.878906"/>
     <use xlink:href="#DejaVuSans-64" x="637.060547"/>
     <use xlink:href="#DejaVuSans-20" x="700.537109"/>
     <use xlink:href="#DejaVuSans-68" x="732.324219"/>
     <use xlink:href="#DejaVuSans-61" x="795.703125"/>
     <use xlink:href="#DejaVuSans-76" x="856.982422"/>
     <use xlink:href="#DejaVuSans-65" x="916.162109"/>
     <use xlink:href="#DejaVuSans-20" x="977.685547"/>
    </g>
    <!--  standard unit? (e.g., kg, g, ml) -->
    <g transform="translate(62.128789 461.989442) scale(0.095 -0.095)">
     <defs>
      <path id="DejaVuSans-3f" d="M 1222 794 
L 1856 794 
L 1856 0 
L 1222 0 
L 1222 794 
z
M 1838 1253 
L 1241 1253 
L 1241 1734 
Q 1241 2050 1328 2253 
Q 1416 2456 1697 2725 
L 1978 3003 
Q 2156 3169 2236 3316 
Q 2316 3463 2316 3616 
Q 2316 3894 2111 4066 
Q 1906 4238 1569 4238 
Q 1322 4238 1042 4128 
Q 763 4019 459 3809 
L 459 4397 
Q 753 4575 1054 4662 
Q 1356 4750 1678 4750 
Q 2253 4750 2601 4447 
Q 2950 4144 2950 3647 
Q 2950 3409 2837 3195 
Q 2725 2981 2444 2713 
L 2169 2444 
Q 2022 2297 1961 2214 
Q 1900 2131 1875 2053 
Q 1856 1988 1847 1894 
Q 1838 1800 1838 1638 
L 1838 1253 
z
" transform="scale(0.015625)"/>
     </defs>
     <use xlink:href="#DejaVuSans-20"/>
     <use xlink:href="#DejaVuSans-73" x="31.787109"/>
     <use xlink:href="#DejaVuSans-74" x="83.886719"/>
     <use xlink:href="#DejaVuSans-61" x="123.095703"/>
     <use xlink:href="#DejaVuSans-6e" x="184.375"/>
     <use xlink:href="#DejaVuSans-64" x="247.753906"/>
     <use xlink:href="#DejaVuSans-61" x="311.230469"/>
     <use xlink:href="#DejaVuSans-72" x="372.509766"/>
     <use xlink:href="#DejaVuSans-64" x="411.873047"/>
     <use xlink:href="#DejaVuSans-20" x="475.349609"/>
     <use xlink:href="#DejaVuSans-75" x="507.136719"/>
     <use xlink:href="#DejaVuSans-6e" x="570.515625"/>
     <use xlink:href="#DejaVuSans-69" x="633.894531"/>
     <use xlink:href="#DejaVuSans-74" x="661.677734"/>
     <use xlink:href="#DejaVuSans-3f" x="700.886719"/>
     <use xlink:href="#DejaVuSans-20" x="753.962891"/>
     <use xlink:href="#DejaVuSans-28" x="785.75"/>
     <use xlink:href="#DejaVuSans-65" x="824.763672"/>
     <use xlink:href="#DejaVuSans-2e" x="886.287109"/>
     <use xlink:href="#DejaVuSans-67" x="918.074219"/>
     <use xlink:href="#DejaVuSans-2e" x="981.550781"/>
     <use xlink:href="#DejaVuSans-2c" x="1013.337891"/>
     <use xlink:href="#DejaVuSans-20" x="1045.125"/>
     <use xlink:href="#DejaVuSans-6b" x="1076.912109"/>
     <use xlink:href="#DejaVuSans-67" x="1134.822266"/>
     <use xlink:href="#DejaVuSans-2c" x="1198.298828"/>
     <use xlink:href="#DejaVuSans-20" x="1230.085938"/>
     <use xlink:href="#DejaVuSans-67" x="1261.873047"/>
     <use xlink:href="#DejaVuSans-2c" x="1325.349609"/>
     <use xlink:href="#DejaVuSans-20" x="1357.136719"/>
     <use xlink:href="#DejaVuSans-6d" x="1388.923828"/>
     <use xlink:href="#DejaVuSans-6c" x="1486.335938"/>
     <use xlink:href="#DejaVuSans-29" x="1514.119141"/>
    </g>
   </g>
   <g id="text_7">
    <!-- Map GHG emission factors and nutrition  -->
    <g transform="translate(49.423125 604.635474) scale(0.085 -0.085)">
     <defs>
      <path id="DejaVuSans-4d" d="M 628 4666 
L 1569 4666 
L 2759 1491 
L 3956 4666 
L 4897 4666 
L 4897 0 
L 4281 0 
L 4281 4097 
L 3078 897 
L 2444 897 
L 1241 4097 
L 1241 0 
L 628 0 
L 628 4666 
z
" transform="scale(0.015625)"/>
      <path id="DejaVuSans-47" d="M 3809 666 
L 3809 1919 
L 2778 1919 
L 2778 2438 
L 4434 2438 
L 4434 434 
Q 4069 175 3628 42 
Q 3188 -91 2688 -91 
Q 1594 -91 976 548 
Q 359 1188 359 2328 
Q 359 3472 976 4111 
Q 1594 4750 2688 4750 
Q 3144 4750 3555 4637 
Q 3966 4525 4313 4306 
L 4313 3634 
Q 3963 3931 3569 4081 
Q 3175 4231 2741 4231 
Q 1884 4231 1454 3753 
Q 1025 3275 1025 2328 
Q 1025 1384 1454 906 
Q 1884 428 2741 428 
Q 3075 428 3337 486 
Q 3600 544 3809 666 
z
" transform="scale(0.015625)"/>
      <path id="DejaVuSans-48" d="M 628 4666 
L 1259 4666 
L 1259 2753 
L 3553 2753 
L 3553 4666 
L 4184 4666 
L 4184 0 
L 3553 0 
L 3553 2222 
L 1259 2222 
L 1259 0 
L 628 0 
L 628 4666 
z
" transform="scale(0.015625)"/>
     </defs>
     <use xlink:href="#DejaVuSans-4d"/>
     <use xlink:href="#DejaVuSans-61" x="86.279297"/>
     <use xlink:href="#DejaVuSans-70" x="147.558594"/>
     <use xlink:href="#DejaVuSans-20" x="211.035156"/>
     <use xlink:href="#DejaVuSans-47" x="242.822266"/>
     <use xlink:href="#DejaVuSans-48" x="320.3125"/>
     <use xlink:href="#DejaVuSans-47" x="395.507812"/>
     <use xlink:href="#DejaVuSans-20" x="472.998047"/>
     <use xlink:href="#DejaVuSans-65" x="504.785156"/>
     <use xlink:href="#DejaVuSans-6d" x="566.308594"/>
     <use xlink:href="#DejaVuSans-69" x="663.720703"/>
     <use xlink:href="#DejaVuSans-73" x="691.503906"/>
     <use xlink:href="#DejaVuSans-73" x="743.603516"/>
     <use xlink:href="#DejaVuSans-69" x="795.703125"/>
     <use xlink:href="#DejaVuSans-6f" x="823.486328"/>
     <use xlink:href="#DejaVuSans-6e" x="884.667969"/>
     <use xlink:href="#DejaVuSans-20" x="948.046875"/>
     <use xlink:href="#DejaVuSans-66" x="979.833984"/>
     <use xlink:href="#DejaVuSans-61" x="1015.039062"/>
     <use xlink:href="#DejaVuSans-63" x="1076.318359"/>
     <use xlink:href="#DejaVuSans-74" x="1131.298828"/>
     <use xlink:href="#DejaVuSans-6f" x="1170.507812"/>
     <use xlink:href="#DejaVuSans-72" x="1231.689453"/>
     <use xlink:href="#DejaVuSans-73" x="1272.802734"/>
     <use xlink:href="#DejaVuSans-20" x="1324.902344"/>
     <use xlink:href="#DejaVuSans-61" x="1356.689453"/>
     <use xlink:href="#DejaVuSans-6e" x="1417.96875"/>
     <use xlink:href="#DejaVuSans-64" x="1481.347656"/>
     <use xlink:href="#DejaVuSans-20" x="1544.824219"/>
     <use xlink:href="#DejaVuSans-6e" x="1576.611328"/>
     <use xlink:href="#DejaVuSans-75" x="1639.990234"/>
     <use xlink:href="#DejaVuSans-74" x="1703.369141"/>
     <use xlink:href="#DejaVuSans-72" x="1742.578125"/>
     <use xlink:href="#DejaVuSans-69" x="1783.691406"/>
     <use xlink:href="#DejaVuSans-74" x="1811.474609"/>
     <use xlink:href="#DejaVuSans-69" x="1850.683594"/>
     <use xlink:href="#DejaVuSans-6f" x="1878.466797"/>
     <use xlink:href="#DejaVuSans-6e" x="1939.648438"/>
     <use xlink:href="#DejaVuSans-20" x="2003.027344"/>
    </g>
    <!--  information to             each food category -->
    <g transform="translate(45.714336 614.153614) scale(0.085 -0.085)">
     <use xlink:href="#DejaVuSans-20"/>
     <use xlink:href="#DejaVuSans-69" x="31.787109"/>
     <use xlink:href="#DejaVuSans-6e" x="59.570312"/>
     <use xlink:href="#DejaVuSans-66" x="122.949219"/>
     <use xlink:href="#DejaVuSans-6f" x="158.154297"/>
     <use xlink:href="#DejaVuSans-72" x="219.335938"/>
     <use xlink:href="#DejaVuSans-6d" x="258.699219"/>
     <use xlink:href="#DejaVuSans-61" x="356.111328"/>
     <use xlink:href="#DejaVuSans-74" x="417.390625"/>
     <use xlink:href="#DejaVuSans-69" x="456.599609"/>
     <use xlink:href="#DejaVuSans-6f" x="484.382812"/>
     <use xlink:href="#DejaVuSans-6e" x="545.564453"/>
     <use xlink:href="#DejaVuSans-20" x="608.943359"/>
     <use xlink:href="#DejaVuSans-74" x="640.730469"/>
     <use xlink:href="#DejaVuSans-6f" x="679.939453"/>
     <use xlink:href="#DejaVuSans-20" x="741.121094"/>
     <use xlink:href="#DejaVuSans-20" x="772.908203"/>
     <use xlink:href="#DejaVuSans-20" x="804.695312"/>
     <use xlink:href="#DejaVuSans-20" x="836.482422"/>
     <use xlink:href="#DejaVuSans-20" x="868.269531"/>
     <use xlink:href="#DejaVuSans-20" x="900.056641"/>
     <use xlink:href="#DejaVuSans-20" x="931.84375"/>
     <use xlink:href="#DejaVuSans-20" x="963.630859"/>
     <use xlink:href="#DejaVuSans-20" x="995.417969"/>
     <use xlink:href="#DejaVuSans-20" x="1027.205078"/>
     <use xlink:href="#DejaVuSans-20" x="1058.992188"/>
     <use xlink:href="#DejaVuSans-20" x="1090.779297"/>
     <use xlink:href="#DejaVuSans-20" x="1122.566406"/>
     <use xlink:href="#DejaVuSans-65" x="1154.353516"/>
     <use xlink:href="#DejaVuSans-61" x="1215.876953"/>
     <use xlink:href="#DejaVuSans-63" x="1277.15625"/>
     <use xlink:href="#DejaVuSans-68" x="1332.136719"/>
     <use xlink:href="#DejaVuSans-20" x="1395.515625"/>
     <use xlink:href="#DejaVuSans-66" x="1427.302734"/>
     <use xlink:href="#DejaVuSans-6f" x="1462.507812"/>
     <use xlink:href="#DejaVuSans-6f" x="1523.689453"/>
     <use xlink:href="#DejaVuSans-64" x="1584.871094"/>
     <use xlink:href="#DejaVuSans-20" x="1648.347656"/>
     <use xlink:href="#DejaVuSans-63" x="1680.134766"/>
     <use xlink:href="#DejaVuSans-61" x="1735.115234"/>
     <use xlink:href="#DejaVuSans-74" x="1796.394531"/>
     <use xlink:href="#DejaVuSans-65" x="1835.603516"/>
     <use xlink:href="#DejaVuSans-67" x="1897.126953"/>
     <use xlink:href="#DejaVuSans-6f" x="1960.603516"/>
     <use xlink:href="#DejaVuSans-72" x="2021.785156"/>
     <use xlink:href="#DejaVuSans-79" x="2062.898438"/>
    </g>
   </g>
   <g id="text_8">
    <!-- End -->
    <g transform="translate(124.02207 736.498294) scale(0.125 -0.125)">
     <use xlink:href="#DejaVuSans-45"/>
     <use xlink:href="#DejaVuSans-6e" x="63.183594"/>
     <use xlink:href="#DejaVuSans-64" x="126.5625"/>
    </g>
   </g>
   <g id="text_9">
    <!-- Convert non-standard units to  -->
    <g transform="translate(350.923672 451.351521) scale(0.095 -0.095)">
     <defs>
      <path id="DejaVuSans-2d" d="M 313 2009 
L 1997 2009 
L 1997 1497 
L 313 1497 
L 313 2009 
z
" transform="scale(0.015625)"/>
     </defs>
     <use xlink:href="#DejaVuSans-43"/>
     <use xlink:href="#DejaVuSans-6f" x="69.824219"/>
     <use xlink:href="#DejaVuSans-6e" x="131.005859"/>
     <use xlink:href="#DejaVuSans-76" x="194.384766"/>
     <use xlink:href="#DejaVuSans-65" x="253.564453"/>
     <use xlink:href="#DejaVuSans-72" x="315.087891"/>
     <use xlink:href="#DejaVuSans-74" x="356.201172"/>
     <use xlink:href="#DejaVuSans-20" x="395.410156"/>
     <use xlink:href="#DejaVuSans-6e" x="427.197266"/>
     <use xlink:href="#DejaVuSans-6f" x="490.576172"/>
     <use xlink:href="#DejaVuSans-6e" x="551.757812"/>
     <use xlink:href="#DejaVuSans-2d" x="615.136719"/>
     <use xlink:href="#DejaVuSans-73" x="651.220703"/>
     <use xlink:href="#DejaVuSans-74" x="703.320312"/>
     <use xlink:href="#DejaVuSans-61" x="742.529297"/>
     <use xlink:href="#DejaVuSans-6e" x="803.808594"/>
     <use xlink:href="#DejaVuSans-64" x="867.1875"/>
     <use xlink:href="#DejaVuSans-61" x="930.664062"/>
     <use xlink:href="#DejaVuSans-72" x="991.943359"/>
     <use xlink:href="#DejaVuSans-64" x="1031.306641"/>
     <use xlink:href="#DejaVuSans-20" x="1094.783203"/>
     <use xlink:href="#DejaVuSans-75" x="1126.570312"/>
     <use xlink:href="#DejaVuSans-6e" x="1189.949219"/>
     <use xlink:href="#DejaVuSans-69" x="1253.328125"/>
     <use xlink:href="#DejaVuSans-74" x="1281.111328"/>
     <use xlink:href="#DejaVuSans-73" x="1320.320312"/>
     <use xlink:href="#DejaVuSans-20" x="1372.419922"/>
     <use xlink:href="#DejaVuSans-74" x="1404.207031"/>
     <use xlink:href="#DejaVuSans-6f" x="1443.416016"/>
     <use xlink:href="#DejaVuSans-20" x="1504.597656"/>
    </g>
    <!--   standard unit. -->
    <g transform="translate(387.589961 461.989442) scale(0.095 -0.095)">
     <use xlink:href="#DejaVuSans-20"/>
     <use xlink:href="#DejaVuSans-20" x="31.787109"/>
     <use xlink:href="#DejaVuSans-73" x="63.574219"/>
     <use xlink:href="#DejaVuSans-74" x="115.673828"/>
     <use xlink:href="#DejaVuSans-61" x="154.882812"/>
     <use xlink:href="#DejaVuSans-6e" x="216.162109"/>
     <use xlink:href="#DejaVuSans-64" x="279.541016"/>
     <use xlink:href="#DejaVuSans-61" x="343.017578"/>
     <use xlink:href="#DejaVuSans-72" x="404.296875"/>
     <use xlink:href="#DejaVuSans-64" x="443.660156"/>
     <use xlink:href="#DejaVuSans-20" x="507.136719"/>
     <use xlink:href="#DejaVuSans-75" x="538.923828"/>
     <use xlink:href="#DejaVuSans-6e" x="602.302734"/>
     <use xlink:href="#DejaVuSans-69" x="665.681641"/>
     <use xlink:href="#DejaVuSans-74" x="693.464844"/>
     <use xlink:href="#DejaVuSans-2e" x="732.673828"/>
    </g>
   </g>
  </g>
 </g>
 <defs>
  <clipPath id="p4dab61a588">
   <rect x="3.6" y="3.6" width="534.6" height="801.879654"/>
  </clipPath>
 </defs>
</svg>