<svg xmlns="http://www.w3.org/2000/svg" xml:lang="en" height="884.8299999999999pt" width="736.726pt" viewBox="-118.64000000000001 -8.030000000000001 736.726 884.8299999999999"><polygon points="88.846875,40.5 89.16816076765485,40.497451085395966 89.48936565333587,40.489804983259496 89.81040879543077,40.4770636184559 90.13120937304542,40.45923019855565 90.45168662634995,40.43630921302683 90.7717598769097,40.40830643210496 91.09134854799548,40.37522890534039 91.41037218486841,40.3370849598236 91.72875047503402,40.29388419808888 92.04640326846034,40.245637495696975 92.36325059775533,40.1923569984972 92.6792126982983,40.134056119569806 92.99421002832011,40.07074953584926 93.30816328892745,40.002453184429484 93.6209934440659,39.929184258551714 93.93262174041685,39.850961203276206 94.2429697272232,39.76780371083882 94.55195927603894,39.67973271569356 94.85951260039757,39.58677038924249 95.16555227539436,39.48894013425414 95.47000125717778,39.386266578972034 95.77278290234479,39.27877557091464 96.07382098723541,39.16649417036841 96.37303972712164,39.04945064357546 96.67036379528585,38.92767445561777 96.96571834198392,38.80119626299941 97.2590290132882,38.670047905928996 97.55022196980572,38.53426240030407 97.83922390526692,38.39387392939955 98.12596206498006,38.2489178352622 98.41036426414682,38.09943060981353 98.69235890603449,37.94544988566314 98.971875,37.78701442663487 99.24884217936149,37.624164118008274 99.52319071911268,37.456939956477655 99.79485155347585,37.28538403983141 100.06375629328872,37.10953955635411 100.3298372432211,36.92945077395411 100.59302741881676,36.74516302901929 100.85326056335647,36.55672271500393 101.11047116453774,36.364177270749344 101.36459447096725,36.16757516854145 101.61556650846158,35.96696590190807 101.86332409615241,35.7623999731593 102.10780486239202,35.55392888067372 102.3489472604549,35.34160510593402 102.58669058403193,35.12548210031504 102.82097498251277,34.90561427162766 103.051741476053,34.68205697042196 103.27893197042198,34.454866476053 103.50248927162767,34.22409998251276 103.72235710031505,33.989815584031916 103.93848010593403,33.7520722604549 104.15080388067372,33.51092986239202 104.3592749731593,33.266449096152414 104.56384090190807,33.01869150846157 104.76445016854144,32.76771947096725 104.96105227074935,32.513596164537745 105.15359771500394,32.25638556335647 105.3420380290193,31.99615241881676 105.52632577395411,31.732962243221102 105.70641455635412,31.466881293288726 105.88225903983141,31.197976553475847 106.05381495647765,30.926315719112665 106.22103911800829,30.65196717936147 106.38388942663488,30.374999999999993 106.54232488566315,30.095483906034485 106.69630560981354,29.81348926414682 106.84579283526219,29.529087064980057 106.99074892939956,29.24234890526692 107.13113740030408,28.953346969805718 107.266922905929,28.662154013288195 107.39807126299941,28.368843341983922 107.52454945561777,28.073488795285847 107.64632564357547,27.77616472712163 107.7633691703684,27.4769459872354 107.87565057091463,27.17590790234479 107.98314157897204,26.87312625717778 108.08581513425415,26.56867727539436 108.1836453892425,26.26263760039756 108.27660771569357,25.955084276038942 108.36467871083882,25.6460947272232 108.44783620327621,25.335746740416848 108.52605925855171,25.024118444065895 108.59932818442948,24.71128828892744 108.66762453584927,24.397335028320104 108.7309311195698,24.0823376982983 108.78923199849721,23.76637559775533 108.84251249569698,23.449528268460327 108.89075919808889,23.13187547503402 108.9339599598236,22.813497184868417 108.97210390534039,22.49447354799547 109.00518143210496,22.174884876909694 109.03318421302683,21.85481162634996 109.05610519855566,21.534334373045425 109.0739386184559,21.213533795430774 109.08667998325949,20.892490653335862 109.09432608539596,20.571285767654853 109.096875,20.249999999999996 109.096875,20.250000000000004 109.09432608539596,19.928714232345143 109.08667998325949,19.60750934666413 109.0739386184559,19.286466204569223 109.05610519855566,18.96566562695457 109.03318421302683,18.645188373650036 109.00518143210496,18.325115123090303 108.97210390534039,18.00552645200453 108.9339599598236,17.686502815131583 108.89075919808887,17.368124524965978 108.84251249569697,17.050471731539666 108.78923199849721,16.733624402244665 108.7309311195698,16.417662301701696 108.66762453584927,16.102664971679893 108.59932818442948,15.788711711072555 108.52605925855171,15.475881555934102 108.44783620327621,15.164253259583148 108.36467871083882,14.853905272776796 108.27660771569357,14.54491572396105 108.1836453892425,14.237362399602437 108.08581513425415,13.93132272460564 107.98314157897204,13.626873742822214 107.87565057091463,13.324092097655212 107.7633691703684,13.023054012764598 107.64632564357547,12.72383527287837 107.52454945561777,12.426511204714147 107.39807126299941,12.131156658016074 107.266922905929,11.837845986711802 107.13113740030408,11.546653030194278 106.99074892939956,11.257651094733077 106.84579283526219,10.970912935019943 106.69630560981354,10.686510735853178 106.54232488566315,10.404516093965512 106.38388942663487,10.125000000000004 106.22103911800829,9.848032820638526 106.05381495647765,9.573684280887328 105.88225903983141,9.302023446524153 105.7064145563541,9.03311870671127 105.52632577395411,8.767037756778896 105.3420380290193,8.50384758118324 105.15359771500394,8.243614436643535 104.96105227074935,7.986403835462252 104.76445016854144,7.732280529032749 104.56384090190807,7.481308491538423 104.3592749731593,7.233550903847584 104.15080388067372,6.989070137607979 103.93848010593403,6.747927739545099 103.72235710031505,6.510184415968076 103.50248927162767,6.275900017487235 103.27893197042198,6.0451335239469985 103.051741476053,5.817943029578029 102.82097498251277,5.594385728372332 102.58669058403193,5.374517899684953 102.3489472604549,5.158394894065972 102.10780486239202,4.946071119326274 101.86332409615241,4.737600026840699 101.61556650846158,4.533034098091928 101.36459447096725,4.332424831458556 101.11047116453774,4.135822729250653 100.85326056335647,3.9432772849960687 100.59302741881675,3.754836970980704 100.3298372432211,3.5705492260458884 100.06375629328872,3.3904604436458814 99.79485155347585,3.214615960168585 99.52319071911266,3.0430600435223383 99.24884217936149,2.8758358819917187 98.971875,2.712985573365119 98.69235890603449,2.55455011433686 98.41036426414682,2.4005693901864675 98.12596206498006,2.251082164737804 97.83922390526692,2.106126070600451 97.55022196980572,1.9657375996959239 97.2590290132882,1.8299520940710068 96.96571834198392,1.698803737000593 96.67036379528585,1.5723255443822304 96.37303972712164,1.4505493564245322 96.07382098723541,1.3335058296315925 95.77278290234479,1.2212244290853598 95.47000125717778,1.1137334210279677 95.16555227539436,1.0110598657458572 94.85951260039757,0.9132296107575081 94.55195927603894,0.8202672843064331 94.2429697272232,0.7321962891611767 93.93262174041685,0.6490387967237891 93.6209934440659,0.5708157414482865 93.30816328892745,0.49754681557051045 92.99421002832011,0.42925046415073537 92.6792126982983,0.3659438804301932 92.36325059775533,0.3076430015027925 92.04640326846034,0.25436250430301743 91.72875047503402,0.20611580191111809 91.41037218486841,0.16291504017639794 91.09134854799548,0.1247710946596094 90.7717598769097,0.09169356789503977 90.45168662634995,0.0636907869731694 90.13120937304542,0.04076980144434419 89.81040879543077,0.0229363815440919 89.48936565333587,0.010195016740507023 89.16816076765485,0.0025489146040348133 88.846875,3.597122599785507e-15 -88.846875,3.597122599785507e-15 -89.16816076765485,0.0025489146040348133 -89.48936565333587,0.010195016740507023 -89.81040879543077,0.0229363815440919 -90.13120937304542,0.04076980144434419 -90.45168662634995,0.0636907869731694 -90.7717598769097,0.09169356789503977 -91.09134854799547,0.1247710946596094 -91.41037218486841,0.16291504017639794 -91.72875047503402,0.20611580191111448 -92.04640326846034,0.25436250430302104 -92.36325059775533,0.3076430015027925 -92.6792126982983,0.3659438804301932 -92.99421002832011,0.42925046415073537 -93.30816328892745,0.49754681557051045 -93.62099344406589,0.5708157414482865 -93.93262174041685,0.6490387967237891 -94.2429697272232,0.7321962891611767 -94.55195927603894,0.8202672843064331 -94.85951260039757,0.9132296107575081 -95.16555227539436,1.0110598657458572 -95.47000125717778,1.1137334210279677 -95.77278290234479,1.221224429085356 -96.07382098723541,1.3335058296315925 -96.37303972712162,1.4505493564245322 -96.67036379528585,1.5723255443822304 -96.96571834198392,1.698803737000593 -97.2590290132882,1.8299520940710068 -97.55022196980572,1.9657375996959239 -97.83922390526692,2.106126070600451 -98.12596206498006,2.251082164737804 -98.4103642641468,2.4005693901864675 -98.69235890603449,2.5545501143368563 -98.971875,2.7129855733651227 -99.24884217936147,2.875835881991715 -99.52319071911266,3.0430600435223383 -99.79485155347585,3.214615960168585 -100.06375629328872,3.3904604436458814 -100.3298372432211,3.5705492260458884 -100.59302741881675,3.754836970980704 -100.85326056335647,3.943277284996065 -101.11047116453774,4.135822729250651 -101.36459447096725,4.332424831458559 -101.61556650846158,4.533034098091928 -101.86332409615241,4.737600026840699 -102.10780486239202,4.946071119326274 -102.3489472604549,5.158394894065968 -102.58669058403191,5.374517899684951 -102.82097498251277,5.594385728372329 -103.051741476053,5.81794302957803 -103.27893197042198,6.045133523947 -103.50248927162767,6.275900017487237 -103.72235710031505,6.510184415968076 -103.93848010593402,6.747927739545099 -104.15080388067372,6.989070137607977 -104.3592749731593,7.233550903847578 -104.56384090190807,7.4813084915384245 -104.76445016854144,7.732280529032742 -104.96105227074935,7.986403835462254 -105.15359771500394,8.243614436643535 -105.3420380290193,8.503847581183239 -105.5263257739541,8.767037756778892 -105.7064145563541,9.033118706711269 -105.88225903983141,9.30202344652415 -106.05381495647765,9.573684280887322 -106.22103911800829,9.848032820638526 -106.38388942663488,10.125000000000005 -106.54232488566315,10.404516093965512 -106.69630560981354,10.686510735853178 -106.84579283526219,10.97091293501994 -106.99074892939956,11.257651094733083 -107.13113740030408,11.546653030194273 -107.266922905929,11.837845986711805 -107.39807126299941,12.131156658016069 -107.52454945561777,12.426511204714147 -107.64632564357547,12.72383527287837 -107.7633691703684,13.023054012764597 -107.87565057091463,13.324092097655209 -107.98314157897204,13.62687374282221 -108.08581513425415,13.931322724605643 -108.1836453892425,14.23736239960243 -108.27660771569357,14.54491572396105 -108.36467871083882,14.853905272776794 -108.44783620327621,15.164253259583147 -108.52605925855171,15.4758815559341 -108.59932818442948,15.788711711072551 -108.66762453584927,16.102664971679896 -108.7309311195698,16.417662301701693 -108.78923199849721,16.733624402244665 -108.84251249569697,17.050471731539666 -108.89075919808887,17.368124524965978 -108.9339599598236,17.68650281513158 -108.97210390534039,18.005526452004528 -109.00518143210496,18.32511512309031 -109.03318421302683,18.645188373650033 -109.05610519855566,18.96566562695457 -109.0739386184559,19.286466204569223 -109.08667998325949,19.60750934666413 -109.09432608539596,19.92871423234514 -109.096875,20.25 -109.096875,20.25 -109.09432608539596,20.571285767654857 -109.08667998325949,20.892490653335866 -109.0739386184559,21.213533795430777 -109.05610519855566,21.534334373045436 -109.03318421302683,21.85481162634997 -109.00518143210496,22.1748848769097 -108.97210390534039,22.494473547995476 -108.9339599598236,22.813497184868424 -108.89075919808889,23.131875475034022 -108.84251249569698,23.449528268460334 -108.78923199849721,23.766375597755335 -108.7309311195698,24.08233769829831 -108.66762453584927,24.397335028320114 -108.59932818442948,24.711288288927452 -108.52605925855171,25.024118444065902 -108.44783620327621,25.33574674041685 -108.36467871083882,25.646094727223208 -108.27660771569357,25.955084276038946 -108.1836453892425,26.26263760039757 -108.08581513425415,26.568677275394368 -107.98314157897204,26.87312625717779 -107.87565057091463,27.175907902344793 -107.7633691703684,27.476945987235403 -107.64632564357547,27.776164727121632 -107.52454945561777,28.07348879528585 -107.39807126299941,28.368843341983933 -107.266922905929,28.662154013288202 -107.13113740030408,28.95334696980573 -106.99074892939956,29.242348905266926 -106.84579283526219,29.529087064980065 -106.69630560981354,29.813489264146824 -106.54232488566315,30.09548390603449 -106.38388942663487,30.375000000000007 -106.22103911800829,30.651967179361474 -106.05381495647765,30.926315719112676 -105.88225903983141,31.197976553475854 -105.70641455635412,31.466881293288733 -105.52632577395411,31.73296224322111 -105.3420380290193,31.996152418816763 -105.15359771500394,32.25638556335647 -104.96105227074935,32.51359616453775 -104.76445016854144,32.76771947096726 -104.56384090190807,33.01869150846158 -104.3592749731593,33.26644909615242 -104.15080388067372,33.51092986239202 -103.93848010593403,33.75207226045491 -103.72235710031505,33.98981558403192 -103.50248927162767,34.22409998251277 -103.27893197042197,34.45486647605301 -103.051741476053,34.68205697042198 -102.82097498251277,34.90561427162767 -102.58669058403193,35.12548210031505 -102.3489472604549,35.34160510593403 -102.10780486239202,35.55392888067372 -101.86332409615243,35.762399973159305 -101.61556650846158,35.966965901908075 -101.36459447096725,36.16757516854145 -101.11047116453774,36.36417727074935 -100.85326056335649,36.55672271500393 -100.59302741881676,36.745163029019295 -100.3298372432211,36.9294507739541 -100.06375629328873,37.10953955635412 -99.79485155347585,37.28538403983141 -99.52319071911268,37.45693995647766 -99.24884217936147,37.62416411800829 -98.971875,37.78701442663488 -98.69235890603449,37.945449885663145 -98.41036426414682,38.09943060981353 -98.12596206498006,38.248917835262205 -97.83922390526692,38.393873929399554 -97.55022196980572,38.53426240030408 -97.2590290132882,38.670047905928996 -96.96571834198393,38.80119626299941 -96.67036379528585,38.92767445561777 -96.37303972712164,39.04945064357547 -96.07382098723541,39.166494170368416 -95.77278290234479,39.278775570914654 -95.47000125717778,39.38626657897204 -95.16555227539436,39.48894013425415 -94.85951260039758,39.5867703892425 -94.55195927603894,39.679732715693575 -94.24296972722321,39.76780371083883 -93.93262174041685,39.85096120327622 -93.62099344406589,39.92918425855172 -93.30816328892745,40.0024531844295 -92.99421002832011,40.070749535849274 -92.6792126982983,40.13405611956981 -92.36325059775533,40.19235699849722 -92.04640326846035,40.24563749569699 -91.72875047503403,40.29388419808889 -91.41037218486841,40.337084959823606 -91.09134854799548,40.37522890534039 -90.77175987690968,40.408306432104965 -90.45168662634997,40.43630921302683 -90.13120937304542,40.45923019855566 -89.81040879543079,40.477063618455915 -89.48936565333587,40.489804983259496 -89.16816076765485,40.49745108539597 -88.846875,40.5 88.846875,40.5 " style="stroke:black;fill:none;stroke-width:2.0;stroke-linecap:round;stroke-linejoin:round;" /><polygon points="-105.30000000000001,121.5 -97.20000000000002,89.1 97.19999999999997,89.1 80.99999999999999,153.9 -113.4,153.9 " style="stroke:black;fill:none;stroke-width:2.0;stroke-linecap:round;stroke-linejoin:round;" /><polygon points="-97.20000000000003,372.59999999999997 -16.20000000000002,315.9 64.79999999999997,372.59999999999997 -16.20000000000002,429.29999999999995 " style="stroke:black;fill:none;stroke-width:2.0;stroke-linecap:round;stroke-linejoin:round;" /><polygon points="178.19999999999996,737.1 259.19999999999993,680.4 340.2,737.1 259.19999999999993,793.8 " style="stroke:black;fill:none;stroke-width:2.0;stroke-linecap:round;stroke-linejoin:round;" /><path d="M 0.0,40.5 L -4.463837582892102e-15,64.8 L -7.625095819546128e-15,81.0" style="stroke:black;fill:none;stroke-width:2.0;stroke-linecap:round;stroke-linejoin:round;" /><path d="M -8.606050635848877e-15 87.1 L -2.4300000000000077 81.0 L 2.4299999999999917 81.0 Z" style="stroke:black;fill:black;stroke-linecap:butt;stroke-linejoin:miter;" /><path d="M -16.200000000000006,153.9 L -16.20000000000001,178.2 L -16.200000000000014,194.39999999999998" style="stroke:black;fill:none;stroke-width:2.0;stroke-linecap:round;stroke-linejoin:round;" /><path d="M -16.200000000000014 200.5 L -18.630000000000013 194.39999999999998 L -13.770000000000014 194.39999999999998 Z" style="stroke:black;fill:black;stroke-linecap:butt;stroke-linejoin:miter;" /><path d="M -113.4,234.89999999999998 L -113.4,202.5 L 80.99999999999999,202.5 L 80.99999999999999,267.3 L -113.4,267.3 L -113.4,234.89999999999998" style="stroke:black;fill:none;stroke-width:2.0;stroke-linecap:round;stroke-linejoin:round;" /><path d="M -16.200000000000014,267.3 L -16.200000000000017,291.59999999999997 L -16.20000000000002,307.8" style="stroke:black;fill:none;stroke-width:2.0;stroke-linecap:round;stroke-linejoin:round;" /><path d="M -16.20000000000002 313.9 L -18.63000000000002 307.79999999999995 L -13.770000000000021 307.79999999999995 Z" style="stroke:black;fill:black;stroke-linecap:butt;stroke-linejoin:miter;" /><path d="M -16.20000000000002,429.29999999999995 L -16.200000000000024,453.59999999999997 L -16.200000000000028,469.79999999999995" style="stroke:black;fill:none;stroke-width:2.0;stroke-linecap:round;stroke-linejoin:round;" /><path d="M -16.200000000000028 475.9 L -18.630000000000027 469.79999999999995 L -13.770000000000028 469.79999999999995 Z" style="stroke:black;fill:black;stroke-linecap:butt;stroke-linejoin:miter;" /><path d="M 65.44091249999997,510.29999999999995 L 64.77064173691737,506.156779961422 L 62.77083527506883,502.08159148133194 L 59.47432988127026,498.14134904190826 L 54.93525408295097,494.4007513150724 L 49.2281393792299,490.9212188120846 L 42.44669643576043,487.759885360447 L 34.70227635819117,484.9686599680358 L 26.122042310089824,482.59337447862674 L 16.846881497312808,480.6730310142877 L 7.029091803980277,479.2391615616122 L -3.170118934570723,478.3153102173718 L -13.583279959985559,477.9166465950977 L -24.03940745611429,478.04971674044594 L -34.366812098545765,478.7123356453089 L -44.395918188567734,479.89362312558774 L -53.96204808145164,481.5741824735148 L -62.908126188826294,483.7264189510586 L -71.08725815549627,486.31499289475977 L -78.36514286069314,489.2973999920276 L -84.6222776387656,492.62466920077816 L -89.75592050964548,496.2421668525911 L -93.68177719932015,500.09049373603466 L -96.33538524948135,504.10646043007546 L -97.67317248930836,508.2241248726248 L -97.67317248930836,512.375875127375 L -96.33538524948136,516.4935395699245 L -93.68177719932017,520.5095062639652 L -89.75592050964549,524.3578331474089 L -84.62227763876562,527.9753307992218 L -78.36514286069318,531.3026000079724 L -71.0872581554963,534.2850071052402 L -62.908126188826344,536.8735810489413 L -53.96204808145166,539.0258175264852 L -44.395918188567784,540.7063768744122 L -34.366812098545786,541.8876643546911 L -24.03940745611436,542.550283259554 L -13.583279959985587,542.6833534049023 L -3.170118934570795,542.2846897826281 L 7.0290918039802195,541.3608384383879 L 16.846881497312722,539.9269689857124 L 26.122042310089782,538.0066255213732 L 34.70227635819117,535.6313400319641 L 42.44669643576037,532.8401146395529 L 49.22813937922987,529.6787811879153 L 54.93525408295097,526.1992486849276 L 59.47432988127023,522.4586509580918 L 62.77083527506883,518.518408518668 L 64.77064173691737,514.443220038578 L 65.44091249999997,510.29999999999995" style="stroke:black;fill:none;stroke-width:2.0;stroke-linecap:round;stroke-linejoin:round;" /><path d="M 64.79999999999997,372.59999999999997 L 113.39999999999996,372.59999999999997 L 153.89999999999998,372.59999999999997" style="stroke:black;fill:none;stroke-width:2.0;stroke-linecap:round;stroke-linejoin:round;" /><path d="M 159.99999999999997 372.59999999999997 L 153.89999999999995 375.03 L 153.89999999999995 370.16999999999996 Z" style="stroke:black;fill:black;stroke-linecap:butt;stroke-linejoin:miter;" /><path d="M 161.99999999999997,372.59999999999997 L 161.99999999999997,340.2 L 356.4,340.2 L 356.4,405.0 L 161.99999999999997,405.0 L 161.99999999999997,372.59999999999997" style="stroke:black;fill:none;stroke-width:2.0;stroke-linecap:round;stroke-linejoin:round;" /><path d="M 259.19999999999993,405.0 L 259.19999999999993,429.29999999999995 L 259.19999999999993,445.5" style="stroke:black;fill:none;stroke-width:2.0;stroke-linecap:round;stroke-linejoin:round;" /><path d="M 259.19999999999993 451.59999999999997 L 256.7699999999999 445.49999999999994 L 261.62999999999994 445.49999999999994 Z" style="stroke:black;fill:black;stroke-linecap:butt;stroke-linejoin:miter;" /><path d="M 161.99999999999997,486.0 L 161.99999999999997,453.59999999999997 L 356.4,453.59999999999997 L 356.4,518.4 L 161.99999999999997,518.4 L 161.99999999999997,486.0" style="stroke:black;fill:none;stroke-width:2.0;stroke-linecap:round;stroke-linejoin:round;" /><path d="M 259.19999999999993,518.4 L 259.19999999999993,542.6999999999999 L 259.19999999999993,558.9" style="stroke:black;fill:none;stroke-width:2.0;stroke-linecap:round;stroke-linejoin:round;" /><path d="M 259.19999999999993 565.0 L 256.7699999999999 558.9000000000001 L 261.62999999999994 558.9000000000001 Z" style="stroke:black;fill:black;stroke-linecap:butt;stroke-linejoin:miter;" /><path d="M 161.99999999999997,599.4 L 161.99999999999997,567.0 L 356.4,567.0 L 356.4,631.8 L 161.99999999999997,631.8 L 161.99999999999997,599.4" style="stroke:black;fill:none;stroke-width:2.0;stroke-linecap:round;stroke-linejoin:round;" /><path d="M 259.19999999999993,631.8 L 259.19999999999993,656.1 L 259.19999999999993,672.3" style="stroke:black;fill:none;stroke-width:2.0;stroke-linecap:round;stroke-linejoin:round;" /><path d="M 259.19999999999993 678.4 L 256.7699999999999 672.3000000000001 L 261.62999999999994 672.3000000000001 Z" style="stroke:black;fill:black;stroke-linecap:butt;stroke-linejoin:miter;" /><path d="M 259.19999999999993,793.8 L -16.200000000000028,793.8 L -16.200000000000028,550.8" style="stroke:black;fill:none;stroke-width:2;stroke-linecap:round;stroke-linejoin:round;" /><path d="M -16.200000000000028 544.6999999999999 L -13.770000000000028 550.7999999999998 L -18.630000000000027 550.7999999999998 Z" style="stroke:black;fill:black;stroke-linecap:butt;stroke-linejoin:miter;" /><path d="M 340.2,737.1 L 364.5,737.1 L 380.7,737.1" style="stroke:black;fill:none;stroke-width:2.0;stroke-linecap:round;stroke-linejoin:round;" /><path d="M 386.79999999999995 737.1 L 380.69999999999993 739.53 L 380.69999999999993 734.6700000000001 Z" style="stroke:black;fill:black;stroke-linecap:butt;stroke-linejoin:miter;" /><path d="M 388.79999999999995,737.1 L 388.79999999999995,704.6999999999999 L 550.8,704.6999999999999 L 550.8,769.5 L 388.79999999999995,769.5 L 388.79999999999995,737.1" style="stroke:black;fill:none;stroke-width:2.0;stroke-linecap:round;stroke-linejoin:round;" /><path d="M 469.79999999999995,769.5 L 469.79999999999995,818.0999999999999 L 469.79999999999995,858.5999999999999" style="stroke:black;fill:none;stroke-width:2.0;stroke-linecap:round;stroke-linejoin:round;" /><path d="M 469.79999999999995 864.6999999999999 L 467.36999999999995 858.6 L 472.22999999999996 858.6 Z" style="stroke:black;fill:black;stroke-linecap:butt;stroke-linejoin:miter;" /><path d="M 469.79999999999995,866.6999999999999 L -16.2,866.6999999999999 L -16.2,550.8" style="stroke:black;fill:none;stroke-width:2;stroke-linecap:round;stroke-linejoin:round;" /><path d="M -16.2 544.6999999999999 L -13.77 550.7999999999998 L -18.63 550.7999999999998 Z" style="stroke:black;fill:black;stroke-linecap:butt;stroke-linejoin:miter;" /><text x="0.0" y="12.550000000000002" fill="black" font-size="14.0" font-family="sans" text-anchor="middle" transform="rotate(0 0.0 18.150000000000002)"><tspan x="0.0" dy="11.200000000000001">Total emission calculation: Start</tspan></text><text x="-8.100000000000009" y="108.85" fill="black" font-size="11" font-family="sans" text-anchor="middle" transform="rotate(0 -8.100000000000009 119.85)"><tspan x="-8.100000000000009" dy="11">Receive user inputs (ingredients) </tspan><tspan x="-8.100000000000009" dy="11"> that go into a single recipe</tspan></text><text x="-16.200000000000014" y="223.39999999999998" fill="black" font-size="10" font-family="sans" text-anchor="middle" transform="rotate(0 -16.200000000000014 233.39999999999998)"><tspan x="-16.200000000000014" dy="10">Assess the cumulative greenhouse gas (GHG) </tspan><tspan x="-16.200000000000014" dy="10"> emissions generated by the recipe.</tspan></text><text x="-11.988000000000024" y="431.4119999999999" fill="black" font-size="14" font-family="sans" text-anchor="start" transform="rotate(0 -11.988000000000024 431.4119999999999)"><tspan x="-11.988000000000024" dy="11.200000000000001">NO</tspan></text><text x="69.01199999999996" y="355.088" fill="black" font-size="14" font-family="sans" text-anchor="start" transform="rotate(0 69.01199999999996 366.288)"><tspan x="69.01199999999996" dy="11.200000000000001">YES</tspan></text><text x="-16.20000000000002" y="359.95" fill="black" font-size="11" font-family="sans" text-anchor="middle" transform="rotate(0 -16.20000000000002 370.95)"><tspan x="-16.20000000000002" dy="11">Is the recipe evaluated </tspan><tspan x="-16.20000000000002" dy="11"> to have 'High Impact'?</tspan></text><text x="-16.200000000000028" y="504.24999999999994" fill="black" font-size="11" font-family="sans" text-anchor="middle" transform="rotate(0 -16.200000000000028 508.65)"><tspan x="-16.200000000000028" dy="8.8">End. You have a good recipe!</tspan></text><text x="259.19999999999993" y="353.25" fill="black" font-size="9" font-family="sans" text-anchor="middle" transform="rotate(0 259.19999999999993 371.25)"><tspan x="259.19999999999993" dy="9">Recommend substituting a high </tspan><tspan x="259.19999999999993" dy="9"> GHG-emitting ingredient             in the current recipe with</tspan><tspan x="259.19999999999993" dy="9"> an alternative from                   food categories known for </tspan><tspan x="259.19999999999993" dy="9">  lower GHG emissions.</tspan></text><text x="259.19999999999993" y="473.34999999999997" fill="black" font-size="11" font-family="sans" text-anchor="middle" transform="rotate(0 259.19999999999993 484.34999999999997)"><tspan x="259.19999999999993" dy="11">Evaluate how much GHG emission was</tspan><tspan x="259.19999999999993" dy="11"> reduced by using an alternative ingredient.</tspan></text><text x="259.19999999999993" y="581.2499999999999" fill="black" font-size="11" font-family="sans" text-anchor="middle" transform="rotate(0 259.19999999999993 597.7499999999999)"><tspan x="259.19999999999993" dy="11">Calculate the number of trees </tspan><tspan x="259.19999999999993" dy="11">       preserved due to the decrease </tspan><tspan x="259.19999999999993" dy="11">       in greenhouse gas (GHG) emissions.</tspan></text><text x="263.412" y="795.912" fill="black" font-size="14" font-family="sans" text-anchor="start" transform="rotate(0 263.412 795.912)"><tspan x="263.412" dy="11.200000000000001">NO</tspan></text><text x="344.412" y="719.588" fill="black" font-size="14" font-family="sans" text-anchor="start" transform="rotate(0 344.412 730.788)"><tspan x="344.412" dy="11.200000000000001">YES</tspan></text><text x="259.19999999999993" y="724.4499999999999" fill="black" font-size="11" font-family="sans" text-anchor="middle" transform="rotate(0 259.19999999999993 735.4499999999999)"><tspan x="259.19999999999993" dy="11">Does the user want the </tspan><tspan x="259.19999999999993" dy="11"> new recipe to be emailed?</tspan></text><text x="469.79999999999995" y="731.05" fill="black" font-size="11" font-family="sans" text-anchor="middle" transform="rotate(0 469.79999999999995 735.4499999999999)"><tspan x="469.79999999999995" dy="8.8">Email the user the new recipe</tspan></text></svg>