<?xml version="1.0" encoding="utf-8" standalone="no"?>
<!DOCTYPE svg PUBLIC "-//W3C//DTD SVG 1.1//EN"
  "http://www.w3.org/Graphics/SVG/1.1/DTD/svg11.dtd">
<svg xmlns:xlink="http://www.w3.org/1999/xlink" width="750.901094pt" height="977.76pt" viewBox="0 0 750.901094 977.76" xmlns="http://www.w3.org/2000/svg" version="1.1">
 <metadata>
  <rdf:RDF xmlns:dc="http://purl.org/dc/elements/1.1/" xmlns:cc="http://creativecommons.org/ns#" xmlns:rdf="http://www.w3.org/1999/02/22-rdf-syntax-ns#">
   <cc:Work>
    <dc:type rdf:resource="http://purl.org/dc/dcmitype/StillImage"/>
    <dc:date>2024-10-29T23:19:13.026752</dc:date>
    <dc:format>image/svg+xml</dc:format>
    <dc:creator>
     <cc:Agent>
      <dc:title>Matplotlib v3.8.2, https://matplotlib.org/</dc:title>
     </cc:Agent>
    </dc:creator>
   </cc:Work>
  </rdf:RDF>
 </metadata>
 <defs>
  <style type="text/css">*{stroke-linejoin: round; stroke-linecap: butt}</style>
 </defs>
 <g id="figure_1">
  <g id="patch_1">
   <path d="M 0 977.76 
L 750.901094 977.76 
L 750.901094 0 
L 0 0 
z
" style="fill: #ffffff"/>
  </g>
  <g id="axes_1">
   <g id="patch_2">
    <path d="M 232.939844 49.68 
L 233.296828 49.677168 
L 233.653722 49.668672 
L 234.010437 49.654515 
L 234.366882 49.6347 
L 234.722968 49.609232 
L 235.078605 49.578118 
L 235.433703 49.541365 
L 235.788174 49.498983 
L 236.141928 49.450982 
L 236.494875 49.397375 
L 236.846928 49.338174 
L 237.197997 49.273396 
L 237.547994 49.203055 
L 237.896831 49.12717 
L 238.24442 49.04576 
L 238.590673 48.958846 
L 238.935505 48.866449 
L 239.278826 48.768592 
L 239.620552 48.6653 
L 239.960596 48.5566 
L 240.298873 48.442518 
L 240.635297 48.323084 
L 240.969784 48.198327 
L 241.302249 48.068278 
L 241.632609 47.932972 
L 241.960781 47.79244 
L 242.286682 47.64672 
L 242.610229 47.495847 
L 242.931343 47.33986 
L 243.24994 47.178798 
L 243.565943 47.012701 
L 243.87927 46.841611 
L 244.189844 46.665572 
L 244.497585 46.484627 
L 244.802417 46.298822 
L 245.104262 46.108204 
L 245.403045 45.912822 
L 245.698691 45.712723 
L 245.991124 45.507959 
L 246.280272 45.298581 
L 246.566062 45.084641 
L 246.848421 44.866195 
L 247.127279 44.643295 
L 247.402565 44.416 
L 247.67421 44.184365 
L 247.942146 43.94845 
L 248.206306 43.708313 
L 248.466622 43.464016 
L 248.723029 43.215619 
L 248.975463 42.963185 
L 249.22386 42.706778 
L 249.468157 42.446462 
L 249.708294 42.182303 
L 249.944209 41.914367 
L 250.175844 41.642721 
L 250.403139 41.367435 
L 250.626038 41.088577 
L 250.844485 40.806218 
L 251.058425 40.520428 
L 251.267803 40.23128 
L 251.472567 39.938847 
L 251.672665 39.643201 
L 251.868048 39.344418 
L 252.058666 39.042573 
L 252.244471 38.737741 
L 252.425415 38.43 
L 252.601455 38.119427 
L 252.772544 37.806099 
L 252.938641 37.490097 
L 253.099704 37.171499 
L 253.255691 36.850386 
L 253.406564 36.526838 
L 253.552284 36.200937 
L 253.692815 35.872765 
L 253.828122 35.542405 
L 253.958171 35.20994 
L 254.082928 34.875453 
L 254.202362 34.539029 
L 254.316444 34.200753 
L 254.425144 33.860708 
L 254.528436 33.518983 
L 254.626292 33.175661 
L 254.71869 32.83083 
L 254.805604 32.484576 
L 254.887014 32.136987 
L 254.962899 31.78815 
L 255.033239 31.438153 
L 255.098018 31.087084 
L 255.157219 30.735031 
L 255.210826 30.382084 
L 255.258827 30.02833 
L 255.301209 29.673859 
L 255.337962 29.318761 
L 255.369076 28.963124 
L 255.394544 28.607038 
L 255.414359 28.250593 
L 255.428516 27.893879 
L 255.437012 27.536984 
L 255.439844 27.18 
L 255.439844 27.18 
L 255.437012 26.823016 
L 255.428516 26.466121 
L 255.414359 26.109407 
L 255.394544 25.752962 
L 255.369076 25.396876 
L 255.337962 25.041239 
L 255.301209 24.686141 
L 255.258827 24.33167 
L 255.210826 23.977916 
L 255.157219 23.624969 
L 255.098018 23.272916 
L 255.033239 22.921847 
L 254.962899 22.57185 
L 254.887014 22.223013 
L 254.805604 21.875424 
L 254.71869 21.52917 
L 254.626292 21.184339 
L 254.528436 20.841017 
L 254.425144 20.499292 
L 254.316444 20.159247 
L 254.202362 19.820971 
L 254.082928 19.484547 
L 253.958171 19.15006 
L 253.828122 18.817595 
L 253.692815 18.487235 
L 253.552284 18.159063 
L 253.406564 17.833162 
L 253.255691 17.509614 
L 253.099704 17.188501 
L 252.938641 16.869903 
L 252.772544 16.553901 
L 252.601455 16.240573 
L 252.425415 15.93 
L 252.244471 15.622259 
L 252.058666 15.317427 
L 251.868048 15.015582 
L 251.672665 14.716799 
L 251.472567 14.421153 
L 251.267803 14.12872 
L 251.058425 13.839572 
L 250.844485 13.553782 
L 250.626038 13.271423 
L 250.403139 12.992565 
L 250.175844 12.717279 
L 249.944209 12.445633 
L 249.708294 12.177697 
L 249.468157 11.913538 
L 249.22386 11.653222 
L 248.975463 11.396815 
L 248.723029 11.144381 
L 248.466622 10.895984 
L 248.206306 10.651687 
L 247.942146 10.41155 
L 247.67421 10.175635 
L 247.402565 9.944 
L 247.127279 9.716705 
L 246.848421 9.493805 
L 246.566062 9.275359 
L 246.280272 9.061419 
L 245.991124 8.852041 
L 245.698691 8.647277 
L 245.403045 8.447178 
L 245.104262 8.251796 
L 244.802417 8.061178 
L 244.497585 7.875373 
L 244.189844 7.694428 
L 243.87927 7.518389 
L 243.565943 7.347299 
L 243.24994 7.181202 
L 242.931343 7.02014 
L 242.610229 6.864153 
L 242.286682 6.71328 
L 241.960781 6.56756 
L 241.632609 6.427028 
L 241.302249 6.291722 
L 240.969784 6.161673 
L 240.635297 6.036916 
L 240.298873 5.917482 
L 239.960596 5.8034 
L 239.620552 5.6947 
L 239.278826 5.591408 
L 238.935505 5.493551 
L 238.590673 5.401154 
L 238.24442 5.31424 
L 237.896831 5.23283 
L 237.547994 5.156945 
L 237.197997 5.086604 
L 236.846928 5.021826 
L 236.494875 4.962625 
L 236.141928 4.909018 
L 235.788174 4.861017 
L 235.433703 4.818635 
L 235.078605 4.781882 
L 234.722968 4.750768 
L 234.366882 4.7253 
L 234.010437 4.705485 
L 233.653722 4.691328 
L 233.296828 4.682832 
L 232.939844 4.68 
L 35.502344 4.68 
L 35.14536 4.682832 
L 34.788465 4.691328 
L 34.431751 4.705485 
L 34.075306 4.7253 
L 33.71922 4.750768 
L 33.363583 4.781882 
L 33.008484 4.818635 
L 32.654014 4.861017 
L 32.30026 4.909018 
L 31.947312 4.962625 
L 31.59526 5.021826 
L 31.244191 5.086604 
L 30.894194 5.156945 
L 30.545357 5.23283 
L 30.197768 5.31424 
L 29.851514 5.401154 
L 29.506683 5.493551 
L 29.163361 5.591408 
L 28.821635 5.6947 
L 28.481591 5.8034 
L 28.143315 5.917482 
L 27.806891 6.036916 
L 27.472404 6.161673 
L 27.139938 6.291722 
L 26.809578 6.427028 
L 26.481407 6.56756 
L 26.155506 6.71328 
L 25.831958 6.864153 
L 25.510845 7.02014 
L 25.192247 7.181202 
L 24.876245 7.347299 
L 24.562917 7.518389 
L 24.252344 7.694428 
L 23.944602 7.875373 
L 23.639771 8.061178 
L 23.337925 8.251796 
L 23.039142 8.447178 
L 22.743497 8.647277 
L 22.451063 8.852041 
L 22.161915 9.061419 
L 21.876126 9.275359 
L 21.593767 9.493805 
L 21.314909 9.716705 
L 21.039623 9.944 
L 20.767977 10.175635 
L 20.500041 10.41155 
L 20.235882 10.651687 
L 19.975566 10.895984 
L 19.719159 11.144381 
L 19.466725 11.396815 
L 19.218328 11.653222 
L 18.97403 11.913538 
L 18.733894 12.177697 
L 18.497978 12.445633 
L 18.266344 12.717279 
L 18.039048 12.992565 
L 17.816149 13.271423 
L 17.597702 13.553782 
L 17.383763 13.839572 
L 17.174385 14.12872 
L 16.969621 14.421153 
L 16.769522 14.716799 
L 16.574139 15.015582 
L 16.383522 15.317427 
L 16.197717 15.622259 
L 16.016772 15.93 
L 15.840733 16.240573 
L 15.669643 16.553901 
L 15.503546 16.869903 
L 15.342484 17.188501 
L 15.186497 17.509614 
L 15.035624 17.833162 
L 14.889903 18.159063 
L 14.749372 18.487235 
L 14.614065 18.817595 
L 14.484017 19.15006 
L 14.35926 19.484547 
L 14.239825 19.820971 
L 14.125744 20.159247 
L 14.017043 20.499292 
L 13.913752 20.841017 
L 13.815895 21.184339 
L 13.723498 21.52917 
L 13.636583 21.875424 
L 13.555174 22.223013 
L 13.479289 22.57185 
L 13.408948 22.921847 
L 13.344169 23.272916 
L 13.284969 23.624969 
L 13.231361 23.977916 
L 13.18336 24.33167 
L 13.140978 24.686141 
L 13.104225 25.041239 
L 13.073111 25.396876 
L 13.047644 25.752962 
L 13.027829 26.109407 
L 13.013672 26.466121 
L 13.005176 26.823016 
L 13.002344 27.18 
L 13.002344 27.18 
L 13.005176 27.536984 
L 13.013672 27.893879 
L 13.027829 28.250593 
L 13.047644 28.607038 
L 13.073111 28.963124 
L 13.104225 29.318761 
L 13.140978 29.673859 
L 13.18336 30.02833 
L 13.231361 30.382084 
L 13.284969 30.735031 
L 13.344169 31.087084 
L 13.408948 31.438153 
L 13.479289 31.78815 
L 13.555174 32.136987 
L 13.636583 32.484576 
L 13.723498 32.83083 
L 13.815895 33.175661 
L 13.913752 33.518983 
L 14.017043 33.860708 
L 14.125744 34.200753 
L 14.239825 34.539029 
L 14.35926 34.875453 
L 14.484017 35.20994 
L 14.614065 35.542405 
L 14.749372 35.872765 
L 14.889903 36.200937 
L 15.035624 36.526838 
L 15.186497 36.850386 
L 15.342484 37.171499 
L 15.503546 37.490097 
L 15.669643 37.806099 
L 15.840733 38.119427 
L 16.016772 38.43 
L 16.197717 38.737741 
L 16.383522 39.042573 
L 16.574139 39.344418 
L 16.769522 39.643201 
L 16.969621 39.938847 
L 17.174385 40.23128 
L 17.383763 40.520428 
L 17.597702 40.806218 
L 17.816149 41.088577 
L 18.039048 41.367435 
L 18.266344 41.642721 
L 18.497978 41.914367 
L 18.733894 42.182303 
L 18.97403 42.446462 
L 19.218328 42.706778 
L 19.466725 42.963185 
L 19.719159 43.215619 
L 19.975566 43.464016 
L 20.235882 43.708313 
L 20.500041 43.94845 
L 20.767977 44.184365 
L 21.039623 44.416 
L 21.314909 44.643295 
L 21.593767 44.866195 
L 21.876126 45.084641 
L 22.161915 45.298581 
L 22.451063 45.507959 
L 22.743497 45.712723 
L 23.039142 45.912822 
L 23.337925 46.108204 
L 23.639771 46.298822 
L 23.944602 46.484627 
L 24.252344 46.665572 
L 24.562917 46.841611 
L 24.876245 47.012701 
L 25.192247 47.178798 
L 25.510845 47.33986 
L 25.831958 47.495847 
L 26.155506 47.64672 
L 26.481407 47.79244 
L 26.809578 47.932972 
L 27.139938 48.068278 
L 27.472404 48.198327 
L 27.806891 48.323084 
L 28.143315 48.442518 
L 28.481591 48.5566 
L 28.821635 48.6653 
L 29.163361 48.768592 
L 29.506683 48.866449 
L 29.851514 48.958846 
L 30.197768 49.04576 
L 30.545357 49.12717 
L 30.894194 49.203055 
L 31.244191 49.273396 
L 31.59526 49.338174 
L 31.947312 49.397375 
L 32.30026 49.450982 
L 32.654014 49.498983 
L 33.008484 49.541365 
L 33.363583 49.578118 
L 33.71922 49.609232 
L 34.075306 49.6347 
L 34.431751 49.654515 
L 34.788465 49.668672 
L 35.14536 49.677168 
L 35.502344 49.68 
L 232.939844 49.68 
z
" clip-path="url(#pb8b7e1c307)" style="fill: none; stroke: #000000; stroke-width: 2; stroke-linecap: round"/>
   </g>
   <g id="patch_3">
    <path d="M 17.221094 139.68 
L 26.221094 103.68 
L 242.221094 103.68 
L 224.221094 175.68 
L 8.221094 175.68 
L 17.221094 139.68 
z
" clip-path="url(#pb8b7e1c307)" style="fill: none; stroke: #000000; stroke-width: 2; stroke-linecap: round"/>
   </g>
   <g id="patch_4">
    <path d="M 26.221094 418.68 
L 116.221094 355.68 
L 206.221094 418.68 
L 116.221094 481.68 
L 26.221094 418.68 
z
" clip-path="url(#pb8b7e1c307)" style="fill: none; stroke: #000000; stroke-width: 2; stroke-linecap: round"/>
   </g>
   <g id="patch_5">
    <path d="M 332.221094 823.68 
L 422.221094 760.68 
L 512.221094 823.68 
L 422.221094 886.68 
L 332.221094 823.68 
z
" clip-path="url(#pb8b7e1c307)" style="fill: none; stroke: #000000; stroke-width: 2; stroke-linecap: round"/>
   </g>
   <g id="line2d_1">
    <path d="M 134.221094 49.68 
L 134.221094 76.68 
L 134.221094 94.68 
" clip-path="url(#pb8b7e1c307)" style="fill: none; stroke: #000000; stroke-width: 2; stroke-linecap: round"/>
   </g>
   <g id="patch_6">
    <path d="M 136.921094 94.68 
L 134.221094 103.68 
L 131.521094 94.68 
z
" clip-path="url(#pb8b7e1c307)"/>
   </g>
   <g id="line2d_2">
    <path d="M 116.221094 175.68 
L 116.221094 202.68 
L 116.221094 220.68 
" clip-path="url(#pb8b7e1c307)" style="fill: none; stroke: #000000; stroke-width: 2; stroke-linecap: round"/>
   </g>
   <g id="patch_7">
    <path d="M 118.921094 220.68 
L 116.221094 229.68 
L 113.521094 220.68 
z
" clip-path="url(#pb8b7e1c307)"/>
   </g>
   <g id="line2d_3">
    <path d="M 8.221094 265.68 
L 8.221094 229.68 
L 224.221094 229.68 
L 224.221094 301.68 
L 8.221094 301.68 
L 8.221094 265.68 
" clip-path="url(#pb8b7e1c307)" style="fill: none; stroke: #000000; stroke-width: 2; stroke-linecap: round"/>
   </g>
   <g id="line2d_4">
    <path d="M 116.221094 301.68 
L 116.221094 328.68 
L 116.221094 346.68 
" clip-path="url(#pb8b7e1c307)" style="fill: none; stroke: #000000; stroke-width: 2; stroke-linecap: round"/>
   </g>
   <g id="patch_8">
    <path d="M 118.921094 346.68 
L 116.221094 355.68 
L 113.521094 346.68 
z
" clip-path="url(#pb8b7e1c307)"/>
   </g>
   <g id="line2d_5">
    <path d="M 116.221094 481.68 
L 116.221094 508.68 
L 116.221094 526.68 
" clip-path="url(#pb8b7e1c307)" style="fill: none; stroke: #000000; stroke-width: 2; stroke-linecap: round"/>
   </g>
   <g id="patch_9">
    <path d="M 118.921094 526.68 
L 116.221094 535.68 
L 113.521094 526.68 
z
" clip-path="url(#pb8b7e1c307)"/>
   </g>
   <g id="line2d_6">
    <path d="M 206.933219 571.68 
L 206.188473 567.076422 
L 203.966466 562.548435 
L 200.303683 558.170388 
L 195.260265 554.014168 
L 188.919026 550.148021 
L 181.38409 546.635428 
L 172.779179 543.534067 
L 163.245585 540.894861 
L 152.939851 538.761146 
L 142.031196 537.167957 
L 130.698739 536.141456 
L 119.12856 535.698496 
L 107.510641 535.846352 
L 96.035747 536.582595 
L 84.892296 537.895137 
L 74.263263 539.762425 
L 64.323176 542.153799 
L 55.235251 545.029992 
L 47.148713 548.343778 
L 40.196341 552.040744 
L 34.492293 556.060185 
L 30.13023 560.336104 
L 27.181777 564.798289 
L 25.695347 569.373472 
L 25.695347 573.986528 
L 27.181777 578.561711 
L 30.13023 583.023896 
L 34.492293 587.299815 
L 40.196341 591.319256 
L 47.148713 595.016222 
L 55.235251 598.330008 
L 64.323176 601.206201 
L 74.263263 603.597575 
L 84.892296 605.464863 
L 96.035747 606.777405 
L 107.510641 607.513648 
L 119.12856 607.661504 
L 130.698739 607.218544 
L 142.031196 606.192043 
L 152.939851 604.598854 
L 163.245585 602.465139 
L 172.779179 599.825933 
L 181.38409 596.724572 
L 188.919026 593.211979 
L 195.260265 589.345832 
L 200.303683 585.189612 
L 203.966466 580.811565 
L 206.188473 576.283578 
L 206.933219 571.68 
" clip-path="url(#pb8b7e1c307)" style="fill: none; stroke: #000000; stroke-width: 2; stroke-linecap: round"/>
   </g>
   <g id="line2d_7">
    <path d="M 206.221094 418.68 
L 260.221094 418.68 
L 305.221094 418.68 
" clip-path="url(#pb8b7e1c307)" style="fill: none; stroke: #000000; stroke-width: 2; stroke-linecap: round"/>
   </g>
   <g id="patch_10">
    <path d="M 305.221094 415.98 
L 314.221094 418.68 
L 305.221094 421.38 
z
" clip-path="url(#pb8b7e1c307)"/>
   </g>
   <g id="line2d_8">
    <path d="M 314.221094 418.68 
L 314.221094 382.68 
L 530.221094 382.68 
L 530.221094 454.68 
L 314.221094 454.68 
L 314.221094 418.68 
" clip-path="url(#pb8b7e1c307)" style="fill: none; stroke: #000000; stroke-width: 2; stroke-linecap: round"/>
   </g>
   <g id="line2d_9">
    <path d="M 422.221094 454.68 
L 422.221094 481.68 
L 422.221094 499.68 
" clip-path="url(#pb8b7e1c307)" style="fill: none; stroke: #000000; stroke-width: 2; stroke-linecap: round"/>
   </g>
   <g id="patch_11">
    <path d="M 424.921094 499.68 
L 422.221094 508.68 
L 419.521094 499.68 
z
" clip-path="url(#pb8b7e1c307)"/>
   </g>
   <g id="line2d_10">
    <path d="M 314.221094 544.68 
L 314.221094 508.68 
L 530.221094 508.68 
L 530.221094 580.68 
L 314.221094 580.68 
L 314.221094 544.68 
" clip-path="url(#pb8b7e1c307)" style="fill: none; stroke: #000000; stroke-width: 2; stroke-linecap: round"/>
   </g>
   <g id="line2d_11">
    <path d="M 422.221094 580.68 
L 422.221094 607.68 
L 422.221094 625.68 
" clip-path="url(#pb8b7e1c307)" style="fill: none; stroke: #000000; stroke-width: 2; stroke-linecap: round"/>
   </g>
   <g id="patch_12">
    <path d="M 424.921094 625.68 
L 422.221094 634.68 
L 419.521094 625.68 
z
" clip-path="url(#pb8b7e1c307)"/>
   </g>
   <g id="line2d_12">
    <path d="M 314.221094 670.68 
L 314.221094 634.68 
L 530.221094 634.68 
L 530.221094 706.68 
L 314.221094 706.68 
L 314.221094 670.68 
" clip-path="url(#pb8b7e1c307)" style="fill: none; stroke: #000000; stroke-width: 2; stroke-linecap: round"/>
   </g>
   <g id="line2d_13">
    <path d="M 422.221094 706.68 
L 422.221094 733.68 
L 422.221094 751.68 
" clip-path="url(#pb8b7e1c307)" style="fill: none; stroke: #000000; stroke-width: 2; stroke-linecap: round"/>
   </g>
   <g id="patch_13">
    <path d="M 424.921094 751.68 
L 422.221094 760.68 
L 419.521094 751.68 
z
" clip-path="url(#pb8b7e1c307)"/>
   </g>
   <g id="line2d_14">
    <path d="M 422.221094 886.68 
L 116.221094 886.68 
L 116.221094 616.68 
" clip-path="url(#pb8b7e1c307)" style="fill: none; stroke: #000000; stroke-width: 2; stroke-linecap: round"/>
   </g>
   <g id="patch_14">
    <path d="M 113.521094 616.68 
L 116.221094 607.68 
L 118.921094 616.68 
z
" clip-path="url(#pb8b7e1c307)"/>
   </g>
   <g id="line2d_15">
    <path d="M 512.221094 823.68 
L 539.221094 823.68 
L 557.221094 823.68 
" clip-path="url(#pb8b7e1c307)" style="fill: none; stroke: #000000; stroke-width: 2; stroke-linecap: round"/>
   </g>
   <g id="patch_15">
    <path d="M 557.221094 820.98 
L 566.221094 823.68 
L 557.221094 826.38 
z
" clip-path="url(#pb8b7e1c307)"/>
   </g>
   <g id="line2d_16">
    <path d="M 566.221094 823.68 
L 566.221094 787.68 
L 746.221094 787.68 
L 746.221094 859.68 
L 566.221094 859.68 
L 566.221094 823.68 
" clip-path="url(#pb8b7e1c307)" style="fill: none; stroke: #000000; stroke-width: 2; stroke-linecap: round"/>
   </g>
   <g id="line2d_17">
    <path d="M 656.221094 859.68 
L 656.221094 913.68 
L 656.221094 958.68 
" clip-path="url(#pb8b7e1c307)" style="fill: none; stroke: #000000; stroke-width: 2; stroke-linecap: round"/>
   </g>
   <g id="patch_16">
    <path d="M 658.921094 958.68 
L 656.221094 967.68 
L 653.521094 958.68 
z
" clip-path="url(#pb8b7e1c307)"/>
   </g>
   <g id="line2d_18">
    <path d="M 656.221094 967.68 
L 116.221094 967.68 
L 116.221094 616.68 
" clip-path="url(#pb8b7e1c307)" style="fill: none; stroke: #000000; stroke-width: 2; stroke-linecap: round"/>
   </g>
   <g id="patch_17">
    <path d="M 113.521094 616.68 
L 116.221094 607.68 
L 118.921094 616.68 
z
" clip-path="url(#pb8b7e1c307)"/>
   </g>
   <g id="text_1">
    <!-- Total emission calculation: Start -->
    <g transform="translate(22.703438 31.043125) scale(0.14 -0.14)">
     <defs>
      <path id="DejaVuSans-54" d="M -19 4666 
L 3928 4666 
L 3928 4134 
L 2272 4134 
L 2272 0 
L 1638 0 
L 1638 4134 
L -19 4134 
L -19 4666 
z
" transform="scale(0.015625)"/>
      <path id="DejaVuSans-6f" d="M 1959 3097 
Q 1497 3097 1228 2736 
Q 959 2375 959 1747 
Q 959 1119 1226 758 
Q 1494 397 1959 397 
Q 2419 397 2687 759 
Q 2956 1122 2956 1747 
Q 2956 2369 2687 2733 
Q 2419 3097 1959 3097 
z
M 1959 3584 
Q 2709 3584 3137 3096 
Q 3566 2609 3566 1747 
Q 3566 888 3137 398 
Q 2709 -91 1959 -91 
Q 1206 -91 779 398 
Q 353 888 353 1747 
Q 353 2609 779 3096 
Q 1206 3584 1959 3584 
z
" transform="scale(0.015625)"/>
      <path id="DejaVuSans-74" d="M 1172 4494 
L 1172 3500 
L 2356 3500 
L 2356 3053 
L 1172 3053 
L 1172 1153 
Q 1172 725 1289 603 
Q 1406 481 1766 481 
L 2356 481 
L 2356 0 
L 1766 0 
Q 1100 0 847 248 
Q 594 497 594 1153 
L 594 3053 
L 172 3053 
L 172 3500 
L 594 3500 
L 594 4494 
L 1172 4494 
z
" transform="scale(0.015625)"/>
      <path id="DejaVuSans-61" d="M 2194 1759 
Q 1497 1759 1228 1600 
Q 959 1441 959 1056 
Q 959 750 1161 570 
Q 1363 391 1709 391 
Q 2188 391 2477 730 
Q 2766 1069 2766 1631 
L 2766 1759 
L 2194 1759 
z
M 3341 1997 
L 3341 0 
L 2766 0 
L 2766 531 
Q 2569 213 2275 61 
Q 1981 -91 1556 -91 
Q 1019 -91 701 211 
Q 384 513 384 1019 
Q 384 1609 779 1909 
Q 1175 2209 1959 2209 
L 2766 2209 
L 2766 2266 
Q 2766 2663 2505 2880 
Q 2244 3097 1772 3097 
Q 1472 3097 1187 3025 
Q 903 2953 641 2809 
L 641 3341 
Q 956 3463 1253 3523 
Q 1550 3584 1831 3584 
Q 2591 3584 2966 3190 
Q 3341 2797 3341 1997 
z
" transform="scale(0.015625)"/>
      <path id="DejaVuSans-6c" d="M 603 4863 
L 1178 4863 
L 1178 0 
L 603 0 
L 603 4863 
z
" transform="scale(0.015625)"/>
      <path id="DejaVuSans-20" transform="scale(0.015625)"/>
      <path id="DejaVuSans-65" d="M 3597 1894 
L 3597 1613 
L 953 1613 
Q 991 1019 1311 708 
Q 1631 397 2203 397 
Q 2534 397 2845 478 
Q 3156 559 3463 722 
L 3463 178 
Q 3153 47 2828 -22 
Q 2503 -91 2169 -91 
Q 1331 -91 842 396 
Q 353 884 353 1716 
Q 353 2575 817 3079 
Q 1281 3584 2069 3584 
Q 2775 3584 3186 3129 
Q 3597 2675 3597 1894 
z
M 3022 2063 
Q 3016 2534 2758 2815 
Q 2500 3097 2075 3097 
Q 1594 3097 1305 2825 
Q 1016 2553 972 2059 
L 3022 2063 
z
" transform="scale(0.015625)"/>
      <path id="DejaVuSans-6d" d="M 3328 2828 
Q 3544 3216 3844 3400 
Q 4144 3584 4550 3584 
Q 5097 3584 5394 3201 
Q 5691 2819 5691 2113 
L 5691 0 
L 5113 0 
L 5113 2094 
Q 5113 2597 4934 2840 
Q 4756 3084 4391 3084 
Q 3944 3084 3684 2787 
Q 3425 2491 3425 1978 
L 3425 0 
L 2847 0 
L 2847 2094 
Q 2847 2600 2669 2842 
Q 2491 3084 2119 3084 
Q 1678 3084 1418 2786 
Q 1159 2488 1159 1978 
L 1159 0 
L 581 0 
L 581 3500 
L 1159 3500 
L 1159 2956 
Q 1356 3278 1631 3431 
Q 1906 3584 2284 3584 
Q 2666 3584 2933 3390 
Q 3200 3197 3328 2828 
z
" transform="scale(0.015625)"/>
      <path id="DejaVuSans-69" d="M 603 3500 
L 1178 3500 
L 1178 0 
L 603 0 
L 603 3500 
z
M 603 4863 
L 1178 4863 
L 1178 4134 
L 603 4134 
L 603 4863 
z
" transform="scale(0.015625)"/>
      <path id="DejaVuSans-73" d="M 2834 3397 
L 2834 2853 
Q 2591 2978 2328 3040 
Q 2066 3103 1784 3103 
Q 1356 3103 1142 2972 
Q 928 2841 928 2578 
Q 928 2378 1081 2264 
Q 1234 2150 1697 2047 
L 1894 2003 
Q 2506 1872 2764 1633 
Q 3022 1394 3022 966 
Q 3022 478 2636 193 
Q 2250 -91 1575 -91 
Q 1294 -91 989 -36 
Q 684 19 347 128 
L 347 722 
Q 666 556 975 473 
Q 1284 391 1588 391 
Q 1994 391 2212 530 
Q 2431 669 2431 922 
Q 2431 1156 2273 1281 
Q 2116 1406 1581 1522 
L 1381 1569 
Q 847 1681 609 1914 
Q 372 2147 372 2553 
Q 372 3047 722 3315 
Q 1072 3584 1716 3584 
Q 2034 3584 2315 3537 
Q 2597 3491 2834 3397 
z
" transform="scale(0.015625)"/>
      <path id="DejaVuSans-6e" d="M 3513 2113 
L 3513 0 
L 2938 0 
L 2938 2094 
Q 2938 2591 2744 2837 
Q 2550 3084 2163 3084 
Q 1697 3084 1428 2787 
Q 1159 2491 1159 1978 
L 1159 0 
L 581 0 
L 581 3500 
L 1159 3500 
L 1159 2956 
Q 1366 3272 1645 3428 
Q 1925 3584 2291 3584 
Q 2894 3584 3203 3211 
Q 3513 2838 3513 2113 
z
" transform="scale(0.015625)"/>
      <path id="DejaVuSans-63" d="M 3122 3366 
L 3122 2828 
Q 2878 2963 2633 3030 
Q 2388 3097 2138 3097 
Q 1578 3097 1268 2742 
Q 959 2388 959 1747 
Q 959 1106 1268 751 
Q 1578 397 2138 397 
Q 2388 397 2633 464 
Q 2878 531 3122 666 
L 3122 134 
Q 2881 22 2623 -34 
Q 2366 -91 2075 -91 
Q 1284 -91 818 406 
Q 353 903 353 1747 
Q 353 2603 823 3093 
Q 1294 3584 2113 3584 
Q 2378 3584 2631 3529 
Q 2884 3475 3122 3366 
z
" transform="scale(0.015625)"/>
      <path id="DejaVuSans-75" d="M 544 1381 
L 544 3500 
L 1119 3500 
L 1119 1403 
Q 1119 906 1312 657 
Q 1506 409 1894 409 
Q 2359 409 2629 706 
Q 2900 1003 2900 1516 
L 2900 3500 
L 3475 3500 
L 3475 0 
L 2900 0 
L 2900 538 
Q 2691 219 2414 64 
Q 2138 -91 1772 -91 
Q 1169 -91 856 284 
Q 544 659 544 1381 
z
M 1991 3584 
L 1991 3584 
z
" transform="scale(0.015625)"/>
      <path id="DejaVuSans-3a" d="M 750 794 
L 1409 794 
L 1409 0 
L 750 0 
L 750 794 
z
M 750 3309 
L 1409 3309 
L 1409 2516 
L 750 2516 
L 750 3309 
z
" transform="scale(0.015625)"/>
      <path id="DejaVuSans-53" d="M 3425 4513 
L 3425 3897 
Q 3066 4069 2747 4153 
Q 2428 4238 2131 4238 
Q 1616 4238 1336 4038 
Q 1056 3838 1056 3469 
Q 1056 3159 1242 3001 
Q 1428 2844 1947 2747 
L 2328 2669 
Q 3034 2534 3370 2195 
Q 3706 1856 3706 1288 
Q 3706 609 3251 259 
Q 2797 -91 1919 -91 
Q 1588 -91 1214 -16 
Q 841 59 441 206 
L 441 856 
Q 825 641 1194 531 
Q 1563 422 1919 422 
Q 2459 422 2753 634 
Q 3047 847 3047 1241 
Q 3047 1584 2836 1778 
Q 2625 1972 2144 2069 
L 1759 2144 
Q 1053 2284 737 2584 
Q 422 2884 422 3419 
Q 422 4038 858 4394 
Q 1294 4750 2059 4750 
Q 2388 4750 2728 4690 
Q 3069 4631 3425 4513 
z
" transform="scale(0.015625)"/>
      <path id="DejaVuSans-72" d="M 2631 2963 
Q 2534 3019 2420 3045 
Q 2306 3072 2169 3072 
Q 1681 3072 1420 2755 
Q 1159 2438 1159 1844 
L 1159 0 
L 581 0 
L 581 3500 
L 1159 3500 
L 1159 2956 
Q 1341 3275 1631 3429 
Q 1922 3584 2338 3584 
Q 2397 3584 2469 3576 
Q 2541 3569 2628 3553 
L 2631 2963 
z
" transform="scale(0.015625)"/>
     </defs>
     <use xlink:href="#DejaVuSans-54"/>
     <use xlink:href="#DejaVuSans-6f" x="44.083984"/>
     <use xlink:href="#DejaVuSans-74" x="105.265625"/>
     <use xlink:href="#DejaVuSans-61" x="144.474609"/>
     <use xlink:href="#DejaVuSans-6c" x="205.753906"/>
     <use xlink:href="#DejaVuSans-20" x="233.537109"/>
     <use xlink:href="#DejaVuSans-65" x="265.324219"/>
     <use xlink:href="#DejaVuSans-6d" x="326.847656"/>
     <use xlink:href="#DejaVuSans-69" x="424.259766"/>
     <use xlink:href="#DejaVuSans-73" x="452.042969"/>
     <use xlink:href="#DejaVuSans-73" x="504.142578"/>
     <use xlink:href="#DejaVuSans-69" x="556.242188"/>
     <use xlink:href="#DejaVuSans-6f" x="584.025391"/>
     <use xlink:href="#DejaVuSans-6e" x="645.207031"/>
     <use xlink:href="#DejaVuSans-20" x="708.585938"/>
     <use xlink:href="#DejaVuSans-63" x="740.373047"/>
     <use xlink:href="#DejaVuSans-61" x="795.353516"/>
     <use xlink:href="#DejaVuSans-6c" x="856.632812"/>
     <use xlink:href="#DejaVuSans-63" x="884.416016"/>
     <use xlink:href="#DejaVuSans-75" x="939.396484"/>
     <use xlink:href="#DejaVuSans-6c" x="1002.775391"/>
     <use xlink:href="#DejaVuSans-61" x="1030.558594"/>
     <use xlink:href="#DejaVuSans-74" x="1091.837891"/>
     <use xlink:href="#DejaVuSans-69" x="1131.046875"/>
     <use xlink:href="#DejaVuSans-6f" x="1158.830078"/>
     <use xlink:href="#DejaVuSans-6e" x="1220.011719"/>
     <use xlink:href="#DejaVuSans-3a" x="1283.390625"/>
     <use xlink:href="#DejaVuSans-20" x="1317.082031"/>
     <use xlink:href="#DejaVuSans-53" x="1348.869141"/>
     <use xlink:href="#DejaVuSans-74" x="1412.345703"/>
     <use xlink:href="#DejaVuSans-61" x="1451.554688"/>
     <use xlink:href="#DejaVuSans-72" x="1512.833984"/>
     <use xlink:href="#DejaVuSans-74" x="1553.947266"/>
    </g>
   </g>
   <g id="text_2">
    <!-- Receive user inputs (ingredients)  -->
    <g transform="translate(32.457578 137.392344) scale(0.11 -0.11)">
     <defs>
      <path id="DejaVuSans-52" d="M 2841 2188 
Q 3044 2119 3236 1894 
Q 3428 1669 3622 1275 
L 4263 0 
L 3584 0 
L 2988 1197 
Q 2756 1666 2539 1819 
Q 2322 1972 1947 1972 
L 1259 1972 
L 1259 0 
L 628 0 
L 628 4666 
L 2053 4666 
Q 2853 4666 3247 4331 
Q 3641 3997 3641 3322 
Q 3641 2881 3436 2590 
Q 3231 2300 2841 2188 
z
M 1259 4147 
L 1259 2491 
L 2053 2491 
Q 2509 2491 2742 2702 
Q 2975 2913 2975 3322 
Q 2975 3731 2742 3939 
Q 2509 4147 2053 4147 
L 1259 4147 
z
" transform="scale(0.015625)"/>
      <path id="DejaVuSans-76" d="M 191 3500 
L 800 3500 
L 1894 563 
L 2988 3500 
L 3597 3500 
L 2284 0 
L 1503 0 
L 191 3500 
z
" transform="scale(0.015625)"/>
      <path id="DejaVuSans-70" d="M 1159 525 
L 1159 -1331 
L 581 -1331 
L 581 3500 
L 1159 3500 
L 1159 2969 
Q 1341 3281 1617 3432 
Q 1894 3584 2278 3584 
Q 2916 3584 3314 3078 
Q 3713 2572 3713 1747 
Q 3713 922 3314 415 
Q 2916 -91 2278 -91 
Q 1894 -91 1617 61 
Q 1341 213 1159 525 
z
M 3116 1747 
Q 3116 2381 2855 2742 
Q 2594 3103 2138 3103 
Q 1681 3103 1420 2742 
Q 1159 2381 1159 1747 
Q 1159 1113 1420 752 
Q 1681 391 2138 391 
Q 2594 391 2855 752 
Q 3116 1113 3116 1747 
z
" transform="scale(0.015625)"/>
      <path id="DejaVuSans-28" d="M 1984 4856 
Q 1566 4138 1362 3434 
Q 1159 2731 1159 2009 
Q 1159 1288 1364 580 
Q 1569 -128 1984 -844 
L 1484 -844 
Q 1016 -109 783 600 
Q 550 1309 550 2009 
Q 550 2706 781 3412 
Q 1013 4119 1484 4856 
L 1984 4856 
z
" transform="scale(0.015625)"/>
      <path id="DejaVuSans-67" d="M 2906 1791 
Q 2906 2416 2648 2759 
Q 2391 3103 1925 3103 
Q 1463 3103 1205 2759 
Q 947 2416 947 1791 
Q 947 1169 1205 825 
Q 1463 481 1925 481 
Q 2391 481 2648 825 
Q 2906 1169 2906 1791 
z
M 3481 434 
Q 3481 -459 3084 -895 
Q 2688 -1331 1869 -1331 
Q 1566 -1331 1297 -1286 
Q 1028 -1241 775 -1147 
L 775 -588 
Q 1028 -725 1275 -790 
Q 1522 -856 1778 -856 
Q 2344 -856 2625 -561 
Q 2906 -266 2906 331 
L 2906 616 
Q 2728 306 2450 153 
Q 2172 0 1784 0 
Q 1141 0 747 490 
Q 353 981 353 1791 
Q 353 2603 747 3093 
Q 1141 3584 1784 3584 
Q 2172 3584 2450 3431 
Q 2728 3278 2906 2969 
L 2906 3500 
L 3481 3500 
L 3481 434 
z
" transform="scale(0.015625)"/>
      <path id="DejaVuSans-64" d="M 2906 2969 
L 2906 4863 
L 3481 4863 
L 3481 0 
L 2906 0 
L 2906 525 
Q 2725 213 2448 61 
Q 2172 -91 1784 -91 
Q 1150 -91 751 415 
Q 353 922 353 1747 
Q 353 2572 751 3078 
Q 1150 3584 1784 3584 
Q 2172 3584 2448 3432 
Q 2725 3281 2906 2969 
z
M 947 1747 
Q 947 1113 1208 752 
Q 1469 391 1925 391 
Q 2381 391 2643 752 
Q 2906 1113 2906 1747 
Q 2906 2381 2643 2742 
Q 2381 3103 1925 3103 
Q 1469 3103 1208 2742 
Q 947 2381 947 1747 
z
" transform="scale(0.015625)"/>
      <path id="DejaVuSans-29" d="M 513 4856 
L 1013 4856 
Q 1481 4119 1714 3412 
Q 1947 2706 1947 2009 
Q 1947 1309 1714 600 
Q 1481 -109 1013 -844 
L 513 -844 
Q 928 -128 1133 580 
Q 1338 1288 1338 2009 
Q 1338 2731 1133 3434 
Q 928 4138 513 4856 
z
" transform="scale(0.015625)"/>
     </defs>
     <use xlink:href="#DejaVuSans-52"/>
     <use xlink:href="#DejaVuSans-65" x="64.982422"/>
     <use xlink:href="#DejaVuSans-63" x="126.505859"/>
     <use xlink:href="#DejaVuSans-65" x="181.486328"/>
     <use xlink:href="#DejaVuSans-69" x="243.009766"/>
     <use xlink:href="#DejaVuSans-76" x="270.792969"/>
     <use xlink:href="#DejaVuSans-65" x="329.972656"/>
     <use xlink:href="#DejaVuSans-20" x="391.496094"/>
     <use xlink:href="#DejaVuSans-75" x="423.283203"/>
     <use xlink:href="#DejaVuSans-73" x="486.662109"/>
     <use xlink:href="#DejaVuSans-65" x="538.761719"/>
     <use xlink:href="#DejaVuSans-72" x="600.285156"/>
     <use xlink:href="#DejaVuSans-20" x="641.398438"/>
     <use xlink:href="#DejaVuSans-69" x="673.185547"/>
     <use xlink:href="#DejaVuSans-6e" x="700.96875"/>
     <use xlink:href="#DejaVuSans-70" x="764.347656"/>
     <use xlink:href="#DejaVuSans-75" x="827.824219"/>
     <use xlink:href="#DejaVuSans-74" x="891.203125"/>
     <use xlink:href="#DejaVuSans-73" x="930.412109"/>
     <use xlink:href="#DejaVuSans-20" x="982.511719"/>
     <use xlink:href="#DejaVuSans-28" x="1014.298828"/>
     <use xlink:href="#DejaVuSans-69" x="1053.3125"/>
     <use xlink:href="#DejaVuSans-6e" x="1081.095703"/>
     <use xlink:href="#DejaVuSans-67" x="1144.474609"/>
     <use xlink:href="#DejaVuSans-72" x="1207.951172"/>
     <use xlink:href="#DejaVuSans-65" x="1246.814453"/>
     <use xlink:href="#DejaVuSans-64" x="1308.337891"/>
     <use xlink:href="#DejaVuSans-69" x="1371.814453"/>
     <use xlink:href="#DejaVuSans-65" x="1399.597656"/>
     <use xlink:href="#DejaVuSans-6e" x="1461.121094"/>
     <use xlink:href="#DejaVuSans-74" x="1524.5"/>
     <use xlink:href="#DejaVuSans-73" x="1563.708984"/>
     <use xlink:href="#DejaVuSans-29" x="1615.808594"/>
     <use xlink:href="#DejaVuSans-20" x="1654.822266"/>
    </g>
    <!--  that go into a single recipe -->
    <g transform="translate(49.570313 148.038281) scale(0.11 -0.11)">
     <defs>
      <path id="DejaVuSans-68" d="M 3513 2113 
L 3513 0 
L 2938 0 
L 2938 2094 
Q 2938 2591 2744 2837 
Q 2550 3084 2163 3084 
Q 1697 3084 1428 2787 
Q 1159 2491 1159 1978 
L 1159 0 
L 581 0 
L 581 4863 
L 1159 4863 
L 1159 2956 
Q 1366 3272 1645 3428 
Q 1925 3584 2291 3584 
Q 2894 3584 3203 3211 
Q 3513 2838 3513 2113 
z
" transform="scale(0.015625)"/>
     </defs>
     <use xlink:href="#DejaVuSans-20"/>
     <use xlink:href="#DejaVuSans-74" x="31.787109"/>
     <use xlink:href="#DejaVuSans-68" x="70.996094"/>
     <use xlink:href="#DejaVuSans-61" x="134.375"/>
     <use xlink:href="#DejaVuSans-74" x="195.654297"/>
     <use xlink:href="#DejaVuSans-20" x="234.863281"/>
     <use xlink:href="#DejaVuSans-67" x="266.650391"/>
     <use xlink:href="#DejaVuSans-6f" x="330.126953"/>
     <use xlink:href="#DejaVuSans-20" x="391.308594"/>
     <use xlink:href="#DejaVuSans-69" x="423.095703"/>
     <use xlink:href="#DejaVuSans-6e" x="450.878906"/>
     <use xlink:href="#DejaVuSans-74" x="514.257812"/>
     <use xlink:href="#DejaVuSans-6f" x="553.466797"/>
     <use xlink:href="#DejaVuSans-20" x="614.648438"/>
     <use xlink:href="#DejaVuSans-61" x="646.435547"/>
     <use xlink:href="#DejaVuSans-20" x="707.714844"/>
     <use xlink:href="#DejaVuSans-73" x="739.501953"/>
     <use xlink:href="#DejaVuSans-69" x="791.601562"/>
     <use xlink:href="#DejaVuSans-6e" x="819.384766"/>
     <use xlink:href="#DejaVuSans-67" x="882.763672"/>
     <use xlink:href="#DejaVuSans-6c" x="946.240234"/>
     <use xlink:href="#DejaVuSans-65" x="974.023438"/>
     <use xlink:href="#DejaVuSans-20" x="1035.546875"/>
     <use xlink:href="#DejaVuSans-72" x="1067.333984"/>
     <use xlink:href="#DejaVuSans-65" x="1106.197266"/>
     <use xlink:href="#DejaVuSans-63" x="1167.720703"/>
     <use xlink:href="#DejaVuSans-69" x="1222.701172"/>
     <use xlink:href="#DejaVuSans-70" x="1250.484375"/>
     <use xlink:href="#DejaVuSans-65" x="1313.960938"/>
    </g>
   </g>
   <g id="text_3">
    <!-- Assess the cumulative greenhouse gas (GHG)  -->
    <g transform="translate(0 263.600312) scale(0.1 -0.1)">
     <defs>
      <path id="DejaVuSans-41" d="M 2188 4044 
L 1331 1722 
L 3047 1722 
L 2188 4044 
z
M 1831 4666 
L 2547 4666 
L 4325 0 
L 3669 0 
L 3244 1197 
L 1141 1197 
L 716 0 
L 50 0 
L 1831 4666 
z
" transform="scale(0.015625)"/>
      <path id="DejaVuSans-47" d="M 3809 666 
L 3809 1919 
L 2778 1919 
L 2778 2438 
L 4434 2438 
L 4434 434 
Q 4069 175 3628 42 
Q 3188 -91 2688 -91 
Q 1594 -91 976 548 
Q 359 1188 359 2328 
Q 359 3472 976 4111 
Q 1594 4750 2688 4750 
Q 3144 4750 3555 4637 
Q 3966 4525 4313 4306 
L 4313 3634 
Q 3963 3931 3569 4081 
Q 3175 4231 2741 4231 
Q 1884 4231 1454 3753 
Q 1025 3275 1025 2328 
Q 1025 1384 1454 906 
Q 1884 428 2741 428 
Q 3075 428 3337 486 
Q 3600 544 3809 666 
z
" transform="scale(0.015625)"/>
      <path id="DejaVuSans-48" d="M 628 4666 
L 1259 4666 
L 1259 2753 
L 3553 2753 
L 3553 4666 
L 4184 4666 
L 4184 0 
L 3553 0 
L 3553 2222 
L 1259 2222 
L 1259 0 
L 628 0 
L 628 4666 
z
" transform="scale(0.015625)"/>
     </defs>
     <use xlink:href="#DejaVuSans-41"/>
     <use xlink:href="#DejaVuSans-73" x="68.408203"/>
     <use xlink:href="#DejaVuSans-73" x="120.507812"/>
     <use xlink:href="#DejaVuSans-65" x="172.607422"/>
     <use xlink:href="#DejaVuSans-73" x="234.130859"/>
     <use xlink:href="#DejaVuSans-73" x="286.230469"/>
     <use xlink:href="#DejaVuSans-20" x="338.330078"/>
     <use xlink:href="#DejaVuSans-74" x="370.117188"/>
     <use xlink:href="#DejaVuSans-68" x="409.326172"/>
     <use xlink:href="#DejaVuSans-65" x="472.705078"/>
     <use xlink:href="#DejaVuSans-20" x="534.228516"/>
     <use xlink:href="#DejaVuSans-63" x="566.015625"/>
     <use xlink:href="#DejaVuSans-75" x="620.996094"/>
     <use xlink:href="#DejaVuSans-6d" x="684.375"/>
     <use xlink:href="#DejaVuSans-75" x="781.787109"/>
     <use xlink:href="#DejaVuSans-6c" x="845.166016"/>
     <use xlink:href="#DejaVuSans-61" x="872.949219"/>
     <use xlink:href="#DejaVuSans-74" x="934.228516"/>
     <use xlink:href="#DejaVuSans-69" x="973.4375"/>
     <use xlink:href="#DejaVuSans-76" x="1001.220703"/>
     <use xlink:href="#DejaVuSans-65" x="1060.400391"/>
     <use xlink:href="#DejaVuSans-20" x="1121.923828"/>
     <use xlink:href="#DejaVuSans-67" x="1153.710938"/>
     <use xlink:href="#DejaVuSans-72" x="1217.1875"/>
     <use xlink:href="#DejaVuSans-65" x="1256.050781"/>
     <use xlink:href="#DejaVuSans-65" x="1317.574219"/>
     <use xlink:href="#DejaVuSans-6e" x="1379.097656"/>
     <use xlink:href="#DejaVuSans-68" x="1442.476562"/>
     <use xlink:href="#DejaVuSans-6f" x="1505.855469"/>
     <use xlink:href="#DejaVuSans-75" x="1567.037109"/>
     <use xlink:href="#DejaVuSans-73" x="1630.416016"/>
     <use xlink:href="#DejaVuSans-65" x="1682.515625"/>
     <use xlink:href="#DejaVuSans-20" x="1744.039062"/>
     <use xlink:href="#DejaVuSans-67" x="1775.826172"/>
     <use xlink:href="#DejaVuSans-61" x="1839.302734"/>
     <use xlink:href="#DejaVuSans-73" x="1900.582031"/>
     <use xlink:href="#DejaVuSans-20" x="1952.681641"/>
     <use xlink:href="#DejaVuSans-28" x="1984.46875"/>
     <use xlink:href="#DejaVuSans-47" x="2023.482422"/>
     <use xlink:href="#DejaVuSans-48" x="2100.972656"/>
     <use xlink:href="#DejaVuSans-47" x="2176.167969"/>
     <use xlink:href="#DejaVuSans-29" x="2253.658203"/>
     <use xlink:href="#DejaVuSans-20" x="2292.671875"/>
    </g>
    <!--  emissions generated by the recipe. -->
    <g transform="translate(26.345313 273.278437) scale(0.1 -0.1)">
     <defs>
      <path id="DejaVuSans-62" d="M 3116 1747 
Q 3116 2381 2855 2742 
Q 2594 3103 2138 3103 
Q 1681 3103 1420 2742 
Q 1159 2381 1159 1747 
Q 1159 1113 1420 752 
Q 1681 391 2138 391 
Q 2594 391 2855 752 
Q 3116 1113 3116 1747 
z
M 1159 2969 
Q 1341 3281 1617 3432 
Q 1894 3584 2278 3584 
Q 2916 3584 3314 3078 
Q 3713 2572 3713 1747 
Q 3713 922 3314 415 
Q 2916 -91 2278 -91 
Q 1894 -91 1617 61 
Q 1341 213 1159 525 
L 1159 0 
L 581 0 
L 581 4863 
L 1159 4863 
L 1159 2969 
z
" transform="scale(0.015625)"/>
      <path id="DejaVuSans-79" d="M 2059 -325 
Q 1816 -950 1584 -1140 
Q 1353 -1331 966 -1331 
L 506 -1331 
L 506 -850 
L 844 -850 
Q 1081 -850 1212 -737 
Q 1344 -625 1503 -206 
L 1606 56 
L 191 3500 
L 800 3500 
L 1894 763 
L 2988 3500 
L 3597 3500 
L 2059 -325 
z
" transform="scale(0.015625)"/>
      <path id="DejaVuSans-2e" d="M 684 794 
L 1344 794 
L 1344 0 
L 684 0 
L 684 794 
z
" transform="scale(0.015625)"/>
     </defs>
     <use xlink:href="#DejaVuSans-20"/>
     <use xlink:href="#DejaVuSans-65" x="31.787109"/>
     <use xlink:href="#DejaVuSans-6d" x="93.310547"/>
     <use xlink:href="#DejaVuSans-69" x="190.722656"/>
     <use xlink:href="#DejaVuSans-73" x="218.505859"/>
     <use xlink:href="#DejaVuSans-73" x="270.605469"/>
     <use xlink:href="#DejaVuSans-69" x="322.705078"/>
     <use xlink:href="#DejaVuSans-6f" x="350.488281"/>
     <use xlink:href="#DejaVuSans-6e" x="411.669922"/>
     <use xlink:href="#DejaVuSans-73" x="475.048828"/>
     <use xlink:href="#DejaVuSans-20" x="527.148438"/>
     <use xlink:href="#DejaVuSans-67" x="558.935547"/>
     <use xlink:href="#DejaVuSans-65" x="622.412109"/>
     <use xlink:href="#DejaVuSans-6e" x="683.935547"/>
     <use xlink:href="#DejaVuSans-65" x="747.314453"/>
     <use xlink:href="#DejaVuSans-72" x="808.837891"/>
     <use xlink:href="#DejaVuSans-61" x="849.951172"/>
     <use xlink:href="#DejaVuSans-74" x="911.230469"/>
     <use xlink:href="#DejaVuSans-65" x="950.439453"/>
     <use xlink:href="#DejaVuSans-64" x="1011.962891"/>
     <use xlink:href="#DejaVuSans-20" x="1075.439453"/>
     <use xlink:href="#DejaVuSans-62" x="1107.226562"/>
     <use xlink:href="#DejaVuSans-79" x="1170.703125"/>
     <use xlink:href="#DejaVuSans-20" x="1229.882812"/>
     <use xlink:href="#DejaVuSans-74" x="1261.669922"/>
     <use xlink:href="#DejaVuSans-68" x="1300.878906"/>
     <use xlink:href="#DejaVuSans-65" x="1364.257812"/>
     <use xlink:href="#DejaVuSans-20" x="1425.78125"/>
     <use xlink:href="#DejaVuSans-72" x="1457.568359"/>
     <use xlink:href="#DejaVuSans-65" x="1496.431641"/>
     <use xlink:href="#DejaVuSans-63" x="1557.955078"/>
     <use xlink:href="#DejaVuSans-69" x="1612.935547"/>
     <use xlink:href="#DejaVuSans-70" x="1640.71875"/>
     <use xlink:href="#DejaVuSans-65" x="1704.195312"/>
     <use xlink:href="#DejaVuSans-2e" x="1765.71875"/>
    </g>
   </g>
   <g id="text_4">
    <!-- NO -->
    <g transform="translate(120.901094 496.997812) scale(0.14 -0.14)">
     <defs>
      <path id="DejaVuSans-4e" d="M 628 4666 
L 1478 4666 
L 3547 763 
L 3547 4666 
L 4159 4666 
L 4159 0 
L 3309 0 
L 1241 3903 
L 1241 0 
L 628 0 
L 628 4666 
z
" transform="scale(0.015625)"/>
      <path id="DejaVuSans-4f" d="M 2522 4238 
Q 1834 4238 1429 3725 
Q 1025 3213 1025 2328 
Q 1025 1447 1429 934 
Q 1834 422 2522 422 
Q 3209 422 3611 934 
Q 4013 1447 4013 2328 
Q 4013 3213 3611 3725 
Q 3209 4238 2522 4238 
z
M 2522 4750 
Q 3503 4750 4090 4092 
Q 4678 3434 4678 2328 
Q 4678 1225 4090 567 
Q 3503 -91 2522 -91 
Q 1538 -91 948 565 
Q 359 1222 359 2328 
Q 359 3434 948 4092 
Q 1538 4750 2522 4750 
z
" transform="scale(0.015625)"/>
     </defs>
     <use xlink:href="#DejaVuSans-4e"/>
     <use xlink:href="#DejaVuSans-4f" x="74.804688"/>
    </g>
   </g>
   <g id="text_5">
    <!-- YES -->
    <g transform="translate(210.901094 411.088437) scale(0.14 -0.14)">
     <defs>
      <path id="DejaVuSans-59" d="M -13 4666 
L 666 4666 
L 1959 2747 
L 3244 4666 
L 3922 4666 
L 2272 2222 
L 2272 0 
L 1638 0 
L 1638 2222 
L -13 4666 
z
" transform="scale(0.015625)"/>
      <path id="DejaVuSans-45" d="M 628 4666 
L 3578 4666 
L 3578 4134 
L 1259 4134 
L 1259 2753 
L 3481 2753 
L 3481 2222 
L 1259 2222 
L 1259 531 
L 3634 531 
L 3634 0 
L 628 0 
L 628 4666 
z
" transform="scale(0.015625)"/>
     </defs>
     <use xlink:href="#DejaVuSans-59"/>
     <use xlink:href="#DejaVuSans-45" x="61.083984"/>
     <use xlink:href="#DejaVuSans-53" x="124.267578"/>
    </g>
   </g>
   <g id="text_6">
    <!-- Is the recipe evaluated  -->
    <g transform="translate(51.34 416.392344) scale(0.11 -0.11)">
     <defs>
      <path id="DejaVuSans-49" d="M 628 4666 
L 1259 4666 
L 1259 0 
L 628 0 
L 628 4666 
z
" transform="scale(0.015625)"/>
     </defs>
     <use xlink:href="#DejaVuSans-49"/>
     <use xlink:href="#DejaVuSans-73" x="29.492188"/>
     <use xlink:href="#DejaVuSans-20" x="81.591797"/>
     <use xlink:href="#DejaVuSans-74" x="113.378906"/>
     <use xlink:href="#DejaVuSans-68" x="152.587891"/>
     <use xlink:href="#DejaVuSans-65" x="215.966797"/>
     <use xlink:href="#DejaVuSans-20" x="277.490234"/>
     <use xlink:href="#DejaVuSans-72" x="309.277344"/>
     <use xlink:href="#DejaVuSans-65" x="348.140625"/>
     <use xlink:href="#DejaVuSans-63" x="409.664062"/>
     <use xlink:href="#DejaVuSans-69" x="464.644531"/>
     <use xlink:href="#DejaVuSans-70" x="492.427734"/>
     <use xlink:href="#DejaVuSans-65" x="555.904297"/>
     <use xlink:href="#DejaVuSans-20" x="617.427734"/>
     <use xlink:href="#DejaVuSans-65" x="649.214844"/>
     <use xlink:href="#DejaVuSans-76" x="710.738281"/>
     <use xlink:href="#DejaVuSans-61" x="769.917969"/>
     <use xlink:href="#DejaVuSans-6c" x="831.197266"/>
     <use xlink:href="#DejaVuSans-75" x="858.980469"/>
     <use xlink:href="#DejaVuSans-61" x="922.359375"/>
     <use xlink:href="#DejaVuSans-74" x="983.638672"/>
     <use xlink:href="#DejaVuSans-65" x="1022.847656"/>
     <use xlink:href="#DejaVuSans-64" x="1084.371094"/>
     <use xlink:href="#DejaVuSans-20" x="1147.847656"/>
    </g>
    <!--  to have 'High Impact'? -->
    <g transform="translate(52.605859 427.038281) scale(0.11 -0.11)">
     <defs>
      <path id="DejaVuSans-27" d="M 1147 4666 
L 1147 2931 
L 616 2931 
L 616 4666 
L 1147 4666 
z
" transform="scale(0.015625)"/>
      <path id="DejaVuSans-3f" d="M 1222 794 
L 1856 794 
L 1856 0 
L 1222 0 
L 1222 794 
z
M 1838 1253 
L 1241 1253 
L 1241 1734 
Q 1241 2050 1328 2253 
Q 1416 2456 1697 2725 
L 1978 3003 
Q 2156 3169 2236 3316 
Q 2316 3463 2316 3616 
Q 2316 3894 2111 4066 
Q 1906 4238 1569 4238 
Q 1322 4238 1042 4128 
Q 763 4019 459 3809 
L 459 4397 
Q 753 4575 1054 4662 
Q 1356 4750 1678 4750 
Q 2253 4750 2601 4447 
Q 2950 4144 2950 3647 
Q 2950 3409 2837 3195 
Q 2725 2981 2444 2713 
L 2169 2444 
Q 2022 2297 1961 2214 
Q 1900 2131 1875 2053 
Q 1856 1988 1847 1894 
Q 1838 1800 1838 1638 
L 1838 1253 
z
" transform="scale(0.015625)"/>
     </defs>
     <use xlink:href="#DejaVuSans-20"/>
     <use xlink:href="#DejaVuSans-74" x="31.787109"/>
     <use xlink:href="#DejaVuSans-6f" x="70.996094"/>
     <use xlink:href="#DejaVuSans-20" x="132.177734"/>
     <use xlink:href="#DejaVuSans-68" x="163.964844"/>
     <use xlink:href="#DejaVuSans-61" x="227.34375"/>
     <use xlink:href="#DejaVuSans-76" x="288.623047"/>
     <use xlink:href="#DejaVuSans-65" x="347.802734"/>
     <use xlink:href="#DejaVuSans-20" x="409.326172"/>
     <use xlink:href="#DejaVuSans-27" x="441.113281"/>
     <use xlink:href="#DejaVuSans-48" x="468.603516"/>
     <use xlink:href="#DejaVuSans-69" x="543.798828"/>
     <use xlink:href="#DejaVuSans-67" x="571.582031"/>
     <use xlink:href="#DejaVuSans-68" x="635.058594"/>
     <use xlink:href="#DejaVuSans-20" x="698.4375"/>
     <use xlink:href="#DejaVuSans-49" x="730.224609"/>
     <use xlink:href="#DejaVuSans-6d" x="759.716797"/>
     <use xlink:href="#DejaVuSans-70" x="857.128906"/>
     <use xlink:href="#DejaVuSans-61" x="920.605469"/>
     <use xlink:href="#DejaVuSans-63" x="981.884766"/>
     <use xlink:href="#DejaVuSans-74" x="1036.865234"/>
     <use xlink:href="#DejaVuSans-27" x="1076.074219"/>
     <use xlink:href="#DejaVuSans-3f" x="1103.564453"/>
    </g>
   </g>
   <g id="text_7">
    <!-- End. You have a good recipe! -->
    <g transform="translate(36.064609 574.715312) scale(0.11 -0.11)">
     <defs>
      <path id="DejaVuSans-21" d="M 966 794 
L 1600 794 
L 1600 0 
L 966 0 
L 966 794 
z
M 966 4666 
L 1600 4666 
L 1600 2619 
L 1538 1503 
L 1031 1503 
L 966 2619 
L 966 4666 
z
" transform="scale(0.015625)"/>
     </defs>
     <use xlink:href="#DejaVuSans-45"/>
     <use xlink:href="#DejaVuSans-6e" x="63.183594"/>
     <use xlink:href="#DejaVuSans-64" x="126.5625"/>
     <use xlink:href="#DejaVuSans-2e" x="190.039062"/>
     <use xlink:href="#DejaVuSans-20" x="221.826172"/>
     <use xlink:href="#DejaVuSans-59" x="253.613281"/>
     <use xlink:href="#DejaVuSans-6f" x="301.447266"/>
     <use xlink:href="#DejaVuSans-75" x="362.628906"/>
     <use xlink:href="#DejaVuSans-20" x="426.007812"/>
     <use xlink:href="#DejaVuSans-68" x="457.794922"/>
     <use xlink:href="#DejaVuSans-61" x="521.173828"/>
     <use xlink:href="#DejaVuSans-76" x="582.453125"/>
     <use xlink:href="#DejaVuSans-65" x="641.632812"/>
     <use xlink:href="#DejaVuSans-20" x="703.15625"/>
     <use xlink:href="#DejaVuSans-61" x="734.943359"/>
     <use xlink:href="#DejaVuSans-20" x="796.222656"/>
     <use xlink:href="#DejaVuSans-67" x="828.009766"/>
     <use xlink:href="#DejaVuSans-6f" x="891.486328"/>
     <use xlink:href="#DejaVuSans-6f" x="952.667969"/>
     <use xlink:href="#DejaVuSans-64" x="1013.849609"/>
     <use xlink:href="#DejaVuSans-20" x="1077.326172"/>
     <use xlink:href="#DejaVuSans-72" x="1109.113281"/>
     <use xlink:href="#DejaVuSans-65" x="1147.976562"/>
     <use xlink:href="#DejaVuSans-63" x="1209.5"/>
     <use xlink:href="#DejaVuSans-69" x="1264.480469"/>
     <use xlink:href="#DejaVuSans-70" x="1292.263672"/>
     <use xlink:href="#DejaVuSans-65" x="1355.740234"/>
     <use xlink:href="#DejaVuSans-21" x="1417.263672"/>
    </g>
   </g>
   <g id="text_8">
    <!-- Recommend substituting a high  -->
    <g transform="translate(349.016641 408.097969) scale(0.09 -0.09)">
     <use xlink:href="#DejaVuSans-52"/>
     <use xlink:href="#DejaVuSans-65" x="64.982422"/>
     <use xlink:href="#DejaVuSans-63" x="126.505859"/>
     <use xlink:href="#DejaVuSans-6f" x="181.486328"/>
     <use xlink:href="#DejaVuSans-6d" x="242.667969"/>
     <use xlink:href="#DejaVuSans-6d" x="340.080078"/>
     <use xlink:href="#DejaVuSans-65" x="437.492188"/>
     <use xlink:href="#DejaVuSans-6e" x="499.015625"/>
     <use xlink:href="#DejaVuSans-64" x="562.394531"/>
     <use xlink:href="#DejaVuSans-20" x="625.871094"/>
     <use xlink:href="#DejaVuSans-73" x="657.658203"/>
     <use xlink:href="#DejaVuSans-75" x="709.757812"/>
     <use xlink:href="#DejaVuSans-62" x="773.136719"/>
     <use xlink:href="#DejaVuSans-73" x="836.613281"/>
     <use xlink:href="#DejaVuSans-74" x="888.712891"/>
     <use xlink:href="#DejaVuSans-69" x="927.921875"/>
     <use xlink:href="#DejaVuSans-74" x="955.705078"/>
     <use xlink:href="#DejaVuSans-75" x="994.914062"/>
     <use xlink:href="#DejaVuSans-74" x="1058.292969"/>
     <use xlink:href="#DejaVuSans-69" x="1097.501953"/>
     <use xlink:href="#DejaVuSans-6e" x="1125.285156"/>
     <use xlink:href="#DejaVuSans-67" x="1188.664062"/>
     <use xlink:href="#DejaVuSans-20" x="1252.140625"/>
     <use xlink:href="#DejaVuSans-61" x="1283.927734"/>
     <use xlink:href="#DejaVuSans-20" x="1345.207031"/>
     <use xlink:href="#DejaVuSans-68" x="1376.994141"/>
     <use xlink:href="#DejaVuSans-69" x="1440.373047"/>
     <use xlink:href="#DejaVuSans-67" x="1468.15625"/>
     <use xlink:href="#DejaVuSans-68" x="1531.632812"/>
     <use xlink:href="#DejaVuSans-20" x="1595.011719"/>
    </g>
    <!--  GHG-emitting ingredient             in the current recipe with -->
    <g transform="translate(290.077187 416.808281) scale(0.09 -0.09)">
     <defs>
      <path id="DejaVuSans-2d" d="M 313 2009 
L 1997 2009 
L 1997 1497 
L 313 1497 
L 313 2009 
z
" transform="scale(0.015625)"/>
      <path id="DejaVuSans-77" d="M 269 3500 
L 844 3500 
L 1563 769 
L 2278 3500 
L 2956 3500 
L 3675 769 
L 4391 3500 
L 4966 3500 
L 4050 0 
L 3372 0 
L 2619 2869 
L 1863 0 
L 1184 0 
L 269 3500 
z
" transform="scale(0.015625)"/>
     </defs>
     <use xlink:href="#DejaVuSans-20"/>
     <use xlink:href="#DejaVuSans-47" x="31.787109"/>
     <use xlink:href="#DejaVuSans-48" x="109.277344"/>
     <use xlink:href="#DejaVuSans-47" x="184.472656"/>
     <use xlink:href="#DejaVuSans-2d" x="261.962891"/>
     <use xlink:href="#DejaVuSans-65" x="298.046875"/>
     <use xlink:href="#DejaVuSans-6d" x="359.570312"/>
     <use xlink:href="#DejaVuSans-69" x="456.982422"/>
     <use xlink:href="#DejaVuSans-74" x="484.765625"/>
     <use xlink:href="#DejaVuSans-74" x="523.974609"/>
     <use xlink:href="#DejaVuSans-69" x="563.183594"/>
     <use xlink:href="#DejaVuSans-6e" x="590.966797"/>
     <use xlink:href="#DejaVuSans-67" x="654.345703"/>
     <use xlink:href="#DejaVuSans-20" x="717.822266"/>
     <use xlink:href="#DejaVuSans-69" x="749.609375"/>
     <use xlink:href="#DejaVuSans-6e" x="777.392578"/>
     <use xlink:href="#DejaVuSans-67" x="840.771484"/>
     <use xlink:href="#DejaVuSans-72" x="904.248047"/>
     <use xlink:href="#DejaVuSans-65" x="943.111328"/>
     <use xlink:href="#DejaVuSans-64" x="1004.634766"/>
     <use xlink:href="#DejaVuSans-69" x="1068.111328"/>
     <use xlink:href="#DejaVuSans-65" x="1095.894531"/>
     <use xlink:href="#DejaVuSans-6e" x="1157.417969"/>
     <use xlink:href="#DejaVuSans-74" x="1220.796875"/>
     <use xlink:href="#DejaVuSans-20" x="1260.005859"/>
     <use xlink:href="#DejaVuSans-20" x="1291.792969"/>
     <use xlink:href="#DejaVuSans-20" x="1323.580078"/>
     <use xlink:href="#DejaVuSans-20" x="1355.367188"/>
     <use xlink:href="#DejaVuSans-20" x="1387.154297"/>
     <use xlink:href="#DejaVuSans-20" x="1418.941406"/>
     <use xlink:href="#DejaVuSans-20" x="1450.728516"/>
     <use xlink:href="#DejaVuSans-20" x="1482.515625"/>
     <use xlink:href="#DejaVuSans-20" x="1514.302734"/>
     <use xlink:href="#DejaVuSans-20" x="1546.089844"/>
     <use xlink:href="#DejaVuSans-20" x="1577.876953"/>
     <use xlink:href="#DejaVuSans-20" x="1609.664062"/>
     <use xlink:href="#DejaVuSans-20" x="1641.451172"/>
     <use xlink:href="#DejaVuSans-69" x="1673.238281"/>
     <use xlink:href="#DejaVuSans-6e" x="1701.021484"/>
     <use xlink:href="#DejaVuSans-20" x="1764.400391"/>
     <use xlink:href="#DejaVuSans-74" x="1796.1875"/>
     <use xlink:href="#DejaVuSans-68" x="1835.396484"/>
     <use xlink:href="#DejaVuSans-65" x="1898.775391"/>
     <use xlink:href="#DejaVuSans-20" x="1960.298828"/>
     <use xlink:href="#DejaVuSans-63" x="1992.085938"/>
     <use xlink:href="#DejaVuSans-75" x="2047.066406"/>
     <use xlink:href="#DejaVuSans-72" x="2110.445312"/>
     <use xlink:href="#DejaVuSans-72" x="2149.808594"/>
     <use xlink:href="#DejaVuSans-65" x="2188.671875"/>
     <use xlink:href="#DejaVuSans-6e" x="2250.195312"/>
     <use xlink:href="#DejaVuSans-74" x="2313.574219"/>
     <use xlink:href="#DejaVuSans-20" x="2352.783203"/>
     <use xlink:href="#DejaVuSans-72" x="2384.570312"/>
     <use xlink:href="#DejaVuSans-65" x="2423.433594"/>
     <use xlink:href="#DejaVuSans-63" x="2484.957031"/>
     <use xlink:href="#DejaVuSans-69" x="2539.9375"/>
     <use xlink:href="#DejaVuSans-70" x="2567.720703"/>
     <use xlink:href="#DejaVuSans-65" x="2631.197266"/>
     <use xlink:href="#DejaVuSans-20" x="2692.720703"/>
     <use xlink:href="#DejaVuSans-77" x="2724.507812"/>
     <use xlink:href="#DejaVuSans-69" x="2806.294922"/>
     <use xlink:href="#DejaVuSans-74" x="2834.078125"/>
     <use xlink:href="#DejaVuSans-68" x="2873.287109"/>
    </g>
    <!--  an alternative from                   food categories known for  -->
    <g transform="translate(290.122891 425.518594) scale(0.09 -0.09)">
     <defs>
      <path id="DejaVuSans-66" d="M 2375 4863 
L 2375 4384 
L 1825 4384 
Q 1516 4384 1395 4259 
Q 1275 4134 1275 3809 
L 1275 3500 
L 2222 3500 
L 2222 3053 
L 1275 3053 
L 1275 0 
L 697 0 
L 697 3053 
L 147 3053 
L 147 3500 
L 697 3500 
L 697 3744 
Q 697 4328 969 4595 
Q 1241 4863 1831 4863 
L 2375 4863 
z
" transform="scale(0.015625)"/>
      <path id="DejaVuSans-6b" d="M 581 4863 
L 1159 4863 
L 1159 1991 
L 2875 3500 
L 3609 3500 
L 1753 1863 
L 3688 0 
L 2938 0 
L 1159 1709 
L 1159 0 
L 581 0 
L 581 4863 
z
" transform="scale(0.015625)"/>
     </defs>
     <use xlink:href="#DejaVuSans-20"/>
     <use xlink:href="#DejaVuSans-61" x="31.787109"/>
     <use xlink:href="#DejaVuSans-6e" x="93.066406"/>
     <use xlink:href="#DejaVuSans-20" x="156.445312"/>
     <use xlink:href="#DejaVuSans-61" x="188.232422"/>
     <use xlink:href="#DejaVuSans-6c" x="249.511719"/>
     <use xlink:href="#DejaVuSans-74" x="277.294922"/>
     <use xlink:href="#DejaVuSans-65" x="316.503906"/>
     <use xlink:href="#DejaVuSans-72" x="378.027344"/>
     <use xlink:href="#DejaVuSans-6e" x="417.390625"/>
     <use xlink:href="#DejaVuSans-61" x="480.769531"/>
     <use xlink:href="#DejaVuSans-74" x="542.048828"/>
     <use xlink:href="#DejaVuSans-69" x="581.257812"/>
     <use xlink:href="#DejaVuSans-76" x="609.041016"/>
     <use xlink:href="#DejaVuSans-65" x="668.220703"/>
     <use xlink:href="#DejaVuSans-20" x="729.744141"/>
     <use xlink:href="#DejaVuSans-66" x="761.53125"/>
     <use xlink:href="#DejaVuSans-72" x="796.736328"/>
     <use xlink:href="#DejaVuSans-6f" x="835.599609"/>
     <use xlink:href="#DejaVuSans-6d" x="896.78125"/>
     <use xlink:href="#DejaVuSans-20" x="994.193359"/>
     <use xlink:href="#DejaVuSans-20" x="1025.980469"/>
     <use xlink:href="#DejaVuSans-20" x="1057.767578"/>
     <use xlink:href="#DejaVuSans-20" x="1089.554688"/>
     <use xlink:href="#DejaVuSans-20" x="1121.341797"/>
     <use xlink:href="#DejaVuSans-20" x="1153.128906"/>
     <use xlink:href="#DejaVuSans-20" x="1184.916016"/>
     <use xlink:href="#DejaVuSans-20" x="1216.703125"/>
     <use xlink:href="#DejaVuSans-20" x="1248.490234"/>
     <use xlink:href="#DejaVuSans-20" x="1280.277344"/>
     <use xlink:href="#DejaVuSans-20" x="1312.064453"/>
     <use xlink:href="#DejaVuSans-20" x="1343.851562"/>
     <use xlink:href="#DejaVuSans-20" x="1375.638672"/>
     <use xlink:href="#DejaVuSans-20" x="1407.425781"/>
     <use xlink:href="#DejaVuSans-20" x="1439.212891"/>
     <use xlink:href="#DejaVuSans-20" x="1471"/>
     <use xlink:href="#DejaVuSans-20" x="1502.787109"/>
     <use xlink:href="#DejaVuSans-20" x="1534.574219"/>
     <use xlink:href="#DejaVuSans-20" x="1566.361328"/>
     <use xlink:href="#DejaVuSans-66" x="1598.148438"/>
     <use xlink:href="#DejaVuSans-6f" x="1633.353516"/>
     <use xlink:href="#DejaVuSans-6f" x="1694.535156"/>
     <use xlink:href="#DejaVuSans-64" x="1755.716797"/>
     <use xlink:href="#DejaVuSans-20" x="1819.193359"/>
     <use xlink:href="#DejaVuSans-63" x="1850.980469"/>
     <use xlink:href="#DejaVuSans-61" x="1905.960938"/>
     <use xlink:href="#DejaVuSans-74" x="1967.240234"/>
     <use xlink:href="#DejaVuSans-65" x="2006.449219"/>
     <use xlink:href="#DejaVuSans-67" x="2067.972656"/>
     <use xlink:href="#DejaVuSans-6f" x="2131.449219"/>
     <use xlink:href="#DejaVuSans-72" x="2192.630859"/>
     <use xlink:href="#DejaVuSans-69" x="2233.744141"/>
     <use xlink:href="#DejaVuSans-65" x="2261.527344"/>
     <use xlink:href="#DejaVuSans-73" x="2323.050781"/>
     <use xlink:href="#DejaVuSans-20" x="2375.150391"/>
     <use xlink:href="#DejaVuSans-6b" x="2406.9375"/>
     <use xlink:href="#DejaVuSans-6e" x="2464.847656"/>
     <use xlink:href="#DejaVuSans-6f" x="2528.226562"/>
     <use xlink:href="#DejaVuSans-77" x="2589.408203"/>
     <use xlink:href="#DejaVuSans-6e" x="2671.195312"/>
     <use xlink:href="#DejaVuSans-20" x="2734.574219"/>
     <use xlink:href="#DejaVuSans-66" x="2766.361328"/>
     <use xlink:href="#DejaVuSans-6f" x="2801.566406"/>
     <use xlink:href="#DejaVuSans-72" x="2862.748047"/>
     <use xlink:href="#DejaVuSans-20" x="2903.861328"/>
    </g>
    <!--   lower GHG emissions. -->
    <g transform="translate(370.119531 434.228906) scale(0.09 -0.09)">
     <use xlink:href="#DejaVuSans-20"/>
     <use xlink:href="#DejaVuSans-20" x="31.787109"/>
     <use xlink:href="#DejaVuSans-6c" x="63.574219"/>
     <use xlink:href="#DejaVuSans-6f" x="91.357422"/>
     <use xlink:href="#DejaVuSans-77" x="152.539062"/>
     <use xlink:href="#DejaVuSans-65" x="234.326172"/>
     <use xlink:href="#DejaVuSans-72" x="295.849609"/>
     <use xlink:href="#DejaVuSans-20" x="336.962891"/>
     <use xlink:href="#DejaVuSans-47" x="368.75"/>
     <use xlink:href="#DejaVuSans-48" x="446.240234"/>
     <use xlink:href="#DejaVuSans-47" x="521.435547"/>
     <use xlink:href="#DejaVuSans-20" x="598.925781"/>
     <use xlink:href="#DejaVuSans-65" x="630.712891"/>
     <use xlink:href="#DejaVuSans-6d" x="692.236328"/>
     <use xlink:href="#DejaVuSans-69" x="789.648438"/>
     <use xlink:href="#DejaVuSans-73" x="817.431641"/>
     <use xlink:href="#DejaVuSans-73" x="869.53125"/>
     <use xlink:href="#DejaVuSans-69" x="921.630859"/>
     <use xlink:href="#DejaVuSans-6f" x="949.414062"/>
     <use xlink:href="#DejaVuSans-6e" x="1010.595703"/>
     <use xlink:href="#DejaVuSans-73" x="1073.974609"/>
     <use xlink:href="#DejaVuSans-2e" x="1126.074219"/>
    </g>
   </g>
   <g id="text_9">
    <!-- Evaluate how much GHG emission was -->
    <g transform="translate(314.982266 542.392344) scale(0.11 -0.11)">
     <use xlink:href="#DejaVuSans-45"/>
     <use xlink:href="#DejaVuSans-76" x="63.183594"/>
     <use xlink:href="#DejaVuSans-61" x="122.363281"/>
     <use xlink:href="#DejaVuSans-6c" x="183.642578"/>
     <use xlink:href="#DejaVuSans-75" x="211.425781"/>
     <use xlink:href="#DejaVuSans-61" x="274.804688"/>
     <use xlink:href="#DejaVuSans-74" x="336.083984"/>
     <use xlink:href="#DejaVuSans-65" x="375.292969"/>
     <use xlink:href="#DejaVuSans-20" x="436.816406"/>
     <use xlink:href="#DejaVuSans-68" x="468.603516"/>
     <use xlink:href="#DejaVuSans-6f" x="531.982422"/>
     <use xlink:href="#DejaVuSans-77" x="593.164062"/>
     <use xlink:href="#DejaVuSans-20" x="674.951172"/>
     <use xlink:href="#DejaVuSans-6d" x="706.738281"/>
     <use xlink:href="#DejaVuSans-75" x="804.150391"/>
     <use xlink:href="#DejaVuSans-63" x="867.529297"/>
     <use xlink:href="#DejaVuSans-68" x="922.509766"/>
     <use xlink:href="#DejaVuSans-20" x="985.888672"/>
     <use xlink:href="#DejaVuSans-47" x="1017.675781"/>
     <use xlink:href="#DejaVuSans-48" x="1095.166016"/>
     <use xlink:href="#DejaVuSans-47" x="1170.361328"/>
     <use xlink:href="#DejaVuSans-20" x="1247.851562"/>
     <use xlink:href="#DejaVuSans-65" x="1279.638672"/>
     <use xlink:href="#DejaVuSans-6d" x="1341.162109"/>
     <use xlink:href="#DejaVuSans-69" x="1438.574219"/>
     <use xlink:href="#DejaVuSans-73" x="1466.357422"/>
     <use xlink:href="#DejaVuSans-73" x="1518.457031"/>
     <use xlink:href="#DejaVuSans-69" x="1570.556641"/>
     <use xlink:href="#DejaVuSans-6f" x="1598.339844"/>
     <use xlink:href="#DejaVuSans-6e" x="1659.521484"/>
     <use xlink:href="#DejaVuSans-20" x="1722.900391"/>
     <use xlink:href="#DejaVuSans-77" x="1754.6875"/>
     <use xlink:href="#DejaVuSans-61" x="1836.474609"/>
     <use xlink:href="#DejaVuSans-73" x="1897.753906"/>
    </g>
    <!--  reduced by using an alternative ingredient. -->
    <g transform="translate(301.271797 553.038281) scale(0.11 -0.11)">
     <use xlink:href="#DejaVuSans-20"/>
     <use xlink:href="#DejaVuSans-72" x="31.787109"/>
     <use xlink:href="#DejaVuSans-65" x="70.650391"/>
     <use xlink:href="#DejaVuSans-64" x="132.173828"/>
     <use xlink:href="#DejaVuSans-75" x="195.650391"/>
     <use xlink:href="#DejaVuSans-63" x="259.029297"/>
     <use xlink:href="#DejaVuSans-65" x="314.009766"/>
     <use xlink:href="#DejaVuSans-64" x="375.533203"/>
     <use xlink:href="#DejaVuSans-20" x="439.009766"/>
     <use xlink:href="#DejaVuSans-62" x="470.796875"/>
     <use xlink:href="#DejaVuSans-79" x="534.273438"/>
     <use xlink:href="#DejaVuSans-20" x="593.453125"/>
     <use xlink:href="#DejaVuSans-75" x="625.240234"/>
     <use xlink:href="#DejaVuSans-73" x="688.619141"/>
     <use xlink:href="#DejaVuSans-69" x="740.71875"/>
     <use xlink:href="#DejaVuSans-6e" x="768.501953"/>
     <use xlink:href="#DejaVuSans-67" x="831.880859"/>
     <use xlink:href="#DejaVuSans-20" x="895.357422"/>
     <use xlink:href="#DejaVuSans-61" x="927.144531"/>
     <use xlink:href="#DejaVuSans-6e" x="988.423828"/>
     <use xlink:href="#DejaVuSans-20" x="1051.802734"/>
     <use xlink:href="#DejaVuSans-61" x="1083.589844"/>
     <use xlink:href="#DejaVuSans-6c" x="1144.869141"/>
     <use xlink:href="#DejaVuSans-74" x="1172.652344"/>
     <use xlink:href="#DejaVuSans-65" x="1211.861328"/>
     <use xlink:href="#DejaVuSans-72" x="1273.384766"/>
     <use xlink:href="#DejaVuSans-6e" x="1312.748047"/>
     <use xlink:href="#DejaVuSans-61" x="1376.126953"/>
     <use xlink:href="#DejaVuSans-74" x="1437.40625"/>
     <use xlink:href="#DejaVuSans-69" x="1476.615234"/>
     <use xlink:href="#DejaVuSans-76" x="1504.398438"/>
     <use xlink:href="#DejaVuSans-65" x="1563.578125"/>
     <use xlink:href="#DejaVuSans-20" x="1625.101562"/>
     <use xlink:href="#DejaVuSans-69" x="1656.888672"/>
     <use xlink:href="#DejaVuSans-6e" x="1684.671875"/>
     <use xlink:href="#DejaVuSans-67" x="1748.050781"/>
     <use xlink:href="#DejaVuSans-72" x="1811.527344"/>
     <use xlink:href="#DejaVuSans-65" x="1850.390625"/>
     <use xlink:href="#DejaVuSans-64" x="1911.914062"/>
     <use xlink:href="#DejaVuSans-69" x="1975.390625"/>
     <use xlink:href="#DejaVuSans-65" x="2003.173828"/>
     <use xlink:href="#DejaVuSans-6e" x="2064.697266"/>
     <use xlink:href="#DejaVuSans-74" x="2128.076172"/>
     <use xlink:href="#DejaVuSans-2e" x="2167.285156"/>
    </g>
   </g>
   <g id="text_10">
    <!-- Calculate the number of trees  -->
    <g transform="translate(338.073672 663.069375) scale(0.11 -0.11)">
     <defs>
      <path id="DejaVuSans-43" d="M 4122 4306 
L 4122 3641 
Q 3803 3938 3442 4084 
Q 3081 4231 2675 4231 
Q 1875 4231 1450 3742 
Q 1025 3253 1025 2328 
Q 1025 1406 1450 917 
Q 1875 428 2675 428 
Q 3081 428 3442 575 
Q 3803 722 4122 1019 
L 4122 359 
Q 3791 134 3420 21 
Q 3050 -91 2638 -91 
Q 1578 -91 968 557 
Q 359 1206 359 2328 
Q 359 3453 968 4101 
Q 1578 4750 2638 4750 
Q 3056 4750 3426 4639 
Q 3797 4528 4122 4306 
z
" transform="scale(0.015625)"/>
     </defs>
     <use xlink:href="#DejaVuSans-43"/>
     <use xlink:href="#DejaVuSans-61" x="69.824219"/>
     <use xlink:href="#DejaVuSans-6c" x="131.103516"/>
     <use xlink:href="#DejaVuSans-63" x="158.886719"/>
     <use xlink:href="#DejaVuSans-75" x="213.867188"/>
     <use xlink:href="#DejaVuSans-6c" x="277.246094"/>
     <use xlink:href="#DejaVuSans-61" x="305.029297"/>
     <use xlink:href="#DejaVuSans-74" x="366.308594"/>
     <use xlink:href="#DejaVuSans-65" x="405.517578"/>
     <use xlink:href="#DejaVuSans-20" x="467.041016"/>
     <use xlink:href="#DejaVuSans-74" x="498.828125"/>
     <use xlink:href="#DejaVuSans-68" x="538.037109"/>
     <use xlink:href="#DejaVuSans-65" x="601.416016"/>
     <use xlink:href="#DejaVuSans-20" x="662.939453"/>
     <use xlink:href="#DejaVuSans-6e" x="694.726562"/>
     <use xlink:href="#DejaVuSans-75" x="758.105469"/>
     <use xlink:href="#DejaVuSans-6d" x="821.484375"/>
     <use xlink:href="#DejaVuSans-62" x="918.896484"/>
     <use xlink:href="#DejaVuSans-65" x="982.373047"/>
     <use xlink:href="#DejaVuSans-72" x="1043.896484"/>
     <use xlink:href="#DejaVuSans-20" x="1085.009766"/>
     <use xlink:href="#DejaVuSans-6f" x="1116.796875"/>
     <use xlink:href="#DejaVuSans-66" x="1177.978516"/>
     <use xlink:href="#DejaVuSans-20" x="1213.183594"/>
     <use xlink:href="#DejaVuSans-74" x="1244.970703"/>
     <use xlink:href="#DejaVuSans-72" x="1284.179688"/>
     <use xlink:href="#DejaVuSans-65" x="1323.042969"/>
     <use xlink:href="#DejaVuSans-65" x="1384.566406"/>
     <use xlink:href="#DejaVuSans-73" x="1446.089844"/>
     <use xlink:href="#DejaVuSans-20" x="1498.189453"/>
    </g>
    <!--        preserved due to the decrease  -->
    <g transform="translate(323.640469 673.715312) scale(0.11 -0.11)">
     <use xlink:href="#DejaVuSans-20"/>
     <use xlink:href="#DejaVuSans-20" x="31.787109"/>
     <use xlink:href="#DejaVuSans-20" x="63.574219"/>
     <use xlink:href="#DejaVuSans-20" x="95.361328"/>
     <use xlink:href="#DejaVuSans-20" x="127.148438"/>
     <use xlink:href="#DejaVuSans-20" x="158.935547"/>
     <use xlink:href="#DejaVuSans-20" x="190.722656"/>
     <use xlink:href="#DejaVuSans-70" x="222.509766"/>
     <use xlink:href="#DejaVuSans-72" x="285.986328"/>
     <use xlink:href="#DejaVuSans-65" x="324.849609"/>
     <use xlink:href="#DejaVuSans-73" x="386.373047"/>
     <use xlink:href="#DejaVuSans-65" x="438.472656"/>
     <use xlink:href="#DejaVuSans-72" x="499.996094"/>
     <use xlink:href="#DejaVuSans-76" x="541.109375"/>
     <use xlink:href="#DejaVuSans-65" x="600.289062"/>
     <use xlink:href="#DejaVuSans-64" x="661.8125"/>
     <use xlink:href="#DejaVuSans-20" x="725.289062"/>
     <use xlink:href="#DejaVuSans-64" x="757.076172"/>
     <use xlink:href="#DejaVuSans-75" x="820.552734"/>
     <use xlink:href="#DejaVuSans-65" x="883.931641"/>
     <use xlink:href="#DejaVuSans-20" x="945.455078"/>
     <use xlink:href="#DejaVuSans-74" x="977.242188"/>
     <use xlink:href="#DejaVuSans-6f" x="1016.451172"/>
     <use xlink:href="#DejaVuSans-20" x="1077.632812"/>
     <use xlink:href="#DejaVuSans-74" x="1109.419922"/>
     <use xlink:href="#DejaVuSans-68" x="1148.628906"/>
     <use xlink:href="#DejaVuSans-65" x="1212.007812"/>
     <use xlink:href="#DejaVuSans-20" x="1273.53125"/>
     <use xlink:href="#DejaVuSans-64" x="1305.318359"/>
     <use xlink:href="#DejaVuSans-65" x="1368.794922"/>
     <use xlink:href="#DejaVuSans-63" x="1430.318359"/>
     <use xlink:href="#DejaVuSans-72" x="1485.298828"/>
     <use xlink:href="#DejaVuSans-65" x="1524.162109"/>
     <use xlink:href="#DejaVuSans-61" x="1585.685547"/>
     <use xlink:href="#DejaVuSans-73" x="1646.964844"/>
     <use xlink:href="#DejaVuSans-65" x="1699.064453"/>
     <use xlink:href="#DejaVuSans-20" x="1760.587891"/>
    </g>
    <!--        in greenhouse gas (GHG) emissions. -->
    <g transform="translate(309.840625 684.36125) scale(0.11 -0.11)">
     <use xlink:href="#DejaVuSans-20"/>
     <use xlink:href="#DejaVuSans-20" x="31.787109"/>
     <use xlink:href="#DejaVuSans-20" x="63.574219"/>
     <use xlink:href="#DejaVuSans-20" x="95.361328"/>
     <use xlink:href="#DejaVuSans-20" x="127.148438"/>
     <use xlink:href="#DejaVuSans-20" x="158.935547"/>
     <use xlink:href="#DejaVuSans-20" x="190.722656"/>
     <use xlink:href="#DejaVuSans-69" x="222.509766"/>
     <use xlink:href="#DejaVuSans-6e" x="250.292969"/>
     <use xlink:href="#DejaVuSans-20" x="313.671875"/>
     <use xlink:href="#DejaVuSans-67" x="345.458984"/>
     <use xlink:href="#DejaVuSans-72" x="408.935547"/>
     <use xlink:href="#DejaVuSans-65" x="447.798828"/>
     <use xlink:href="#DejaVuSans-65" x="509.322266"/>
     <use xlink:href="#DejaVuSans-6e" x="570.845703"/>
     <use xlink:href="#DejaVuSans-68" x="634.224609"/>
     <use xlink:href="#DejaVuSans-6f" x="697.603516"/>
     <use xlink:href="#DejaVuSans-75" x="758.785156"/>
     <use xlink:href="#DejaVuSans-73" x="822.164062"/>
     <use xlink:href="#DejaVuSans-65" x="874.263672"/>
     <use xlink:href="#DejaVuSans-20" x="935.787109"/>
     <use xlink:href="#DejaVuSans-67" x="967.574219"/>
     <use xlink:href="#DejaVuSans-61" x="1031.050781"/>
     <use xlink:href="#DejaVuSans-73" x="1092.330078"/>
     <use xlink:href="#DejaVuSans-20" x="1144.429688"/>
     <use xlink:href="#DejaVuSans-28" x="1176.216797"/>
     <use xlink:href="#DejaVuSans-47" x="1215.230469"/>
     <use xlink:href="#DejaVuSans-48" x="1292.720703"/>
     <use xlink:href="#DejaVuSans-47" x="1367.916016"/>
     <use xlink:href="#DejaVuSans-29" x="1445.40625"/>
     <use xlink:href="#DejaVuSans-20" x="1484.419922"/>
     <use xlink:href="#DejaVuSans-65" x="1516.207031"/>
     <use xlink:href="#DejaVuSans-6d" x="1577.730469"/>
     <use xlink:href="#DejaVuSans-69" x="1675.142578"/>
     <use xlink:href="#DejaVuSans-73" x="1702.925781"/>
     <use xlink:href="#DejaVuSans-73" x="1755.025391"/>
     <use xlink:href="#DejaVuSans-69" x="1807.125"/>
     <use xlink:href="#DejaVuSans-6f" x="1834.908203"/>
     <use xlink:href="#DejaVuSans-6e" x="1896.089844"/>
     <use xlink:href="#DejaVuSans-73" x="1959.46875"/>
     <use xlink:href="#DejaVuSans-2e" x="2011.568359"/>
    </g>
   </g>
   <g id="text_11">
    <!-- NO -->
    <g transform="translate(426.901094 901.997812) scale(0.14 -0.14)">
     <use xlink:href="#DejaVuSans-4e"/>
     <use xlink:href="#DejaVuSans-4f" x="74.804688"/>
    </g>
   </g>
   <g id="text_12">
    <!-- YES -->
    <g transform="translate(516.901094 816.088437) scale(0.14 -0.14)">
     <use xlink:href="#DejaVuSans-59"/>
     <use xlink:href="#DejaVuSans-45" x="61.083984"/>
     <use xlink:href="#DejaVuSans-53" x="124.267578"/>
    </g>
   </g>
   <g id="text_13">
    <!-- Does the user want the  -->
    <g transform="translate(356.073281 821.392344) scale(0.11 -0.11)">
     <defs>
      <path id="DejaVuSans-44" d="M 1259 4147 
L 1259 519 
L 2022 519 
Q 2988 519 3436 956 
Q 3884 1394 3884 2338 
Q 3884 3275 3436 3711 
Q 2988 4147 2022 4147 
L 1259 4147 
z
M 628 4666 
L 1925 4666 
Q 3281 4666 3915 4102 
Q 4550 3538 4550 2338 
Q 4550 1131 3912 565 
Q 3275 0 1925 0 
L 628 0 
L 628 4666 
z
" transform="scale(0.015625)"/>
     </defs>
     <use xlink:href="#DejaVuSans-44"/>
     <use xlink:href="#DejaVuSans-6f" x="77.001953"/>
     <use xlink:href="#DejaVuSans-65" x="138.183594"/>
     <use xlink:href="#DejaVuSans-73" x="199.707031"/>
     <use xlink:href="#DejaVuSans-20" x="251.806641"/>
     <use xlink:href="#DejaVuSans-74" x="283.59375"/>
     <use xlink:href="#DejaVuSans-68" x="322.802734"/>
     <use xlink:href="#DejaVuSans-65" x="386.181641"/>
     <use xlink:href="#DejaVuSans-20" x="447.705078"/>
     <use xlink:href="#DejaVuSans-75" x="479.492188"/>
     <use xlink:href="#DejaVuSans-73" x="542.871094"/>
     <use xlink:href="#DejaVuSans-65" x="594.970703"/>
     <use xlink:href="#DejaVuSans-72" x="656.494141"/>
     <use xlink:href="#DejaVuSans-20" x="697.607422"/>
     <use xlink:href="#DejaVuSans-77" x="729.394531"/>
     <use xlink:href="#DejaVuSans-61" x="811.181641"/>
     <use xlink:href="#DejaVuSans-6e" x="872.460938"/>
     <use xlink:href="#DejaVuSans-74" x="935.839844"/>
     <use xlink:href="#DejaVuSans-20" x="975.048828"/>
     <use xlink:href="#DejaVuSans-74" x="1006.835938"/>
     <use xlink:href="#DejaVuSans-68" x="1046.044922"/>
     <use xlink:href="#DejaVuSans-65" x="1109.423828"/>
     <use xlink:href="#DejaVuSans-20" x="1170.947266"/>
    </g>
    <!--  new recipe to be emailed? -->
    <g transform="translate(347.803516 832.038281) scale(0.11 -0.11)">
     <use xlink:href="#DejaVuSans-20"/>
     <use xlink:href="#DejaVuSans-6e" x="31.787109"/>
     <use xlink:href="#DejaVuSans-65" x="95.166016"/>
     <use xlink:href="#DejaVuSans-77" x="156.689453"/>
     <use xlink:href="#DejaVuSans-20" x="238.476562"/>
     <use xlink:href="#DejaVuSans-72" x="270.263672"/>
     <use xlink:href="#DejaVuSans-65" x="309.126953"/>
     <use xlink:href="#DejaVuSans-63" x="370.650391"/>
     <use xlink:href="#DejaVuSans-69" x="425.630859"/>
     <use xlink:href="#DejaVuSans-70" x="453.414062"/>
     <use xlink:href="#DejaVuSans-65" x="516.890625"/>
     <use xlink:href="#DejaVuSans-20" x="578.414062"/>
     <use xlink:href="#DejaVuSans-74" x="610.201172"/>
     <use xlink:href="#DejaVuSans-6f" x="649.410156"/>
     <use xlink:href="#DejaVuSans-20" x="710.591797"/>
     <use xlink:href="#DejaVuSans-62" x="742.378906"/>
     <use xlink:href="#DejaVuSans-65" x="805.855469"/>
     <use xlink:href="#DejaVuSans-20" x="867.378906"/>
     <use xlink:href="#DejaVuSans-65" x="899.166016"/>
     <use xlink:href="#DejaVuSans-6d" x="960.689453"/>
     <use xlink:href="#DejaVuSans-61" x="1058.101562"/>
     <use xlink:href="#DejaVuSans-69" x="1119.380859"/>
     <use xlink:href="#DejaVuSans-6c" x="1147.164062"/>
     <use xlink:href="#DejaVuSans-65" x="1174.947266"/>
     <use xlink:href="#DejaVuSans-64" x="1236.470703"/>
     <use xlink:href="#DejaVuSans-3f" x="1299.947266"/>
    </g>
   </g>
   <g id="text_14">
    <!-- Email the user the new recipe -->
    <g transform="translate(573.856875 826.715312) scale(0.11 -0.11)">
     <use xlink:href="#DejaVuSans-45"/>
     <use xlink:href="#DejaVuSans-6d" x="63.183594"/>
     <use xlink:href="#DejaVuSans-61" x="160.595703"/>
     <use xlink:href="#DejaVuSans-69" x="221.875"/>
     <use xlink:href="#DejaVuSans-6c" x="249.658203"/>
     <use xlink:href="#DejaVuSans-20" x="277.441406"/>
     <use xlink:href="#DejaVuSans-74" x="309.228516"/>
     <use xlink:href="#DejaVuSans-68" x="348.4375"/>
     <use xlink:href="#DejaVuSans-65" x="411.816406"/>
     <use xlink:href="#DejaVuSans-20" x="473.339844"/>
     <use xlink:href="#DejaVuSans-75" x="505.126953"/>
     <use xlink:href="#DejaVuSans-73" x="568.505859"/>
     <use xlink:href="#DejaVuSans-65" x="620.605469"/>
     <use xlink:href="#DejaVuSans-72" x="682.128906"/>
     <use xlink:href="#DejaVuSans-20" x="723.242188"/>
     <use xlink:href="#DejaVuSans-74" x="755.029297"/>
     <use xlink:href="#DejaVuSans-68" x="794.238281"/>
     <use xlink:href="#DejaVuSans-65" x="857.617188"/>
     <use xlink:href="#DejaVuSans-20" x="919.140625"/>
     <use xlink:href="#DejaVuSans-6e" x="950.927734"/>
     <use xlink:href="#DejaVuSans-65" x="1014.306641"/>
     <use xlink:href="#DejaVuSans-77" x="1075.830078"/>
     <use xlink:href="#DejaVuSans-20" x="1157.617188"/>
     <use xlink:href="#DejaVuSans-72" x="1189.404297"/>
     <use xlink:href="#DejaVuSans-65" x="1228.267578"/>
     <use xlink:href="#DejaVuSans-63" x="1289.791016"/>
     <use xlink:href="#DejaVuSans-69" x="1344.771484"/>
     <use xlink:href="#DejaVuSans-70" x="1372.554688"/>
     <use xlink:href="#DejaVuSans-65" x="1436.03125"/>
    </g>
   </g>
  </g>
 </g>
 <defs>
  <clipPath id="pb8b7e1c307">
   <rect x="3.541094" y="0" width="747.36" height="977.76"/>
  </clipPath>
 </defs>
</svg>