<?xml version="1.0" encoding="utf-8" standalone="no"?>
<!DOCTYPE svg PUBLIC "-//W3C//DTD SVG 1.1//EN"
  "http://www.w3.org/Graphics/SVG/1.1/DTD/svg11.dtd">
<svg xmlns:xlink="http://www.w3.org/1999/xlink" width="250.804297pt" height="684.341504pt" viewBox="0 0 250.804297 684.341504" xmlns="http://www.w3.org/2000/svg" version="1.1">
 <metadata>
  <rdf:RDF xmlns:dc="http://purl.org/dc/elements/1.1/" xmlns:cc="http://creativecommons.org/ns#" xmlns:rdf="http://www.w3.org/1999/02/22-rdf-syntax-ns#">
   <cc:Work>
    <dc:type rdf:resource="http://purl.org/dc/dcmitype/StillImage"/>
    <dc:date>2024-10-29T22:51:48.938223</dc:date>
    <dc:format>image/svg+xml</dc:format>
    <dc:creator>
     <cc:Agent>
      <dc:title>Matplotlib v3.8.2, https://matplotlib.org/</dc:title>
     </cc:Agent>
    </dc:creator>
   </cc:Work>
  </rdf:RDF>
 </metadata>
 <defs>
  <style type="text/css">*{stroke-linejoin: round; stroke-linecap: butt}</style>
 </defs>
 <g id="figure_1">
  <g id="patch_1">
   <path d="M 0 684.341504 
L 250.804297 684.341504 
L 250.804297 0 
L 0 0 
z
" style="fill: #ffffff"/>
  </g>
  <g id="axes_1">
   <g id="patch_2">
    <path d="M 216.147547 49.68 
L 216.504531 49.677168 
L 216.861425 49.668672 
L 217.21814 49.654515 
L 217.574585 49.6347 
L 217.930671 49.609232 
L 218.286308 49.578118 
L 218.641406 49.541365 
L 218.995877 49.498983 
L 219.349631 49.450982 
L 219.702578 49.397375 
L 220.054631 49.338174 
L 220.4057 49.273396 
L 220.755697 49.203055 
L 221.104534 49.12717 
L 221.452123 49.04576 
L 221.798377 48.958846 
L 222.143208 48.866449 
L 222.486529 48.768592 
L 222.828255 48.6653 
L 223.168299 48.5566 
L 223.506576 48.442518 
L 223.843 48.323084 
L 224.177487 48.198327 
L 224.509952 48.068278 
L 224.840312 47.932972 
L 225.168484 47.79244 
L 225.494385 47.64672 
L 225.817932 47.495847 
L 226.139046 47.33986 
L 226.457644 47.178798 
L 226.773646 47.012701 
L 227.086973 46.841611 
L 227.397547 46.665572 
L 227.705288 46.484627 
L 228.01012 46.298822 
L 228.311965 46.108204 
L 228.610748 45.912822 
L 228.906394 45.712723 
L 229.198827 45.507959 
L 229.487975 45.298581 
L 229.773765 45.084641 
L 230.056124 44.866195 
L 230.334982 44.643295 
L 230.610268 44.416 
L 230.881913 44.184365 
L 231.149849 43.94845 
L 231.414009 43.708313 
L 231.674325 43.464016 
L 231.930732 43.215619 
L 232.183166 42.963185 
L 232.431563 42.706778 
L 232.67586 42.446462 
L 232.915997 42.182303 
L 233.151912 41.914367 
L 233.383547 41.642721 
L 233.610842 41.367435 
L 233.833742 41.088577 
L 234.052188 40.806218 
L 234.266128 40.520428 
L 234.475506 40.23128 
L 234.68027 39.938847 
L 234.880369 39.643201 
L 235.075751 39.344418 
L 235.266369 39.042573 
L 235.452174 38.737741 
L 235.633118 38.43 
L 235.809158 38.119427 
L 235.980248 37.806099 
L 236.146344 37.490097 
L 236.307407 37.171499 
L 236.463394 36.850386 
L 236.614267 36.526838 
L 236.759987 36.200937 
L 236.900518 35.872765 
L 237.035825 35.542405 
L 237.165874 35.20994 
L 237.290631 34.875453 
L 237.410065 34.539029 
L 237.524147 34.200753 
L 237.632847 33.860708 
L 237.736139 33.518983 
L 237.833995 33.175661 
L 237.926393 32.83083 
L 238.013307 32.484576 
L 238.094717 32.136987 
L 238.170602 31.78815 
L 238.240943 31.438153 
L 238.305721 31.087084 
L 238.364922 30.735031 
L 238.418529 30.382084 
L 238.46653 30.02833 
L 238.508912 29.673859 
L 238.545665 29.318761 
L 238.576779 28.963124 
L 238.602247 28.607038 
L 238.622062 28.250593 
L 238.636219 27.893879 
L 238.644715 27.536984 
L 238.647547 27.18 
L 238.647547 27.18 
L 238.644715 26.823016 
L 238.636219 26.466121 
L 238.622062 26.109407 
L 238.602247 25.752962 
L 238.576779 25.396876 
L 238.545665 25.041239 
L 238.508912 24.686141 
L 238.46653 24.33167 
L 238.418529 23.977916 
L 238.364922 23.624969 
L 238.305721 23.272916 
L 238.240943 22.921847 
L 238.170602 22.57185 
L 238.094717 22.223013 
L 238.013307 21.875424 
L 237.926393 21.52917 
L 237.833995 21.184339 
L 237.736139 20.841017 
L 237.632847 20.499292 
L 237.524147 20.159247 
L 237.410065 19.820971 
L 237.290631 19.484547 
L 237.165874 19.15006 
L 237.035825 18.817595 
L 236.900518 18.487235 
L 236.759987 18.159063 
L 236.614267 17.833162 
L 236.463394 17.509614 
L 236.307407 17.188501 
L 236.146344 16.869903 
L 235.980248 16.553901 
L 235.809158 16.240573 
L 235.633118 15.93 
L 235.452174 15.622259 
L 235.266369 15.317427 
L 235.075751 15.015582 
L 234.880369 14.716799 
L 234.68027 14.421153 
L 234.475506 14.12872 
L 234.266128 13.839572 
L 234.052188 13.553782 
L 233.833742 13.271423 
L 233.610842 12.992565 
L 233.383547 12.717279 
L 233.151912 12.445633 
L 232.915997 12.177697 
L 232.67586 11.913538 
L 232.431563 11.653222 
L 232.183166 11.396815 
L 231.930732 11.144381 
L 231.674325 10.895984 
L 231.414009 10.651687 
L 231.149849 10.41155 
L 230.881913 10.175635 
L 230.610268 9.944 
L 230.334982 9.716705 
L 230.056124 9.493805 
L 229.773765 9.275359 
L 229.487975 9.061419 
L 229.198827 8.852041 
L 228.906394 8.647277 
L 228.610748 8.447178 
L 228.311965 8.251796 
L 228.01012 8.061178 
L 227.705288 7.875373 
L 227.397547 7.694428 
L 227.086973 7.518389 
L 226.773646 7.347299 
L 226.457644 7.181202 
L 226.139046 7.02014 
L 225.817932 6.864153 
L 225.494385 6.71328 
L 225.168484 6.56756 
L 224.840312 6.427028 
L 224.509952 6.291722 
L 224.177487 6.161673 
L 223.843 6.036916 
L 223.506576 5.917482 
L 223.168299 5.8034 
L 222.828255 5.6947 
L 222.486529 5.591408 
L 222.143208 5.493551 
L 221.798377 5.401154 
L 221.452123 5.31424 
L 221.104534 5.23283 
L 220.755697 5.156945 
L 220.4057 5.086604 
L 220.054631 5.021826 
L 219.702578 4.962625 
L 219.349631 4.909018 
L 218.995877 4.861017 
L 218.641406 4.818635 
L 218.286308 4.781882 
L 217.930671 4.750768 
L 217.574585 4.7253 
L 217.21814 4.705485 
L 216.861425 4.691328 
L 216.504531 4.682832 
L 216.147547 4.68 
L 60.101047 4.68 
L 59.744063 4.682832 
L 59.387168 4.691328 
L 59.030454 4.705485 
L 58.674009 4.7253 
L 58.317923 4.750768 
L 57.962286 4.781882 
L 57.607187 4.818635 
L 57.252717 4.861017 
L 56.898963 4.909018 
L 56.546015 4.962625 
L 56.193963 5.021826 
L 55.842894 5.086604 
L 55.492897 5.156945 
L 55.14406 5.23283 
L 54.796471 5.31424 
L 54.450217 5.401154 
L 54.105386 5.493551 
L 53.762064 5.591408 
L 53.420338 5.6947 
L 53.080294 5.8034 
L 52.742018 5.917482 
L 52.405594 6.036916 
L 52.071107 6.161673 
L 51.738642 6.291722 
L 51.408282 6.427028 
L 51.08011 6.56756 
L 50.754209 6.71328 
L 50.430661 6.864153 
L 50.109548 7.02014 
L 49.79095 7.181202 
L 49.474948 7.347299 
L 49.16162 7.518389 
L 48.851047 7.694428 
L 48.543306 7.875373 
L 48.238474 8.061178 
L 47.936628 8.251796 
L 47.637845 8.447178 
L 47.3422 8.647277 
L 47.049766 8.852041 
L 46.760618 9.061419 
L 46.474829 9.275359 
L 46.19247 9.493805 
L 45.913612 9.716705 
L 45.638326 9.944 
L 45.36668 10.175635 
L 45.098744 10.41155 
L 44.834585 10.651687 
L 44.574269 10.895984 
L 44.317862 11.144381 
L 44.065428 11.396815 
L 43.817031 11.653222 
L 43.572733 11.913538 
L 43.332597 12.177697 
L 43.096681 12.445633 
L 42.865047 12.717279 
L 42.637751 12.992565 
L 42.414852 13.271423 
L 42.196405 13.553782 
L 41.982466 13.839572 
L 41.773088 14.12872 
L 41.568324 14.421153 
L 41.368225 14.716799 
L 41.172842 15.015582 
L 40.982225 15.317427 
L 40.79642 15.622259 
L 40.615475 15.93 
L 40.439436 16.240573 
L 40.268346 16.553901 
L 40.102249 16.869903 
L 39.941187 17.188501 
L 39.7852 17.509614 
L 39.634327 17.833162 
L 39.488607 18.159063 
L 39.348075 18.487235 
L 39.212768 18.817595 
L 39.08272 19.15006 
L 38.957963 19.484547 
L 38.838528 19.820971 
L 38.724447 20.159247 
L 38.615746 20.499292 
L 38.512455 20.841017 
L 38.414598 21.184339 
L 38.322201 21.52917 
L 38.235287 21.875424 
L 38.153877 22.223013 
L 38.077992 22.57185 
L 38.007651 22.921847 
L 37.942872 23.272916 
L 37.883672 23.624969 
L 37.830064 23.977916 
L 37.782064 24.33167 
L 37.739681 24.686141 
L 37.702929 25.041239 
L 37.671814 25.396876 
L 37.646347 25.752962 
L 37.626532 26.109407 
L 37.612375 26.466121 
L 37.603879 26.823016 
L 37.601047 27.18 
L 37.601047 27.18 
L 37.603879 27.536984 
L 37.612375 27.893879 
L 37.626532 28.250593 
L 37.646347 28.607038 
L 37.671814 28.963124 
L 37.702929 29.318761 
L 37.739681 29.673859 
L 37.782064 30.02833 
L 37.830064 30.382084 
L 37.883672 30.735031 
L 37.942872 31.087084 
L 38.007651 31.438153 
L 38.077992 31.78815 
L 38.153877 32.136987 
L 38.235287 32.484576 
L 38.322201 32.83083 
L 38.414598 33.175661 
L 38.512455 33.518983 
L 38.615746 33.860708 
L 38.724447 34.200753 
L 38.838528 34.539029 
L 38.957963 34.875453 
L 39.08272 35.20994 
L 39.212768 35.542405 
L 39.348075 35.872765 
L 39.488607 36.200937 
L 39.634327 36.526838 
L 39.7852 36.850386 
L 39.941187 37.171499 
L 40.102249 37.490097 
L 40.268346 37.806099 
L 40.439436 38.119427 
L 40.615475 38.43 
L 40.79642 38.737741 
L 40.982225 39.042573 
L 41.172842 39.344418 
L 41.368225 39.643201 
L 41.568324 39.938847 
L 41.773088 40.23128 
L 41.982466 40.520428 
L 42.196405 40.806218 
L 42.414852 41.088577 
L 42.637751 41.367435 
L 42.865047 41.642721 
L 43.096681 41.914367 
L 43.332597 42.182303 
L 43.572733 42.446462 
L 43.817031 42.706778 
L 44.065428 42.963185 
L 44.317862 43.215619 
L 44.574269 43.464016 
L 44.834585 43.708313 
L 45.098744 43.94845 
L 45.36668 44.184365 
L 45.638326 44.416 
L 45.913612 44.643295 
L 46.19247 44.866195 
L 46.474829 45.084641 
L 46.760618 45.298581 
L 47.049766 45.507959 
L 47.3422 45.712723 
L 47.637845 45.912822 
L 47.936628 46.108204 
L 48.238474 46.298822 
L 48.543306 46.484627 
L 48.851047 46.665572 
L 49.16162 46.841611 
L 49.474948 47.012701 
L 49.79095 47.178798 
L 50.109548 47.33986 
L 50.430661 47.495847 
L 50.754209 47.64672 
L 51.08011 47.79244 
L 51.408282 47.932972 
L 51.738642 48.068278 
L 52.071107 48.198327 
L 52.405594 48.323084 
L 52.742018 48.442518 
L 53.080294 48.5566 
L 53.420338 48.6653 
L 53.762064 48.768592 
L 54.105386 48.866449 
L 54.450217 48.958846 
L 54.796471 49.04576 
L 55.14406 49.12717 
L 55.492897 49.203055 
L 55.842894 49.273396 
L 56.193963 49.338174 
L 56.546015 49.397375 
L 56.898963 49.450982 
L 57.252717 49.498983 
L 57.607187 49.541365 
L 57.962286 49.578118 
L 58.317923 49.609232 
L 58.674009 49.6347 
L 59.030454 49.654515 
L 59.387168 49.668672 
L 59.744063 49.677168 
L 60.101047 49.68 
L 216.147547 49.68 
z
" clip-path="url(#p27ecdb2398)" style="fill: none; stroke: #000000; stroke-width: 2; stroke-linecap: round"/>
   </g>
   <g id="patch_3">
    <path d="M 21.124297 139.68 
L 30.124297 103.68 
L 246.124297 103.68 
L 228.124297 175.68 
L 12.124297 175.68 
L 21.124297 139.68 
z
" clip-path="url(#p27ecdb2398)" style="fill: none; stroke: #000000; stroke-width: 2; stroke-linecap: round"/>
   </g>
   <g id="line2d_1">
    <path d="M 138.124297 49.68 
L 138.124297 76.68 
L 138.124297 94.68 
" clip-path="url(#p27ecdb2398)" style="fill: none; stroke: #000000; stroke-width: 2; stroke-linecap: round"/>
   </g>
   <g id="patch_4">
    <path d="M 140.824297 94.68 
L 138.124297 103.68 
L 135.424297 94.68 
z
" clip-path="url(#p27ecdb2398)"/>
   </g>
   <g id="line2d_2">
    <path d="M 120.124297 175.68 
L 120.124297 202.68 
L 120.124297 220.68 
" clip-path="url(#p27ecdb2398)" style="fill: none; stroke: #000000; stroke-width: 2; stroke-linecap: round"/>
   </g>
   <g id="patch_5">
    <path d="M 122.824297 220.68 
L 120.124297 229.68 
L 117.424297 220.68 
z
" clip-path="url(#p27ecdb2398)"/>
   </g>
   <g id="line2d_3">
    <path d="M 12.124297 265.68 
L 12.124297 229.68 
L 228.124297 229.68 
L 228.124297 301.68 
L 12.124297 301.68 
L 12.124297 265.68 
" clip-path="url(#p27ecdb2398)" style="fill: none; stroke: #000000; stroke-width: 2; stroke-linecap: round"/>
   </g>
   <g id="line2d_4">
    <path d="M 120.124297 301.68 
L 120.124297 328.68 
L 120.124297 346.68 
" clip-path="url(#p27ecdb2398)" style="fill: none; stroke: #000000; stroke-width: 2; stroke-linecap: round"/>
   </g>
   <g id="patch_6">
    <path d="M 122.824297 346.68 
L 120.124297 355.68 
L 117.424297 346.68 
z
" clip-path="url(#p27ecdb2398)"/>
   </g>
   <g id="line2d_5">
    <path d="M 12.124297 391.68 
L 12.124297 355.68 
L 228.124297 355.68 
L 228.124297 427.68 
L 12.124297 427.68 
L 12.124297 391.68 
" clip-path="url(#p27ecdb2398)" style="fill: none; stroke: #000000; stroke-width: 2; stroke-linecap: round"/>
   </g>
   <g id="line2d_6">
    <path d="M 120.124297 427.68 
L 120.124297 454.68 
L 120.124297 472.68 
" clip-path="url(#p27ecdb2398)" style="fill: none; stroke: #000000; stroke-width: 2; stroke-linecap: round"/>
   </g>
   <g id="patch_7">
    <path d="M 122.824297 472.68 
L 120.124297 481.68 
L 117.424297 472.68 
z
" clip-path="url(#p27ecdb2398)"/>
   </g>
   <g id="line2d_7">
    <path d="M 12.124297 517.68 
L 12.124297 481.68 
L 228.124297 481.68 
L 228.124297 553.68 
L 12.124297 553.68 
L 12.124297 517.68 
" clip-path="url(#p27ecdb2398)" style="fill: none; stroke: #000000; stroke-width: 2; stroke-linecap: round"/>
   </g>
   <g id="line2d_8">
    <path d="M 120.124297 553.68 
L 120.124297 580.68 
L 120.124297 598.68 
" clip-path="url(#p27ecdb2398)" style="fill: none; stroke: #000000; stroke-width: 2; stroke-linecap: round"/>
   </g>
   <g id="patch_8">
    <path d="M 122.824297 598.68 
L 120.124297 607.68 
L 117.424297 598.68 
z
" clip-path="url(#p27ecdb2398)"/>
   </g>
   <g id="line2d_9">
    <path d="M 233.897797 643.68 
L 232.963718 639.076422 
L 230.176819 634.548435 
L 225.582861 630.170388 
L 219.257275 626.014168 
L 211.30393 622.148021 
L 201.853417 618.635428 
L 191.060914 615.534067 
L 179.103634 612.894861 
L 166.177915 610.761146 
L 152.495996 609.167957 
L 138.282536 608.141456 
L 123.770917 607.698496 
L 109.199421 607.846352 
L 94.807311 608.582595 
L 80.830906 609.895137 
L 67.499697 611.762425 
L 55.032582 614.153799 
L 43.634272 617.029992 
L 33.491925 620.343778 
L 24.77208 624.040744 
L 17.617915 628.060185 
L 12.146903 632.336104 
L 8.448876 636.798289 
L 6.584557 641.373472 
L 6.584557 645.986528 
L 8.448876 650.561711 
L 12.146903 655.023896 
L 17.617915 659.299815 
L 24.77208 663.319256 
L 33.491925 667.016222 
L 43.634272 670.330008 
L 55.032582 673.206201 
L 67.499697 675.597575 
L 80.830906 677.464863 
L 94.807311 678.777405 
L 109.199421 679.513648 
L 123.770917 679.661504 
L 138.282536 679.218544 
L 152.495996 678.192043 
L 166.177915 676.598854 
L 179.103634 674.465139 
L 191.060914 671.825933 
L 201.853417 668.724572 
L 211.30393 665.211979 
L 219.257275 661.345832 
L 225.582861 657.189612 
L 230.176819 652.811565 
L 232.963718 648.283578 
L 233.897797 643.68 
" clip-path="url(#p27ecdb2398)" style="fill: none; stroke: #000000; stroke-width: 2; stroke-linecap: round"/>
   </g>
   <g id="text_1">
    <!-- Data Preprocessing: Start -->
    <g transform="translate(48.656641 31.043125) scale(0.14 -0.14)">
     <defs>
      <path id="DejaVuSans-44" d="M 1259 4147 
L 1259 519 
L 2022 519 
Q 2988 519 3436 956 
Q 3884 1394 3884 2338 
Q 3884 3275 3436 3711 
Q 2988 4147 2022 4147 
L 1259 4147 
z
M 628 4666 
L 1925 4666 
Q 3281 4666 3915 4102 
Q 4550 3538 4550 2338 
Q 4550 1131 3912 565 
Q 3275 0 1925 0 
L 628 0 
L 628 4666 
z
" transform="scale(0.015625)"/>
      <path id="DejaVuSans-61" d="M 2194 1759 
Q 1497 1759 1228 1600 
Q 959 1441 959 1056 
Q 959 750 1161 570 
Q 1363 391 1709 391 
Q 2188 391 2477 730 
Q 2766 1069 2766 1631 
L 2766 1759 
L 2194 1759 
z
M 3341 1997 
L 3341 0 
L 2766 0 
L 2766 531 
Q 2569 213 2275 61 
Q 1981 -91 1556 -91 
Q 1019 -91 701 211 
Q 384 513 384 1019 
Q 384 1609 779 1909 
Q 1175 2209 1959 2209 
L 2766 2209 
L 2766 2266 
Q 2766 2663 2505 2880 
Q 2244 3097 1772 3097 
Q 1472 3097 1187 3025 
Q 903 2953 641 2809 
L 641 3341 
Q 956 3463 1253 3523 
Q 1550 3584 1831 3584 
Q 2591 3584 2966 3190 
Q 3341 2797 3341 1997 
z
" transform="scale(0.015625)"/>
      <path id="DejaVuSans-74" d="M 1172 4494 
L 1172 3500 
L 2356 3500 
L 2356 3053 
L 1172 3053 
L 1172 1153 
Q 1172 725 1289 603 
Q 1406 481 1766 481 
L 2356 481 
L 2356 0 
L 1766 0 
Q 1100 0 847 248 
Q 594 497 594 1153 
L 594 3053 
L 172 3053 
L 172 3500 
L 594 3500 
L 594 4494 
L 1172 4494 
z
" transform="scale(0.015625)"/>
      <path id="DejaVuSans-20" transform="scale(0.015625)"/>
      <path id="DejaVuSans-50" d="M 1259 4147 
L 1259 2394 
L 2053 2394 
Q 2494 2394 2734 2622 
Q 2975 2850 2975 3272 
Q 2975 3691 2734 3919 
Q 2494 4147 2053 4147 
L 1259 4147 
z
M 628 4666 
L 2053 4666 
Q 2838 4666 3239 4311 
Q 3641 3956 3641 3272 
Q 3641 2581 3239 2228 
Q 2838 1875 2053 1875 
L 1259 1875 
L 1259 0 
L 628 0 
L 628 4666 
z
" transform="scale(0.015625)"/>
      <path id="DejaVuSans-72" d="M 2631 2963 
Q 2534 3019 2420 3045 
Q 2306 3072 2169 3072 
Q 1681 3072 1420 2755 
Q 1159 2438 1159 1844 
L 1159 0 
L 581 0 
L 581 3500 
L 1159 3500 
L 1159 2956 
Q 1341 3275 1631 3429 
Q 1922 3584 2338 3584 
Q 2397 3584 2469 3576 
Q 2541 3569 2628 3553 
L 2631 2963 
z
" transform="scale(0.015625)"/>
      <path id="DejaVuSans-65" d="M 3597 1894 
L 3597 1613 
L 953 1613 
Q 991 1019 1311 708 
Q 1631 397 2203 397 
Q 2534 397 2845 478 
Q 3156 559 3463 722 
L 3463 178 
Q 3153 47 2828 -22 
Q 2503 -91 2169 -91 
Q 1331 -91 842 396 
Q 353 884 353 1716 
Q 353 2575 817 3079 
Q 1281 3584 2069 3584 
Q 2775 3584 3186 3129 
Q 3597 2675 3597 1894 
z
M 3022 2063 
Q 3016 2534 2758 2815 
Q 2500 3097 2075 3097 
Q 1594 3097 1305 2825 
Q 1016 2553 972 2059 
L 3022 2063 
z
" transform="scale(0.015625)"/>
      <path id="DejaVuSans-70" d="M 1159 525 
L 1159 -1331 
L 581 -1331 
L 581 3500 
L 1159 3500 
L 1159 2969 
Q 1341 3281 1617 3432 
Q 1894 3584 2278 3584 
Q 2916 3584 3314 3078 
Q 3713 2572 3713 1747 
Q 3713 922 3314 415 
Q 2916 -91 2278 -91 
Q 1894 -91 1617 61 
Q 1341 213 1159 525 
z
M 3116 1747 
Q 3116 2381 2855 2742 
Q 2594 3103 2138 3103 
Q 1681 3103 1420 2742 
Q 1159 2381 1159 1747 
Q 1159 1113 1420 752 
Q 1681 391 2138 391 
Q 2594 391 2855 752 
Q 3116 1113 3116 1747 
z
" transform="scale(0.015625)"/>
      <path id="DejaVuSans-6f" d="M 1959 3097 
Q 1497 3097 1228 2736 
Q 959 2375 959 1747 
Q 959 1119 1226 758 
Q 1494 397 1959 397 
Q 2419 397 2687 759 
Q 2956 1122 2956 1747 
Q 2956 2369 2687 2733 
Q 2419 3097 1959 3097 
z
M 1959 3584 
Q 2709 3584 3137 3096 
Q 3566 2609 3566 1747 
Q 3566 888 3137 398 
Q 2709 -91 1959 -91 
Q 1206 -91 779 398 
Q 353 888 353 1747 
Q 353 2609 779 3096 
Q 1206 3584 1959 3584 
z
" transform="scale(0.015625)"/>
      <path id="DejaVuSans-63" d="M 3122 3366 
L 3122 2828 
Q 2878 2963 2633 3030 
Q 2388 3097 2138 3097 
Q 1578 3097 1268 2742 
Q 959 2388 959 1747 
Q 959 1106 1268 751 
Q 1578 397 2138 397 
Q 2388 397 2633 464 
Q 2878 531 3122 666 
L 3122 134 
Q 2881 22 2623 -34 
Q 2366 -91 2075 -91 
Q 1284 -91 818 406 
Q 353 903 353 1747 
Q 353 2603 823 3093 
Q 1294 3584 2113 3584 
Q 2378 3584 2631 3529 
Q 2884 3475 3122 3366 
z
" transform="scale(0.015625)"/>
      <path id="DejaVuSans-73" d="M 2834 3397 
L 2834 2853 
Q 2591 2978 2328 3040 
Q 2066 3103 1784 3103 
Q 1356 3103 1142 2972 
Q 928 2841 928 2578 
Q 928 2378 1081 2264 
Q 1234 2150 1697 2047 
L 1894 2003 
Q 2506 1872 2764 1633 
Q 3022 1394 3022 966 
Q 3022 478 2636 193 
Q 2250 -91 1575 -91 
Q 1294 -91 989 -36 
Q 684 19 347 128 
L 347 722 
Q 666 556 975 473 
Q 1284 391 1588 391 
Q 1994 391 2212 530 
Q 2431 669 2431 922 
Q 2431 1156 2273 1281 
Q 2116 1406 1581 1522 
L 1381 1569 
Q 847 1681 609 1914 
Q 372 2147 372 2553 
Q 372 3047 722 3315 
Q 1072 3584 1716 3584 
Q 2034 3584 2315 3537 
Q 2597 3491 2834 3397 
z
" transform="scale(0.015625)"/>
      <path id="DejaVuSans-69" d="M 603 3500 
L 1178 3500 
L 1178 0 
L 603 0 
L 603 3500 
z
M 603 4863 
L 1178 4863 
L 1178 4134 
L 603 4134 
L 603 4863 
z
" transform="scale(0.015625)"/>
      <path id="DejaVuSans-6e" d="M 3513 2113 
L 3513 0 
L 2938 0 
L 2938 2094 
Q 2938 2591 2744 2837 
Q 2550 3084 2163 3084 
Q 1697 3084 1428 2787 
Q 1159 2491 1159 1978 
L 1159 0 
L 581 0 
L 581 3500 
L 1159 3500 
L 1159 2956 
Q 1366 3272 1645 3428 
Q 1925 3584 2291 3584 
Q 2894 3584 3203 3211 
Q 3513 2838 3513 2113 
z
" transform="scale(0.015625)"/>
      <path id="DejaVuSans-67" d="M 2906 1791 
Q 2906 2416 2648 2759 
Q 2391 3103 1925 3103 
Q 1463 3103 1205 2759 
Q 947 2416 947 1791 
Q 947 1169 1205 825 
Q 1463 481 1925 481 
Q 2391 481 2648 825 
Q 2906 1169 2906 1791 
z
M 3481 434 
Q 3481 -459 3084 -895 
Q 2688 -1331 1869 -1331 
Q 1566 -1331 1297 -1286 
Q 1028 -1241 775 -1147 
L 775 -588 
Q 1028 -725 1275 -790 
Q 1522 -856 1778 -856 
Q 2344 -856 2625 -561 
Q 2906 -266 2906 331 
L 2906 616 
Q 2728 306 2450 153 
Q 2172 0 1784 0 
Q 1141 0 747 490 
Q 353 981 353 1791 
Q 353 2603 747 3093 
Q 1141 3584 1784 3584 
Q 2172 3584 2450 3431 
Q 2728 3278 2906 2969 
L 2906 3500 
L 3481 3500 
L 3481 434 
z
" transform="scale(0.015625)"/>
      <path id="DejaVuSans-3a" d="M 750 794 
L 1409 794 
L 1409 0 
L 750 0 
L 750 794 
z
M 750 3309 
L 1409 3309 
L 1409 2516 
L 750 2516 
L 750 3309 
z
" transform="scale(0.015625)"/>
      <path id="DejaVuSans-53" d="M 3425 4513 
L 3425 3897 
Q 3066 4069 2747 4153 
Q 2428 4238 2131 4238 
Q 1616 4238 1336 4038 
Q 1056 3838 1056 3469 
Q 1056 3159 1242 3001 
Q 1428 2844 1947 2747 
L 2328 2669 
Q 3034 2534 3370 2195 
Q 3706 1856 3706 1288 
Q 3706 609 3251 259 
Q 2797 -91 1919 -91 
Q 1588 -91 1214 -16 
Q 841 59 441 206 
L 441 856 
Q 825 641 1194 531 
Q 1563 422 1919 422 
Q 2459 422 2753 634 
Q 3047 847 3047 1241 
Q 3047 1584 2836 1778 
Q 2625 1972 2144 2069 
L 1759 2144 
Q 1053 2284 737 2584 
Q 422 2884 422 3419 
Q 422 4038 858 4394 
Q 1294 4750 2059 4750 
Q 2388 4750 2728 4690 
Q 3069 4631 3425 4513 
z
" transform="scale(0.015625)"/>
     </defs>
     <use xlink:href="#DejaVuSans-44"/>
     <use xlink:href="#DejaVuSans-61" x="77.001953"/>
     <use xlink:href="#DejaVuSans-74" x="138.28125"/>
     <use xlink:href="#DejaVuSans-61" x="177.490234"/>
     <use xlink:href="#DejaVuSans-20" x="238.769531"/>
     <use xlink:href="#DejaVuSans-50" x="270.556641"/>
     <use xlink:href="#DejaVuSans-72" x="329.109375"/>
     <use xlink:href="#DejaVuSans-65" x="367.972656"/>
     <use xlink:href="#DejaVuSans-70" x="429.496094"/>
     <use xlink:href="#DejaVuSans-72" x="492.972656"/>
     <use xlink:href="#DejaVuSans-6f" x="531.835938"/>
     <use xlink:href="#DejaVuSans-63" x="593.017578"/>
     <use xlink:href="#DejaVuSans-65" x="647.998047"/>
     <use xlink:href="#DejaVuSans-73" x="709.521484"/>
     <use xlink:href="#DejaVuSans-73" x="761.621094"/>
     <use xlink:href="#DejaVuSans-69" x="813.720703"/>
     <use xlink:href="#DejaVuSans-6e" x="841.503906"/>
     <use xlink:href="#DejaVuSans-67" x="904.882812"/>
     <use xlink:href="#DejaVuSans-3a" x="968.359375"/>
     <use xlink:href="#DejaVuSans-20" x="1002.050781"/>
     <use xlink:href="#DejaVuSans-53" x="1033.837891"/>
     <use xlink:href="#DejaVuSans-74" x="1097.314453"/>
     <use xlink:href="#DejaVuSans-61" x="1136.523438"/>
     <use xlink:href="#DejaVuSans-72" x="1197.802734"/>
     <use xlink:href="#DejaVuSans-74" x="1238.916016"/>
    </g>
   </g>
   <g id="text_2">
    <!-- Retrieve and read data from sources -->
    <g transform="translate(28.414141 142.715312) scale(0.11 -0.11)">
     <defs>
      <path id="DejaVuSans-52" d="M 2841 2188 
Q 3044 2119 3236 1894 
Q 3428 1669 3622 1275 
L 4263 0 
L 3584 0 
L 2988 1197 
Q 2756 1666 2539 1819 
Q 2322 1972 1947 1972 
L 1259 1972 
L 1259 0 
L 628 0 
L 628 4666 
L 2053 4666 
Q 2853 4666 3247 4331 
Q 3641 3997 3641 3322 
Q 3641 2881 3436 2590 
Q 3231 2300 2841 2188 
z
M 1259 4147 
L 1259 2491 
L 2053 2491 
Q 2509 2491 2742 2702 
Q 2975 2913 2975 3322 
Q 2975 3731 2742 3939 
Q 2509 4147 2053 4147 
L 1259 4147 
z
" transform="scale(0.015625)"/>
      <path id="DejaVuSans-76" d="M 191 3500 
L 800 3500 
L 1894 563 
L 2988 3500 
L 3597 3500 
L 2284 0 
L 1503 0 
L 191 3500 
z
" transform="scale(0.015625)"/>
      <path id="DejaVuSans-64" d="M 2906 2969 
L 2906 4863 
L 3481 4863 
L 3481 0 
L 2906 0 
L 2906 525 
Q 2725 213 2448 61 
Q 2172 -91 1784 -91 
Q 1150 -91 751 415 
Q 353 922 353 1747 
Q 353 2572 751 3078 
Q 1150 3584 1784 3584 
Q 2172 3584 2448 3432 
Q 2725 3281 2906 2969 
z
M 947 1747 
Q 947 1113 1208 752 
Q 1469 391 1925 391 
Q 2381 391 2643 752 
Q 2906 1113 2906 1747 
Q 2906 2381 2643 2742 
Q 2381 3103 1925 3103 
Q 1469 3103 1208 2742 
Q 947 2381 947 1747 
z
" transform="scale(0.015625)"/>
      <path id="DejaVuSans-66" d="M 2375 4863 
L 2375 4384 
L 1825 4384 
Q 1516 4384 1395 4259 
Q 1275 4134 1275 3809 
L 1275 3500 
L 2222 3500 
L 2222 3053 
L 1275 3053 
L 1275 0 
L 697 0 
L 697 3053 
L 147 3053 
L 147 3500 
L 697 3500 
L 697 3744 
Q 697 4328 969 4595 
Q 1241 4863 1831 4863 
L 2375 4863 
z
" transform="scale(0.015625)"/>
      <path id="DejaVuSans-6d" d="M 3328 2828 
Q 3544 3216 3844 3400 
Q 4144 3584 4550 3584 
Q 5097 3584 5394 3201 
Q 5691 2819 5691 2113 
L 5691 0 
L 5113 0 
L 5113 2094 
Q 5113 2597 4934 2840 
Q 4756 3084 4391 3084 
Q 3944 3084 3684 2787 
Q 3425 2491 3425 1978 
L 3425 0 
L 2847 0 
L 2847 2094 
Q 2847 2600 2669 2842 
Q 2491 3084 2119 3084 
Q 1678 3084 1418 2786 
Q 1159 2488 1159 1978 
L 1159 0 
L 581 0 
L 581 3500 
L 1159 3500 
L 1159 2956 
Q 1356 3278 1631 3431 
Q 1906 3584 2284 3584 
Q 2666 3584 2933 3390 
Q 3200 3197 3328 2828 
z
" transform="scale(0.015625)"/>
      <path id="DejaVuSans-75" d="M 544 1381 
L 544 3500 
L 1119 3500 
L 1119 1403 
Q 1119 906 1312 657 
Q 1506 409 1894 409 
Q 2359 409 2629 706 
Q 2900 1003 2900 1516 
L 2900 3500 
L 3475 3500 
L 3475 0 
L 2900 0 
L 2900 538 
Q 2691 219 2414 64 
Q 2138 -91 1772 -91 
Q 1169 -91 856 284 
Q 544 659 544 1381 
z
M 1991 3584 
L 1991 3584 
z
" transform="scale(0.015625)"/>
     </defs>
     <use xlink:href="#DejaVuSans-52"/>
     <use xlink:href="#DejaVuSans-65" x="64.982422"/>
     <use xlink:href="#DejaVuSans-74" x="126.505859"/>
     <use xlink:href="#DejaVuSans-72" x="165.714844"/>
     <use xlink:href="#DejaVuSans-69" x="206.828125"/>
     <use xlink:href="#DejaVuSans-65" x="234.611328"/>
     <use xlink:href="#DejaVuSans-76" x="296.134766"/>
     <use xlink:href="#DejaVuSans-65" x="355.314453"/>
     <use xlink:href="#DejaVuSans-20" x="416.837891"/>
     <use xlink:href="#DejaVuSans-61" x="448.625"/>
     <use xlink:href="#DejaVuSans-6e" x="509.904297"/>
     <use xlink:href="#DejaVuSans-64" x="573.283203"/>
     <use xlink:href="#DejaVuSans-20" x="636.759766"/>
     <use xlink:href="#DejaVuSans-72" x="668.546875"/>
     <use xlink:href="#DejaVuSans-65" x="707.410156"/>
     <use xlink:href="#DejaVuSans-61" x="768.933594"/>
     <use xlink:href="#DejaVuSans-64" x="830.212891"/>
     <use xlink:href="#DejaVuSans-20" x="893.689453"/>
     <use xlink:href="#DejaVuSans-64" x="925.476562"/>
     <use xlink:href="#DejaVuSans-61" x="988.953125"/>
     <use xlink:href="#DejaVuSans-74" x="1050.232422"/>
     <use xlink:href="#DejaVuSans-61" x="1089.441406"/>
     <use xlink:href="#DejaVuSans-20" x="1150.720703"/>
     <use xlink:href="#DejaVuSans-66" x="1182.507812"/>
     <use xlink:href="#DejaVuSans-72" x="1217.712891"/>
     <use xlink:href="#DejaVuSans-6f" x="1256.576172"/>
     <use xlink:href="#DejaVuSans-6d" x="1317.757812"/>
     <use xlink:href="#DejaVuSans-20" x="1415.169922"/>
     <use xlink:href="#DejaVuSans-73" x="1446.957031"/>
     <use xlink:href="#DejaVuSans-6f" x="1499.056641"/>
     <use xlink:href="#DejaVuSans-75" x="1560.238281"/>
     <use xlink:href="#DejaVuSans-72" x="1623.617188"/>
     <use xlink:href="#DejaVuSans-63" x="1662.480469"/>
     <use xlink:href="#DejaVuSans-65" x="1717.460938"/>
     <use xlink:href="#DejaVuSans-73" x="1778.984375"/>
    </g>
   </g>
   <g id="text_3">
    <!-- Reading time and readability score analysis -->
    <g transform="translate(-0 268.715312) scale(0.11 -0.11)">
     <defs>
      <path id="DejaVuSans-62" d="M 3116 1747 
Q 3116 2381 2855 2742 
Q 2594 3103 2138 3103 
Q 1681 3103 1420 2742 
Q 1159 2381 1159 1747 
Q 1159 1113 1420 752 
Q 1681 391 2138 391 
Q 2594 391 2855 752 
Q 3116 1113 3116 1747 
z
M 1159 2969 
Q 1341 3281 1617 3432 
Q 1894 3584 2278 3584 
Q 2916 3584 3314 3078 
Q 3713 2572 3713 1747 
Q 3713 922 3314 415 
Q 2916 -91 2278 -91 
Q 1894 -91 1617 61 
Q 1341 213 1159 525 
L 1159 0 
L 581 0 
L 581 4863 
L 1159 4863 
L 1159 2969 
z
" transform="scale(0.015625)"/>
      <path id="DejaVuSans-6c" d="M 603 4863 
L 1178 4863 
L 1178 0 
L 603 0 
L 603 4863 
z
" transform="scale(0.015625)"/>
      <path id="DejaVuSans-79" d="M 2059 -325 
Q 1816 -950 1584 -1140 
Q 1353 -1331 966 -1331 
L 506 -1331 
L 506 -850 
L 844 -850 
Q 1081 -850 1212 -737 
Q 1344 -625 1503 -206 
L 1606 56 
L 191 3500 
L 800 3500 
L 1894 763 
L 2988 3500 
L 3597 3500 
L 2059 -325 
z
" transform="scale(0.015625)"/>
     </defs>
     <use xlink:href="#DejaVuSans-52"/>
     <use xlink:href="#DejaVuSans-65" x="64.982422"/>
     <use xlink:href="#DejaVuSans-61" x="126.505859"/>
     <use xlink:href="#DejaVuSans-64" x="187.785156"/>
     <use xlink:href="#DejaVuSans-69" x="251.261719"/>
     <use xlink:href="#DejaVuSans-6e" x="279.044922"/>
     <use xlink:href="#DejaVuSans-67" x="342.423828"/>
     <use xlink:href="#DejaVuSans-20" x="405.900391"/>
     <use xlink:href="#DejaVuSans-74" x="437.6875"/>
     <use xlink:href="#DejaVuSans-69" x="476.896484"/>
     <use xlink:href="#DejaVuSans-6d" x="504.679688"/>
     <use xlink:href="#DejaVuSans-65" x="602.091797"/>
     <use xlink:href="#DejaVuSans-20" x="663.615234"/>
     <use xlink:href="#DejaVuSans-61" x="695.402344"/>
     <use xlink:href="#DejaVuSans-6e" x="756.681641"/>
     <use xlink:href="#DejaVuSans-64" x="820.060547"/>
     <use xlink:href="#DejaVuSans-20" x="883.537109"/>
     <use xlink:href="#DejaVuSans-72" x="915.324219"/>
     <use xlink:href="#DejaVuSans-65" x="954.1875"/>
     <use xlink:href="#DejaVuSans-61" x="1015.710938"/>
     <use xlink:href="#DejaVuSans-64" x="1076.990234"/>
     <use xlink:href="#DejaVuSans-61" x="1140.466797"/>
     <use xlink:href="#DejaVuSans-62" x="1201.746094"/>
     <use xlink:href="#DejaVuSans-69" x="1265.222656"/>
     <use xlink:href="#DejaVuSans-6c" x="1293.005859"/>
     <use xlink:href="#DejaVuSans-69" x="1320.789062"/>
     <use xlink:href="#DejaVuSans-74" x="1348.572266"/>
     <use xlink:href="#DejaVuSans-79" x="1387.78125"/>
     <use xlink:href="#DejaVuSans-20" x="1446.960938"/>
     <use xlink:href="#DejaVuSans-73" x="1478.748047"/>
     <use xlink:href="#DejaVuSans-63" x="1530.847656"/>
     <use xlink:href="#DejaVuSans-6f" x="1585.828125"/>
     <use xlink:href="#DejaVuSans-72" x="1647.009766"/>
     <use xlink:href="#DejaVuSans-65" x="1685.873047"/>
     <use xlink:href="#DejaVuSans-20" x="1747.396484"/>
     <use xlink:href="#DejaVuSans-61" x="1779.183594"/>
     <use xlink:href="#DejaVuSans-6e" x="1840.462891"/>
     <use xlink:href="#DejaVuSans-61" x="1903.841797"/>
     <use xlink:href="#DejaVuSans-6c" x="1965.121094"/>
     <use xlink:href="#DejaVuSans-79" x="1992.904297"/>
     <use xlink:href="#DejaVuSans-73" x="2052.083984"/>
     <use xlink:href="#DejaVuSans-69" x="2104.183594"/>
     <use xlink:href="#DejaVuSans-73" x="2131.966797"/>
    </g>
   </g>
   <g id="text_4">
    <!-- Lemmatize texts -->
    <g transform="translate(70.093672 394.99125) scale(0.12 -0.12)">
     <defs>
      <path id="DejaVuSans-4c" d="M 628 4666 
L 1259 4666 
L 1259 531 
L 3531 531 
L 3531 0 
L 628 0 
L 628 4666 
z
" transform="scale(0.015625)"/>
      <path id="DejaVuSans-7a" d="M 353 3500 
L 3084 3500 
L 3084 2975 
L 922 459 
L 3084 459 
L 3084 0 
L 275 0 
L 275 525 
L 2438 3041 
L 353 3041 
L 353 3500 
z
" transform="scale(0.015625)"/>
      <path id="DejaVuSans-78" d="M 3513 3500 
L 2247 1797 
L 3578 0 
L 2900 0 
L 1881 1375 
L 863 0 
L 184 0 
L 1544 1831 
L 300 3500 
L 978 3500 
L 1906 2253 
L 2834 3500 
L 3513 3500 
z
" transform="scale(0.015625)"/>
     </defs>
     <use xlink:href="#DejaVuSans-4c"/>
     <use xlink:href="#DejaVuSans-65" x="53.962891"/>
     <use xlink:href="#DejaVuSans-6d" x="115.486328"/>
     <use xlink:href="#DejaVuSans-6d" x="212.898438"/>
     <use xlink:href="#DejaVuSans-61" x="310.310547"/>
     <use xlink:href="#DejaVuSans-74" x="371.589844"/>
     <use xlink:href="#DejaVuSans-69" x="410.798828"/>
     <use xlink:href="#DejaVuSans-7a" x="438.582031"/>
     <use xlink:href="#DejaVuSans-65" x="491.072266"/>
     <use xlink:href="#DejaVuSans-20" x="552.595703"/>
     <use xlink:href="#DejaVuSans-74" x="584.382812"/>
     <use xlink:href="#DejaVuSans-65" x="623.591797"/>
     <use xlink:href="#DejaVuSans-78" x="683.365234"/>
     <use xlink:href="#DejaVuSans-74" x="742.544922"/>
     <use xlink:href="#DejaVuSans-73" x="781.753906"/>
    </g>
   </g>
   <g id="text_5">
    <!-- Remove stopwords -->
    <g transform="translate(63.035234 520.99125) scale(0.12 -0.12)">
     <defs>
      <path id="DejaVuSans-77" d="M 269 3500 
L 844 3500 
L 1563 769 
L 2278 3500 
L 2956 3500 
L 3675 769 
L 4391 3500 
L 4966 3500 
L 4050 0 
L 3372 0 
L 2619 2869 
L 1863 0 
L 1184 0 
L 269 3500 
z
" transform="scale(0.015625)"/>
     </defs>
     <use xlink:href="#DejaVuSans-52"/>
     <use xlink:href="#DejaVuSans-65" x="64.982422"/>
     <use xlink:href="#DejaVuSans-6d" x="126.505859"/>
     <use xlink:href="#DejaVuSans-6f" x="223.917969"/>
     <use xlink:href="#DejaVuSans-76" x="285.099609"/>
     <use xlink:href="#DejaVuSans-65" x="344.279297"/>
     <use xlink:href="#DejaVuSans-20" x="405.802734"/>
     <use xlink:href="#DejaVuSans-73" x="437.589844"/>
     <use xlink:href="#DejaVuSans-74" x="489.689453"/>
     <use xlink:href="#DejaVuSans-6f" x="528.898438"/>
     <use xlink:href="#DejaVuSans-70" x="590.080078"/>
     <use xlink:href="#DejaVuSans-77" x="653.556641"/>
     <use xlink:href="#DejaVuSans-6f" x="735.34375"/>
     <use xlink:href="#DejaVuSans-72" x="796.525391"/>
     <use xlink:href="#DejaVuSans-64" x="835.888672"/>
     <use xlink:href="#DejaVuSans-73" x="899.365234"/>
    </g>
   </g>
   <g id="text_6">
    <!-- End: Ready for Sentiment Analysis -->
    <g transform="translate(16.461172 646.99125) scale(0.12 -0.12)">
     <defs>
      <path id="DejaVuSans-45" d="M 628 4666 
L 3578 4666 
L 3578 4134 
L 1259 4134 
L 1259 2753 
L 3481 2753 
L 3481 2222 
L 1259 2222 
L 1259 531 
L 3634 531 
L 3634 0 
L 628 0 
L 628 4666 
z
" transform="scale(0.015625)"/>
      <path id="DejaVuSans-41" d="M 2188 4044 
L 1331 1722 
L 3047 1722 
L 2188 4044 
z
M 1831 4666 
L 2547 4666 
L 4325 0 
L 3669 0 
L 3244 1197 
L 1141 1197 
L 716 0 
L 50 0 
L 1831 4666 
z
" transform="scale(0.015625)"/>
     </defs>
     <use xlink:href="#DejaVuSans-45"/>
     <use xlink:href="#DejaVuSans-6e" x="63.183594"/>
     <use xlink:href="#DejaVuSans-64" x="126.5625"/>
     <use xlink:href="#DejaVuSans-3a" x="190.039062"/>
     <use xlink:href="#DejaVuSans-20" x="223.730469"/>
     <use xlink:href="#DejaVuSans-52" x="255.517578"/>
     <use xlink:href="#DejaVuSans-65" x="320.5"/>
     <use xlink:href="#DejaVuSans-61" x="382.023438"/>
     <use xlink:href="#DejaVuSans-64" x="443.302734"/>
     <use xlink:href="#DejaVuSans-79" x="506.779297"/>
     <use xlink:href="#DejaVuSans-20" x="565.958984"/>
     <use xlink:href="#DejaVuSans-66" x="597.746094"/>
     <use xlink:href="#DejaVuSans-6f" x="632.951172"/>
     <use xlink:href="#DejaVuSans-72" x="694.132812"/>
     <use xlink:href="#DejaVuSans-20" x="735.246094"/>
     <use xlink:href="#DejaVuSans-53" x="767.033203"/>
     <use xlink:href="#DejaVuSans-65" x="830.509766"/>
     <use xlink:href="#DejaVuSans-6e" x="892.033203"/>
     <use xlink:href="#DejaVuSans-74" x="955.412109"/>
     <use xlink:href="#DejaVuSans-69" x="994.621094"/>
     <use xlink:href="#DejaVuSans-6d" x="1022.404297"/>
     <use xlink:href="#DejaVuSans-65" x="1119.816406"/>
     <use xlink:href="#DejaVuSans-6e" x="1181.339844"/>
     <use xlink:href="#DejaVuSans-74" x="1244.71875"/>
     <use xlink:href="#DejaVuSans-20" x="1283.927734"/>
     <use xlink:href="#DejaVuSans-41" x="1315.714844"/>
     <use xlink:href="#DejaVuSans-6e" x="1384.123047"/>
     <use xlink:href="#DejaVuSans-61" x="1447.501953"/>
     <use xlink:href="#DejaVuSans-6c" x="1508.78125"/>
     <use xlink:href="#DejaVuSans-79" x="1536.564453"/>
     <use xlink:href="#DejaVuSans-73" x="1595.744141"/>
     <use xlink:href="#DejaVuSans-69" x="1647.84375"/>
     <use xlink:href="#DejaVuSans-73" x="1675.626953"/>
    </g>
   </g>
  </g>
 </g>
 <defs>
  <clipPath id="p27ecdb2398">
   <rect x="1.904557" y="0" width="248.89974" height="684.341504"/>
  </clipPath>
 </defs>
</svg>