<?xml version="1.0" encoding="utf-8" standalone="no"?>
<!DOCTYPE svg PUBLIC "-//W3C//DTD SVG 1.1//EN"
  "http://www.w3.org/Graphics/SVG/1.1/DTD/svg11.dtd">
<svg xmlns:xlink="http://www.w3.org/1999/xlink" width="495.36pt" height="738.341504pt" viewBox="0 0 495.36 738.341504" xmlns="http://www.w3.org/2000/svg" version="1.1">
 <metadata>
  <rdf:RDF xmlns:dc="http://purl.org/dc/elements/1.1/" xmlns:cc="http://creativecommons.org/ns#" xmlns:rdf="http://www.w3.org/1999/02/22-rdf-syntax-ns#">
   <cc:Work>
    <dc:type rdf:resource="http://purl.org/dc/dcmitype/StillImage"/>
    <dc:date>2024-10-29T22:51:24.888793</dc:date>
    <dc:format>image/svg+xml</dc:format>
    <dc:creator>
     <cc:Agent>
      <dc:title>Matplotlib v3.8.2, https://matplotlib.org/</dc:title>
     </cc:Agent>
    </dc:creator>
   </cc:Work>
  </rdf:RDF>
 </metadata>
 <defs>
  <style type="text/css">*{stroke-linejoin: round; stroke-linecap: butt}</style>
 </defs>
 <g id="figure_1">
  <g id="patch_1">
   <path d="M 0 738.341504 
L 495.36 738.341504 
L 495.36 0 
L 0 0 
z
" style="fill: #ffffff"/>
  </g>
  <g id="axes_1">
   <g id="patch_2">
    <path d="M 208.70325 49.68 
L 209.060234 49.677168 
L 209.417129 49.668672 
L 209.773843 49.654515 
L 210.130288 49.6347 
L 210.486374 49.609232 
L 210.842011 49.578118 
L 211.197109 49.541365 
L 211.55158 49.498983 
L 211.905334 49.450982 
L 212.258281 49.397375 
L 212.610334 49.338174 
L 212.961403 49.273396 
L 213.3114 49.203055 
L 213.660237 49.12717 
L 214.007826 49.04576 
L 214.35408 48.958846 
L 214.698911 48.866449 
L 215.042233 48.768592 
L 215.383958 48.6653 
L 215.724003 48.5566 
L 216.062279 48.442518 
L 216.398703 48.323084 
L 216.73319 48.198327 
L 217.065655 48.068278 
L 217.396015 47.932972 
L 217.724187 47.79244 
L 218.050088 47.64672 
L 218.373636 47.495847 
L 218.694749 47.33986 
L 219.013347 47.178798 
L 219.329349 47.012701 
L 219.642677 46.841611 
L 219.95325 46.665572 
L 220.260991 46.484627 
L 220.565823 46.298822 
L 220.867668 46.108204 
L 221.166451 45.912822 
L 221.462097 45.712723 
L 221.75453 45.507959 
L 222.043678 45.298581 
L 222.329468 45.084641 
L 222.611827 44.866195 
L 222.890685 44.643295 
L 223.165971 44.416 
L 223.437617 44.184365 
L 223.705553 43.94845 
L 223.969712 43.708313 
L 224.230028 43.464016 
L 224.486435 43.215619 
L 224.738869 42.963185 
L 224.987266 42.706778 
L 225.231563 42.446462 
L 225.4717 42.182303 
L 225.707615 41.914367 
L 225.93925 41.642721 
L 226.166545 41.367435 
L 226.389445 41.088577 
L 226.607891 40.806218 
L 226.821831 40.520428 
L 227.031209 40.23128 
L 227.235973 39.938847 
L 227.436072 39.643201 
L 227.631454 39.344418 
L 227.822072 39.042573 
L 228.007877 38.737741 
L 228.188822 38.43 
L 228.364861 38.119427 
L 228.535951 37.806099 
L 228.702048 37.490097 
L 228.86311 37.171499 
L 229.019097 36.850386 
L 229.16997 36.526838 
L 229.31569 36.200937 
L 229.456222 35.872765 
L 229.591528 35.542405 
L 229.721577 35.20994 
L 229.846334 34.875453 
L 229.965768 34.539029 
L 230.07985 34.200753 
L 230.18855 33.860708 
L 230.291842 33.518983 
L 230.389699 33.175661 
L 230.482096 32.83083 
L 230.56901 32.484576 
L 230.65042 32.136987 
L 230.726305 31.78815 
L 230.796646 31.438153 
L 230.861424 31.087084 
L 230.920625 30.735031 
L 230.974232 30.382084 
L 231.022233 30.02833 
L 231.064615 29.673859 
L 231.101368 29.318761 
L 231.132482 28.963124 
L 231.15795 28.607038 
L 231.177765 28.250593 
L 231.191922 27.893879 
L 231.200418 27.536984 
L 231.20325 27.18 
L 231.20325 27.18 
L 231.200418 26.823016 
L 231.191922 26.466121 
L 231.177765 26.109407 
L 231.15795 25.752962 
L 231.132482 25.396876 
L 231.101368 25.041239 
L 231.064615 24.686141 
L 231.022233 24.33167 
L 230.974232 23.977916 
L 230.920625 23.624969 
L 230.861424 23.272916 
L 230.796646 22.921847 
L 230.726305 22.57185 
L 230.65042 22.223013 
L 230.56901 21.875424 
L 230.482096 21.52917 
L 230.389699 21.184339 
L 230.291842 20.841017 
L 230.18855 20.499292 
L 230.07985 20.159247 
L 229.965768 19.820971 
L 229.846334 19.484547 
L 229.721577 19.15006 
L 229.591528 18.817595 
L 229.456222 18.487235 
L 229.31569 18.159063 
L 229.16997 17.833162 
L 229.019097 17.509614 
L 228.86311 17.188501 
L 228.702048 16.869903 
L 228.535951 16.553901 
L 228.364861 16.240573 
L 228.188822 15.93 
L 228.007877 15.622259 
L 227.822072 15.317427 
L 227.631454 15.015582 
L 227.436072 14.716799 
L 227.235973 14.421153 
L 227.031209 14.12872 
L 226.821831 13.839572 
L 226.607891 13.553782 
L 226.389445 13.271423 
L 226.166545 12.992565 
L 225.93925 12.717279 
L 225.707615 12.445633 
L 225.4717 12.177697 
L 225.231563 11.913538 
L 224.987266 11.653222 
L 224.738869 11.396815 
L 224.486435 11.144381 
L 224.230028 10.895984 
L 223.969712 10.651687 
L 223.705553 10.41155 
L 223.437617 10.175635 
L 223.165971 9.944 
L 222.890685 9.716705 
L 222.611827 9.493805 
L 222.329468 9.275359 
L 222.043678 9.061419 
L 221.75453 8.852041 
L 221.462097 8.647277 
L 221.166451 8.447178 
L 220.867668 8.251796 
L 220.565823 8.061178 
L 220.260991 7.875373 
L 219.95325 7.694428 
L 219.642677 7.518389 
L 219.329349 7.347299 
L 219.013347 7.181202 
L 218.694749 7.02014 
L 218.373636 6.864153 
L 218.050088 6.71328 
L 217.724187 6.56756 
L 217.396015 6.427028 
L 217.065655 6.291722 
L 216.73319 6.161673 
L 216.398703 6.036916 
L 216.062279 5.917482 
L 215.724003 5.8034 
L 215.383958 5.6947 
L 215.042233 5.591408 
L 214.698911 5.493551 
L 214.35408 5.401154 
L 214.007826 5.31424 
L 213.660237 5.23283 
L 213.3114 5.156945 
L 212.961403 5.086604 
L 212.610334 5.021826 
L 212.258281 4.962625 
L 211.905334 4.909018 
L 211.55158 4.861017 
L 211.197109 4.818635 
L 210.842011 4.781882 
L 210.486374 4.750768 
L 210.130288 4.7253 
L 209.773843 4.705485 
L 209.417129 4.691328 
L 209.060234 4.682832 
L 208.70325 4.68 
L 52.65675 4.68 
L 52.299766 4.682832 
L 51.942871 4.691328 
L 51.586157 4.705485 
L 51.229712 4.7253 
L 50.873626 4.750768 
L 50.517989 4.781882 
L 50.162891 4.818635 
L 49.80842 4.861017 
L 49.454666 4.909018 
L 49.101719 4.962625 
L 48.749666 5.021826 
L 48.398597 5.086604 
L 48.0486 5.156945 
L 47.699763 5.23283 
L 47.352174 5.31424 
L 47.00592 5.401154 
L 46.661089 5.493551 
L 46.317767 5.591408 
L 45.976042 5.6947 
L 45.635997 5.8034 
L 45.297721 5.917482 
L 44.961297 6.036916 
L 44.62681 6.161673 
L 44.294345 6.291722 
L 43.963985 6.427028 
L 43.635813 6.56756 
L 43.309912 6.71328 
L 42.986364 6.864153 
L 42.665251 7.02014 
L 42.346653 7.181202 
L 42.030651 7.347299 
L 41.717323 7.518389 
L 41.40675 7.694428 
L 41.099009 7.875373 
L 40.794177 8.061178 
L 40.492332 8.251796 
L 40.193549 8.447178 
L 39.897903 8.647277 
L 39.60547 8.852041 
L 39.316322 9.061419 
L 39.030532 9.275359 
L 38.748173 9.493805 
L 38.469315 9.716705 
L 38.194029 9.944 
L 37.922383 10.175635 
L 37.654447 10.41155 
L 37.390288 10.651687 
L 37.129972 10.895984 
L 36.873565 11.144381 
L 36.621131 11.396815 
L 36.372734 11.653222 
L 36.128437 11.913538 
L 35.8883 12.177697 
L 35.652385 12.445633 
L 35.42075 12.717279 
L 35.193455 12.992565 
L 34.970555 13.271423 
L 34.752109 13.553782 
L 34.538169 13.839572 
L 34.328791 14.12872 
L 34.124027 14.421153 
L 33.923928 14.716799 
L 33.728546 15.015582 
L 33.537928 15.317427 
L 33.352123 15.622259 
L 33.171178 15.93 
L 32.995139 16.240573 
L 32.824049 16.553901 
L 32.657952 16.869903 
L 32.49689 17.188501 
L 32.340903 17.509614 
L 32.19003 17.833162 
L 32.04431 18.159063 
L 31.903778 18.487235 
L 31.768472 18.817595 
L 31.638423 19.15006 
L 31.513666 19.484547 
L 31.394232 19.820971 
L 31.28015 20.159247 
L 31.17145 20.499292 
L 31.068158 20.841017 
L 30.970301 21.184339 
L 30.877904 21.52917 
L 30.79099 21.875424 
L 30.70958 22.223013 
L 30.633695 22.57185 
L 30.563354 22.921847 
L 30.498576 23.272916 
L 30.439375 23.624969 
L 30.385768 23.977916 
L 30.337767 24.33167 
L 30.295385 24.686141 
L 30.258632 25.041239 
L 30.227518 25.396876 
L 30.20205 25.752962 
L 30.182235 26.109407 
L 30.168078 26.466121 
L 30.159582 26.823016 
L 30.15675 27.18 
L 30.15675 27.18 
L 30.159582 27.536984 
L 30.168078 27.893879 
L 30.182235 28.250593 
L 30.20205 28.607038 
L 30.227518 28.963124 
L 30.258632 29.318761 
L 30.295385 29.673859 
L 30.337767 30.02833 
L 30.385768 30.382084 
L 30.439375 30.735031 
L 30.498576 31.087084 
L 30.563354 31.438153 
L 30.633695 31.78815 
L 30.70958 32.136987 
L 30.79099 32.484576 
L 30.877904 32.83083 
L 30.970301 33.175661 
L 31.068158 33.518983 
L 31.17145 33.860708 
L 31.28015 34.200753 
L 31.394232 34.539029 
L 31.513666 34.875453 
L 31.638423 35.20994 
L 31.768472 35.542405 
L 31.903778 35.872765 
L 32.04431 36.200937 
L 32.19003 36.526838 
L 32.340903 36.850386 
L 32.49689 37.171499 
L 32.657952 37.490097 
L 32.824049 37.806099 
L 32.995139 38.119427 
L 33.171178 38.43 
L 33.352123 38.737741 
L 33.537928 39.042573 
L 33.728546 39.344418 
L 33.923928 39.643201 
L 34.124027 39.938847 
L 34.328791 40.23128 
L 34.538169 40.520428 
L 34.752109 40.806218 
L 34.970555 41.088577 
L 35.193455 41.367435 
L 35.42075 41.642721 
L 35.652385 41.914367 
L 35.8883 42.182303 
L 36.128437 42.446462 
L 36.372734 42.706778 
L 36.621131 42.963185 
L 36.873565 43.215619 
L 37.129972 43.464016 
L 37.390288 43.708313 
L 37.654447 43.94845 
L 37.922383 44.184365 
L 38.194029 44.416 
L 38.469315 44.643295 
L 38.748173 44.866195 
L 39.030532 45.084641 
L 39.316322 45.298581 
L 39.60547 45.507959 
L 39.897903 45.712723 
L 40.193549 45.912822 
L 40.492332 46.108204 
L 40.794177 46.298822 
L 41.099009 46.484627 
L 41.40675 46.665572 
L 41.717323 46.841611 
L 42.030651 47.012701 
L 42.346653 47.178798 
L 42.665251 47.33986 
L 42.986364 47.495847 
L 43.309912 47.64672 
L 43.635813 47.79244 
L 43.963985 47.932972 
L 44.294345 48.068278 
L 44.62681 48.198327 
L 44.961297 48.323084 
L 45.297721 48.442518 
L 45.635997 48.5566 
L 45.976042 48.6653 
L 46.317767 48.768592 
L 46.661089 48.866449 
L 47.00592 48.958846 
L 47.352174 49.04576 
L 47.699763 49.12717 
L 48.0486 49.203055 
L 48.398597 49.273396 
L 48.749666 49.338174 
L 49.101719 49.397375 
L 49.454666 49.450982 
L 49.80842 49.498983 
L 50.162891 49.541365 
L 50.517989 49.578118 
L 50.873626 49.609232 
L 51.229712 49.6347 
L 51.586157 49.654515 
L 51.942871 49.668672 
L 52.299766 49.677168 
L 52.65675 49.68 
L 208.70325 49.68 
z
" clip-path="url(#pbdc3d464b8)" style="fill: none; stroke: #000000; stroke-width: 2; stroke-linecap: round"/>
   </g>
   <g id="patch_3">
    <path d="M 13.68 139.68 
L 22.68 103.68 
L 238.68 103.68 
L 220.68 175.68 
L 4.68 175.68 
L 13.68 139.68 
z
" clip-path="url(#pbdc3d464b8)" style="fill: none; stroke: #000000; stroke-width: 2; stroke-linecap: round"/>
   </g>
   <g id="patch_4">
    <path d="M 22.68 418.68 
L 112.68 355.68 
L 202.68 418.68 
L 112.68 481.68 
L 22.68 418.68 
z
" clip-path="url(#pbdc3d464b8)" style="fill: none; stroke: #000000; stroke-width: 2; stroke-linecap: round"/>
   </g>
   <g id="line2d_1">
    <path d="M 130.68 49.68 
L 130.68 76.68 
L 130.68 94.68 
" clip-path="url(#pbdc3d464b8)" style="fill: none; stroke: #000000; stroke-width: 2; stroke-linecap: round"/>
   </g>
   <g id="patch_5">
    <path d="M 133.38 94.68 
L 130.68 103.68 
L 127.98 94.68 
z
" clip-path="url(#pbdc3d464b8)"/>
   </g>
   <g id="line2d_2">
    <path d="M 112.68 175.68 
L 112.68 202.68 
L 112.68 220.68 
" clip-path="url(#pbdc3d464b8)" style="fill: none; stroke: #000000; stroke-width: 2; stroke-linecap: round"/>
   </g>
   <g id="patch_6">
    <path d="M 115.38 220.68 
L 112.68 229.68 
L 109.98 220.68 
z
" clip-path="url(#pbdc3d464b8)"/>
   </g>
   <g id="line2d_3">
    <path d="M 4.68 265.68 
L 4.68 229.68 
L 220.68 229.68 
L 220.68 301.68 
L 4.68 301.68 
L 4.68 265.68 
" clip-path="url(#pbdc3d464b8)" style="fill: none; stroke: #000000; stroke-width: 2; stroke-linecap: round"/>
   </g>
   <g id="line2d_4">
    <path d="M 112.68 301.68 
L 112.68 328.68 
L 112.68 346.68 
" clip-path="url(#pbdc3d464b8)" style="fill: none; stroke: #000000; stroke-width: 2; stroke-linecap: round"/>
   </g>
   <g id="patch_7">
    <path d="M 115.38 346.68 
L 112.68 355.68 
L 109.98 346.68 
z
" clip-path="url(#pbdc3d464b8)"/>
   </g>
   <g id="line2d_5">
    <path d="M 112.68 481.68 
L 112.68 508.68 
L 112.68 526.68 
" clip-path="url(#pbdc3d464b8)" style="fill: none; stroke: #000000; stroke-width: 2; stroke-linecap: round"/>
   </g>
   <g id="patch_8">
    <path d="M 115.38 526.68 
L 112.68 535.68 
L 109.98 526.68 
z
" clip-path="url(#pbdc3d464b8)"/>
   </g>
   <g id="line2d_6">
    <path d="M 4.68 571.68 
L 4.68 535.68 
L 220.68 535.68 
L 220.68 607.68 
L 4.68 607.68 
L 4.68 571.68 
" clip-path="url(#pbdc3d464b8)" style="fill: none; stroke: #000000; stroke-width: 2; stroke-linecap: round"/>
   </g>
   <g id="line2d_7">
    <path d="M 112.68 607.68 
L 112.68 634.68 
L 112.68 652.68 
" clip-path="url(#pbdc3d464b8)" style="fill: none; stroke: #000000; stroke-width: 2; stroke-linecap: round"/>
   </g>
   <g id="patch_9">
    <path d="M 115.38 652.68 
L 112.68 661.68 
L 109.98 652.68 
z
" clip-path="url(#pbdc3d464b8)"/>
   </g>
   <g id="line2d_8">
    <path d="M 166.68 697.68 
L 166.236661 693.076422 
L 164.913923 688.548435 
L 162.733505 684.170388 
L 159.73121 680.014168 
L 155.956336 676.148021 
L 151.470865 672.635428 
L 146.348449 669.534067 
L 140.673199 666.894861 
L 134.538301 664.761146 
L 128.04449 663.167957 
L 121.298394 662.141456 
L 114.410785 661.698496 
L 107.494757 661.846352 
L 100.66387 662.582595 
L 94.030287 663.895137 
L 87.702932 665.762425 
L 81.7857 668.153799 
L 76.375752 671.029992 
L 71.561918 674.343778 
L 67.423242 678.040744 
L 64.027681 682.060185 
L 61.43099 686.336104 
L 59.675806 690.798289 
L 58.790949 695.373472 
L 58.790949 699.986528 
L 59.675806 704.561711 
L 61.43099 709.023896 
L 64.027681 713.299815 
L 67.423242 717.319256 
L 71.561918 721.016222 
L 76.375752 724.330008 
L 81.7857 727.206201 
L 87.702932 729.597575 
L 94.030287 731.464863 
L 100.66387 732.777405 
L 107.494757 733.513648 
L 114.410785 733.661504 
L 121.298394 733.218544 
L 128.04449 732.192043 
L 134.538301 730.598854 
L 140.673199 728.465139 
L 146.348449 725.825933 
L 151.470865 722.724572 
L 155.956336 719.211979 
L 159.73121 715.345832 
L 162.733505 711.189612 
L 164.913923 706.811565 
L 166.236661 702.283578 
L 166.68 697.68 
" clip-path="url(#pbdc3d464b8)" style="fill: none; stroke: #000000; stroke-width: 2; stroke-linecap: round"/>
   </g>
   <g id="line2d_9">
    <path d="M 202.68 418.68 
L 256.68 418.68 
L 301.68 418.68 
" clip-path="url(#pbdc3d464b8)" style="fill: none; stroke: #000000; stroke-width: 2; stroke-linecap: round"/>
   </g>
   <g id="patch_10">
    <path d="M 301.68 415.98 
L 310.68 418.68 
L 301.68 421.38 
z
" clip-path="url(#pbdc3d464b8)"/>
   </g>
   <g id="line2d_10">
    <path d="M 310.68 418.68 
L 310.68 382.68 
L 490.68 382.68 
L 490.68 454.68 
L 310.68 454.68 
L 310.68 418.68 
" clip-path="url(#pbdc3d464b8)" style="fill: none; stroke: #000000; stroke-width: 2; stroke-linecap: round"/>
   </g>
   <g id="line2d_11">
    <path d="M 400.68 454.68 
L 400.68 571.68 
L 229.68 571.68 
" clip-path="url(#pbdc3d464b8)" style="fill: none; stroke: #000000; stroke-width: 2; stroke-linecap: round"/>
   </g>
   <g id="patch_11">
    <path d="M 229.68 574.38 
L 220.68 571.68 
L 229.68 568.98 
z
" clip-path="url(#pbdc3d464b8)"/>
   </g>
   <g id="text_1">
    <!-- Data Preprocessing: Start -->
    <g transform="translate(41.212344 31.043125) scale(0.14 -0.14)">
     <defs>
      <path id="DejaVuSans-44" d="M 1259 4147 
L 1259 519 
L 2022 519 
Q 2988 519 3436 956 
Q 3884 1394 3884 2338 
Q 3884 3275 3436 3711 
Q 2988 4147 2022 4147 
L 1259 4147 
z
M 628 4666 
L 1925 4666 
Q 3281 4666 3915 4102 
Q 4550 3538 4550 2338 
Q 4550 1131 3912 565 
Q 3275 0 1925 0 
L 628 0 
L 628 4666 
z
" transform="scale(0.015625)"/>
      <path id="DejaVuSans-61" d="M 2194 1759 
Q 1497 1759 1228 1600 
Q 959 1441 959 1056 
Q 959 750 1161 570 
Q 1363 391 1709 391 
Q 2188 391 2477 730 
Q 2766 1069 2766 1631 
L 2766 1759 
L 2194 1759 
z
M 3341 1997 
L 3341 0 
L 2766 0 
L 2766 531 
Q 2569 213 2275 61 
Q 1981 -91 1556 -91 
Q 1019 -91 701 211 
Q 384 513 384 1019 
Q 384 1609 779 1909 
Q 1175 2209 1959 2209 
L 2766 2209 
L 2766 2266 
Q 2766 2663 2505 2880 
Q 2244 3097 1772 3097 
Q 1472 3097 1187 3025 
Q 903 2953 641 2809 
L 641 3341 
Q 956 3463 1253 3523 
Q 1550 3584 1831 3584 
Q 2591 3584 2966 3190 
Q 3341 2797 3341 1997 
z
" transform="scale(0.015625)"/>
      <path id="DejaVuSans-74" d="M 1172 4494 
L 1172 3500 
L 2356 3500 
L 2356 3053 
L 1172 3053 
L 1172 1153 
Q 1172 725 1289 603 
Q 1406 481 1766 481 
L 2356 481 
L 2356 0 
L 1766 0 
Q 1100 0 847 248 
Q 594 497 594 1153 
L 594 3053 
L 172 3053 
L 172 3500 
L 594 3500 
L 594 4494 
L 1172 4494 
z
" transform="scale(0.015625)"/>
      <path id="DejaVuSans-20" transform="scale(0.015625)"/>
      <path id="DejaVuSans-50" d="M 1259 4147 
L 1259 2394 
L 2053 2394 
Q 2494 2394 2734 2622 
Q 2975 2850 2975 3272 
Q 2975 3691 2734 3919 
Q 2494 4147 2053 4147 
L 1259 4147 
z
M 628 4666 
L 2053 4666 
Q 2838 4666 3239 4311 
Q 3641 3956 3641 3272 
Q 3641 2581 3239 2228 
Q 2838 1875 2053 1875 
L 1259 1875 
L 1259 0 
L 628 0 
L 628 4666 
z
" transform="scale(0.015625)"/>
      <path id="DejaVuSans-72" d="M 2631 2963 
Q 2534 3019 2420 3045 
Q 2306 3072 2169 3072 
Q 1681 3072 1420 2755 
Q 1159 2438 1159 1844 
L 1159 0 
L 581 0 
L 581 3500 
L 1159 3500 
L 1159 2956 
Q 1341 3275 1631 3429 
Q 1922 3584 2338 3584 
Q 2397 3584 2469 3576 
Q 2541 3569 2628 3553 
L 2631 2963 
z
" transform="scale(0.015625)"/>
      <path id="DejaVuSans-65" d="M 3597 1894 
L 3597 1613 
L 953 1613 
Q 991 1019 1311 708 
Q 1631 397 2203 397 
Q 2534 397 2845 478 
Q 3156 559 3463 722 
L 3463 178 
Q 3153 47 2828 -22 
Q 2503 -91 2169 -91 
Q 1331 -91 842 396 
Q 353 884 353 1716 
Q 353 2575 817 3079 
Q 1281 3584 2069 3584 
Q 2775 3584 3186 3129 
Q 3597 2675 3597 1894 
z
M 3022 2063 
Q 3016 2534 2758 2815 
Q 2500 3097 2075 3097 
Q 1594 3097 1305 2825 
Q 1016 2553 972 2059 
L 3022 2063 
z
" transform="scale(0.015625)"/>
      <path id="DejaVuSans-70" d="M 1159 525 
L 1159 -1331 
L 581 -1331 
L 581 3500 
L 1159 3500 
L 1159 2969 
Q 1341 3281 1617 3432 
Q 1894 3584 2278 3584 
Q 2916 3584 3314 3078 
Q 3713 2572 3713 1747 
Q 3713 922 3314 415 
Q 2916 -91 2278 -91 
Q 1894 -91 1617 61 
Q 1341 213 1159 525 
z
M 3116 1747 
Q 3116 2381 2855 2742 
Q 2594 3103 2138 3103 
Q 1681 3103 1420 2742 
Q 1159 2381 1159 1747 
Q 1159 1113 1420 752 
Q 1681 391 2138 391 
Q 2594 391 2855 752 
Q 3116 1113 3116 1747 
z
" transform="scale(0.015625)"/>
      <path id="DejaVuSans-6f" d="M 1959 3097 
Q 1497 3097 1228 2736 
Q 959 2375 959 1747 
Q 959 1119 1226 758 
Q 1494 397 1959 397 
Q 2419 397 2687 759 
Q 2956 1122 2956 1747 
Q 2956 2369 2687 2733 
Q 2419 3097 1959 3097 
z
M 1959 3584 
Q 2709 3584 3137 3096 
Q 3566 2609 3566 1747 
Q 3566 888 3137 398 
Q 2709 -91 1959 -91 
Q 1206 -91 779 398 
Q 353 888 353 1747 
Q 353 2609 779 3096 
Q 1206 3584 1959 3584 
z
" transform="scale(0.015625)"/>
      <path id="DejaVuSans-63" d="M 3122 3366 
L 3122 2828 
Q 2878 2963 2633 3030 
Q 2388 3097 2138 3097 
Q 1578 3097 1268 2742 
Q 959 2388 959 1747 
Q 959 1106 1268 751 
Q 1578 397 2138 397 
Q 2388 397 2633 464 
Q 2878 531 3122 666 
L 3122 134 
Q 2881 22 2623 -34 
Q 2366 -91 2075 -91 
Q 1284 -91 818 406 
Q 353 903 353 1747 
Q 353 2603 823 3093 
Q 1294 3584 2113 3584 
Q 2378 3584 2631 3529 
Q 2884 3475 3122 3366 
z
" transform="scale(0.015625)"/>
      <path id="DejaVuSans-73" d="M 2834 3397 
L 2834 2853 
Q 2591 2978 2328 3040 
Q 2066 3103 1784 3103 
Q 1356 3103 1142 2972 
Q 928 2841 928 2578 
Q 928 2378 1081 2264 
Q 1234 2150 1697 2047 
L 1894 2003 
Q 2506 1872 2764 1633 
Q 3022 1394 3022 966 
Q 3022 478 2636 193 
Q 2250 -91 1575 -91 
Q 1294 -91 989 -36 
Q 684 19 347 128 
L 347 722 
Q 666 556 975 473 
Q 1284 391 1588 391 
Q 1994 391 2212 530 
Q 2431 669 2431 922 
Q 2431 1156 2273 1281 
Q 2116 1406 1581 1522 
L 1381 1569 
Q 847 1681 609 1914 
Q 372 2147 372 2553 
Q 372 3047 722 3315 
Q 1072 3584 1716 3584 
Q 2034 3584 2315 3537 
Q 2597 3491 2834 3397 
z
" transform="scale(0.015625)"/>
      <path id="DejaVuSans-69" d="M 603 3500 
L 1178 3500 
L 1178 0 
L 603 0 
L 603 3500 
z
M 603 4863 
L 1178 4863 
L 1178 4134 
L 603 4134 
L 603 4863 
z
" transform="scale(0.015625)"/>
      <path id="DejaVuSans-6e" d="M 3513 2113 
L 3513 0 
L 2938 0 
L 2938 2094 
Q 2938 2591 2744 2837 
Q 2550 3084 2163 3084 
Q 1697 3084 1428 2787 
Q 1159 2491 1159 1978 
L 1159 0 
L 581 0 
L 581 3500 
L 1159 3500 
L 1159 2956 
Q 1366 3272 1645 3428 
Q 1925 3584 2291 3584 
Q 2894 3584 3203 3211 
Q 3513 2838 3513 2113 
z
" transform="scale(0.015625)"/>
      <path id="DejaVuSans-67" d="M 2906 1791 
Q 2906 2416 2648 2759 
Q 2391 3103 1925 3103 
Q 1463 3103 1205 2759 
Q 947 2416 947 1791 
Q 947 1169 1205 825 
Q 1463 481 1925 481 
Q 2391 481 2648 825 
Q 2906 1169 2906 1791 
z
M 3481 434 
Q 3481 -459 3084 -895 
Q 2688 -1331 1869 -1331 
Q 1566 -1331 1297 -1286 
Q 1028 -1241 775 -1147 
L 775 -588 
Q 1028 -725 1275 -790 
Q 1522 -856 1778 -856 
Q 2344 -856 2625 -561 
Q 2906 -266 2906 331 
L 2906 616 
Q 2728 306 2450 153 
Q 2172 0 1784 0 
Q 1141 0 747 490 
Q 353 981 353 1791 
Q 353 2603 747 3093 
Q 1141 3584 1784 3584 
Q 2172 3584 2450 3431 
Q 2728 3278 2906 2969 
L 2906 3500 
L 3481 3500 
L 3481 434 
z
" transform="scale(0.015625)"/>
      <path id="DejaVuSans-3a" d="M 750 794 
L 1409 794 
L 1409 0 
L 750 0 
L 750 794 
z
M 750 3309 
L 1409 3309 
L 1409 2516 
L 750 2516 
L 750 3309 
z
" transform="scale(0.015625)"/>
      <path id="DejaVuSans-53" d="M 3425 4513 
L 3425 3897 
Q 3066 4069 2747 4153 
Q 2428 4238 2131 4238 
Q 1616 4238 1336 4038 
Q 1056 3838 1056 3469 
Q 1056 3159 1242 3001 
Q 1428 2844 1947 2747 
L 2328 2669 
Q 3034 2534 3370 2195 
Q 3706 1856 3706 1288 
Q 3706 609 3251 259 
Q 2797 -91 1919 -91 
Q 1588 -91 1214 -16 
Q 841 59 441 206 
L 441 856 
Q 825 641 1194 531 
Q 1563 422 1919 422 
Q 2459 422 2753 634 
Q 3047 847 3047 1241 
Q 3047 1584 2836 1778 
Q 2625 1972 2144 2069 
L 1759 2144 
Q 1053 2284 737 2584 
Q 422 2884 422 3419 
Q 422 4038 858 4394 
Q 1294 4750 2059 4750 
Q 2388 4750 2728 4690 
Q 3069 4631 3425 4513 
z
" transform="scale(0.015625)"/>
     </defs>
     <use xlink:href="#DejaVuSans-44"/>
     <use xlink:href="#DejaVuSans-61" x="77.001953"/>
     <use xlink:href="#DejaVuSans-74" x="138.28125"/>
     <use xlink:href="#DejaVuSans-61" x="177.490234"/>
     <use xlink:href="#DejaVuSans-20" x="238.769531"/>
     <use xlink:href="#DejaVuSans-50" x="270.556641"/>
     <use xlink:href="#DejaVuSans-72" x="329.109375"/>
     <use xlink:href="#DejaVuSans-65" x="367.972656"/>
     <use xlink:href="#DejaVuSans-70" x="429.496094"/>
     <use xlink:href="#DejaVuSans-72" x="492.972656"/>
     <use xlink:href="#DejaVuSans-6f" x="531.835938"/>
     <use xlink:href="#DejaVuSans-63" x="593.017578"/>
     <use xlink:href="#DejaVuSans-65" x="647.998047"/>
     <use xlink:href="#DejaVuSans-73" x="709.521484"/>
     <use xlink:href="#DejaVuSans-73" x="761.621094"/>
     <use xlink:href="#DejaVuSans-69" x="813.720703"/>
     <use xlink:href="#DejaVuSans-6e" x="841.503906"/>
     <use xlink:href="#DejaVuSans-67" x="904.882812"/>
     <use xlink:href="#DejaVuSans-3a" x="968.359375"/>
     <use xlink:href="#DejaVuSans-20" x="1002.050781"/>
     <use xlink:href="#DejaVuSans-53" x="1033.837891"/>
     <use xlink:href="#DejaVuSans-74" x="1097.314453"/>
     <use xlink:href="#DejaVuSans-61" x="1136.523438"/>
     <use xlink:href="#DejaVuSans-72" x="1197.802734"/>
     <use xlink:href="#DejaVuSans-74" x="1238.916016"/>
    </g>
   </g>
   <g id="text_2">
    <!-- Retrieve and read data from sources -->
    <g transform="translate(20.969844 142.715312) scale(0.11 -0.11)">
     <defs>
      <path id="DejaVuSans-52" d="M 2841 2188 
Q 3044 2119 3236 1894 
Q 3428 1669 3622 1275 
L 4263 0 
L 3584 0 
L 2988 1197 
Q 2756 1666 2539 1819 
Q 2322 1972 1947 1972 
L 1259 1972 
L 1259 0 
L 628 0 
L 628 4666 
L 2053 4666 
Q 2853 4666 3247 4331 
Q 3641 3997 3641 3322 
Q 3641 2881 3436 2590 
Q 3231 2300 2841 2188 
z
M 1259 4147 
L 1259 2491 
L 2053 2491 
Q 2509 2491 2742 2702 
Q 2975 2913 2975 3322 
Q 2975 3731 2742 3939 
Q 2509 4147 2053 4147 
L 1259 4147 
z
" transform="scale(0.015625)"/>
      <path id="DejaVuSans-76" d="M 191 3500 
L 800 3500 
L 1894 563 
L 2988 3500 
L 3597 3500 
L 2284 0 
L 1503 0 
L 191 3500 
z
" transform="scale(0.015625)"/>
      <path id="DejaVuSans-64" d="M 2906 2969 
L 2906 4863 
L 3481 4863 
L 3481 0 
L 2906 0 
L 2906 525 
Q 2725 213 2448 61 
Q 2172 -91 1784 -91 
Q 1150 -91 751 415 
Q 353 922 353 1747 
Q 353 2572 751 3078 
Q 1150 3584 1784 3584 
Q 2172 3584 2448 3432 
Q 2725 3281 2906 2969 
z
M 947 1747 
Q 947 1113 1208 752 
Q 1469 391 1925 391 
Q 2381 391 2643 752 
Q 2906 1113 2906 1747 
Q 2906 2381 2643 2742 
Q 2381 3103 1925 3103 
Q 1469 3103 1208 2742 
Q 947 2381 947 1747 
z
" transform="scale(0.015625)"/>
      <path id="DejaVuSans-66" d="M 2375 4863 
L 2375 4384 
L 1825 4384 
Q 1516 4384 1395 4259 
Q 1275 4134 1275 3809 
L 1275 3500 
L 2222 3500 
L 2222 3053 
L 1275 3053 
L 1275 0 
L 697 0 
L 697 3053 
L 147 3053 
L 147 3500 
L 697 3500 
L 697 3744 
Q 697 4328 969 4595 
Q 1241 4863 1831 4863 
L 2375 4863 
z
" transform="scale(0.015625)"/>
      <path id="DejaVuSans-6d" d="M 3328 2828 
Q 3544 3216 3844 3400 
Q 4144 3584 4550 3584 
Q 5097 3584 5394 3201 
Q 5691 2819 5691 2113 
L 5691 0 
L 5113 0 
L 5113 2094 
Q 5113 2597 4934 2840 
Q 4756 3084 4391 3084 
Q 3944 3084 3684 2787 
Q 3425 2491 3425 1978 
L 3425 0 
L 2847 0 
L 2847 2094 
Q 2847 2600 2669 2842 
Q 2491 3084 2119 3084 
Q 1678 3084 1418 2786 
Q 1159 2488 1159 1978 
L 1159 0 
L 581 0 
L 581 3500 
L 1159 3500 
L 1159 2956 
Q 1356 3278 1631 3431 
Q 1906 3584 2284 3584 
Q 2666 3584 2933 3390 
Q 3200 3197 3328 2828 
z
" transform="scale(0.015625)"/>
      <path id="DejaVuSans-75" d="M 544 1381 
L 544 3500 
L 1119 3500 
L 1119 1403 
Q 1119 906 1312 657 
Q 1506 409 1894 409 
Q 2359 409 2629 706 
Q 2900 1003 2900 1516 
L 2900 3500 
L 3475 3500 
L 3475 0 
L 2900 0 
L 2900 538 
Q 2691 219 2414 64 
Q 2138 -91 1772 -91 
Q 1169 -91 856 284 
Q 544 659 544 1381 
z
M 1991 3584 
L 1991 3584 
z
" transform="scale(0.015625)"/>
     </defs>
     <use xlink:href="#DejaVuSans-52"/>
     <use xlink:href="#DejaVuSans-65" x="64.982422"/>
     <use xlink:href="#DejaVuSans-74" x="126.505859"/>
     <use xlink:href="#DejaVuSans-72" x="165.714844"/>
     <use xlink:href="#DejaVuSans-69" x="206.828125"/>
     <use xlink:href="#DejaVuSans-65" x="234.611328"/>
     <use xlink:href="#DejaVuSans-76" x="296.134766"/>
     <use xlink:href="#DejaVuSans-65" x="355.314453"/>
     <use xlink:href="#DejaVuSans-20" x="416.837891"/>
     <use xlink:href="#DejaVuSans-61" x="448.625"/>
     <use xlink:href="#DejaVuSans-6e" x="509.904297"/>
     <use xlink:href="#DejaVuSans-64" x="573.283203"/>
     <use xlink:href="#DejaVuSans-20" x="636.759766"/>
     <use xlink:href="#DejaVuSans-72" x="668.546875"/>
     <use xlink:href="#DejaVuSans-65" x="707.410156"/>
     <use xlink:href="#DejaVuSans-61" x="768.933594"/>
     <use xlink:href="#DejaVuSans-64" x="830.212891"/>
     <use xlink:href="#DejaVuSans-20" x="893.689453"/>
     <use xlink:href="#DejaVuSans-64" x="925.476562"/>
     <use xlink:href="#DejaVuSans-61" x="988.953125"/>
     <use xlink:href="#DejaVuSans-74" x="1050.232422"/>
     <use xlink:href="#DejaVuSans-61" x="1089.441406"/>
     <use xlink:href="#DejaVuSans-20" x="1150.720703"/>
     <use xlink:href="#DejaVuSans-66" x="1182.507812"/>
     <use xlink:href="#DejaVuSans-72" x="1217.712891"/>
     <use xlink:href="#DejaVuSans-6f" x="1256.576172"/>
     <use xlink:href="#DejaVuSans-6d" x="1317.757812"/>
     <use xlink:href="#DejaVuSans-20" x="1415.169922"/>
     <use xlink:href="#DejaVuSans-73" x="1446.957031"/>
     <use xlink:href="#DejaVuSans-6f" x="1499.056641"/>
     <use xlink:href="#DejaVuSans-75" x="1560.238281"/>
     <use xlink:href="#DejaVuSans-72" x="1623.617188"/>
     <use xlink:href="#DejaVuSans-63" x="1662.480469"/>
     <use xlink:href="#DejaVuSans-65" x="1717.460938"/>
     <use xlink:href="#DejaVuSans-73" x="1778.984375"/>
    </g>
   </g>
   <g id="text_3">
    <!-- Combine related food categories into one  -->
    <g transform="translate(7.087813 258.76125) scale(0.1 -0.1)">
     <defs>
      <path id="DejaVuSans-43" d="M 4122 4306 
L 4122 3641 
Q 3803 3938 3442 4084 
Q 3081 4231 2675 4231 
Q 1875 4231 1450 3742 
Q 1025 3253 1025 2328 
Q 1025 1406 1450 917 
Q 1875 428 2675 428 
Q 3081 428 3442 575 
Q 3803 722 4122 1019 
L 4122 359 
Q 3791 134 3420 21 
Q 3050 -91 2638 -91 
Q 1578 -91 968 557 
Q 359 1206 359 2328 
Q 359 3453 968 4101 
Q 1578 4750 2638 4750 
Q 3056 4750 3426 4639 
Q 3797 4528 4122 4306 
z
" transform="scale(0.015625)"/>
      <path id="DejaVuSans-62" d="M 3116 1747 
Q 3116 2381 2855 2742 
Q 2594 3103 2138 3103 
Q 1681 3103 1420 2742 
Q 1159 2381 1159 1747 
Q 1159 1113 1420 752 
Q 1681 391 2138 391 
Q 2594 391 2855 752 
Q 3116 1113 3116 1747 
z
M 1159 2969 
Q 1341 3281 1617 3432 
Q 1894 3584 2278 3584 
Q 2916 3584 3314 3078 
Q 3713 2572 3713 1747 
Q 3713 922 3314 415 
Q 2916 -91 2278 -91 
Q 1894 -91 1617 61 
Q 1341 213 1159 525 
L 1159 0 
L 581 0 
L 581 4863 
L 1159 4863 
L 1159 2969 
z
" transform="scale(0.015625)"/>
      <path id="DejaVuSans-6c" d="M 603 4863 
L 1178 4863 
L 1178 0 
L 603 0 
L 603 4863 
z
" transform="scale(0.015625)"/>
     </defs>
     <use xlink:href="#DejaVuSans-43"/>
     <use xlink:href="#DejaVuSans-6f" x="69.824219"/>
     <use xlink:href="#DejaVuSans-6d" x="131.005859"/>
     <use xlink:href="#DejaVuSans-62" x="228.417969"/>
     <use xlink:href="#DejaVuSans-69" x="291.894531"/>
     <use xlink:href="#DejaVuSans-6e" x="319.677734"/>
     <use xlink:href="#DejaVuSans-65" x="383.056641"/>
     <use xlink:href="#DejaVuSans-20" x="444.580078"/>
     <use xlink:href="#DejaVuSans-72" x="476.367188"/>
     <use xlink:href="#DejaVuSans-65" x="515.230469"/>
     <use xlink:href="#DejaVuSans-6c" x="576.753906"/>
     <use xlink:href="#DejaVuSans-61" x="604.537109"/>
     <use xlink:href="#DejaVuSans-74" x="665.816406"/>
     <use xlink:href="#DejaVuSans-65" x="705.025391"/>
     <use xlink:href="#DejaVuSans-64" x="766.548828"/>
     <use xlink:href="#DejaVuSans-20" x="830.025391"/>
     <use xlink:href="#DejaVuSans-66" x="861.8125"/>
     <use xlink:href="#DejaVuSans-6f" x="897.017578"/>
     <use xlink:href="#DejaVuSans-6f" x="958.199219"/>
     <use xlink:href="#DejaVuSans-64" x="1019.380859"/>
     <use xlink:href="#DejaVuSans-20" x="1082.857422"/>
     <use xlink:href="#DejaVuSans-63" x="1114.644531"/>
     <use xlink:href="#DejaVuSans-61" x="1169.625"/>
     <use xlink:href="#DejaVuSans-74" x="1230.904297"/>
     <use xlink:href="#DejaVuSans-65" x="1270.113281"/>
     <use xlink:href="#DejaVuSans-67" x="1331.636719"/>
     <use xlink:href="#DejaVuSans-6f" x="1395.113281"/>
     <use xlink:href="#DejaVuSans-72" x="1456.294922"/>
     <use xlink:href="#DejaVuSans-69" x="1497.408203"/>
     <use xlink:href="#DejaVuSans-65" x="1525.191406"/>
     <use xlink:href="#DejaVuSans-73" x="1586.714844"/>
     <use xlink:href="#DejaVuSans-20" x="1638.814453"/>
     <use xlink:href="#DejaVuSans-69" x="1670.601562"/>
     <use xlink:href="#DejaVuSans-6e" x="1698.384766"/>
     <use xlink:href="#DejaVuSans-74" x="1761.763672"/>
     <use xlink:href="#DejaVuSans-6f" x="1800.972656"/>
     <use xlink:href="#DejaVuSans-20" x="1862.154297"/>
     <use xlink:href="#DejaVuSans-6f" x="1893.941406"/>
     <use xlink:href="#DejaVuSans-6e" x="1955.123047"/>
     <use xlink:href="#DejaVuSans-65" x="2018.501953"/>
     <use xlink:href="#DejaVuSans-20" x="2080.025391"/>
    </g>
    <!--              (e.g., Combine milk and oat milk  -->
    <g transform="translate(8.71125 268.439375) scale(0.1 -0.1)">
     <defs>
      <path id="DejaVuSans-28" d="M 1984 4856 
Q 1566 4138 1362 3434 
Q 1159 2731 1159 2009 
Q 1159 1288 1364 580 
Q 1569 -128 1984 -844 
L 1484 -844 
Q 1016 -109 783 600 
Q 550 1309 550 2009 
Q 550 2706 781 3412 
Q 1013 4119 1484 4856 
L 1984 4856 
z
" transform="scale(0.015625)"/>
      <path id="DejaVuSans-2e" d="M 684 794 
L 1344 794 
L 1344 0 
L 684 0 
L 684 794 
z
" transform="scale(0.015625)"/>
      <path id="DejaVuSans-2c" d="M 750 794 
L 1409 794 
L 1409 256 
L 897 -744 
L 494 -744 
L 750 256 
L 750 794 
z
" transform="scale(0.015625)"/>
      <path id="DejaVuSans-6b" d="M 581 4863 
L 1159 4863 
L 1159 1991 
L 2875 3500 
L 3609 3500 
L 1753 1863 
L 3688 0 
L 2938 0 
L 1159 1709 
L 1159 0 
L 581 0 
L 581 4863 
z
" transform="scale(0.015625)"/>
     </defs>
     <use xlink:href="#DejaVuSans-20"/>
     <use xlink:href="#DejaVuSans-20" x="31.787109"/>
     <use xlink:href="#DejaVuSans-20" x="63.574219"/>
     <use xlink:href="#DejaVuSans-20" x="95.361328"/>
     <use xlink:href="#DejaVuSans-20" x="127.148438"/>
     <use xlink:href="#DejaVuSans-20" x="158.935547"/>
     <use xlink:href="#DejaVuSans-20" x="190.722656"/>
     <use xlink:href="#DejaVuSans-20" x="222.509766"/>
     <use xlink:href="#DejaVuSans-20" x="254.296875"/>
     <use xlink:href="#DejaVuSans-20" x="286.083984"/>
     <use xlink:href="#DejaVuSans-20" x="317.871094"/>
     <use xlink:href="#DejaVuSans-20" x="349.658203"/>
     <use xlink:href="#DejaVuSans-20" x="381.445312"/>
     <use xlink:href="#DejaVuSans-28" x="413.232422"/>
     <use xlink:href="#DejaVuSans-65" x="452.246094"/>
     <use xlink:href="#DejaVuSans-2e" x="513.769531"/>
     <use xlink:href="#DejaVuSans-67" x="545.556641"/>
     <use xlink:href="#DejaVuSans-2e" x="609.033203"/>
     <use xlink:href="#DejaVuSans-2c" x="640.820312"/>
     <use xlink:href="#DejaVuSans-20" x="672.607422"/>
     <use xlink:href="#DejaVuSans-43" x="704.394531"/>
     <use xlink:href="#DejaVuSans-6f" x="774.21875"/>
     <use xlink:href="#DejaVuSans-6d" x="835.400391"/>
     <use xlink:href="#DejaVuSans-62" x="932.8125"/>
     <use xlink:href="#DejaVuSans-69" x="996.289062"/>
     <use xlink:href="#DejaVuSans-6e" x="1024.072266"/>
     <use xlink:href="#DejaVuSans-65" x="1087.451172"/>
     <use xlink:href="#DejaVuSans-20" x="1148.974609"/>
     <use xlink:href="#DejaVuSans-6d" x="1180.761719"/>
     <use xlink:href="#DejaVuSans-69" x="1278.173828"/>
     <use xlink:href="#DejaVuSans-6c" x="1305.957031"/>
     <use xlink:href="#DejaVuSans-6b" x="1333.740234"/>
     <use xlink:href="#DejaVuSans-20" x="1391.650391"/>
     <use xlink:href="#DejaVuSans-61" x="1423.4375"/>
     <use xlink:href="#DejaVuSans-6e" x="1484.716797"/>
     <use xlink:href="#DejaVuSans-64" x="1548.095703"/>
     <use xlink:href="#DejaVuSans-20" x="1611.572266"/>
     <use xlink:href="#DejaVuSans-6f" x="1643.359375"/>
     <use xlink:href="#DejaVuSans-61" x="1704.541016"/>
     <use xlink:href="#DejaVuSans-74" x="1765.820312"/>
     <use xlink:href="#DejaVuSans-20" x="1805.029297"/>
     <use xlink:href="#DejaVuSans-6d" x="1836.816406"/>
     <use xlink:href="#DejaVuSans-69" x="1934.228516"/>
     <use xlink:href="#DejaVuSans-6c" x="1962.011719"/>
     <use xlink:href="#DejaVuSans-6b" x="1989.794922"/>
     <use xlink:href="#DejaVuSans-20" x="2047.705078"/>
    </g>
    <!--  into one category) -->
    <g transform="translate(64.981563 278.1175) scale(0.1 -0.1)">
     <defs>
      <path id="DejaVuSans-79" d="M 2059 -325 
Q 1816 -950 1584 -1140 
Q 1353 -1331 966 -1331 
L 506 -1331 
L 506 -850 
L 844 -850 
Q 1081 -850 1212 -737 
Q 1344 -625 1503 -206 
L 1606 56 
L 191 3500 
L 800 3500 
L 1894 763 
L 2988 3500 
L 3597 3500 
L 2059 -325 
z
" transform="scale(0.015625)"/>
      <path id="DejaVuSans-29" d="M 513 4856 
L 1013 4856 
Q 1481 4119 1714 3412 
Q 1947 2706 1947 2009 
Q 1947 1309 1714 600 
Q 1481 -109 1013 -844 
L 513 -844 
Q 928 -128 1133 580 
Q 1338 1288 1338 2009 
Q 1338 2731 1133 3434 
Q 928 4138 513 4856 
z
" transform="scale(0.015625)"/>
     </defs>
     <use xlink:href="#DejaVuSans-20"/>
     <use xlink:href="#DejaVuSans-69" x="31.787109"/>
     <use xlink:href="#DejaVuSans-6e" x="59.570312"/>
     <use xlink:href="#DejaVuSans-74" x="122.949219"/>
     <use xlink:href="#DejaVuSans-6f" x="162.158203"/>
     <use xlink:href="#DejaVuSans-20" x="223.339844"/>
     <use xlink:href="#DejaVuSans-6f" x="255.126953"/>
     <use xlink:href="#DejaVuSans-6e" x="316.308594"/>
     <use xlink:href="#DejaVuSans-65" x="379.6875"/>
     <use xlink:href="#DejaVuSans-20" x="441.210938"/>
     <use xlink:href="#DejaVuSans-63" x="472.998047"/>
     <use xlink:href="#DejaVuSans-61" x="527.978516"/>
     <use xlink:href="#DejaVuSans-74" x="589.257812"/>
     <use xlink:href="#DejaVuSans-65" x="628.466797"/>
     <use xlink:href="#DejaVuSans-67" x="689.990234"/>
     <use xlink:href="#DejaVuSans-6f" x="753.466797"/>
     <use xlink:href="#DejaVuSans-72" x="814.648438"/>
     <use xlink:href="#DejaVuSans-79" x="855.761719"/>
     <use xlink:href="#DejaVuSans-29" x="914.941406"/>
    </g>
   </g>
   <g id="text_4">
    <!-- YES -->
    <g transform="translate(117.36 496.997812) scale(0.14 -0.14)">
     <defs>
      <path id="DejaVuSans-59" d="M -13 4666 
L 666 4666 
L 1959 2747 
L 3244 4666 
L 3922 4666 
L 2272 2222 
L 2272 0 
L 1638 0 
L 1638 2222 
L -13 4666 
z
" transform="scale(0.015625)"/>
      <path id="DejaVuSans-45" d="M 628 4666 
L 3578 4666 
L 3578 4134 
L 1259 4134 
L 1259 2753 
L 3481 2753 
L 3481 2222 
L 1259 2222 
L 1259 531 
L 3634 531 
L 3634 0 
L 628 0 
L 628 4666 
z
" transform="scale(0.015625)"/>
     </defs>
     <use xlink:href="#DejaVuSans-59"/>
     <use xlink:href="#DejaVuSans-45" x="61.083984"/>
     <use xlink:href="#DejaVuSans-53" x="124.267578"/>
    </g>
   </g>
   <g id="text_5">
    <!-- NO -->
    <g transform="translate(207.36 411.088437) scale(0.14 -0.14)">
     <defs>
      <path id="DejaVuSans-4e" d="M 628 4666 
L 1478 4666 
L 3547 763 
L 3547 4666 
L 4159 4666 
L 4159 0 
L 3309 0 
L 1241 3903 
L 1241 0 
L 628 0 
L 628 4666 
z
" transform="scale(0.015625)"/>
      <path id="DejaVuSans-4f" d="M 2522 4238 
Q 1834 4238 1429 3725 
Q 1025 3213 1025 2328 
Q 1025 1447 1429 934 
Q 1834 422 2522 422 
Q 3209 422 3611 934 
Q 4013 1447 4013 2328 
Q 4013 3213 3611 3725 
Q 3209 4238 2522 4238 
z
M 2522 4750 
Q 3503 4750 4090 4092 
Q 4678 3434 4678 2328 
Q 4678 1225 4090 567 
Q 3503 -91 2522 -91 
Q 1538 -91 948 565 
Q 359 1222 359 2328 
Q 359 3434 948 4092 
Q 1538 4750 2522 4750 
z
" transform="scale(0.015625)"/>
     </defs>
     <use xlink:href="#DejaVuSans-4e"/>
     <use xlink:href="#DejaVuSans-4f" x="74.804688"/>
    </g>
   </g>
   <g id="text_6">
    <!-- Does the food have  -->
    <g transform="translate(57.158359 416.392344) scale(0.11 -0.11)">
     <defs>
      <path id="DejaVuSans-68" d="M 3513 2113 
L 3513 0 
L 2938 0 
L 2938 2094 
Q 2938 2591 2744 2837 
Q 2550 3084 2163 3084 
Q 1697 3084 1428 2787 
Q 1159 2491 1159 1978 
L 1159 0 
L 581 0 
L 581 4863 
L 1159 4863 
L 1159 2956 
Q 1366 3272 1645 3428 
Q 1925 3584 2291 3584 
Q 2894 3584 3203 3211 
Q 3513 2838 3513 2113 
z
" transform="scale(0.015625)"/>
     </defs>
     <use xlink:href="#DejaVuSans-44"/>
     <use xlink:href="#DejaVuSans-6f" x="77.001953"/>
     <use xlink:href="#DejaVuSans-65" x="138.183594"/>
     <use xlink:href="#DejaVuSans-73" x="199.707031"/>
     <use xlink:href="#DejaVuSans-20" x="251.806641"/>
     <use xlink:href="#DejaVuSans-74" x="283.59375"/>
     <use xlink:href="#DejaVuSans-68" x="322.802734"/>
     <use xlink:href="#DejaVuSans-65" x="386.181641"/>
     <use xlink:href="#DejaVuSans-20" x="447.705078"/>
     <use xlink:href="#DejaVuSans-66" x="479.492188"/>
     <use xlink:href="#DejaVuSans-6f" x="514.697266"/>
     <use xlink:href="#DejaVuSans-6f" x="575.878906"/>
     <use xlink:href="#DejaVuSans-64" x="637.060547"/>
     <use xlink:href="#DejaVuSans-20" x="700.537109"/>
     <use xlink:href="#DejaVuSans-68" x="732.324219"/>
     <use xlink:href="#DejaVuSans-61" x="795.703125"/>
     <use xlink:href="#DejaVuSans-76" x="856.982422"/>
     <use xlink:href="#DejaVuSans-65" x="916.162109"/>
     <use xlink:href="#DejaVuSans-20" x="977.685547"/>
    </g>
    <!--  standard unit? (e.g., kg, g, ml) -->
    <g transform="translate(27.260703 427.038281) scale(0.11 -0.11)">
     <defs>
      <path id="DejaVuSans-3f" d="M 1222 794 
L 1856 794 
L 1856 0 
L 1222 0 
L 1222 794 
z
M 1838 1253 
L 1241 1253 
L 1241 1734 
Q 1241 2050 1328 2253 
Q 1416 2456 1697 2725 
L 1978 3003 
Q 2156 3169 2236 3316 
Q 2316 3463 2316 3616 
Q 2316 3894 2111 4066 
Q 1906 4238 1569 4238 
Q 1322 4238 1042 4128 
Q 763 4019 459 3809 
L 459 4397 
Q 753 4575 1054 4662 
Q 1356 4750 1678 4750 
Q 2253 4750 2601 4447 
Q 2950 4144 2950 3647 
Q 2950 3409 2837 3195 
Q 2725 2981 2444 2713 
L 2169 2444 
Q 2022 2297 1961 2214 
Q 1900 2131 1875 2053 
Q 1856 1988 1847 1894 
Q 1838 1800 1838 1638 
L 1838 1253 
z
" transform="scale(0.015625)"/>
     </defs>
     <use xlink:href="#DejaVuSans-20"/>
     <use xlink:href="#DejaVuSans-73" x="31.787109"/>
     <use xlink:href="#DejaVuSans-74" x="83.886719"/>
     <use xlink:href="#DejaVuSans-61" x="123.095703"/>
     <use xlink:href="#DejaVuSans-6e" x="184.375"/>
     <use xlink:href="#DejaVuSans-64" x="247.753906"/>
     <use xlink:href="#DejaVuSans-61" x="311.230469"/>
     <use xlink:href="#DejaVuSans-72" x="372.509766"/>
     <use xlink:href="#DejaVuSans-64" x="411.873047"/>
     <use xlink:href="#DejaVuSans-20" x="475.349609"/>
     <use xlink:href="#DejaVuSans-75" x="507.136719"/>
     <use xlink:href="#DejaVuSans-6e" x="570.515625"/>
     <use xlink:href="#DejaVuSans-69" x="633.894531"/>
     <use xlink:href="#DejaVuSans-74" x="661.677734"/>
     <use xlink:href="#DejaVuSans-3f" x="700.886719"/>
     <use xlink:href="#DejaVuSans-20" x="753.962891"/>
     <use xlink:href="#DejaVuSans-28" x="785.75"/>
     <use xlink:href="#DejaVuSans-65" x="824.763672"/>
     <use xlink:href="#DejaVuSans-2e" x="886.287109"/>
     <use xlink:href="#DejaVuSans-67" x="918.074219"/>
     <use xlink:href="#DejaVuSans-2e" x="981.550781"/>
     <use xlink:href="#DejaVuSans-2c" x="1013.337891"/>
     <use xlink:href="#DejaVuSans-20" x="1045.125"/>
     <use xlink:href="#DejaVuSans-6b" x="1076.912109"/>
     <use xlink:href="#DejaVuSans-67" x="1134.822266"/>
     <use xlink:href="#DejaVuSans-2c" x="1198.298828"/>
     <use xlink:href="#DejaVuSans-20" x="1230.085938"/>
     <use xlink:href="#DejaVuSans-67" x="1261.873047"/>
     <use xlink:href="#DejaVuSans-2c" x="1325.349609"/>
     <use xlink:href="#DejaVuSans-20" x="1357.136719"/>
     <use xlink:href="#DejaVuSans-6d" x="1388.923828"/>
     <use xlink:href="#DejaVuSans-6c" x="1486.335938"/>
     <use xlink:href="#DejaVuSans-29" x="1514.119141"/>
    </g>
   </g>
   <g id="text_7">
    <!-- Map GHG emission factors and nutrition  -->
    <g transform="translate(10.9425 569.600312) scale(0.1 -0.1)">
     <defs>
      <path id="DejaVuSans-4d" d="M 628 4666 
L 1569 4666 
L 2759 1491 
L 3956 4666 
L 4897 4666 
L 4897 0 
L 4281 0 
L 4281 4097 
L 3078 897 
L 2444 897 
L 1241 4097 
L 1241 0 
L 628 0 
L 628 4666 
z
" transform="scale(0.015625)"/>
      <path id="DejaVuSans-47" d="M 3809 666 
L 3809 1919 
L 2778 1919 
L 2778 2438 
L 4434 2438 
L 4434 434 
Q 4069 175 3628 42 
Q 3188 -91 2688 -91 
Q 1594 -91 976 548 
Q 359 1188 359 2328 
Q 359 3472 976 4111 
Q 1594 4750 2688 4750 
Q 3144 4750 3555 4637 
Q 3966 4525 4313 4306 
L 4313 3634 
Q 3963 3931 3569 4081 
Q 3175 4231 2741 4231 
Q 1884 4231 1454 3753 
Q 1025 3275 1025 2328 
Q 1025 1384 1454 906 
Q 1884 428 2741 428 
Q 3075 428 3337 486 
Q 3600 544 3809 666 
z
" transform="scale(0.015625)"/>
      <path id="DejaVuSans-48" d="M 628 4666 
L 1259 4666 
L 1259 2753 
L 3553 2753 
L 3553 4666 
L 4184 4666 
L 4184 0 
L 3553 0 
L 3553 2222 
L 1259 2222 
L 1259 0 
L 628 0 
L 628 4666 
z
" transform="scale(0.015625)"/>
     </defs>
     <use xlink:href="#DejaVuSans-4d"/>
     <use xlink:href="#DejaVuSans-61" x="86.279297"/>
     <use xlink:href="#DejaVuSans-70" x="147.558594"/>
     <use xlink:href="#DejaVuSans-20" x="211.035156"/>
     <use xlink:href="#DejaVuSans-47" x="242.822266"/>
     <use xlink:href="#DejaVuSans-48" x="320.3125"/>
     <use xlink:href="#DejaVuSans-47" x="395.507812"/>
     <use xlink:href="#DejaVuSans-20" x="472.998047"/>
     <use xlink:href="#DejaVuSans-65" x="504.785156"/>
     <use xlink:href="#DejaVuSans-6d" x="566.308594"/>
     <use xlink:href="#DejaVuSans-69" x="663.720703"/>
     <use xlink:href="#DejaVuSans-73" x="691.503906"/>
     <use xlink:href="#DejaVuSans-73" x="743.603516"/>
     <use xlink:href="#DejaVuSans-69" x="795.703125"/>
     <use xlink:href="#DejaVuSans-6f" x="823.486328"/>
     <use xlink:href="#DejaVuSans-6e" x="884.667969"/>
     <use xlink:href="#DejaVuSans-20" x="948.046875"/>
     <use xlink:href="#DejaVuSans-66" x="979.833984"/>
     <use xlink:href="#DejaVuSans-61" x="1015.039062"/>
     <use xlink:href="#DejaVuSans-63" x="1076.318359"/>
     <use xlink:href="#DejaVuSans-74" x="1131.298828"/>
     <use xlink:href="#DejaVuSans-6f" x="1170.507812"/>
     <use xlink:href="#DejaVuSans-72" x="1231.689453"/>
     <use xlink:href="#DejaVuSans-73" x="1272.802734"/>
     <use xlink:href="#DejaVuSans-20" x="1324.902344"/>
     <use xlink:href="#DejaVuSans-61" x="1356.689453"/>
     <use xlink:href="#DejaVuSans-6e" x="1417.96875"/>
     <use xlink:href="#DejaVuSans-64" x="1481.347656"/>
     <use xlink:href="#DejaVuSans-20" x="1544.824219"/>
     <use xlink:href="#DejaVuSans-6e" x="1576.611328"/>
     <use xlink:href="#DejaVuSans-75" x="1639.990234"/>
     <use xlink:href="#DejaVuSans-74" x="1703.369141"/>
     <use xlink:href="#DejaVuSans-72" x="1742.578125"/>
     <use xlink:href="#DejaVuSans-69" x="1783.691406"/>
     <use xlink:href="#DejaVuSans-74" x="1811.474609"/>
     <use xlink:href="#DejaVuSans-69" x="1850.683594"/>
     <use xlink:href="#DejaVuSans-6f" x="1878.466797"/>
     <use xlink:href="#DejaVuSans-6e" x="1939.648438"/>
     <use xlink:href="#DejaVuSans-20" x="2003.027344"/>
    </g>
    <!--  information to             each food category -->
    <g transform="translate(6.579219 579.278437) scale(0.1 -0.1)">
     <use xlink:href="#DejaVuSans-20"/>
     <use xlink:href="#DejaVuSans-69" x="31.787109"/>
     <use xlink:href="#DejaVuSans-6e" x="59.570312"/>
     <use xlink:href="#DejaVuSans-66" x="122.949219"/>
     <use xlink:href="#DejaVuSans-6f" x="158.154297"/>
     <use xlink:href="#DejaVuSans-72" x="219.335938"/>
     <use xlink:href="#DejaVuSans-6d" x="258.699219"/>
     <use xlink:href="#DejaVuSans-61" x="356.111328"/>
     <use xlink:href="#DejaVuSans-74" x="417.390625"/>
     <use xlink:href="#DejaVuSans-69" x="456.599609"/>
     <use xlink:href="#DejaVuSans-6f" x="484.382812"/>
     <use xlink:href="#DejaVuSans-6e" x="545.564453"/>
     <use xlink:href="#DejaVuSans-20" x="608.943359"/>
     <use xlink:href="#DejaVuSans-74" x="640.730469"/>
     <use xlink:href="#DejaVuSans-6f" x="679.939453"/>
     <use xlink:href="#DejaVuSans-20" x="741.121094"/>
     <use xlink:href="#DejaVuSans-20" x="772.908203"/>
     <use xlink:href="#DejaVuSans-20" x="804.695312"/>
     <use xlink:href="#DejaVuSans-20" x="836.482422"/>
     <use xlink:href="#DejaVuSans-20" x="868.269531"/>
     <use xlink:href="#DejaVuSans-20" x="900.056641"/>
     <use xlink:href="#DejaVuSans-20" x="931.84375"/>
     <use xlink:href="#DejaVuSans-20" x="963.630859"/>
     <use xlink:href="#DejaVuSans-20" x="995.417969"/>
     <use xlink:href="#DejaVuSans-20" x="1027.205078"/>
     <use xlink:href="#DejaVuSans-20" x="1058.992188"/>
     <use xlink:href="#DejaVuSans-20" x="1090.779297"/>
     <use xlink:href="#DejaVuSans-20" x="1122.566406"/>
     <use xlink:href="#DejaVuSans-65" x="1154.353516"/>
     <use xlink:href="#DejaVuSans-61" x="1215.876953"/>
     <use xlink:href="#DejaVuSans-63" x="1277.15625"/>
     <use xlink:href="#DejaVuSans-68" x="1332.136719"/>
     <use xlink:href="#DejaVuSans-20" x="1395.515625"/>
     <use xlink:href="#DejaVuSans-66" x="1427.302734"/>
     <use xlink:href="#DejaVuSans-6f" x="1462.507812"/>
     <use xlink:href="#DejaVuSans-6f" x="1523.689453"/>
     <use xlink:href="#DejaVuSans-64" x="1584.871094"/>
     <use xlink:href="#DejaVuSans-20" x="1648.347656"/>
     <use xlink:href="#DejaVuSans-63" x="1680.134766"/>
     <use xlink:href="#DejaVuSans-61" x="1735.115234"/>
     <use xlink:href="#DejaVuSans-74" x="1796.394531"/>
     <use xlink:href="#DejaVuSans-65" x="1835.603516"/>
     <use xlink:href="#DejaVuSans-67" x="1897.126953"/>
     <use xlink:href="#DejaVuSans-6f" x="1960.603516"/>
     <use xlink:href="#DejaVuSans-72" x="2021.785156"/>
     <use xlink:href="#DejaVuSans-79" x="2062.898438"/>
    </g>
   </g>
   <g id="text_8">
    <!-- End -->
    <g transform="translate(99.376719 701.543125) scale(0.14 -0.14)">
     <use xlink:href="#DejaVuSans-45"/>
     <use xlink:href="#DejaVuSans-6e" x="63.183594"/>
     <use xlink:href="#DejaVuSans-64" x="126.5625"/>
    </g>
   </g>
   <g id="text_9">
    <!-- Convert non-standard units to  -->
    <g transform="translate(316.181094 416.392344) scale(0.11 -0.11)">
     <defs>
      <path id="DejaVuSans-2d" d="M 313 2009 
L 1997 2009 
L 1997 1497 
L 313 1497 
L 313 2009 
z
" transform="scale(0.015625)"/>
     </defs>
     <use xlink:href="#DejaVuSans-43"/>
     <use xlink:href="#DejaVuSans-6f" x="69.824219"/>
     <use xlink:href="#DejaVuSans-6e" x="131.005859"/>
     <use xlink:href="#DejaVuSans-76" x="194.384766"/>
     <use xlink:href="#DejaVuSans-65" x="253.564453"/>
     <use xlink:href="#DejaVuSans-72" x="315.087891"/>
     <use xlink:href="#DejaVuSans-74" x="356.201172"/>
     <use xlink:href="#DejaVuSans-20" x="395.410156"/>
     <use xlink:href="#DejaVuSans-6e" x="427.197266"/>
     <use xlink:href="#DejaVuSans-6f" x="490.576172"/>
     <use xlink:href="#DejaVuSans-6e" x="551.757812"/>
     <use xlink:href="#DejaVuSans-2d" x="615.136719"/>
     <use xlink:href="#DejaVuSans-73" x="651.220703"/>
     <use xlink:href="#DejaVuSans-74" x="703.320312"/>
     <use xlink:href="#DejaVuSans-61" x="742.529297"/>
     <use xlink:href="#DejaVuSans-6e" x="803.808594"/>
     <use xlink:href="#DejaVuSans-64" x="867.1875"/>
     <use xlink:href="#DejaVuSans-61" x="930.664062"/>
     <use xlink:href="#DejaVuSans-72" x="991.943359"/>
     <use xlink:href="#DejaVuSans-64" x="1031.306641"/>
     <use xlink:href="#DejaVuSans-20" x="1094.783203"/>
     <use xlink:href="#DejaVuSans-75" x="1126.570312"/>
     <use xlink:href="#DejaVuSans-6e" x="1189.949219"/>
     <use xlink:href="#DejaVuSans-69" x="1253.328125"/>
     <use xlink:href="#DejaVuSans-74" x="1281.111328"/>
     <use xlink:href="#DejaVuSans-73" x="1320.320312"/>
     <use xlink:href="#DejaVuSans-20" x="1372.419922"/>
     <use xlink:href="#DejaVuSans-74" x="1404.207031"/>
     <use xlink:href="#DejaVuSans-6f" x="1443.416016"/>
     <use xlink:href="#DejaVuSans-20" x="1504.597656"/>
    </g>
    <!--   standard unit. -->
    <g transform="translate(358.636797 427.038281) scale(0.11 -0.11)">
     <use xlink:href="#DejaVuSans-20"/>
     <use xlink:href="#DejaVuSans-20" x="31.787109"/>
     <use xlink:href="#DejaVuSans-73" x="63.574219"/>
     <use xlink:href="#DejaVuSans-74" x="115.673828"/>
     <use xlink:href="#DejaVuSans-61" x="154.882812"/>
     <use xlink:href="#DejaVuSans-6e" x="216.162109"/>
     <use xlink:href="#DejaVuSans-64" x="279.541016"/>
     <use xlink:href="#DejaVuSans-61" x="343.017578"/>
     <use xlink:href="#DejaVuSans-72" x="404.296875"/>
     <use xlink:href="#DejaVuSans-64" x="443.660156"/>
     <use xlink:href="#DejaVuSans-20" x="507.136719"/>
     <use xlink:href="#DejaVuSans-75" x="538.923828"/>
     <use xlink:href="#DejaVuSans-6e" x="602.302734"/>
     <use xlink:href="#DejaVuSans-69" x="665.681641"/>
     <use xlink:href="#DejaVuSans-74" x="693.464844"/>
     <use xlink:href="#DejaVuSans-2e" x="732.673828"/>
    </g>
   </g>
  </g>
 </g>
 <defs>
  <clipPath id="pbdc3d464b8">
   <rect x="0" y="0" width="495.36" height="738.341504"/>
  </clipPath>
 </defs>
</svg>