<svg xmlns="http://www.w3.org/2000/svg" xml:lang="en" height="669.3533534049022pt" width="514.2028pt" viewBox="-118.64000000000003 -8.030000000000001 514.2028 669.3533534049022"><polygon points="70.220925,40.5 70.54221076765485,40.497451085395966 70.86341565333586,40.489804983259496 71.18445879543077,40.4770636184559 71.50525937304543,40.45923019855565 71.82573662634996,40.43630921302683 72.1458098769097,40.40830643210496 72.46539854799548,40.37522890534039 72.78442218486842,40.3370849598236 73.10280047503403,40.29388419808888 73.42045326846034,40.245637495696975 73.73730059775534,40.1923569984972 74.05326269829831,40.134056119569806 74.36826002832011,40.07074953584926 74.68221328892744,40.002453184429484 74.99504344406589,39.929184258551714 75.30667174041685,39.850961203276206 75.6170197272232,39.76780371083882 75.92600927603895,39.67973271569356 76.23356260039756,39.58677038924249 76.53960227539436,39.48894013425414 76.84405125717778,39.386266578972034 77.14683290234478,39.27877557091464 77.4478709872354,39.16649417036841 77.74708972712162,39.04945064357546 78.04441379528585,38.92767445561777 78.33976834198393,38.80119626299941 78.6330790132882,38.670047905928996 78.92427196980572,38.53426240030407 79.21327390526693,38.39387392939955 79.50001206498006,38.2489178352622 79.78441426414682,38.09943060981353 80.06640890603448,37.94544988566314 80.345925,37.78701442663487 80.62289217936147,37.624164118008274 80.89724071911267,37.456939956477655 81.16890155347585,37.28538403983141 81.43780629328874,37.10953955635411 81.7038872432211,36.92945077395411 81.96707741881677,36.74516302901929 82.22731056335647,36.55672271500393 82.48452116453775,36.364177270749344 82.73864447096726,36.16757516854145 82.98961650846158,35.96696590190807 83.23737409615242,35.7623999731593 83.48185486239201,35.55392888067372 83.7229972604549,35.34160510593402 83.96074058403191,35.12548210031504 84.19502498251276,34.90561427162766 84.425791476053,34.68205697042196 84.65298197042198,34.454866476053 84.87653927162766,34.22409998251276 85.09640710031505,33.989815584031916 85.31253010593403,33.7520722604549 85.52485388067372,33.51092986239202 85.7333249731593,33.266449096152414 85.93789090190806,33.01869150846157 86.13850016854144,32.76771947096725 86.33510227074935,32.513596164537745 86.52764771500392,32.25638556335647 86.71608802901929,31.99615241881676 86.90037577395411,31.732962243221102 87.08046455635412,31.466881293288726 87.25630903983141,31.197976553475847 87.42786495647766,30.926315719112665 87.59508911800827,30.65196717936147 87.75793942663488,30.374999999999993 87.91637488566315,30.095483906034485 88.07035560981353,29.81348926414682 88.21984283526218,29.529087064980057 88.36479892939956,29.24234890526692 88.50518740030408,28.953346969805718 88.64097290592899,28.662154013288195 88.7721212629994,28.368843341983922 88.89859945561777,28.073488795285847 89.02037564357548,27.77616472712163 89.1374191703684,27.4769459872354 89.24970057091464,27.17590790234479 89.35719157897204,26.87312625717778 89.45986513425414,26.56867727539436 89.55769538924248,26.26263760039756 89.65065771569357,25.955084276038942 89.73872871083883,25.6460947272232 89.82188620327621,25.335746740416848 89.90010925855172,25.024118444065895 89.97337818442949,24.71128828892744 90.04167453584927,24.397335028320104 90.10498111956981,24.0823376982983 90.1632819984972,23.76637559775533 90.21656249569699,23.449528268460327 90.26480919808888,23.13187547503402 90.3080099598236,22.813497184868417 90.34615390534039,22.49447354799547 90.37923143210496,22.174884876909694 90.40723421302683,21.85481162634996 90.43015519855565,21.534334373045425 90.44798861845591,21.213533795430774 90.4607299832595,20.892490653335862 90.46837608539596,20.571285767654853 90.470925,20.249999999999996 90.470925,20.250000000000004 90.46837608539596,19.928714232345143 90.4607299832595,19.60750934666413 90.44798861845591,19.286466204569223 90.43015519855565,18.96566562695457 90.40723421302683,18.645188373650036 90.37923143210496,18.325115123090303 90.34615390534039,18.00552645200453 90.3080099598236,17.686502815131583 90.26480919808888,17.368124524965978 90.21656249569699,17.050471731539666 90.1632819984972,16.733624402244665 90.10498111956981,16.417662301701696 90.04167453584927,16.102664971679893 89.97337818442949,15.788711711072555 89.90010925855172,15.475881555934102 89.82188620327621,15.164253259583148 89.73872871083883,14.853905272776796 89.65065771569355,14.54491572396105 89.55769538924248,14.237362399602437 89.45986513425414,13.93132272460564 89.35719157897204,13.626873742822214 89.24970057091465,13.324092097655212 89.1374191703684,13.023054012764598 89.02037564357548,12.72383527287837 88.89859945561777,12.426511204714147 88.7721212629994,12.131156658016074 88.64097290592899,11.837845986711802 88.50518740030408,11.546653030194278 88.36479892939956,11.257651094733077 88.21984283526218,10.970912935019943 88.07035560981353,10.686510735853178 87.91637488566315,10.404516093965512 87.75793942663488,10.125000000000004 87.59508911800827,9.848032820638526 87.42786495647766,9.573684280887328 87.25630903983141,9.302023446524153 87.08046455635412,9.03311870671127 86.90037577395411,8.767037756778896 86.71608802901929,8.50384758118324 86.52764771500392,8.243614436643535 86.33510227074935,7.986403835462252 86.13850016854144,7.732280529032749 85.93789090190806,7.481308491538423 85.7333249731593,7.233550903847584 85.52485388067372,6.989070137607979 85.31253010593403,6.747927739545099 85.09640710031505,6.510184415968076 84.87653927162766,6.275900017487235 84.65298197042198,6.0451335239469985 84.425791476053,5.817943029578029 84.19502498251276,5.594385728372332 83.96074058403191,5.374517899684953 83.7229972604549,5.158394894065972 83.48185486239201,4.946071119326274 83.23737409615242,4.737600026840699 82.98961650846158,4.533034098091928 82.73864447096726,4.332424831458556 82.48452116453775,4.135822729250653 82.22731056335647,3.9432772849960687 81.96707741881677,3.754836970980704 81.7038872432211,3.5705492260458884 81.43780629328873,3.3904604436458814 81.16890155347585,3.214615960168585 80.89724071911266,3.0430600435223383 80.62289217936147,2.8758358819917187 80.345925,2.712985573365119 80.06640890603448,2.55455011433686 79.78441426414682,2.4005693901864675 79.50001206498006,2.251082164737804 79.21327390526693,2.106126070600451 78.92427196980572,1.9657375996959239 78.6330790132882,1.8299520940710068 78.33976834198393,1.698803737000593 78.04441379528585,1.5723255443822304 77.74708972712162,1.4505493564245322 77.4478709872354,1.3335058296315925 77.14683290234478,1.2212244290853598 76.84405125717778,1.1137334210279677 76.53960227539436,1.0110598657458572 76.23356260039756,0.9132296107575081 75.92600927603895,0.8202672843064331 75.6170197272232,0.7321962891611767 75.30667174041685,0.6490387967237891 74.99504344406589,0.5708157414482865 74.68221328892744,0.49754681557051045 74.36826002832011,0.42925046415073537 74.05326269829831,0.3659438804301932 73.73730059775534,0.3076430015027925 73.42045326846034,0.25436250430301743 73.10280047503403,0.20611580191111809 72.78442218486842,0.16291504017639794 72.46539854799548,0.1247710946596094 72.1458098769097,0.09169356789503977 71.82573662634996,0.0636907869731694 71.50525937304543,0.04076980144434419 71.18445879543077,0.0229363815440919 70.86341565333586,0.010195016740507023 70.54221076765485,0.0025489146040348133 70.220925,3.597122599785507e-15 -70.220925,3.597122599785507e-15 -70.54221076765485,0.0025489146040348133 -70.86341565333586,0.010195016740507023 -71.18445879543077,0.0229363815440919 -71.50525937304543,0.04076980144434419 -71.82573662634996,0.0636907869731694 -72.1458098769097,0.09169356789503977 -72.46539854799548,0.1247710946596094 -72.78442218486842,0.16291504017639794 -73.10280047503402,0.20611580191111448 -73.42045326846034,0.25436250430302104 -73.73730059775534,0.3076430015027925 -74.0532626982983,0.3659438804301932 -74.36826002832011,0.42925046415073537 -74.68221328892744,0.49754681557051045 -74.99504344406589,0.5708157414482865 -75.30667174041685,0.6490387967237891 -75.6170197272232,0.7321962891611767 -75.92600927603895,0.8202672843064331 -76.23356260039756,0.9132296107575081 -76.53960227539436,1.0110598657458572 -76.84405125717778,1.1137334210279677 -77.14683290234478,1.221224429085356 -77.4478709872354,1.3335058296315925 -77.74708972712162,1.4505493564245322 -78.04441379528585,1.5723255443822304 -78.33976834198393,1.698803737000593 -78.6330790132882,1.8299520940710068 -78.92427196980572,1.9657375996959239 -79.21327390526693,2.106126070600451 -79.50001206498006,2.251082164737804 -79.78441426414682,2.4005693901864675 -80.06640890603448,2.5545501143368563 -80.345925,2.7129855733651227 -80.62289217936147,2.875835881991715 -80.89724071911267,3.0430600435223383 -81.16890155347585,3.214615960168585 -81.43780629328873,3.3904604436458814 -81.7038872432211,3.5705492260458884 -81.96707741881676,3.754836970980704 -82.22731056335647,3.943277284996065 -82.48452116453775,4.135822729250651 -82.73864447096726,4.332424831458559 -82.98961650846158,4.533034098091928 -83.23737409615242,4.737600026840699 -83.48185486239201,4.946071119326274 -83.7229972604549,5.158394894065968 -83.96074058403191,5.374517899684951 -84.19502498251276,5.594385728372329 -84.425791476053,5.81794302957803 -84.65298197042198,6.045133523947 -84.87653927162766,6.275900017487237 -85.09640710031505,6.510184415968076 -85.31253010593403,6.747927739545099 -85.52485388067372,6.989070137607977 -85.7333249731593,7.233550903847578 -85.93789090190806,7.4813084915384245 -86.13850016854144,7.732280529032742 -86.33510227074935,7.986403835462254 -86.52764771500392,8.243614436643535 -86.71608802901929,8.503847581183239 -86.90037577395411,8.767037756778892 -87.08046455635412,9.033118706711269 -87.25630903983141,9.30202344652415 -87.42786495647766,9.573684280887322 -87.59508911800827,9.848032820638526 -87.75793942663488,10.125000000000005 -87.91637488566315,10.404516093965512 -88.07035560981353,10.686510735853178 -88.21984283526218,10.97091293501994 -88.36479892939956,11.257651094733083 -88.50518740030407,11.546653030194273 -88.64097290592899,11.837845986711805 -88.7721212629994,12.131156658016069 -88.89859945561777,12.426511204714147 -89.02037564357548,12.72383527287837 -89.1374191703684,13.023054012764597 -89.24970057091464,13.324092097655209 -89.35719157897204,13.62687374282221 -89.45986513425414,13.931322724605643 -89.55769538924248,14.23736239960243 -89.65065771569355,14.54491572396105 -89.73872871083883,14.853905272776794 -89.82188620327621,15.164253259583147 -89.90010925855172,15.4758815559341 -89.97337818442949,15.788711711072551 -90.04167453584927,16.102664971679896 -90.1049811195698,16.417662301701693 -90.1632819984972,16.733624402244665 -90.21656249569699,17.050471731539666 -90.26480919808888,17.368124524965978 -90.3080099598236,17.68650281513158 -90.34615390534039,18.005526452004528 -90.37923143210496,18.32511512309031 -90.40723421302683,18.645188373650033 -90.43015519855565,18.96566562695457 -90.44798861845591,19.286466204569223 -90.4607299832595,19.60750934666413 -90.46837608539596,19.92871423234514 -90.470925,20.25 -90.470925,20.25 -90.46837608539596,20.571285767654857 -90.4607299832595,20.892490653335866 -90.44798861845591,21.213533795430777 -90.43015519855565,21.534334373045436 -90.40723421302683,21.85481162634997 -90.37923143210496,22.1748848769097 -90.34615390534039,22.494473547995476 -90.3080099598236,22.813497184868424 -90.26480919808888,23.131875475034022 -90.21656249569699,23.449528268460334 -90.16328199849721,23.766375597755335 -90.10498111956981,24.08233769829831 -90.04167453584927,24.397335028320114 -89.97337818442949,24.711288288927452 -89.90010925855172,25.024118444065902 -89.82188620327621,25.33574674041685 -89.73872871083883,25.646094727223208 -89.65065771569357,25.955084276038946 -89.55769538924248,26.26263760039757 -89.45986513425413,26.568677275394368 -89.35719157897204,26.87312625717779 -89.24970057091465,27.175907902344793 -89.1374191703684,27.476945987235403 -89.02037564357548,27.776164727121632 -88.89859945561777,28.07348879528585 -88.7721212629994,28.368843341983933 -88.64097290592899,28.662154013288202 -88.50518740030408,28.95334696980573 -88.36479892939956,29.242348905266926 -88.21984283526218,29.529087064980065 -88.07035560981353,29.813489264146824 -87.91637488566315,30.09548390603449 -87.75793942663488,30.375000000000007 -87.59508911800829,30.651967179361474 -87.42786495647766,30.926315719112676 -87.25630903983141,31.197976553475854 -87.08046455635412,31.466881293288733 -86.90037577395411,31.73296224322111 -86.71608802901929,31.996152418816763 -86.52764771500392,32.25638556335647 -86.33510227074935,32.51359616453775 -86.13850016854144,32.76771947096726 -85.93789090190806,33.01869150846158 -85.7333249731593,33.26644909615242 -85.52485388067372,33.51092986239202 -85.31253010593403,33.75207226045491 -85.09640710031505,33.98981558403192 -84.87653927162768,34.22409998251277 -84.65298197042198,34.45486647605301 -84.425791476053,34.68205697042198 -84.19502498251276,34.90561427162767 -83.96074058403191,35.12548210031505 -83.7229972604549,35.34160510593403 -83.48185486239201,35.55392888067372 -83.23737409615242,35.762399973159305 -82.98961650846158,35.966965901908075 -82.73864447096726,36.16757516854145 -82.48452116453775,36.36417727074935 -82.22731056335647,36.55672271500393 -81.96707741881677,36.745163029019295 -81.7038872432211,36.9294507739541 -81.43780629328874,37.10953955635412 -81.16890155347583,37.28538403983141 -80.89724071911267,37.45693995647766 -80.62289217936147,37.62416411800829 -80.34592499999998,37.78701442663488 -80.06640890603448,37.945449885663145 -79.78441426414682,38.09943060981353 -79.50001206498006,38.248917835262205 -79.21327390526693,38.393873929399554 -78.92427196980573,38.53426240030408 -78.6330790132882,38.670047905928996 -78.33976834198394,38.80119626299941 -78.04441379528585,38.92767445561777 -77.74708972712163,39.04945064357547 -77.4478709872354,39.166494170368416 -77.14683290234478,39.278775570914654 -76.84405125717778,39.38626657897204 -76.53960227539436,39.48894013425415 -76.23356260039758,39.5867703892425 -75.92600927603895,39.679732715693575 -75.61701972722321,39.76780371083883 -75.30667174041685,39.85096120327622 -74.99504344406589,39.92918425855172 -74.68221328892744,40.0024531844295 -74.36826002832011,40.070749535849274 -74.05326269829831,40.13405611956981 -73.73730059775534,40.19235699849722 -73.42045326846035,40.24563749569699 -73.10280047503403,40.29388419808889 -72.78442218486842,40.337084959823606 -72.46539854799548,40.37522890534039 -72.14580987690968,40.408306432104965 -71.82573662634998,40.43630921302683 -71.50525937304543,40.45923019855566 -71.18445879543079,40.477063618455915 -70.86341565333586,40.489804983259496 -70.54221076765485,40.49745108539597 -70.220925,40.5 70.220925,40.5 " style="stroke:black;fill:none;stroke-width:2.0;stroke-linecap:round;stroke-linejoin:round;" /><polygon points="-105.30000000000001,121.5 -97.20000000000002,89.1 97.19999999999997,89.1 80.99999999999999,153.9 -113.4,153.9 " style="stroke:black;fill:none;stroke-width:2.0;stroke-linecap:round;stroke-linejoin:round;" /><polygon points="-97.20000000000003,372.59999999999997 -16.20000000000002,315.9 64.79999999999997,372.59999999999997 -16.20000000000002,429.29999999999995 " style="stroke:black;fill:none;stroke-width:2.0;stroke-linecap:round;stroke-linejoin:round;" /><path d="M 0.0,40.5 L -4.463837582892102e-15,64.8 L -7.625095819546128e-15,81.0" style="stroke:black;fill:none;stroke-width:2.0;stroke-linecap:round;stroke-linejoin:round;" /><path d="M -8.606050635848877e-15 87.1 L -2.4300000000000077 81.0 L 2.4299999999999917 81.0 Z" style="stroke:black;fill:black;stroke-linecap:butt;stroke-linejoin:miter;" /><path d="M -16.200000000000006,153.9 L -16.20000000000001,178.2 L -16.200000000000014,194.39999999999998" style="stroke:black;fill:none;stroke-width:2.0;stroke-linecap:round;stroke-linejoin:round;" /><path d="M -16.200000000000014 200.5 L -18.630000000000013 194.39999999999998 L -13.770000000000014 194.39999999999998 Z" style="stroke:black;fill:black;stroke-linecap:butt;stroke-linejoin:miter;" /><path d="M -113.4,234.89999999999998 L -113.4,202.5 L 80.99999999999999,202.5 L 80.99999999999999,267.3 L -113.4,267.3 L -113.4,234.89999999999998" style="stroke:black;fill:none;stroke-width:2.0;stroke-linecap:round;stroke-linejoin:round;" /><path d="M -16.200000000000014,267.3 L -16.200000000000017,291.59999999999997 L -16.20000000000002,307.8" style="stroke:black;fill:none;stroke-width:2.0;stroke-linecap:round;stroke-linejoin:round;" /><path d="M -16.20000000000002 313.9 L -18.63000000000002 307.79999999999995 L -13.770000000000021 307.79999999999995 Z" style="stroke:black;fill:black;stroke-linecap:butt;stroke-linejoin:miter;" /><path d="M -16.20000000000002,429.29999999999995 L -16.200000000000024,453.59999999999997 L -16.200000000000028,469.79999999999995" style="stroke:black;fill:none;stroke-width:2.0;stroke-linecap:round;stroke-linejoin:round;" /><path d="M -16.200000000000028 475.9 L -18.630000000000027 469.79999999999995 L -13.770000000000028 469.79999999999995 Z" style="stroke:black;fill:black;stroke-linecap:butt;stroke-linejoin:miter;" /><path d="M -113.40000000000002,510.29999999999995 L -113.40000000000002,477.9 L 80.99999999999997,477.9 L 80.99999999999997,542.6999999999999 L -113.40000000000002,542.6999999999999 L -113.40000000000002,510.29999999999995" style="stroke:black;fill:none;stroke-width:2.0;stroke-linecap:round;stroke-linejoin:round;" /><path d="M -16.200000000000028,542.6999999999999 L -16.20000000000003,567.0 L -16.200000000000035,583.1999999999999" style="stroke:black;fill:none;stroke-width:2.0;stroke-linecap:round;stroke-linejoin:round;" /><path d="M -16.200000000000035 589.3 L -18.630000000000035 583.2 L -13.770000000000035 583.2 Z" style="stroke:black;fill:black;stroke-linecap:butt;stroke-linejoin:miter;" /><path d="M 32.39999999999996,623.6999999999999 L 32.00099467180973,619.556779961422 L 30.810530343696794,615.4815914813319 L 28.84815440701662,611.5413490419083 L 26.146089020396687,607.8007513150724 L 22.74870202278266,604.3212188120846 L 18.71177841474954,601.159885360447 L 14.10160437033442,598.3686599680359 L 8.993878819891478,595.9933744786267 L 3.472470475748313,594.0730310142876 L -2.3719592897318473,592.6391615616121 L -8.443445101377801,591.7153102173718 L -14.642293330017589,591.3166465950977 L -20.866719059113358,591.449716740446 L -27.01451739027691,592.1123356453089 L -32.98474164487558,593.2936231255878 L -38.67936090570462,594.9741824735148 L -44.00486968193747,597.1264189510587 L -48.87382326670002,599.7149928947597 L -53.20627357673995,602.6973999920276 L -56.931081897743475,606.0246692007782 L -59.9870869800576,609.6421668525911 L -62.324109304718526,613.4904937360346 L -63.90377502976581,617.5064604300754 L -64.70014608766638,621.6241248726249 L -64.70014608766638,625.7758751273751 L -63.90377502976582,629.8935395699244 L -62.32410930471854,633.9095062639653 L -59.987086980057605,637.7578331474089 L -56.931081897743496,641.3753307992217 L -53.20627357673998,644.7026000079724 L -48.87382326670004,647.6850071052402 L -44.00486968193749,650.2735810489413 L -38.679360905704634,652.4258175264852 L -32.98474164487561,654.1063768744121 L -27.014517390276925,655.2876643546911 L -20.8667190591134,655.950283259554 L -14.64229333001761,656.0833534049023 L -8.443445101377844,655.6846897826281 L -2.371959289731876,654.7608384383879 L 3.472470475748256,653.3269689857124 L 8.99387881989145,651.4066255213733 L 14.101604370334405,649.0313400319641 L 18.711778414749496,646.2401146395529 L 22.748702022782645,643.0787811879154 L 26.14608902039666,639.5992486849276 L 28.848154407016604,635.8586509580917 L 30.81053034369678,631.918408518668 L 32.000994671809714,627.8432200385779 L 32.39999999999996,623.6999999999999" style="stroke:black;fill:none;stroke-width:2.0;stroke-linecap:round;stroke-linejoin:round;" /><path d="M 64.79999999999997,372.59999999999997 L 113.39999999999996,372.59999999999997 L 153.89999999999998,372.59999999999997" style="stroke:black;fill:none;stroke-width:2.0;stroke-linecap:round;stroke-linejoin:round;" /><path d="M 159.99999999999997 372.59999999999997 L 153.89999999999995 375.03 L 153.89999999999995 370.16999999999996 Z" style="stroke:black;fill:black;stroke-linecap:butt;stroke-linejoin:miter;" /><path d="M 161.99999999999997,372.59999999999997 L 161.99999999999997,340.2 L 324.0,340.2 L 324.0,405.0 L 161.99999999999997,405.0 L 161.99999999999997,372.59999999999997" style="stroke:black;fill:none;stroke-width:2.0;stroke-linecap:round;stroke-linejoin:round;" /><path d="M 242.99999999999997,405.0 L 242.99999999999997,510.29999999999995 L 89.09999999999997,510.29999999999995" style="stroke:black;fill:none;stroke-width:2;stroke-linecap:round;stroke-linejoin:round;" /><path d="M 82.99999999999997 510.29999999999995 L 89.09999999999997 507.86999999999995 L 89.09999999999997 512.7299999999999 Z" style="stroke:black;fill:black;stroke-linecap:butt;stroke-linejoin:miter;" /><text x="0.0" y="12.550000000000002" fill="black" font-size="14.0" font-family="sans" text-anchor="middle" transform="rotate(0 0.0 18.150000000000002)"><tspan x="0.0" dy="11.200000000000001">Data Preprocessing: Start</tspan></text><text x="-8.100000000000009" y="115.45" fill="black" font-size="11" font-family="sans" text-anchor="middle" transform="rotate(0 -8.100000000000009 119.85)"><tspan x="-8.100000000000009" dy="8.8">Retrieve and read data from sources</tspan></text><text x="-16.200000000000014" y="218.39999999999998" fill="black" font-size="10" font-family="sans" text-anchor="middle" transform="rotate(0 -16.200000000000014 233.39999999999998)"><tspan x="-16.200000000000014" dy="10">Combine related food categories into one </tspan><tspan x="-16.200000000000014" dy="10">             (e.g., Combine milk and oat milk </tspan><tspan x="-16.200000000000014" dy="10"> into one category)</tspan></text><text x="-11.988000000000024" y="431.4119999999999" fill="black" font-size="14" font-family="sans" text-anchor="start" transform="rotate(0 -11.988000000000024 431.4119999999999)"><tspan x="-11.988000000000024" dy="11.200000000000001">YES</tspan></text><text x="69.01199999999996" y="355.088" fill="black" font-size="14" font-family="sans" text-anchor="start" transform="rotate(0 69.01199999999996 366.288)"><tspan x="69.01199999999996" dy="11.200000000000001">NO</tspan></text><text x="-16.20000000000002" y="359.95" fill="black" font-size="11" font-family="sans" text-anchor="middle" transform="rotate(0 -16.20000000000002 370.95)"><tspan x="-16.20000000000002" dy="11">Does the food have </tspan><tspan x="-16.20000000000002" dy="11"> standard unit? (e.g., kg, g, ml)</tspan></text><text x="-16.200000000000028" y="498.79999999999995" fill="black" font-size="10" font-family="sans" text-anchor="middle" transform="rotate(0 -16.200000000000028 508.8)"><tspan x="-16.200000000000028" dy="10">Map GHG emission factors and nutrition </tspan><tspan x="-16.200000000000028" dy="10"> information to             each food category</tspan></text><text x="-16.200000000000035" y="616.0" fill="black" font-size="14.0" font-family="sans" text-anchor="middle" transform="rotate(0 -16.200000000000035 621.6)"><tspan x="-16.200000000000035" dy="11.200000000000001">End</tspan></text><text x="242.99999999999997" y="359.95" fill="black" font-size="11" font-family="sans" text-anchor="middle" transform="rotate(0 242.99999999999997 370.95)"><tspan x="242.99999999999997" dy="11">Convert non-standard units to </tspan><tspan x="242.99999999999997" dy="11">  standard unit.</tspan></text></svg>