<?xml version="1.0" encoding="utf-8" standalone="no"?>
<!DOCTYPE svg PUBLIC "-//W3C//DTD SVG 1.1//EN"
  "http://www.w3.org/Graphics/SVG/1.1/DTD/svg11.dtd">
<svg xmlns:xlink="http://www.w3.org/1999/xlink" width="819pt" height="1066.5pt" viewBox="0 0 819 1066.5" xmlns="http://www.w3.org/2000/svg" version="1.1">
 <metadata>
  <rdf:RDF xmlns:dc="http://purl.org/dc/elements/1.1/" xmlns:cc="http://creativecommons.org/ns#" xmlns:rdf="http://www.w3.org/1999/02/22-rdf-syntax-ns#">
   <cc:Work>
    <dc:type rdf:resource="http://purl.org/dc/dcmitype/StillImage"/>
    <dc:date>2024-01-01T01:24:27.420180</dc:date>
    <dc:format>image/svg+xml</dc:format>
    <dc:creator>
     <cc:Agent>
      <dc:title>Matplotlib v3.8.2, https://matplotlib.org/</dc:title>
     </cc:Agent>
    </dc:creator>
   </cc:Work>
  </rdf:RDF>
 </metadata>
 <defs>
  <style type="text/css">*{stroke-linejoin: round; stroke-linecap: butt}</style>
 </defs>
 <g id="figure_1">
  <g id="patch_1">
   <path d="M 0 1066.5 
L 819 1066.5 
L 819 0 
L 0 0 
z
" style="fill: #ffffff"/>
  </g>
  <g id="axes_1">
   <g id="patch_2">
    <path d="M 265.21875 96.75 
L 265.575734 96.747168 
L 265.932629 96.738672 
L 266.289343 96.724515 
L 266.645788 96.7047 
L 267.001874 96.679232 
L 267.357511 96.648118 
L 267.712609 96.611365 
L 268.06708 96.568983 
L 268.420834 96.520982 
L 268.773781 96.467375 
L 269.125834 96.408174 
L 269.476903 96.343396 
L 269.8269 96.273055 
L 270.175737 96.19717 
L 270.523326 96.11576 
L 270.86958 96.028846 
L 271.214411 95.936449 
L 271.557733 95.838592 
L 271.899458 95.7353 
L 272.239503 95.6266 
L 272.577779 95.512518 
L 272.914203 95.393084 
L 273.24869 95.268327 
L 273.581155 95.138278 
L 273.911515 95.002972 
L 274.239687 94.86244 
L 274.565588 94.71672 
L 274.889136 94.565847 
L 275.210249 94.40986 
L 275.528847 94.248798 
L 275.844849 94.082701 
L 276.158177 93.911611 
L 276.46875 93.735572 
L 276.776491 93.554627 
L 277.081323 93.368822 
L 277.383168 93.178204 
L 277.681951 92.982822 
L 277.977597 92.782723 
L 278.27003 92.577959 
L 278.559178 92.368581 
L 278.844968 92.154641 
L 279.127327 91.936195 
L 279.406185 91.713295 
L 279.681471 91.486 
L 279.953117 91.254365 
L 280.221053 91.01845 
L 280.485212 90.778313 
L 280.745528 90.534016 
L 281.001935 90.285619 
L 281.254369 90.033185 
L 281.502766 89.776778 
L 281.747063 89.516462 
L 281.9872 89.252303 
L 282.223115 88.984367 
L 282.45475 88.712721 
L 282.682045 88.437435 
L 282.904945 88.158577 
L 283.123391 87.876218 
L 283.337331 87.590428 
L 283.546709 87.30128 
L 283.751473 87.008847 
L 283.951572 86.713201 
L 284.146954 86.414418 
L 284.337572 86.112573 
L 284.523377 85.807741 
L 284.704322 85.5 
L 284.880361 85.189427 
L 285.051451 84.876099 
L 285.217548 84.560097 
L 285.37861 84.241499 
L 285.534597 83.920386 
L 285.68547 83.596838 
L 285.83119 83.270937 
L 285.971722 82.942765 
L 286.107028 82.612405 
L 286.237077 82.27994 
L 286.361834 81.945453 
L 286.481268 81.609029 
L 286.59535 81.270753 
L 286.70405 80.930708 
L 286.807342 80.588983 
L 286.905199 80.245661 
L 286.997596 79.90083 
L 287.08451 79.554576 
L 287.16592 79.206987 
L 287.241805 78.85815 
L 287.312146 78.508153 
L 287.376924 78.157084 
L 287.436125 77.805031 
L 287.489732 77.452084 
L 287.537733 77.09833 
L 287.580115 76.743859 
L 287.616868 76.388761 
L 287.647982 76.033124 
L 287.67345 75.677038 
L 287.693265 75.320593 
L 287.707422 74.963879 
L 287.715918 74.606984 
L 287.71875 74.25 
L 287.71875 74.25 
L 287.715918 73.893016 
L 287.707422 73.536121 
L 287.693265 73.179407 
L 287.67345 72.822962 
L 287.647982 72.466876 
L 287.616868 72.111239 
L 287.580115 71.756141 
L 287.537733 71.40167 
L 287.489732 71.047916 
L 287.436125 70.694969 
L 287.376924 70.342916 
L 287.312146 69.991847 
L 287.241805 69.64185 
L 287.16592 69.293013 
L 287.08451 68.945424 
L 286.997596 68.59917 
L 286.905199 68.254339 
L 286.807342 67.911017 
L 286.70405 67.569292 
L 286.59535 67.229247 
L 286.481268 66.890971 
L 286.361834 66.554547 
L 286.237077 66.22006 
L 286.107028 65.887595 
L 285.971722 65.557235 
L 285.83119 65.229063 
L 285.68547 64.903162 
L 285.534597 64.579614 
L 285.37861 64.258501 
L 285.217548 63.939903 
L 285.051451 63.623901 
L 284.880361 63.310573 
L 284.704322 63 
L 284.523377 62.692259 
L 284.337572 62.387427 
L 284.146954 62.085582 
L 283.951572 61.786799 
L 283.751473 61.491153 
L 283.546709 61.19872 
L 283.337331 60.909572 
L 283.123391 60.623782 
L 282.904945 60.341423 
L 282.682045 60.062565 
L 282.45475 59.787279 
L 282.223115 59.515633 
L 281.9872 59.247697 
L 281.747063 58.983538 
L 281.502766 58.723222 
L 281.254369 58.466815 
L 281.001935 58.214381 
L 280.745528 57.965984 
L 280.485212 57.721687 
L 280.221053 57.48155 
L 279.953117 57.245635 
L 279.681471 57.014 
L 279.406185 56.786705 
L 279.127327 56.563805 
L 278.844968 56.345359 
L 278.559178 56.131419 
L 278.27003 55.922041 
L 277.977597 55.717277 
L 277.681951 55.517178 
L 277.383168 55.321796 
L 277.081323 55.131178 
L 276.776491 54.945373 
L 276.46875 54.764428 
L 276.158177 54.588389 
L 275.844849 54.417299 
L 275.528847 54.251202 
L 275.210249 54.09014 
L 274.889136 53.934153 
L 274.565588 53.78328 
L 274.239687 53.63756 
L 273.911515 53.497028 
L 273.581155 53.361722 
L 273.24869 53.231673 
L 272.914203 53.106916 
L 272.577779 52.987482 
L 272.239503 52.8734 
L 271.899458 52.7647 
L 271.557733 52.661408 
L 271.214411 52.563551 
L 270.86958 52.471154 
L 270.523326 52.38424 
L 270.175737 52.30283 
L 269.8269 52.226945 
L 269.476903 52.156604 
L 269.125834 52.091826 
L 268.773781 52.032625 
L 268.420834 51.979018 
L 268.06708 51.931017 
L 267.712609 51.888635 
L 267.357511 51.851882 
L 267.001874 51.820768 
L 266.645788 51.7953 
L 266.289343 51.775485 
L 265.932629 51.761328 
L 265.575734 51.752832 
L 265.21875 51.75 
L 67.78125 51.75 
L 67.424266 51.752832 
L 67.067371 51.761328 
L 66.710657 51.775485 
L 66.354212 51.7953 
L 65.998126 51.820768 
L 65.642489 51.851882 
L 65.287391 51.888635 
L 64.93292 51.931017 
L 64.579166 51.979018 
L 64.226219 52.032625 
L 63.874166 52.091826 
L 63.523097 52.156604 
L 63.1731 52.226945 
L 62.824263 52.30283 
L 62.476674 52.38424 
L 62.13042 52.471154 
L 61.785589 52.563551 
L 61.442267 52.661408 
L 61.100542 52.7647 
L 60.760497 52.8734 
L 60.422221 52.987482 
L 60.085797 53.106916 
L 59.75131 53.231673 
L 59.418845 53.361722 
L 59.088485 53.497028 
L 58.760313 53.63756 
L 58.434412 53.78328 
L 58.110864 53.934153 
L 57.789751 54.09014 
L 57.471153 54.251202 
L 57.155151 54.417299 
L 56.841823 54.588389 
L 56.53125 54.764428 
L 56.223509 54.945373 
L 55.918677 55.131178 
L 55.616832 55.321796 
L 55.318049 55.517178 
L 55.022403 55.717277 
L 54.72997 55.922041 
L 54.440822 56.131419 
L 54.155032 56.345359 
L 53.872673 56.563805 
L 53.593815 56.786705 
L 53.318529 57.014 
L 53.046883 57.245635 
L 52.778947 57.48155 
L 52.514788 57.721687 
L 52.254472 57.965984 
L 51.998065 58.214381 
L 51.745631 58.466815 
L 51.497234 58.723222 
L 51.252937 58.983538 
L 51.0128 59.247697 
L 50.776885 59.515633 
L 50.54525 59.787279 
L 50.317955 60.062565 
L 50.095055 60.341423 
L 49.876609 60.623782 
L 49.662669 60.909572 
L 49.453291 61.19872 
L 49.248527 61.491153 
L 49.048428 61.786799 
L 48.853046 62.085582 
L 48.662428 62.387427 
L 48.476623 62.692259 
L 48.295678 63 
L 48.119639 63.310573 
L 47.948549 63.623901 
L 47.782452 63.939903 
L 47.62139 64.258501 
L 47.465403 64.579614 
L 47.31453 64.903162 
L 47.16881 65.229063 
L 47.028278 65.557235 
L 46.892972 65.887595 
L 46.762923 66.22006 
L 46.638166 66.554547 
L 46.518732 66.890971 
L 46.40465 67.229247 
L 46.29595 67.569292 
L 46.192658 67.911017 
L 46.094801 68.254339 
L 46.002404 68.59917 
L 45.91549 68.945424 
L 45.83408 69.293013 
L 45.758195 69.64185 
L 45.687854 69.991847 
L 45.623076 70.342916 
L 45.563875 70.694969 
L 45.510268 71.047916 
L 45.462267 71.40167 
L 45.419885 71.756141 
L 45.383132 72.111239 
L 45.352018 72.466876 
L 45.32655 72.822962 
L 45.306735 73.179407 
L 45.292578 73.536121 
L 45.284082 73.893016 
L 45.28125 74.25 
L 45.28125 74.25 
L 45.284082 74.606984 
L 45.292578 74.963879 
L 45.306735 75.320593 
L 45.32655 75.677038 
L 45.352018 76.033124 
L 45.383132 76.388761 
L 45.419885 76.743859 
L 45.462267 77.09833 
L 45.510268 77.452084 
L 45.563875 77.805031 
L 45.623076 78.157084 
L 45.687854 78.508153 
L 45.758195 78.85815 
L 45.83408 79.206987 
L 45.91549 79.554576 
L 46.002404 79.90083 
L 46.094801 80.245661 
L 46.192658 80.588983 
L 46.29595 80.930708 
L 46.40465 81.270753 
L 46.518732 81.609029 
L 46.638166 81.945453 
L 46.762923 82.27994 
L 46.892972 82.612405 
L 47.028278 82.942765 
L 47.16881 83.270937 
L 47.31453 83.596838 
L 47.465403 83.920386 
L 47.62139 84.241499 
L 47.782452 84.560097 
L 47.948549 84.876099 
L 48.119639 85.189427 
L 48.295678 85.5 
L 48.476623 85.807741 
L 48.662428 86.112573 
L 48.853046 86.414418 
L 49.048428 86.713201 
L 49.248527 87.008847 
L 49.453291 87.30128 
L 49.662669 87.590428 
L 49.876609 87.876218 
L 50.095055 88.158577 
L 50.317955 88.437435 
L 50.54525 88.712721 
L 50.776885 88.984367 
L 51.0128 89.252303 
L 51.252937 89.516462 
L 51.497234 89.776778 
L 51.745631 90.033185 
L 51.998065 90.285619 
L 52.254472 90.534016 
L 52.514788 90.778313 
L 52.778947 91.01845 
L 53.046883 91.254365 
L 53.318529 91.486 
L 53.593815 91.713295 
L 53.872673 91.936195 
L 54.155032 92.154641 
L 54.440822 92.368581 
L 54.72997 92.577959 
L 55.022403 92.782723 
L 55.318049 92.982822 
L 55.616832 93.178204 
L 55.918677 93.368822 
L 56.223509 93.554627 
L 56.53125 93.735572 
L 56.841823 93.911611 
L 57.155151 94.082701 
L 57.471153 94.248798 
L 57.789751 94.40986 
L 58.110864 94.565847 
L 58.434412 94.71672 
L 58.760313 94.86244 
L 59.088485 95.002972 
L 59.418845 95.138278 
L 59.75131 95.268327 
L 60.085797 95.393084 
L 60.422221 95.512518 
L 60.760497 95.6266 
L 61.100542 95.7353 
L 61.442267 95.838592 
L 61.785589 95.936449 
L 62.13042 96.028846 
L 62.476674 96.11576 
L 62.824263 96.19717 
L 63.1731 96.273055 
L 63.523097 96.343396 
L 63.874166 96.408174 
L 64.226219 96.467375 
L 64.579166 96.520982 
L 64.93292 96.568983 
L 65.287391 96.611365 
L 65.642489 96.648118 
L 65.998126 96.679232 
L 66.354212 96.7047 
L 66.710657 96.724515 
L 67.067371 96.738672 
L 67.424266 96.747168 
L 67.78125 96.75 
L 265.21875 96.75 
z
" clip-path="url(#p331d3ed6f3)" style="fill: none; stroke: #000000; stroke-width: 2; stroke-linecap: round"/>
   </g>
   <g id="patch_3">
    <path d="M 49.5 186.75 
L 58.5 150.75 
L 274.5 150.75 
L 256.5 222.75 
L 40.5 222.75 
L 49.5 186.75 
z
" clip-path="url(#p331d3ed6f3)" style="fill: none; stroke: #000000; stroke-width: 2; stroke-linecap: round"/>
   </g>
   <g id="patch_4">
    <path d="M 58.5 465.75 
L 148.5 402.75 
L 238.5 465.75 
L 148.5 528.75 
L 58.5 465.75 
z
" clip-path="url(#p331d3ed6f3)" style="fill: none; stroke: #000000; stroke-width: 2; stroke-linecap: round"/>
   </g>
   <g id="patch_5">
    <path d="M 364.5 870.75 
L 454.5 807.75 
L 544.5 870.75 
L 454.5 933.75 
L 364.5 870.75 
z
" clip-path="url(#p331d3ed6f3)" style="fill: none; stroke: #000000; stroke-width: 2; stroke-linecap: round"/>
   </g>
   <g id="line2d_1">
    <path d="M 166.5 96.75 
L 166.5 123.75 
L 166.5 141.75 
" clip-path="url(#p331d3ed6f3)" style="fill: none; stroke: #000000; stroke-width: 2; stroke-linecap: round"/>
   </g>
   <g id="patch_6">
    <path d="M 169.2 141.75 
L 166.5 150.75 
L 163.8 141.75 
z
" clip-path="url(#p331d3ed6f3)"/>
   </g>
   <g id="line2d_2">
    <path d="M 148.5 222.75 
L 148.5 249.75 
L 148.5 267.75 
" clip-path="url(#p331d3ed6f3)" style="fill: none; stroke: #000000; stroke-width: 2; stroke-linecap: round"/>
   </g>
   <g id="patch_7">
    <path d="M 151.2 267.75 
L 148.5 276.75 
L 145.8 267.75 
z
" clip-path="url(#p331d3ed6f3)"/>
   </g>
   <g id="line2d_3">
    <path d="M 40.5 312.75 
L 40.5 276.75 
L 256.5 276.75 
L 256.5 348.75 
L 40.5 348.75 
L 40.5 312.75 
" clip-path="url(#p331d3ed6f3)" style="fill: none; stroke: #000000; stroke-width: 2; stroke-linecap: round"/>
   </g>
   <g id="line2d_4">
    <path d="M 148.5 348.75 
L 148.5 375.75 
L 148.5 393.75 
" clip-path="url(#p331d3ed6f3)" style="fill: none; stroke: #000000; stroke-width: 2; stroke-linecap: round"/>
   </g>
   <g id="patch_8">
    <path d="M 151.2 393.75 
L 148.5 402.75 
L 145.8 393.75 
z
" clip-path="url(#p331d3ed6f3)"/>
   </g>
   <g id="line2d_5">
    <path d="M 148.5 528.75 
L 148.5 555.75 
L 148.5 573.75 
" clip-path="url(#p331d3ed6f3)" style="fill: none; stroke: #000000; stroke-width: 2; stroke-linecap: round"/>
   </g>
   <g id="patch_9">
    <path d="M 151.2 573.75 
L 148.5 582.75 
L 145.8 573.75 
z
" clip-path="url(#p331d3ed6f3)"/>
   </g>
   <g id="line2d_6">
    <path d="M 239.212125 618.75 
L 238.46738 614.146422 
L 236.245373 609.618435 
L 232.582589 605.240388 
L 227.539171 601.084168 
L 221.197933 597.218021 
L 213.662996 593.705428 
L 205.058085 590.604067 
L 195.524491 587.964861 
L 185.218757 585.831146 
L 174.310102 584.237957 
L 162.977646 583.211456 
L 151.407467 582.768496 
L 139.789547 582.916352 
L 128.314653 583.652595 
L 117.171202 584.965137 
L 106.542169 586.832425 
L 96.602082 589.223799 
L 87.514158 592.099992 
L 79.427619 595.413778 
L 72.475247 599.110744 
L 66.771199 603.130185 
L 62.409136 607.406104 
L 59.460683 611.868289 
L 57.974253 616.443472 
L 57.974253 621.056528 
L 59.460683 625.631711 
L 62.409136 630.093896 
L 66.771199 634.369815 
L 72.475247 638.389256 
L 79.427619 642.086222 
L 87.514158 645.400008 
L 96.602082 648.276201 
L 106.542169 650.667575 
L 117.171202 652.534863 
L 128.314653 653.847405 
L 139.789547 654.583648 
L 151.407467 654.731504 
L 162.977646 654.288544 
L 174.310102 653.262043 
L 185.218757 651.668854 
L 195.524491 649.535139 
L 205.058085 646.895933 
L 213.662996 643.794572 
L 221.197933 640.281979 
L 227.539171 636.415832 
L 232.582589 632.259612 
L 236.245373 627.881565 
L 238.46738 623.353578 
L 239.212125 618.75 
" clip-path="url(#p331d3ed6f3)" style="fill: none; stroke: #000000; stroke-width: 2; stroke-linecap: round"/>
   </g>
   <g id="line2d_7">
    <path d="M 238.5 465.75 
L 292.5 465.75 
L 337.5 465.75 
" clip-path="url(#p331d3ed6f3)" style="fill: none; stroke: #000000; stroke-width: 2; stroke-linecap: round"/>
   </g>
   <g id="patch_10">
    <path d="M 337.5 463.05 
L 346.5 465.75 
L 337.5 468.45 
z
" clip-path="url(#p331d3ed6f3)"/>
   </g>
   <g id="line2d_8">
    <path d="M 346.5 465.75 
L 346.5 429.75 
L 562.5 429.75 
L 562.5 501.75 
L 346.5 501.75 
L 346.5 465.75 
" clip-path="url(#p331d3ed6f3)" style="fill: none; stroke: #000000; stroke-width: 2; stroke-linecap: round"/>
   </g>
   <g id="line2d_9">
    <path d="M 454.5 501.75 
L 454.5 528.75 
L 454.5 546.75 
" clip-path="url(#p331d3ed6f3)" style="fill: none; stroke: #000000; stroke-width: 2; stroke-linecap: round"/>
   </g>
   <g id="patch_11">
    <path d="M 457.2 546.75 
L 454.5 555.75 
L 451.8 546.75 
z
" clip-path="url(#p331d3ed6f3)"/>
   </g>
   <g id="line2d_10">
    <path d="M 346.5 591.75 
L 346.5 555.75 
L 562.5 555.75 
L 562.5 627.75 
L 346.5 627.75 
L 346.5 591.75 
" clip-path="url(#p331d3ed6f3)" style="fill: none; stroke: #000000; stroke-width: 2; stroke-linecap: round"/>
   </g>
   <g id="line2d_11">
    <path d="M 454.5 627.75 
L 454.5 654.75 
L 454.5 672.75 
" clip-path="url(#p331d3ed6f3)" style="fill: none; stroke: #000000; stroke-width: 2; stroke-linecap: round"/>
   </g>
   <g id="patch_12">
    <path d="M 457.2 672.75 
L 454.5 681.75 
L 451.8 672.75 
z
" clip-path="url(#p331d3ed6f3)"/>
   </g>
   <g id="line2d_12">
    <path d="M 346.5 717.75 
L 346.5 681.75 
L 562.5 681.75 
L 562.5 753.75 
L 346.5 753.75 
L 346.5 717.75 
" clip-path="url(#p331d3ed6f3)" style="fill: none; stroke: #000000; stroke-width: 2; stroke-linecap: round"/>
   </g>
   <g id="line2d_13">
    <path d="M 454.5 753.75 
L 454.5 780.75 
L 454.5 798.75 
" clip-path="url(#p331d3ed6f3)" style="fill: none; stroke: #000000; stroke-width: 2; stroke-linecap: round"/>
   </g>
   <g id="patch_13">
    <path d="M 457.2 798.75 
L 454.5 807.75 
L 451.8 798.75 
z
" clip-path="url(#p331d3ed6f3)"/>
   </g>
   <g id="line2d_14">
    <path d="M 454.5 933.75 
L 148.5 933.75 
L 148.5 663.75 
" clip-path="url(#p331d3ed6f3)" style="fill: none; stroke: #000000; stroke-width: 2; stroke-linecap: round"/>
   </g>
   <g id="patch_14">
    <path d="M 145.8 663.75 
L 148.5 654.75 
L 151.2 663.75 
z
" clip-path="url(#p331d3ed6f3)"/>
   </g>
   <g id="line2d_15">
    <path d="M 544.5 870.75 
L 571.5 870.75 
L 589.5 870.75 
" clip-path="url(#p331d3ed6f3)" style="fill: none; stroke: #000000; stroke-width: 2; stroke-linecap: round"/>
   </g>
   <g id="patch_15">
    <path d="M 589.5 868.05 
L 598.5 870.75 
L 589.5 873.45 
z
" clip-path="url(#p331d3ed6f3)"/>
   </g>
   <g id="line2d_16">
    <path d="M 598.5 870.75 
L 598.5 834.75 
L 778.5 834.75 
L 778.5 906.75 
L 598.5 906.75 
L 598.5 870.75 
" clip-path="url(#p331d3ed6f3)" style="fill: none; stroke: #000000; stroke-width: 2; stroke-linecap: round"/>
   </g>
   <g id="line2d_17">
    <path d="M 688.5 906.75 
L 688.5 960.75 
L 688.5 1005.75 
" clip-path="url(#p331d3ed6f3)" style="fill: none; stroke: #000000; stroke-width: 2; stroke-linecap: round"/>
   </g>
   <g id="patch_16">
    <path d="M 691.2 1005.75 
L 688.5 1014.75 
L 685.8 1005.75 
z
" clip-path="url(#p331d3ed6f3)"/>
   </g>
   <g id="line2d_18">
    <path d="M 688.5 1014.75 
L 148.5 1014.75 
L 148.5 663.75 
" clip-path="url(#p331d3ed6f3)" style="fill: none; stroke: #000000; stroke-width: 2; stroke-linecap: round"/>
   </g>
   <g id="patch_17">
    <path d="M 145.8 663.75 
L 148.5 654.75 
L 151.2 663.75 
z
" clip-path="url(#p331d3ed6f3)"/>
   </g>
   <g id="text_1">
    <!-- Total emission calculation: Start -->
    <g transform="translate(66.930664 77.699219) scale(0.125 -0.125)">
     <defs>
      <path id="DejaVuSans-54" d="M -19 4666 
L 3928 4666 
L 3928 4134 
L 2272 4134 
L 2272 0 
L 1638 0 
L 1638 4134 
L -19 4134 
L -19 4666 
z
" transform="scale(0.015625)"/>
      <path id="DejaVuSans-6f" d="M 1959 3097 
Q 1497 3097 1228 2736 
Q 959 2375 959 1747 
Q 959 1119 1226 758 
Q 1494 397 1959 397 
Q 2419 397 2687 759 
Q 2956 1122 2956 1747 
Q 2956 2369 2687 2733 
Q 2419 3097 1959 3097 
z
M 1959 3584 
Q 2709 3584 3137 3096 
Q 3566 2609 3566 1747 
Q 3566 888 3137 398 
Q 2709 -91 1959 -91 
Q 1206 -91 779 398 
Q 353 888 353 1747 
Q 353 2609 779 3096 
Q 1206 3584 1959 3584 
z
" transform="scale(0.015625)"/>
      <path id="DejaVuSans-74" d="M 1172 4494 
L 1172 3500 
L 2356 3500 
L 2356 3053 
L 1172 3053 
L 1172 1153 
Q 1172 725 1289 603 
Q 1406 481 1766 481 
L 2356 481 
L 2356 0 
L 1766 0 
Q 1100 0 847 248 
Q 594 497 594 1153 
L 594 3053 
L 172 3053 
L 172 3500 
L 594 3500 
L 594 4494 
L 1172 4494 
z
" transform="scale(0.015625)"/>
      <path id="DejaVuSans-61" d="M 2194 1759 
Q 1497 1759 1228 1600 
Q 959 1441 959 1056 
Q 959 750 1161 570 
Q 1363 391 1709 391 
Q 2188 391 2477 730 
Q 2766 1069 2766 1631 
L 2766 1759 
L 2194 1759 
z
M 3341 1997 
L 3341 0 
L 2766 0 
L 2766 531 
Q 2569 213 2275 61 
Q 1981 -91 1556 -91 
Q 1019 -91 701 211 
Q 384 513 384 1019 
Q 384 1609 779 1909 
Q 1175 2209 1959 2209 
L 2766 2209 
L 2766 2266 
Q 2766 2663 2505 2880 
Q 2244 3097 1772 3097 
Q 1472 3097 1187 3025 
Q 903 2953 641 2809 
L 641 3341 
Q 956 3463 1253 3523 
Q 1550 3584 1831 3584 
Q 2591 3584 2966 3190 
Q 3341 2797 3341 1997 
z
" transform="scale(0.015625)"/>
      <path id="DejaVuSans-6c" d="M 603 4863 
L 1178 4863 
L 1178 0 
L 603 0 
L 603 4863 
z
" transform="scale(0.015625)"/>
      <path id="DejaVuSans-20" transform="scale(0.015625)"/>
      <path id="DejaVuSans-65" d="M 3597 1894 
L 3597 1613 
L 953 1613 
Q 991 1019 1311 708 
Q 1631 397 2203 397 
Q 2534 397 2845 478 
Q 3156 559 3463 722 
L 3463 178 
Q 3153 47 2828 -22 
Q 2503 -91 2169 -91 
Q 1331 -91 842 396 
Q 353 884 353 1716 
Q 353 2575 817 3079 
Q 1281 3584 2069 3584 
Q 2775 3584 3186 3129 
Q 3597 2675 3597 1894 
z
M 3022 2063 
Q 3016 2534 2758 2815 
Q 2500 3097 2075 3097 
Q 1594 3097 1305 2825 
Q 1016 2553 972 2059 
L 3022 2063 
z
" transform="scale(0.015625)"/>
      <path id="DejaVuSans-6d" d="M 3328 2828 
Q 3544 3216 3844 3400 
Q 4144 3584 4550 3584 
Q 5097 3584 5394 3201 
Q 5691 2819 5691 2113 
L 5691 0 
L 5113 0 
L 5113 2094 
Q 5113 2597 4934 2840 
Q 4756 3084 4391 3084 
Q 3944 3084 3684 2787 
Q 3425 2491 3425 1978 
L 3425 0 
L 2847 0 
L 2847 2094 
Q 2847 2600 2669 2842 
Q 2491 3084 2119 3084 
Q 1678 3084 1418 2786 
Q 1159 2488 1159 1978 
L 1159 0 
L 581 0 
L 581 3500 
L 1159 3500 
L 1159 2956 
Q 1356 3278 1631 3431 
Q 1906 3584 2284 3584 
Q 2666 3584 2933 3390 
Q 3200 3197 3328 2828 
z
" transform="scale(0.015625)"/>
      <path id="DejaVuSans-69" d="M 603 3500 
L 1178 3500 
L 1178 0 
L 603 0 
L 603 3500 
z
M 603 4863 
L 1178 4863 
L 1178 4134 
L 603 4134 
L 603 4863 
z
" transform="scale(0.015625)"/>
      <path id="DejaVuSans-73" d="M 2834 3397 
L 2834 2853 
Q 2591 2978 2328 3040 
Q 2066 3103 1784 3103 
Q 1356 3103 1142 2972 
Q 928 2841 928 2578 
Q 928 2378 1081 2264 
Q 1234 2150 1697 2047 
L 1894 2003 
Q 2506 1872 2764 1633 
Q 3022 1394 3022 966 
Q 3022 478 2636 193 
Q 2250 -91 1575 -91 
Q 1294 -91 989 -36 
Q 684 19 347 128 
L 347 722 
Q 666 556 975 473 
Q 1284 391 1588 391 
Q 1994 391 2212 530 
Q 2431 669 2431 922 
Q 2431 1156 2273 1281 
Q 2116 1406 1581 1522 
L 1381 1569 
Q 847 1681 609 1914 
Q 372 2147 372 2553 
Q 372 3047 722 3315 
Q 1072 3584 1716 3584 
Q 2034 3584 2315 3537 
Q 2597 3491 2834 3397 
z
" transform="scale(0.015625)"/>
      <path id="DejaVuSans-6e" d="M 3513 2113 
L 3513 0 
L 2938 0 
L 2938 2094 
Q 2938 2591 2744 2837 
Q 2550 3084 2163 3084 
Q 1697 3084 1428 2787 
Q 1159 2491 1159 1978 
L 1159 0 
L 581 0 
L 581 3500 
L 1159 3500 
L 1159 2956 
Q 1366 3272 1645 3428 
Q 1925 3584 2291 3584 
Q 2894 3584 3203 3211 
Q 3513 2838 3513 2113 
z
" transform="scale(0.015625)"/>
      <path id="DejaVuSans-63" d="M 3122 3366 
L 3122 2828 
Q 2878 2963 2633 3030 
Q 2388 3097 2138 3097 
Q 1578 3097 1268 2742 
Q 959 2388 959 1747 
Q 959 1106 1268 751 
Q 1578 397 2138 397 
Q 2388 397 2633 464 
Q 2878 531 3122 666 
L 3122 134 
Q 2881 22 2623 -34 
Q 2366 -91 2075 -91 
Q 1284 -91 818 406 
Q 353 903 353 1747 
Q 353 2603 823 3093 
Q 1294 3584 2113 3584 
Q 2378 3584 2631 3529 
Q 2884 3475 3122 3366 
z
" transform="scale(0.015625)"/>
      <path id="DejaVuSans-75" d="M 544 1381 
L 544 3500 
L 1119 3500 
L 1119 1403 
Q 1119 906 1312 657 
Q 1506 409 1894 409 
Q 2359 409 2629 706 
Q 2900 1003 2900 1516 
L 2900 3500 
L 3475 3500 
L 3475 0 
L 2900 0 
L 2900 538 
Q 2691 219 2414 64 
Q 2138 -91 1772 -91 
Q 1169 -91 856 284 
Q 544 659 544 1381 
z
M 1991 3584 
L 1991 3584 
z
" transform="scale(0.015625)"/>
      <path id="DejaVuSans-3a" d="M 750 794 
L 1409 794 
L 1409 0 
L 750 0 
L 750 794 
z
M 750 3309 
L 1409 3309 
L 1409 2516 
L 750 2516 
L 750 3309 
z
" transform="scale(0.015625)"/>
      <path id="DejaVuSans-53" d="M 3425 4513 
L 3425 3897 
Q 3066 4069 2747 4153 
Q 2428 4238 2131 4238 
Q 1616 4238 1336 4038 
Q 1056 3838 1056 3469 
Q 1056 3159 1242 3001 
Q 1428 2844 1947 2747 
L 2328 2669 
Q 3034 2534 3370 2195 
Q 3706 1856 3706 1288 
Q 3706 609 3251 259 
Q 2797 -91 1919 -91 
Q 1588 -91 1214 -16 
Q 841 59 441 206 
L 441 856 
Q 825 641 1194 531 
Q 1563 422 1919 422 
Q 2459 422 2753 634 
Q 3047 847 3047 1241 
Q 3047 1584 2836 1778 
Q 2625 1972 2144 2069 
L 1759 2144 
Q 1053 2284 737 2584 
Q 422 2884 422 3419 
Q 422 4038 858 4394 
Q 1294 4750 2059 4750 
Q 2388 4750 2728 4690 
Q 3069 4631 3425 4513 
z
" transform="scale(0.015625)"/>
      <path id="DejaVuSans-72" d="M 2631 2963 
Q 2534 3019 2420 3045 
Q 2306 3072 2169 3072 
Q 1681 3072 1420 2755 
Q 1159 2438 1159 1844 
L 1159 0 
L 581 0 
L 581 3500 
L 1159 3500 
L 1159 2956 
Q 1341 3275 1631 3429 
Q 1922 3584 2338 3584 
Q 2397 3584 2469 3576 
Q 2541 3569 2628 3553 
L 2631 2963 
z
" transform="scale(0.015625)"/>
     </defs>
     <use xlink:href="#DejaVuSans-54"/>
     <use xlink:href="#DejaVuSans-6f" x="44.083984"/>
     <use xlink:href="#DejaVuSans-74" x="105.265625"/>
     <use xlink:href="#DejaVuSans-61" x="144.474609"/>
     <use xlink:href="#DejaVuSans-6c" x="205.753906"/>
     <use xlink:href="#DejaVuSans-20" x="233.537109"/>
     <use xlink:href="#DejaVuSans-65" x="265.324219"/>
     <use xlink:href="#DejaVuSans-6d" x="326.847656"/>
     <use xlink:href="#DejaVuSans-69" x="424.259766"/>
     <use xlink:href="#DejaVuSans-73" x="452.042969"/>
     <use xlink:href="#DejaVuSans-73" x="504.142578"/>
     <use xlink:href="#DejaVuSans-69" x="556.242188"/>
     <use xlink:href="#DejaVuSans-6f" x="584.025391"/>
     <use xlink:href="#DejaVuSans-6e" x="645.207031"/>
     <use xlink:href="#DejaVuSans-20" x="708.585938"/>
     <use xlink:href="#DejaVuSans-63" x="740.373047"/>
     <use xlink:href="#DejaVuSans-61" x="795.353516"/>
     <use xlink:href="#DejaVuSans-6c" x="856.632812"/>
     <use xlink:href="#DejaVuSans-63" x="884.416016"/>
     <use xlink:href="#DejaVuSans-75" x="939.396484"/>
     <use xlink:href="#DejaVuSans-6c" x="1002.775391"/>
     <use xlink:href="#DejaVuSans-61" x="1030.558594"/>
     <use xlink:href="#DejaVuSans-74" x="1091.837891"/>
     <use xlink:href="#DejaVuSans-69" x="1131.046875"/>
     <use xlink:href="#DejaVuSans-6f" x="1158.830078"/>
     <use xlink:href="#DejaVuSans-6e" x="1220.011719"/>
     <use xlink:href="#DejaVuSans-3a" x="1283.390625"/>
     <use xlink:href="#DejaVuSans-20" x="1317.082031"/>
     <use xlink:href="#DejaVuSans-53" x="1348.869141"/>
     <use xlink:href="#DejaVuSans-74" x="1412.345703"/>
     <use xlink:href="#DejaVuSans-61" x="1451.554688"/>
     <use xlink:href="#DejaVuSans-72" x="1512.833984"/>
     <use xlink:href="#DejaVuSans-74" x="1553.947266"/>
    </g>
   </g>
   <g id="text_2">
    <!-- Receive user inputs (ingredients)  -->
    <g transform="translate(77.386055 184.052445) scale(0.095 -0.095)">
     <defs>
      <path id="DejaVuSans-52" d="M 2841 2188 
Q 3044 2119 3236 1894 
Q 3428 1669 3622 1275 
L 4263 0 
L 3584 0 
L 2988 1197 
Q 2756 1666 2539 1819 
Q 2322 1972 1947 1972 
L 1259 1972 
L 1259 0 
L 628 0 
L 628 4666 
L 2053 4666 
Q 2853 4666 3247 4331 
Q 3641 3997 3641 3322 
Q 3641 2881 3436 2590 
Q 3231 2300 2841 2188 
z
M 1259 4147 
L 1259 2491 
L 2053 2491 
Q 2509 2491 2742 2702 
Q 2975 2913 2975 3322 
Q 2975 3731 2742 3939 
Q 2509 4147 2053 4147 
L 1259 4147 
z
" transform="scale(0.015625)"/>
      <path id="DejaVuSans-76" d="M 191 3500 
L 800 3500 
L 1894 563 
L 2988 3500 
L 3597 3500 
L 2284 0 
L 1503 0 
L 191 3500 
z
" transform="scale(0.015625)"/>
      <path id="DejaVuSans-70" d="M 1159 525 
L 1159 -1331 
L 581 -1331 
L 581 3500 
L 1159 3500 
L 1159 2969 
Q 1341 3281 1617 3432 
Q 1894 3584 2278 3584 
Q 2916 3584 3314 3078 
Q 3713 2572 3713 1747 
Q 3713 922 3314 415 
Q 2916 -91 2278 -91 
Q 1894 -91 1617 61 
Q 1341 213 1159 525 
z
M 3116 1747 
Q 3116 2381 2855 2742 
Q 2594 3103 2138 3103 
Q 1681 3103 1420 2742 
Q 1159 2381 1159 1747 
Q 1159 1113 1420 752 
Q 1681 391 2138 391 
Q 2594 391 2855 752 
Q 3116 1113 3116 1747 
z
" transform="scale(0.015625)"/>
      <path id="DejaVuSans-28" d="M 1984 4856 
Q 1566 4138 1362 3434 
Q 1159 2731 1159 2009 
Q 1159 1288 1364 580 
Q 1569 -128 1984 -844 
L 1484 -844 
Q 1016 -109 783 600 
Q 550 1309 550 2009 
Q 550 2706 781 3412 
Q 1013 4119 1484 4856 
L 1984 4856 
z
" transform="scale(0.015625)"/>
      <path id="DejaVuSans-67" d="M 2906 1791 
Q 2906 2416 2648 2759 
Q 2391 3103 1925 3103 
Q 1463 3103 1205 2759 
Q 947 2416 947 1791 
Q 947 1169 1205 825 
Q 1463 481 1925 481 
Q 2391 481 2648 825 
Q 2906 1169 2906 1791 
z
M 3481 434 
Q 3481 -459 3084 -895 
Q 2688 -1331 1869 -1331 
Q 1566 -1331 1297 -1286 
Q 1028 -1241 775 -1147 
L 775 -588 
Q 1028 -725 1275 -790 
Q 1522 -856 1778 -856 
Q 2344 -856 2625 -561 
Q 2906 -266 2906 331 
L 2906 616 
Q 2728 306 2450 153 
Q 2172 0 1784 0 
Q 1141 0 747 490 
Q 353 981 353 1791 
Q 353 2603 747 3093 
Q 1141 3584 1784 3584 
Q 2172 3584 2450 3431 
Q 2728 3278 2906 2969 
L 2906 3500 
L 3481 3500 
L 3481 434 
z
" transform="scale(0.015625)"/>
      <path id="DejaVuSans-64" d="M 2906 2969 
L 2906 4863 
L 3481 4863 
L 3481 0 
L 2906 0 
L 2906 525 
Q 2725 213 2448 61 
Q 2172 -91 1784 -91 
Q 1150 -91 751 415 
Q 353 922 353 1747 
Q 353 2572 751 3078 
Q 1150 3584 1784 3584 
Q 2172 3584 2448 3432 
Q 2725 3281 2906 2969 
z
M 947 1747 
Q 947 1113 1208 752 
Q 1469 391 1925 391 
Q 2381 391 2643 752 
Q 2906 1113 2906 1747 
Q 2906 2381 2643 2742 
Q 2381 3103 1925 3103 
Q 1469 3103 1208 2742 
Q 947 2381 947 1747 
z
" transform="scale(0.015625)"/>
      <path id="DejaVuSans-29" d="M 513 4856 
L 1013 4856 
Q 1481 4119 1714 3412 
Q 1947 2706 1947 2009 
Q 1947 1309 1714 600 
Q 1481 -109 1013 -844 
L 513 -844 
Q 928 -128 1133 580 
Q 1338 1288 1338 2009 
Q 1338 2731 1133 3434 
Q 928 4138 513 4856 
z
" transform="scale(0.015625)"/>
     </defs>
     <use xlink:href="#DejaVuSans-52"/>
     <use xlink:href="#DejaVuSans-65" x="64.982422"/>
     <use xlink:href="#DejaVuSans-63" x="126.505859"/>
     <use xlink:href="#DejaVuSans-65" x="181.486328"/>
     <use xlink:href="#DejaVuSans-69" x="243.009766"/>
     <use xlink:href="#DejaVuSans-76" x="270.792969"/>
     <use xlink:href="#DejaVuSans-65" x="329.972656"/>
     <use xlink:href="#DejaVuSans-20" x="391.496094"/>
     <use xlink:href="#DejaVuSans-75" x="423.283203"/>
     <use xlink:href="#DejaVuSans-73" x="486.662109"/>
     <use xlink:href="#DejaVuSans-65" x="538.761719"/>
     <use xlink:href="#DejaVuSans-72" x="600.285156"/>
     <use xlink:href="#DejaVuSans-20" x="641.398438"/>
     <use xlink:href="#DejaVuSans-69" x="673.185547"/>
     <use xlink:href="#DejaVuSans-6e" x="700.96875"/>
     <use xlink:href="#DejaVuSans-70" x="764.347656"/>
     <use xlink:href="#DejaVuSans-75" x="827.824219"/>
     <use xlink:href="#DejaVuSans-74" x="891.203125"/>
     <use xlink:href="#DejaVuSans-73" x="930.412109"/>
     <use xlink:href="#DejaVuSans-20" x="982.511719"/>
     <use xlink:href="#DejaVuSans-28" x="1014.298828"/>
     <use xlink:href="#DejaVuSans-69" x="1053.3125"/>
     <use xlink:href="#DejaVuSans-6e" x="1081.095703"/>
     <use xlink:href="#DejaVuSans-67" x="1144.474609"/>
     <use xlink:href="#DejaVuSans-72" x="1207.951172"/>
     <use xlink:href="#DejaVuSans-65" x="1246.814453"/>
     <use xlink:href="#DejaVuSans-64" x="1308.337891"/>
     <use xlink:href="#DejaVuSans-69" x="1371.814453"/>
     <use xlink:href="#DejaVuSans-65" x="1399.597656"/>
     <use xlink:href="#DejaVuSans-6e" x="1461.121094"/>
     <use xlink:href="#DejaVuSans-74" x="1524.5"/>
     <use xlink:href="#DejaVuSans-73" x="1563.708984"/>
     <use xlink:href="#DejaVuSans-29" x="1615.808594"/>
     <use xlink:href="#DejaVuSans-20" x="1654.822266"/>
    </g>
    <!--  that go into a single recipe -->
    <g transform="translate(92.165234 194.690367) scale(0.095 -0.095)">
     <defs>
      <path id="DejaVuSans-68" d="M 3513 2113 
L 3513 0 
L 2938 0 
L 2938 2094 
Q 2938 2591 2744 2837 
Q 2550 3084 2163 3084 
Q 1697 3084 1428 2787 
Q 1159 2491 1159 1978 
L 1159 0 
L 581 0 
L 581 4863 
L 1159 4863 
L 1159 2956 
Q 1366 3272 1645 3428 
Q 1925 3584 2291 3584 
Q 2894 3584 3203 3211 
Q 3513 2838 3513 2113 
z
" transform="scale(0.015625)"/>
     </defs>
     <use xlink:href="#DejaVuSans-20"/>
     <use xlink:href="#DejaVuSans-74" x="31.787109"/>
     <use xlink:href="#DejaVuSans-68" x="70.996094"/>
     <use xlink:href="#DejaVuSans-61" x="134.375"/>
     <use xlink:href="#DejaVuSans-74" x="195.654297"/>
     <use xlink:href="#DejaVuSans-20" x="234.863281"/>
     <use xlink:href="#DejaVuSans-67" x="266.650391"/>
     <use xlink:href="#DejaVuSans-6f" x="330.126953"/>
     <use xlink:href="#DejaVuSans-20" x="391.308594"/>
     <use xlink:href="#DejaVuSans-69" x="423.095703"/>
     <use xlink:href="#DejaVuSans-6e" x="450.878906"/>
     <use xlink:href="#DejaVuSans-74" x="514.257812"/>
     <use xlink:href="#DejaVuSans-6f" x="553.466797"/>
     <use xlink:href="#DejaVuSans-20" x="614.648438"/>
     <use xlink:href="#DejaVuSans-61" x="646.435547"/>
     <use xlink:href="#DejaVuSans-20" x="707.714844"/>
     <use xlink:href="#DejaVuSans-73" x="739.501953"/>
     <use xlink:href="#DejaVuSans-69" x="791.601562"/>
     <use xlink:href="#DejaVuSans-6e" x="819.384766"/>
     <use xlink:href="#DejaVuSans-67" x="882.763672"/>
     <use xlink:href="#DejaVuSans-6c" x="946.240234"/>
     <use xlink:href="#DejaVuSans-65" x="974.023438"/>
     <use xlink:href="#DejaVuSans-20" x="1035.546875"/>
     <use xlink:href="#DejaVuSans-72" x="1067.333984"/>
     <use xlink:href="#DejaVuSans-65" x="1106.197266"/>
     <use xlink:href="#DejaVuSans-63" x="1167.720703"/>
     <use xlink:href="#DejaVuSans-69" x="1222.701172"/>
     <use xlink:href="#DejaVuSans-70" x="1250.484375"/>
     <use xlink:href="#DejaVuSans-65" x="1313.960938"/>
    </g>
   </g>
   <g id="text_3">
    <!-- Assess the cumulative greenhouse gas (GHG)  -->
    <g transform="translate(49.71207 310.336398) scale(0.085 -0.085)">
     <defs>
      <path id="DejaVuSans-41" d="M 2188 4044 
L 1331 1722 
L 3047 1722 
L 2188 4044 
z
M 1831 4666 
L 2547 4666 
L 4325 0 
L 3669 0 
L 3244 1197 
L 1141 1197 
L 716 0 
L 50 0 
L 1831 4666 
z
" transform="scale(0.015625)"/>
      <path id="DejaVuSans-47" d="M 3809 666 
L 3809 1919 
L 2778 1919 
L 2778 2438 
L 4434 2438 
L 4434 434 
Q 4069 175 3628 42 
Q 3188 -91 2688 -91 
Q 1594 -91 976 548 
Q 359 1188 359 2328 
Q 359 3472 976 4111 
Q 1594 4750 2688 4750 
Q 3144 4750 3555 4637 
Q 3966 4525 4313 4306 
L 4313 3634 
Q 3963 3931 3569 4081 
Q 3175 4231 2741 4231 
Q 1884 4231 1454 3753 
Q 1025 3275 1025 2328 
Q 1025 1384 1454 906 
Q 1884 428 2741 428 
Q 3075 428 3337 486 
Q 3600 544 3809 666 
z
" transform="scale(0.015625)"/>
      <path id="DejaVuSans-48" d="M 628 4666 
L 1259 4666 
L 1259 2753 
L 3553 2753 
L 3553 4666 
L 4184 4666 
L 4184 0 
L 3553 0 
L 3553 2222 
L 1259 2222 
L 1259 0 
L 628 0 
L 628 4666 
z
" transform="scale(0.015625)"/>
     </defs>
     <use xlink:href="#DejaVuSans-41"/>
     <use xlink:href="#DejaVuSans-73" x="68.408203"/>
     <use xlink:href="#DejaVuSans-73" x="120.507812"/>
     <use xlink:href="#DejaVuSans-65" x="172.607422"/>
     <use xlink:href="#DejaVuSans-73" x="234.130859"/>
     <use xlink:href="#DejaVuSans-73" x="286.230469"/>
     <use xlink:href="#DejaVuSans-20" x="338.330078"/>
     <use xlink:href="#DejaVuSans-74" x="370.117188"/>
     <use xlink:href="#DejaVuSans-68" x="409.326172"/>
     <use xlink:href="#DejaVuSans-65" x="472.705078"/>
     <use xlink:href="#DejaVuSans-20" x="534.228516"/>
     <use xlink:href="#DejaVuSans-63" x="566.015625"/>
     <use xlink:href="#DejaVuSans-75" x="620.996094"/>
     <use xlink:href="#DejaVuSans-6d" x="684.375"/>
     <use xlink:href="#DejaVuSans-75" x="781.787109"/>
     <use xlink:href="#DejaVuSans-6c" x="845.166016"/>
     <use xlink:href="#DejaVuSans-61" x="872.949219"/>
     <use xlink:href="#DejaVuSans-74" x="934.228516"/>
     <use xlink:href="#DejaVuSans-69" x="973.4375"/>
     <use xlink:href="#DejaVuSans-76" x="1001.220703"/>
     <use xlink:href="#DejaVuSans-65" x="1060.400391"/>
     <use xlink:href="#DejaVuSans-20" x="1121.923828"/>
     <use xlink:href="#DejaVuSans-67" x="1153.710938"/>
     <use xlink:href="#DejaVuSans-72" x="1217.1875"/>
     <use xlink:href="#DejaVuSans-65" x="1256.050781"/>
     <use xlink:href="#DejaVuSans-65" x="1317.574219"/>
     <use xlink:href="#DejaVuSans-6e" x="1379.097656"/>
     <use xlink:href="#DejaVuSans-68" x="1442.476562"/>
     <use xlink:href="#DejaVuSans-6f" x="1505.855469"/>
     <use xlink:href="#DejaVuSans-75" x="1567.037109"/>
     <use xlink:href="#DejaVuSans-73" x="1630.416016"/>
     <use xlink:href="#DejaVuSans-65" x="1682.515625"/>
     <use xlink:href="#DejaVuSans-20" x="1744.039062"/>
     <use xlink:href="#DejaVuSans-67" x="1775.826172"/>
     <use xlink:href="#DejaVuSans-61" x="1839.302734"/>
     <use xlink:href="#DejaVuSans-73" x="1900.582031"/>
     <use xlink:href="#DejaVuSans-20" x="1952.681641"/>
     <use xlink:href="#DejaVuSans-28" x="1984.46875"/>
     <use xlink:href="#DejaVuSans-47" x="2023.482422"/>
     <use xlink:href="#DejaVuSans-48" x="2100.972656"/>
     <use xlink:href="#DejaVuSans-47" x="2176.167969"/>
     <use xlink:href="#DejaVuSans-29" x="2253.658203"/>
     <use xlink:href="#DejaVuSans-20" x="2292.671875"/>
    </g>
    <!--  emissions generated by the recipe. -->
    <g transform="translate(72.105586 319.854539) scale(0.085 -0.085)">
     <defs>
      <path id="DejaVuSans-62" d="M 3116 1747 
Q 3116 2381 2855 2742 
Q 2594 3103 2138 3103 
Q 1681 3103 1420 2742 
Q 1159 2381 1159 1747 
Q 1159 1113 1420 752 
Q 1681 391 2138 391 
Q 2594 391 2855 752 
Q 3116 1113 3116 1747 
z
M 1159 2969 
Q 1341 3281 1617 3432 
Q 1894 3584 2278 3584 
Q 2916 3584 3314 3078 
Q 3713 2572 3713 1747 
Q 3713 922 3314 415 
Q 2916 -91 2278 -91 
Q 1894 -91 1617 61 
Q 1341 213 1159 525 
L 1159 0 
L 581 0 
L 581 4863 
L 1159 4863 
L 1159 2969 
z
" transform="scale(0.015625)"/>
      <path id="DejaVuSans-79" d="M 2059 -325 
Q 1816 -950 1584 -1140 
Q 1353 -1331 966 -1331 
L 506 -1331 
L 506 -850 
L 844 -850 
Q 1081 -850 1212 -737 
Q 1344 -625 1503 -206 
L 1606 56 
L 191 3500 
L 800 3500 
L 1894 763 
L 2988 3500 
L 3597 3500 
L 2059 -325 
z
" transform="scale(0.015625)"/>
      <path id="DejaVuSans-2e" d="M 684 794 
L 1344 794 
L 1344 0 
L 684 0 
L 684 794 
z
" transform="scale(0.015625)"/>
     </defs>
     <use xlink:href="#DejaVuSans-20"/>
     <use xlink:href="#DejaVuSans-65" x="31.787109"/>
     <use xlink:href="#DejaVuSans-6d" x="93.310547"/>
     <use xlink:href="#DejaVuSans-69" x="190.722656"/>
     <use xlink:href="#DejaVuSans-73" x="218.505859"/>
     <use xlink:href="#DejaVuSans-73" x="270.605469"/>
     <use xlink:href="#DejaVuSans-69" x="322.705078"/>
     <use xlink:href="#DejaVuSans-6f" x="350.488281"/>
     <use xlink:href="#DejaVuSans-6e" x="411.669922"/>
     <use xlink:href="#DejaVuSans-73" x="475.048828"/>
     <use xlink:href="#DejaVuSans-20" x="527.148438"/>
     <use xlink:href="#DejaVuSans-67" x="558.935547"/>
     <use xlink:href="#DejaVuSans-65" x="622.412109"/>
     <use xlink:href="#DejaVuSans-6e" x="683.935547"/>
     <use xlink:href="#DejaVuSans-65" x="747.314453"/>
     <use xlink:href="#DejaVuSans-72" x="808.837891"/>
     <use xlink:href="#DejaVuSans-61" x="849.951172"/>
     <use xlink:href="#DejaVuSans-74" x="911.230469"/>
     <use xlink:href="#DejaVuSans-65" x="950.439453"/>
     <use xlink:href="#DejaVuSans-64" x="1011.962891"/>
     <use xlink:href="#DejaVuSans-20" x="1075.439453"/>
     <use xlink:href="#DejaVuSans-62" x="1107.226562"/>
     <use xlink:href="#DejaVuSans-79" x="1170.703125"/>
     <use xlink:href="#DejaVuSans-20" x="1229.882812"/>
     <use xlink:href="#DejaVuSans-74" x="1261.669922"/>
     <use xlink:href="#DejaVuSans-68" x="1300.878906"/>
     <use xlink:href="#DejaVuSans-65" x="1364.257812"/>
     <use xlink:href="#DejaVuSans-20" x="1425.78125"/>
     <use xlink:href="#DejaVuSans-72" x="1457.568359"/>
     <use xlink:href="#DejaVuSans-65" x="1496.431641"/>
     <use xlink:href="#DejaVuSans-63" x="1557.955078"/>
     <use xlink:href="#DejaVuSans-69" x="1612.935547"/>
     <use xlink:href="#DejaVuSans-70" x="1640.71875"/>
     <use xlink:href="#DejaVuSans-65" x="1704.195312"/>
     <use xlink:href="#DejaVuSans-2e" x="1765.71875"/>
    </g>
   </g>
   <g id="text_4">
    <!-- NO -->
    <g transform="translate(153.18 542.928047) scale(0.125 -0.125)">
     <defs>
      <path id="DejaVuSans-4e" d="M 628 4666 
L 1478 4666 
L 3547 763 
L 3547 4666 
L 4159 4666 
L 4159 0 
L 3309 0 
L 1241 3903 
L 1241 0 
L 628 0 
L 628 4666 
z
" transform="scale(0.015625)"/>
      <path id="DejaVuSans-4f" d="M 2522 4238 
Q 1834 4238 1429 3725 
Q 1025 3213 1025 2328 
Q 1025 1447 1429 934 
Q 1834 422 2522 422 
Q 3209 422 3611 934 
Q 4013 1447 4013 2328 
Q 4013 3213 3611 3725 
Q 3209 4238 2522 4238 
z
M 2522 4750 
Q 3503 4750 4090 4092 
Q 4678 3434 4678 2328 
Q 4678 1225 4090 567 
Q 3503 -91 2522 -91 
Q 1538 -91 948 565 
Q 359 1222 359 2328 
Q 359 3434 948 4092 
Q 1538 4750 2522 4750 
z
" transform="scale(0.015625)"/>
     </defs>
     <use xlink:href="#DejaVuSans-4e"/>
     <use xlink:href="#DejaVuSans-4f" x="74.804688"/>
    </g>
   </g>
   <g id="text_5">
    <!-- YES -->
    <g transform="translate(243.18 458.470391) scale(0.125 -0.125)">
     <defs>
      <path id="DejaVuSans-59" d="M -13 4666 
L 666 4666 
L 1959 2747 
L 3244 4666 
L 3922 4666 
L 2272 2222 
L 2272 0 
L 1638 0 
L 1638 2222 
L -13 4666 
z
" transform="scale(0.015625)"/>
      <path id="DejaVuSans-45" d="M 628 4666 
L 3578 4666 
L 3578 4134 
L 1259 4134 
L 1259 2753 
L 3481 2753 
L 3481 2222 
L 1259 2222 
L 1259 531 
L 3634 531 
L 3634 0 
L 628 0 
L 628 4666 
z
" transform="scale(0.015625)"/>
     </defs>
     <use xlink:href="#DejaVuSans-59"/>
     <use xlink:href="#DejaVuSans-45" x="61.083984"/>
     <use xlink:href="#DejaVuSans-53" x="124.267578"/>
    </g>
   </g>
   <g id="text_6">
    <!-- Is the recipe evaluated  -->
    <g transform="translate(92.466328 463.052445) scale(0.095 -0.095)">
     <defs>
      <path id="DejaVuSans-49" d="M 628 4666 
L 1259 4666 
L 1259 0 
L 628 0 
L 628 4666 
z
" transform="scale(0.015625)"/>
     </defs>
     <use xlink:href="#DejaVuSans-49"/>
     <use xlink:href="#DejaVuSans-73" x="29.492188"/>
     <use xlink:href="#DejaVuSans-20" x="81.591797"/>
     <use xlink:href="#DejaVuSans-74" x="113.378906"/>
     <use xlink:href="#DejaVuSans-68" x="152.587891"/>
     <use xlink:href="#DejaVuSans-65" x="215.966797"/>
     <use xlink:href="#DejaVuSans-20" x="277.490234"/>
     <use xlink:href="#DejaVuSans-72" x="309.277344"/>
     <use xlink:href="#DejaVuSans-65" x="348.140625"/>
     <use xlink:href="#DejaVuSans-63" x="409.664062"/>
     <use xlink:href="#DejaVuSans-69" x="464.644531"/>
     <use xlink:href="#DejaVuSans-70" x="492.427734"/>
     <use xlink:href="#DejaVuSans-65" x="555.904297"/>
     <use xlink:href="#DejaVuSans-20" x="617.427734"/>
     <use xlink:href="#DejaVuSans-65" x="649.214844"/>
     <use xlink:href="#DejaVuSans-76" x="710.738281"/>
     <use xlink:href="#DejaVuSans-61" x="769.917969"/>
     <use xlink:href="#DejaVuSans-6c" x="831.197266"/>
     <use xlink:href="#DejaVuSans-75" x="858.980469"/>
     <use xlink:href="#DejaVuSans-61" x="922.359375"/>
     <use xlink:href="#DejaVuSans-74" x="983.638672"/>
     <use xlink:href="#DejaVuSans-65" x="1022.847656"/>
     <use xlink:href="#DejaVuSans-64" x="1084.371094"/>
     <use xlink:href="#DejaVuSans-20" x="1147.847656"/>
    </g>
    <!--  to have 'High Impact'? -->
    <g transform="translate(93.55957 473.690367) scale(0.095 -0.095)">
     <defs>
      <path id="DejaVuSans-27" d="M 1147 4666 
L 1147 2931 
L 616 2931 
L 616 4666 
L 1147 4666 
z
" transform="scale(0.015625)"/>
      <path id="DejaVuSans-3f" d="M 1222 794 
L 1856 794 
L 1856 0 
L 1222 0 
L 1222 794 
z
M 1838 1253 
L 1241 1253 
L 1241 1734 
Q 1241 2050 1328 2253 
Q 1416 2456 1697 2725 
L 1978 3003 
Q 2156 3169 2236 3316 
Q 2316 3463 2316 3616 
Q 2316 3894 2111 4066 
Q 1906 4238 1569 4238 
Q 1322 4238 1042 4128 
Q 763 4019 459 3809 
L 459 4397 
Q 753 4575 1054 4662 
Q 1356 4750 1678 4750 
Q 2253 4750 2601 4447 
Q 2950 4144 2950 3647 
Q 2950 3409 2837 3195 
Q 2725 2981 2444 2713 
L 2169 2444 
Q 2022 2297 1961 2214 
Q 1900 2131 1875 2053 
Q 1856 1988 1847 1894 
Q 1838 1800 1838 1638 
L 1838 1253 
z
" transform="scale(0.015625)"/>
     </defs>
     <use xlink:href="#DejaVuSans-20"/>
     <use xlink:href="#DejaVuSans-74" x="31.787109"/>
     <use xlink:href="#DejaVuSans-6f" x="70.996094"/>
     <use xlink:href="#DejaVuSans-20" x="132.177734"/>
     <use xlink:href="#DejaVuSans-68" x="163.964844"/>
     <use xlink:href="#DejaVuSans-61" x="227.34375"/>
     <use xlink:href="#DejaVuSans-76" x="288.623047"/>
     <use xlink:href="#DejaVuSans-65" x="347.802734"/>
     <use xlink:href="#DejaVuSans-20" x="409.326172"/>
     <use xlink:href="#DejaVuSans-27" x="441.113281"/>
     <use xlink:href="#DejaVuSans-48" x="468.603516"/>
     <use xlink:href="#DejaVuSans-69" x="543.798828"/>
     <use xlink:href="#DejaVuSans-67" x="571.582031"/>
     <use xlink:href="#DejaVuSans-68" x="635.058594"/>
     <use xlink:href="#DejaVuSans-20" x="698.4375"/>
     <use xlink:href="#DejaVuSans-49" x="730.224609"/>
     <use xlink:href="#DejaVuSans-6d" x="759.716797"/>
     <use xlink:href="#DejaVuSans-70" x="857.128906"/>
     <use xlink:href="#DejaVuSans-61" x="920.605469"/>
     <use xlink:href="#DejaVuSans-63" x="981.884766"/>
     <use xlink:href="#DejaVuSans-74" x="1036.865234"/>
     <use xlink:href="#DejaVuSans-27" x="1076.074219"/>
     <use xlink:href="#DejaVuSans-3f" x="1103.564453"/>
    </g>
   </g>
   <g id="text_7">
    <!-- End. You have a good recipe! -->
    <g transform="translate(79.273945 621.371406) scale(0.095 -0.095)">
     <defs>
      <path id="DejaVuSans-21" d="M 966 794 
L 1600 794 
L 1600 0 
L 966 0 
L 966 794 
z
M 966 4666 
L 1600 4666 
L 1600 2619 
L 1538 1503 
L 1031 1503 
L 966 2619 
L 966 4666 
z
" transform="scale(0.015625)"/>
     </defs>
     <use xlink:href="#DejaVuSans-45"/>
     <use xlink:href="#DejaVuSans-6e" x="63.183594"/>
     <use xlink:href="#DejaVuSans-64" x="126.5625"/>
     <use xlink:href="#DejaVuSans-2e" x="190.039062"/>
     <use xlink:href="#DejaVuSans-20" x="221.826172"/>
     <use xlink:href="#DejaVuSans-59" x="253.613281"/>
     <use xlink:href="#DejaVuSans-6f" x="301.447266"/>
     <use xlink:href="#DejaVuSans-75" x="362.628906"/>
     <use xlink:href="#DejaVuSans-20" x="426.007812"/>
     <use xlink:href="#DejaVuSans-68" x="457.794922"/>
     <use xlink:href="#DejaVuSans-61" x="521.173828"/>
     <use xlink:href="#DejaVuSans-76" x="582.453125"/>
     <use xlink:href="#DejaVuSans-65" x="641.632812"/>
     <use xlink:href="#DejaVuSans-20" x="703.15625"/>
     <use xlink:href="#DejaVuSans-61" x="734.943359"/>
     <use xlink:href="#DejaVuSans-20" x="796.222656"/>
     <use xlink:href="#DejaVuSans-67" x="828.009766"/>
     <use xlink:href="#DejaVuSans-6f" x="891.486328"/>
     <use xlink:href="#DejaVuSans-6f" x="952.667969"/>
     <use xlink:href="#DejaVuSans-64" x="1013.849609"/>
     <use xlink:href="#DejaVuSans-20" x="1077.326172"/>
     <use xlink:href="#DejaVuSans-72" x="1109.113281"/>
     <use xlink:href="#DejaVuSans-65" x="1147.976562"/>
     <use xlink:href="#DejaVuSans-63" x="1209.5"/>
     <use xlink:href="#DejaVuSans-69" x="1264.480469"/>
     <use xlink:href="#DejaVuSans-70" x="1292.263672"/>
     <use xlink:href="#DejaVuSans-65" x="1355.740234"/>
     <use xlink:href="#DejaVuSans-21" x="1417.263672"/>
    </g>
   </g>
   <g id="text_8">
    <!-- Recommend substituting a high  -->
    <g transform="translate(393.496289 455.221992) scale(0.075 -0.075)">
     <use xlink:href="#DejaVuSans-52"/>
     <use xlink:href="#DejaVuSans-65" x="64.982422"/>
     <use xlink:href="#DejaVuSans-63" x="126.505859"/>
     <use xlink:href="#DejaVuSans-6f" x="181.486328"/>
     <use xlink:href="#DejaVuSans-6d" x="242.667969"/>
     <use xlink:href="#DejaVuSans-6d" x="340.080078"/>
     <use xlink:href="#DejaVuSans-65" x="437.492188"/>
     <use xlink:href="#DejaVuSans-6e" x="499.015625"/>
     <use xlink:href="#DejaVuSans-64" x="562.394531"/>
     <use xlink:href="#DejaVuSans-20" x="625.871094"/>
     <use xlink:href="#DejaVuSans-73" x="657.658203"/>
     <use xlink:href="#DejaVuSans-75" x="709.757812"/>
     <use xlink:href="#DejaVuSans-62" x="773.136719"/>
     <use xlink:href="#DejaVuSans-73" x="836.613281"/>
     <use xlink:href="#DejaVuSans-74" x="888.712891"/>
     <use xlink:href="#DejaVuSans-69" x="927.921875"/>
     <use xlink:href="#DejaVuSans-74" x="955.705078"/>
     <use xlink:href="#DejaVuSans-75" x="994.914062"/>
     <use xlink:href="#DejaVuSans-74" x="1058.292969"/>
     <use xlink:href="#DejaVuSans-69" x="1097.501953"/>
     <use xlink:href="#DejaVuSans-6e" x="1125.285156"/>
     <use xlink:href="#DejaVuSans-67" x="1188.664062"/>
     <use xlink:href="#DejaVuSans-20" x="1252.140625"/>
     <use xlink:href="#DejaVuSans-61" x="1283.927734"/>
     <use xlink:href="#DejaVuSans-20" x="1345.207031"/>
     <use xlink:href="#DejaVuSans-68" x="1376.994141"/>
     <use xlink:href="#DejaVuSans-69" x="1440.373047"/>
     <use xlink:href="#DejaVuSans-67" x="1468.15625"/>
     <use xlink:href="#DejaVuSans-68" x="1531.632812"/>
     <use xlink:href="#DejaVuSans-20" x="1595.011719"/>
    </g>
    <!--  GHG-emitting ingredient             in the current recipe with -->
    <g transform="translate(344.380078 463.620352) scale(0.075 -0.075)">
     <defs>
      <path id="DejaVuSans-2d" d="M 313 2009 
L 1997 2009 
L 1997 1497 
L 313 1497 
L 313 2009 
z
" transform="scale(0.015625)"/>
      <path id="DejaVuSans-77" d="M 269 3500 
L 844 3500 
L 1563 769 
L 2278 3500 
L 2956 3500 
L 3675 769 
L 4391 3500 
L 4966 3500 
L 4050 0 
L 3372 0 
L 2619 2869 
L 1863 0 
L 1184 0 
L 269 3500 
z
" transform="scale(0.015625)"/>
     </defs>
     <use xlink:href="#DejaVuSans-20"/>
     <use xlink:href="#DejaVuSans-47" x="31.787109"/>
     <use xlink:href="#DejaVuSans-48" x="109.277344"/>
     <use xlink:href="#DejaVuSans-47" x="184.472656"/>
     <use xlink:href="#DejaVuSans-2d" x="261.962891"/>
     <use xlink:href="#DejaVuSans-65" x="298.046875"/>
     <use xlink:href="#DejaVuSans-6d" x="359.570312"/>
     <use xlink:href="#DejaVuSans-69" x="456.982422"/>
     <use xlink:href="#DejaVuSans-74" x="484.765625"/>
     <use xlink:href="#DejaVuSans-74" x="523.974609"/>
     <use xlink:href="#DejaVuSans-69" x="563.183594"/>
     <use xlink:href="#DejaVuSans-6e" x="590.966797"/>
     <use xlink:href="#DejaVuSans-67" x="654.345703"/>
     <use xlink:href="#DejaVuSans-20" x="717.822266"/>
     <use xlink:href="#DejaVuSans-69" x="749.609375"/>
     <use xlink:href="#DejaVuSans-6e" x="777.392578"/>
     <use xlink:href="#DejaVuSans-67" x="840.771484"/>
     <use xlink:href="#DejaVuSans-72" x="904.248047"/>
     <use xlink:href="#DejaVuSans-65" x="943.111328"/>
     <use xlink:href="#DejaVuSans-64" x="1004.634766"/>
     <use xlink:href="#DejaVuSans-69" x="1068.111328"/>
     <use xlink:href="#DejaVuSans-65" x="1095.894531"/>
     <use xlink:href="#DejaVuSans-6e" x="1157.417969"/>
     <use xlink:href="#DejaVuSans-74" x="1220.796875"/>
     <use xlink:href="#DejaVuSans-20" x="1260.005859"/>
     <use xlink:href="#DejaVuSans-20" x="1291.792969"/>
     <use xlink:href="#DejaVuSans-20" x="1323.580078"/>
     <use xlink:href="#DejaVuSans-20" x="1355.367188"/>
     <use xlink:href="#DejaVuSans-20" x="1387.154297"/>
     <use xlink:href="#DejaVuSans-20" x="1418.941406"/>
     <use xlink:href="#DejaVuSans-20" x="1450.728516"/>
     <use xlink:href="#DejaVuSans-20" x="1482.515625"/>
     <use xlink:href="#DejaVuSans-20" x="1514.302734"/>
     <use xlink:href="#DejaVuSans-20" x="1546.089844"/>
     <use xlink:href="#DejaVuSans-20" x="1577.876953"/>
     <use xlink:href="#DejaVuSans-20" x="1609.664062"/>
     <use xlink:href="#DejaVuSans-20" x="1641.451172"/>
     <use xlink:href="#DejaVuSans-69" x="1673.238281"/>
     <use xlink:href="#DejaVuSans-6e" x="1701.021484"/>
     <use xlink:href="#DejaVuSans-20" x="1764.400391"/>
     <use xlink:href="#DejaVuSans-74" x="1796.1875"/>
     <use xlink:href="#DejaVuSans-68" x="1835.396484"/>
     <use xlink:href="#DejaVuSans-65" x="1898.775391"/>
     <use xlink:href="#DejaVuSans-20" x="1960.298828"/>
     <use xlink:href="#DejaVuSans-63" x="1992.085938"/>
     <use xlink:href="#DejaVuSans-75" x="2047.066406"/>
     <use xlink:href="#DejaVuSans-72" x="2110.445312"/>
     <use xlink:href="#DejaVuSans-72" x="2149.808594"/>
     <use xlink:href="#DejaVuSans-65" x="2188.671875"/>
     <use xlink:href="#DejaVuSans-6e" x="2250.195312"/>
     <use xlink:href="#DejaVuSans-74" x="2313.574219"/>
     <use xlink:href="#DejaVuSans-20" x="2352.783203"/>
     <use xlink:href="#DejaVuSans-72" x="2384.570312"/>
     <use xlink:href="#DejaVuSans-65" x="2423.433594"/>
     <use xlink:href="#DejaVuSans-63" x="2484.957031"/>
     <use xlink:href="#DejaVuSans-69" x="2539.9375"/>
     <use xlink:href="#DejaVuSans-70" x="2567.720703"/>
     <use xlink:href="#DejaVuSans-65" x="2631.197266"/>
     <use xlink:href="#DejaVuSans-20" x="2692.720703"/>
     <use xlink:href="#DejaVuSans-77" x="2724.507812"/>
     <use xlink:href="#DejaVuSans-69" x="2806.294922"/>
     <use xlink:href="#DejaVuSans-74" x="2834.078125"/>
     <use xlink:href="#DejaVuSans-68" x="2873.287109"/>
    </g>
    <!--  an alternative from                   food categories known for  -->
    <g transform="translate(344.418164 472.018711) scale(0.075 -0.075)">
     <defs>
      <path id="DejaVuSans-66" d="M 2375 4863 
L 2375 4384 
L 1825 4384 
Q 1516 4384 1395 4259 
Q 1275 4134 1275 3809 
L 1275 3500 
L 2222 3500 
L 2222 3053 
L 1275 3053 
L 1275 0 
L 697 0 
L 697 3053 
L 147 3053 
L 147 3500 
L 697 3500 
L 697 3744 
Q 697 4328 969 4595 
Q 1241 4863 1831 4863 
L 2375 4863 
z
" transform="scale(0.015625)"/>
      <path id="DejaVuSans-6b" d="M 581 4863 
L 1159 4863 
L 1159 1991 
L 2875 3500 
L 3609 3500 
L 1753 1863 
L 3688 0 
L 2938 0 
L 1159 1709 
L 1159 0 
L 581 0 
L 581 4863 
z
" transform="scale(0.015625)"/>
     </defs>
     <use xlink:href="#DejaVuSans-20"/>
     <use xlink:href="#DejaVuSans-61" x="31.787109"/>
     <use xlink:href="#DejaVuSans-6e" x="93.066406"/>
     <use xlink:href="#DejaVuSans-20" x="156.445312"/>
     <use xlink:href="#DejaVuSans-61" x="188.232422"/>
     <use xlink:href="#DejaVuSans-6c" x="249.511719"/>
     <use xlink:href="#DejaVuSans-74" x="277.294922"/>
     <use xlink:href="#DejaVuSans-65" x="316.503906"/>
     <use xlink:href="#DejaVuSans-72" x="378.027344"/>
     <use xlink:href="#DejaVuSans-6e" x="417.390625"/>
     <use xlink:href="#DejaVuSans-61" x="480.769531"/>
     <use xlink:href="#DejaVuSans-74" x="542.048828"/>
     <use xlink:href="#DejaVuSans-69" x="581.257812"/>
     <use xlink:href="#DejaVuSans-76" x="609.041016"/>
     <use xlink:href="#DejaVuSans-65" x="668.220703"/>
     <use xlink:href="#DejaVuSans-20" x="729.744141"/>
     <use xlink:href="#DejaVuSans-66" x="761.53125"/>
     <use xlink:href="#DejaVuSans-72" x="796.736328"/>
     <use xlink:href="#DejaVuSans-6f" x="835.599609"/>
     <use xlink:href="#DejaVuSans-6d" x="896.78125"/>
     <use xlink:href="#DejaVuSans-20" x="994.193359"/>
     <use xlink:href="#DejaVuSans-20" x="1025.980469"/>
     <use xlink:href="#DejaVuSans-20" x="1057.767578"/>
     <use xlink:href="#DejaVuSans-20" x="1089.554688"/>
     <use xlink:href="#DejaVuSans-20" x="1121.341797"/>
     <use xlink:href="#DejaVuSans-20" x="1153.128906"/>
     <use xlink:href="#DejaVuSans-20" x="1184.916016"/>
     <use xlink:href="#DejaVuSans-20" x="1216.703125"/>
     <use xlink:href="#DejaVuSans-20" x="1248.490234"/>
     <use xlink:href="#DejaVuSans-20" x="1280.277344"/>
     <use xlink:href="#DejaVuSans-20" x="1312.064453"/>
     <use xlink:href="#DejaVuSans-20" x="1343.851562"/>
     <use xlink:href="#DejaVuSans-20" x="1375.638672"/>
     <use xlink:href="#DejaVuSans-20" x="1407.425781"/>
     <use xlink:href="#DejaVuSans-20" x="1439.212891"/>
     <use xlink:href="#DejaVuSans-20" x="1471"/>
     <use xlink:href="#DejaVuSans-20" x="1502.787109"/>
     <use xlink:href="#DejaVuSans-20" x="1534.574219"/>
     <use xlink:href="#DejaVuSans-20" x="1566.361328"/>
     <use xlink:href="#DejaVuSans-66" x="1598.148438"/>
     <use xlink:href="#DejaVuSans-6f" x="1633.353516"/>
     <use xlink:href="#DejaVuSans-6f" x="1694.535156"/>
     <use xlink:href="#DejaVuSans-64" x="1755.716797"/>
     <use xlink:href="#DejaVuSans-20" x="1819.193359"/>
     <use xlink:href="#DejaVuSans-63" x="1850.980469"/>
     <use xlink:href="#DejaVuSans-61" x="1905.960938"/>
     <use xlink:href="#DejaVuSans-74" x="1967.240234"/>
     <use xlink:href="#DejaVuSans-65" x="2006.449219"/>
     <use xlink:href="#DejaVuSans-67" x="2067.972656"/>
     <use xlink:href="#DejaVuSans-6f" x="2131.449219"/>
     <use xlink:href="#DejaVuSans-72" x="2192.630859"/>
     <use xlink:href="#DejaVuSans-69" x="2233.744141"/>
     <use xlink:href="#DejaVuSans-65" x="2261.527344"/>
     <use xlink:href="#DejaVuSans-73" x="2323.050781"/>
     <use xlink:href="#DejaVuSans-20" x="2375.150391"/>
     <use xlink:href="#DejaVuSans-6b" x="2406.9375"/>
     <use xlink:href="#DejaVuSans-6e" x="2464.847656"/>
     <use xlink:href="#DejaVuSans-6f" x="2528.226562"/>
     <use xlink:href="#DejaVuSans-77" x="2589.408203"/>
     <use xlink:href="#DejaVuSans-6e" x="2671.195312"/>
     <use xlink:href="#DejaVuSans-20" x="2734.574219"/>
     <use xlink:href="#DejaVuSans-66" x="2766.361328"/>
     <use xlink:href="#DejaVuSans-6f" x="2801.566406"/>
     <use xlink:href="#DejaVuSans-72" x="2862.748047"/>
     <use xlink:href="#DejaVuSans-20" x="2903.861328"/>
    </g>
    <!--   lower GHG emissions. -->
    <g transform="translate(411.082031 480.41707) scale(0.075 -0.075)">
     <use xlink:href="#DejaVuSans-20"/>
     <use xlink:href="#DejaVuSans-20" x="31.787109"/>
     <use xlink:href="#DejaVuSans-6c" x="63.574219"/>
     <use xlink:href="#DejaVuSans-6f" x="91.357422"/>
     <use xlink:href="#DejaVuSans-77" x="152.539062"/>
     <use xlink:href="#DejaVuSans-65" x="234.326172"/>
     <use xlink:href="#DejaVuSans-72" x="295.849609"/>
     <use xlink:href="#DejaVuSans-20" x="336.962891"/>
     <use xlink:href="#DejaVuSans-47" x="368.75"/>
     <use xlink:href="#DejaVuSans-48" x="446.240234"/>
     <use xlink:href="#DejaVuSans-47" x="521.435547"/>
     <use xlink:href="#DejaVuSans-20" x="598.925781"/>
     <use xlink:href="#DejaVuSans-65" x="630.712891"/>
     <use xlink:href="#DejaVuSans-6d" x="692.236328"/>
     <use xlink:href="#DejaVuSans-69" x="789.648438"/>
     <use xlink:href="#DejaVuSans-73" x="817.431641"/>
     <use xlink:href="#DejaVuSans-73" x="869.53125"/>
     <use xlink:href="#DejaVuSans-69" x="921.630859"/>
     <use xlink:href="#DejaVuSans-6f" x="949.414062"/>
     <use xlink:href="#DejaVuSans-6e" x="1010.595703"/>
     <use xlink:href="#DejaVuSans-73" x="1073.974609"/>
     <use xlink:href="#DejaVuSans-2e" x="1126.074219"/>
    </g>
   </g>
   <g id="text_9">
    <!-- Evaluate how much GHG emission was -->
    <g transform="translate(361.884648 589.052445) scale(0.095 -0.095)">
     <use xlink:href="#DejaVuSans-45"/>
     <use xlink:href="#DejaVuSans-76" x="63.183594"/>
     <use xlink:href="#DejaVuSans-61" x="122.363281"/>
     <use xlink:href="#DejaVuSans-6c" x="183.642578"/>
     <use xlink:href="#DejaVuSans-75" x="211.425781"/>
     <use xlink:href="#DejaVuSans-61" x="274.804688"/>
     <use xlink:href="#DejaVuSans-74" x="336.083984"/>
     <use xlink:href="#DejaVuSans-65" x="375.292969"/>
     <use xlink:href="#DejaVuSans-20" x="436.816406"/>
     <use xlink:href="#DejaVuSans-68" x="468.603516"/>
     <use xlink:href="#DejaVuSans-6f" x="531.982422"/>
     <use xlink:href="#DejaVuSans-77" x="593.164062"/>
     <use xlink:href="#DejaVuSans-20" x="674.951172"/>
     <use xlink:href="#DejaVuSans-6d" x="706.738281"/>
     <use xlink:href="#DejaVuSans-75" x="804.150391"/>
     <use xlink:href="#DejaVuSans-63" x="867.529297"/>
     <use xlink:href="#DejaVuSans-68" x="922.509766"/>
     <use xlink:href="#DejaVuSans-20" x="985.888672"/>
     <use xlink:href="#DejaVuSans-47" x="1017.675781"/>
     <use xlink:href="#DejaVuSans-48" x="1095.166016"/>
     <use xlink:href="#DejaVuSans-47" x="1170.361328"/>
     <use xlink:href="#DejaVuSans-20" x="1247.851562"/>
     <use xlink:href="#DejaVuSans-65" x="1279.638672"/>
     <use xlink:href="#DejaVuSans-6d" x="1341.162109"/>
     <use xlink:href="#DejaVuSans-69" x="1438.574219"/>
     <use xlink:href="#DejaVuSans-73" x="1466.357422"/>
     <use xlink:href="#DejaVuSans-73" x="1518.457031"/>
     <use xlink:href="#DejaVuSans-69" x="1570.556641"/>
     <use xlink:href="#DejaVuSans-6f" x="1598.339844"/>
     <use xlink:href="#DejaVuSans-6e" x="1659.521484"/>
     <use xlink:href="#DejaVuSans-20" x="1722.900391"/>
     <use xlink:href="#DejaVuSans-77" x="1754.6875"/>
     <use xlink:href="#DejaVuSans-61" x="1836.474609"/>
     <use xlink:href="#DejaVuSans-73" x="1897.753906"/>
    </g>
    <!--  reduced by using an alternative ingredient. -->
    <g transform="translate(350.043789 599.690367) scale(0.095 -0.095)">
     <use xlink:href="#DejaVuSans-20"/>
     <use xlink:href="#DejaVuSans-72" x="31.787109"/>
     <use xlink:href="#DejaVuSans-65" x="70.650391"/>
     <use xlink:href="#DejaVuSans-64" x="132.173828"/>
     <use xlink:href="#DejaVuSans-75" x="195.650391"/>
     <use xlink:href="#DejaVuSans-63" x="259.029297"/>
     <use xlink:href="#DejaVuSans-65" x="314.009766"/>
     <use xlink:href="#DejaVuSans-64" x="375.533203"/>
     <use xlink:href="#DejaVuSans-20" x="439.009766"/>
     <use xlink:href="#DejaVuSans-62" x="470.796875"/>
     <use xlink:href="#DejaVuSans-79" x="534.273438"/>
     <use xlink:href="#DejaVuSans-20" x="593.453125"/>
     <use xlink:href="#DejaVuSans-75" x="625.240234"/>
     <use xlink:href="#DejaVuSans-73" x="688.619141"/>
     <use xlink:href="#DejaVuSans-69" x="740.71875"/>
     <use xlink:href="#DejaVuSans-6e" x="768.501953"/>
     <use xlink:href="#DejaVuSans-67" x="831.880859"/>
     <use xlink:href="#DejaVuSans-20" x="895.357422"/>
     <use xlink:href="#DejaVuSans-61" x="927.144531"/>
     <use xlink:href="#DejaVuSans-6e" x="988.423828"/>
     <use xlink:href="#DejaVuSans-20" x="1051.802734"/>
     <use xlink:href="#DejaVuSans-61" x="1083.589844"/>
     <use xlink:href="#DejaVuSans-6c" x="1144.869141"/>
     <use xlink:href="#DejaVuSans-74" x="1172.652344"/>
     <use xlink:href="#DejaVuSans-65" x="1211.861328"/>
     <use xlink:href="#DejaVuSans-72" x="1273.384766"/>
     <use xlink:href="#DejaVuSans-6e" x="1312.748047"/>
     <use xlink:href="#DejaVuSans-61" x="1376.126953"/>
     <use xlink:href="#DejaVuSans-74" x="1437.40625"/>
     <use xlink:href="#DejaVuSans-69" x="1476.615234"/>
     <use xlink:href="#DejaVuSans-76" x="1504.398438"/>
     <use xlink:href="#DejaVuSans-65" x="1563.578125"/>
     <use xlink:href="#DejaVuSans-20" x="1625.101562"/>
     <use xlink:href="#DejaVuSans-69" x="1656.888672"/>
     <use xlink:href="#DejaVuSans-6e" x="1684.671875"/>
     <use xlink:href="#DejaVuSans-67" x="1748.050781"/>
     <use xlink:href="#DejaVuSans-72" x="1811.527344"/>
     <use xlink:href="#DejaVuSans-65" x="1850.390625"/>
     <use xlink:href="#DejaVuSans-64" x="1911.914062"/>
     <use xlink:href="#DejaVuSans-69" x="1975.390625"/>
     <use xlink:href="#DejaVuSans-65" x="2003.173828"/>
     <use xlink:href="#DejaVuSans-6e" x="2064.697266"/>
     <use xlink:href="#DejaVuSans-74" x="2128.076172"/>
     <use xlink:href="#DejaVuSans-2e" x="2167.285156"/>
    </g>
   </g>
   <g id="text_10">
    <!-- Calculate the number of trees  -->
    <g transform="translate(381.827227 709.733484) scale(0.095 -0.095)">
     <defs>
      <path id="DejaVuSans-43" d="M 4122 4306 
L 4122 3641 
Q 3803 3938 3442 4084 
Q 3081 4231 2675 4231 
Q 1875 4231 1450 3742 
Q 1025 3253 1025 2328 
Q 1025 1406 1450 917 
Q 1875 428 2675 428 
Q 3081 428 3442 575 
Q 3803 722 4122 1019 
L 4122 359 
Q 3791 134 3420 21 
Q 3050 -91 2638 -91 
Q 1578 -91 968 557 
Q 359 1206 359 2328 
Q 359 3453 968 4101 
Q 1578 4750 2638 4750 
Q 3056 4750 3426 4639 
Q 3797 4528 4122 4306 
z
" transform="scale(0.015625)"/>
     </defs>
     <use xlink:href="#DejaVuSans-43"/>
     <use xlink:href="#DejaVuSans-61" x="69.824219"/>
     <use xlink:href="#DejaVuSans-6c" x="131.103516"/>
     <use xlink:href="#DejaVuSans-63" x="158.886719"/>
     <use xlink:href="#DejaVuSans-75" x="213.867188"/>
     <use xlink:href="#DejaVuSans-6c" x="277.246094"/>
     <use xlink:href="#DejaVuSans-61" x="305.029297"/>
     <use xlink:href="#DejaVuSans-74" x="366.308594"/>
     <use xlink:href="#DejaVuSans-65" x="405.517578"/>
     <use xlink:href="#DejaVuSans-20" x="467.041016"/>
     <use xlink:href="#DejaVuSans-74" x="498.828125"/>
     <use xlink:href="#DejaVuSans-68" x="538.037109"/>
     <use xlink:href="#DejaVuSans-65" x="601.416016"/>
     <use xlink:href="#DejaVuSans-20" x="662.939453"/>
     <use xlink:href="#DejaVuSans-6e" x="694.726562"/>
     <use xlink:href="#DejaVuSans-75" x="758.105469"/>
     <use xlink:href="#DejaVuSans-6d" x="821.484375"/>
     <use xlink:href="#DejaVuSans-62" x="918.896484"/>
     <use xlink:href="#DejaVuSans-65" x="982.373047"/>
     <use xlink:href="#DejaVuSans-72" x="1043.896484"/>
     <use xlink:href="#DejaVuSans-20" x="1085.009766"/>
     <use xlink:href="#DejaVuSans-6f" x="1116.796875"/>
     <use xlink:href="#DejaVuSans-66" x="1177.978516"/>
     <use xlink:href="#DejaVuSans-20" x="1213.183594"/>
     <use xlink:href="#DejaVuSans-74" x="1244.970703"/>
     <use xlink:href="#DejaVuSans-72" x="1284.179688"/>
     <use xlink:href="#DejaVuSans-65" x="1323.042969"/>
     <use xlink:href="#DejaVuSans-65" x="1384.566406"/>
     <use xlink:href="#DejaVuSans-73" x="1446.089844"/>
     <use xlink:href="#DejaVuSans-20" x="1498.189453"/>
    </g>
    <!--        preserved due to the decrease  -->
    <g transform="translate(369.362188 720.371406) scale(0.095 -0.095)">
     <use xlink:href="#DejaVuSans-20"/>
     <use xlink:href="#DejaVuSans-20" x="31.787109"/>
     <use xlink:href="#DejaVuSans-20" x="63.574219"/>
     <use xlink:href="#DejaVuSans-20" x="95.361328"/>
     <use xlink:href="#DejaVuSans-20" x="127.148438"/>
     <use xlink:href="#DejaVuSans-20" x="158.935547"/>
     <use xlink:href="#DejaVuSans-20" x="190.722656"/>
     <use xlink:href="#DejaVuSans-70" x="222.509766"/>
     <use xlink:href="#DejaVuSans-72" x="285.986328"/>
     <use xlink:href="#DejaVuSans-65" x="324.849609"/>
     <use xlink:href="#DejaVuSans-73" x="386.373047"/>
     <use xlink:href="#DejaVuSans-65" x="438.472656"/>
     <use xlink:href="#DejaVuSans-72" x="499.996094"/>
     <use xlink:href="#DejaVuSans-76" x="541.109375"/>
     <use xlink:href="#DejaVuSans-65" x="600.289062"/>
     <use xlink:href="#DejaVuSans-64" x="661.8125"/>
     <use xlink:href="#DejaVuSans-20" x="725.289062"/>
     <use xlink:href="#DejaVuSans-64" x="757.076172"/>
     <use xlink:href="#DejaVuSans-75" x="820.552734"/>
     <use xlink:href="#DejaVuSans-65" x="883.931641"/>
     <use xlink:href="#DejaVuSans-20" x="945.455078"/>
     <use xlink:href="#DejaVuSans-74" x="977.242188"/>
     <use xlink:href="#DejaVuSans-6f" x="1016.451172"/>
     <use xlink:href="#DejaVuSans-20" x="1077.632812"/>
     <use xlink:href="#DejaVuSans-74" x="1109.419922"/>
     <use xlink:href="#DejaVuSans-68" x="1148.628906"/>
     <use xlink:href="#DejaVuSans-65" x="1212.007812"/>
     <use xlink:href="#DejaVuSans-20" x="1273.53125"/>
     <use xlink:href="#DejaVuSans-64" x="1305.318359"/>
     <use xlink:href="#DejaVuSans-65" x="1368.794922"/>
     <use xlink:href="#DejaVuSans-63" x="1430.318359"/>
     <use xlink:href="#DejaVuSans-72" x="1485.298828"/>
     <use xlink:href="#DejaVuSans-65" x="1524.162109"/>
     <use xlink:href="#DejaVuSans-61" x="1585.685547"/>
     <use xlink:href="#DejaVuSans-73" x="1646.964844"/>
     <use xlink:href="#DejaVuSans-65" x="1699.064453"/>
     <use xlink:href="#DejaVuSans-20" x="1760.587891"/>
    </g>
    <!--        in greenhouse gas (GHG) emissions. -->
    <g transform="translate(357.444141 731.009328) scale(0.095 -0.095)">
     <use xlink:href="#DejaVuSans-20"/>
     <use xlink:href="#DejaVuSans-20" x="31.787109"/>
     <use xlink:href="#DejaVuSans-20" x="63.574219"/>
     <use xlink:href="#DejaVuSans-20" x="95.361328"/>
     <use xlink:href="#DejaVuSans-20" x="127.148438"/>
     <use xlink:href="#DejaVuSans-20" x="158.935547"/>
     <use xlink:href="#DejaVuSans-20" x="190.722656"/>
     <use xlink:href="#DejaVuSans-69" x="222.509766"/>
     <use xlink:href="#DejaVuSans-6e" x="250.292969"/>
     <use xlink:href="#DejaVuSans-20" x="313.671875"/>
     <use xlink:href="#DejaVuSans-67" x="345.458984"/>
     <use xlink:href="#DejaVuSans-72" x="408.935547"/>
     <use xlink:href="#DejaVuSans-65" x="447.798828"/>
     <use xlink:href="#DejaVuSans-65" x="509.322266"/>
     <use xlink:href="#DejaVuSans-6e" x="570.845703"/>
     <use xlink:href="#DejaVuSans-68" x="634.224609"/>
     <use xlink:href="#DejaVuSans-6f" x="697.603516"/>
     <use xlink:href="#DejaVuSans-75" x="758.785156"/>
     <use xlink:href="#DejaVuSans-73" x="822.164062"/>
     <use xlink:href="#DejaVuSans-65" x="874.263672"/>
     <use xlink:href="#DejaVuSans-20" x="935.787109"/>
     <use xlink:href="#DejaVuSans-67" x="967.574219"/>
     <use xlink:href="#DejaVuSans-61" x="1031.050781"/>
     <use xlink:href="#DejaVuSans-73" x="1092.330078"/>
     <use xlink:href="#DejaVuSans-20" x="1144.429688"/>
     <use xlink:href="#DejaVuSans-28" x="1176.216797"/>
     <use xlink:href="#DejaVuSans-47" x="1215.230469"/>
     <use xlink:href="#DejaVuSans-48" x="1292.720703"/>
     <use xlink:href="#DejaVuSans-47" x="1367.916016"/>
     <use xlink:href="#DejaVuSans-29" x="1445.40625"/>
     <use xlink:href="#DejaVuSans-20" x="1484.419922"/>
     <use xlink:href="#DejaVuSans-65" x="1516.207031"/>
     <use xlink:href="#DejaVuSans-6d" x="1577.730469"/>
     <use xlink:href="#DejaVuSans-69" x="1675.142578"/>
     <use xlink:href="#DejaVuSans-73" x="1702.925781"/>
     <use xlink:href="#DejaVuSans-73" x="1755.025391"/>
     <use xlink:href="#DejaVuSans-69" x="1807.125"/>
     <use xlink:href="#DejaVuSans-6f" x="1834.908203"/>
     <use xlink:href="#DejaVuSans-6e" x="1896.089844"/>
     <use xlink:href="#DejaVuSans-73" x="1959.46875"/>
     <use xlink:href="#DejaVuSans-2e" x="2011.568359"/>
    </g>
   </g>
   <g id="text_11">
    <!-- NO -->
    <g transform="translate(459.18 947.928047) scale(0.125 -0.125)">
     <use xlink:href="#DejaVuSans-4e"/>
     <use xlink:href="#DejaVuSans-4f" x="74.804688"/>
    </g>
   </g>
   <g id="text_12">
    <!-- YES -->
    <g transform="translate(549.18 863.470391) scale(0.125 -0.125)">
     <use xlink:href="#DejaVuSans-59"/>
     <use xlink:href="#DejaVuSans-45" x="61.083984"/>
     <use xlink:href="#DejaVuSans-53" x="124.267578"/>
    </g>
   </g>
   <g id="text_13">
    <!-- Does the user want the  -->
    <g transform="translate(397.372344 868.052445) scale(0.095 -0.095)">
     <defs>
      <path id="DejaVuSans-44" d="M 1259 4147 
L 1259 519 
L 2022 519 
Q 2988 519 3436 956 
Q 3884 1394 3884 2338 
Q 3884 3275 3436 3711 
Q 2988 4147 2022 4147 
L 1259 4147 
z
M 628 4666 
L 1925 4666 
Q 3281 4666 3915 4102 
Q 4550 3538 4550 2338 
Q 4550 1131 3912 565 
Q 3275 0 1925 0 
L 628 0 
L 628 4666 
z
" transform="scale(0.015625)"/>
     </defs>
     <use xlink:href="#DejaVuSans-44"/>
     <use xlink:href="#DejaVuSans-6f" x="77.001953"/>
     <use xlink:href="#DejaVuSans-65" x="138.183594"/>
     <use xlink:href="#DejaVuSans-73" x="199.707031"/>
     <use xlink:href="#DejaVuSans-20" x="251.806641"/>
     <use xlink:href="#DejaVuSans-74" x="283.59375"/>
     <use xlink:href="#DejaVuSans-68" x="322.802734"/>
     <use xlink:href="#DejaVuSans-65" x="386.181641"/>
     <use xlink:href="#DejaVuSans-20" x="447.705078"/>
     <use xlink:href="#DejaVuSans-75" x="479.492188"/>
     <use xlink:href="#DejaVuSans-73" x="542.871094"/>
     <use xlink:href="#DejaVuSans-65" x="594.970703"/>
     <use xlink:href="#DejaVuSans-72" x="656.494141"/>
     <use xlink:href="#DejaVuSans-20" x="697.607422"/>
     <use xlink:href="#DejaVuSans-77" x="729.394531"/>
     <use xlink:href="#DejaVuSans-61" x="811.181641"/>
     <use xlink:href="#DejaVuSans-6e" x="872.460938"/>
     <use xlink:href="#DejaVuSans-74" x="935.839844"/>
     <use xlink:href="#DejaVuSans-20" x="975.048828"/>
     <use xlink:href="#DejaVuSans-74" x="1006.835938"/>
     <use xlink:href="#DejaVuSans-68" x="1046.044922"/>
     <use xlink:href="#DejaVuSans-65" x="1109.423828"/>
     <use xlink:href="#DejaVuSans-20" x="1170.947266"/>
    </g>
    <!--  new recipe to be emailed? -->
    <g transform="translate(390.230273 878.690367) scale(0.095 -0.095)">
     <use xlink:href="#DejaVuSans-20"/>
     <use xlink:href="#DejaVuSans-6e" x="31.787109"/>
     <use xlink:href="#DejaVuSans-65" x="95.166016"/>
     <use xlink:href="#DejaVuSans-77" x="156.689453"/>
     <use xlink:href="#DejaVuSans-20" x="238.476562"/>
     <use xlink:href="#DejaVuSans-72" x="270.263672"/>
     <use xlink:href="#DejaVuSans-65" x="309.126953"/>
     <use xlink:href="#DejaVuSans-63" x="370.650391"/>
     <use xlink:href="#DejaVuSans-69" x="425.630859"/>
     <use xlink:href="#DejaVuSans-70" x="453.414062"/>
     <use xlink:href="#DejaVuSans-65" x="516.890625"/>
     <use xlink:href="#DejaVuSans-20" x="578.414062"/>
     <use xlink:href="#DejaVuSans-74" x="610.201172"/>
     <use xlink:href="#DejaVuSans-6f" x="649.410156"/>
     <use xlink:href="#DejaVuSans-20" x="710.591797"/>
     <use xlink:href="#DejaVuSans-62" x="742.378906"/>
     <use xlink:href="#DejaVuSans-65" x="805.855469"/>
     <use xlink:href="#DejaVuSans-20" x="867.378906"/>
     <use xlink:href="#DejaVuSans-65" x="899.166016"/>
     <use xlink:href="#DejaVuSans-6d" x="960.689453"/>
     <use xlink:href="#DejaVuSans-61" x="1058.101562"/>
     <use xlink:href="#DejaVuSans-69" x="1119.380859"/>
     <use xlink:href="#DejaVuSans-6c" x="1147.164062"/>
     <use xlink:href="#DejaVuSans-65" x="1174.947266"/>
     <use xlink:href="#DejaVuSans-64" x="1236.470703"/>
     <use xlink:href="#DejaVuSans-3f" x="1299.947266"/>
    </g>
   </g>
   <g id="text_14">
    <!-- Email the user the new recipe -->
    <g transform="translate(617.367266 873.371406) scale(0.095 -0.095)">
     <use xlink:href="#DejaVuSans-45"/>
     <use xlink:href="#DejaVuSans-6d" x="63.183594"/>
     <use xlink:href="#DejaVuSans-61" x="160.595703"/>
     <use xlink:href="#DejaVuSans-69" x="221.875"/>
     <use xlink:href="#DejaVuSans-6c" x="249.658203"/>
     <use xlink:href="#DejaVuSans-20" x="277.441406"/>
     <use xlink:href="#DejaVuSans-74" x="309.228516"/>
     <use xlink:href="#DejaVuSans-68" x="348.4375"/>
     <use xlink:href="#DejaVuSans-65" x="411.816406"/>
     <use xlink:href="#DejaVuSans-20" x="473.339844"/>
     <use xlink:href="#DejaVuSans-75" x="505.126953"/>
     <use xlink:href="#DejaVuSans-73" x="568.505859"/>
     <use xlink:href="#DejaVuSans-65" x="620.605469"/>
     <use xlink:href="#DejaVuSans-72" x="682.128906"/>
     <use xlink:href="#DejaVuSans-20" x="723.242188"/>
     <use xlink:href="#DejaVuSans-74" x="755.029297"/>
     <use xlink:href="#DejaVuSans-68" x="794.238281"/>
     <use xlink:href="#DejaVuSans-65" x="857.617188"/>
     <use xlink:href="#DejaVuSans-20" x="919.140625"/>
     <use xlink:href="#DejaVuSans-6e" x="950.927734"/>
     <use xlink:href="#DejaVuSans-65" x="1014.306641"/>
     <use xlink:href="#DejaVuSans-77" x="1075.830078"/>
     <use xlink:href="#DejaVuSans-20" x="1157.617188"/>
     <use xlink:href="#DejaVuSans-72" x="1189.404297"/>
     <use xlink:href="#DejaVuSans-65" x="1228.267578"/>
     <use xlink:href="#DejaVuSans-63" x="1289.791016"/>
     <use xlink:href="#DejaVuSans-69" x="1344.771484"/>
     <use xlink:href="#DejaVuSans-70" x="1372.554688"/>
     <use xlink:href="#DejaVuSans-65" x="1436.03125"/>
    </g>
   </g>
  </g>
 </g>
 <defs>
  <clipPath id="p331d3ed6f3">
   <rect x="3.6" y="3.6" width="811.8" height="1059.3"/>
  </clipPath>
 </defs>
</svg>