<?xml version="1.0" encoding="utf-8" standalone="no"?>
<!DOCTYPE svg PUBLIC "-//W3C//DTD SVG 1.1//EN"
  "http://www.w3.org/Graphics/SVG/1.1/DTD/svg11.dtd">
<svg xmlns:xlink="http://www.w3.org/1999/xlink" width="270.693714pt" height="749.679654pt" viewBox="0 0 270.693714 749.679654" xmlns="http://www.w3.org/2000/svg" version="1.1">
 <metadata>
  <rdf:RDF xmlns:dc="http://purl.org/dc/elements/1.1/" xmlns:cc="http://creativecommons.org/ns#" xmlns:rdf="http://www.w3.org/1999/02/22-rdf-syntax-ns#">
   <cc:Work>
    <dc:type rdf:resource="http://purl.org/dc/dcmitype/StillImage"/>
    <dc:date>2024-01-01T02:42:04.694960</dc:date>
    <dc:format>image/svg+xml</dc:format>
    <dc:creator>
     <cc:Agent>
      <dc:title>Matplotlib v3.8.2, https://matplotlib.org/</dc:title>
     </cc:Agent>
    </dc:creator>
   </cc:Work>
  </rdf:RDF>
 </metadata>
 <defs>
  <style type="text/css">*{stroke-linejoin: round; stroke-linecap: butt}</style>
 </defs>
 <g id="figure_1">
  <g id="patch_1">
   <path d="M 0 749.679654 
L 270.693714 749.679654 
L 270.693714 0 
L 0 0 
z
" style="fill: #ffffff"/>
  </g>
  <g id="axes_1">
   <g id="patch_2">
    <path d="M 225.139977 82.349075 
L 225.496961 82.346243 
L 225.853856 82.337747 
L 226.21057 82.32359 
L 226.567015 82.303775 
L 226.923101 82.278308 
L 227.278738 82.247193 
L 227.633837 82.210441 
L 227.988307 82.168058 
L 228.342061 82.120058 
L 228.695009 82.06645 
L 229.047061 82.00725 
L 229.39813 81.942471 
L 229.748127 81.87213 
L 230.096964 81.796245 
L 230.444553 81.714835 
L 230.790807 81.627921 
L 231.135638 81.535524 
L 231.47896 81.437667 
L 231.820686 81.334376 
L 232.16073 81.225675 
L 232.499006 81.111594 
L 232.83543 80.992159 
L 233.169917 80.867402 
L 233.502382 80.737354 
L 233.832742 80.602047 
L 234.160914 80.461515 
L 234.486815 80.315795 
L 234.810363 80.164922 
L 235.131476 80.008935 
L 235.450074 79.847873 
L 235.766076 79.681776 
L 236.079404 79.510686 
L 236.389977 79.334647 
L 236.697718 79.153702 
L 237.00255 78.967897 
L 237.304396 78.77728 
L 237.603179 78.581897 
L 237.898824 78.381798 
L 238.191258 78.177034 
L 238.480406 77.967656 
L 238.766195 77.753717 
L 239.048554 77.53527 
L 239.327412 77.312371 
L 239.602698 77.085075 
L 239.874344 76.853441 
L 240.14228 76.617525 
L 240.406439 76.377389 
L 240.666755 76.133091 
L 240.923162 75.884694 
L 241.175596 75.63226 
L 241.423993 75.375853 
L 241.668291 75.115537 
L 241.908427 74.851378 
L 242.144343 74.583442 
L 242.375977 74.311796 
L 242.603273 74.03651 
L 242.826172 73.757652 
L 243.044619 73.475293 
L 243.258558 73.189504 
L 243.467936 72.900356 
L 243.6727 72.607922 
L 243.872799 72.312277 
L 244.068182 72.013494 
L 244.258799 71.711648 
L 244.444604 71.406816 
L 244.625549 71.099075 
L 244.801588 70.788502 
L 244.972678 70.475174 
L 245.138775 70.159172 
L 245.299837 69.840574 
L 245.455824 69.519461 
L 245.606697 69.195913 
L 245.752417 68.870012 
L 245.892949 68.541841 
L 246.028256 68.21148 
L 246.158304 67.879015 
L 246.283061 67.544528 
L 246.402496 67.208104 
L 246.516577 66.869828 
L 246.625278 66.529784 
L 246.728569 66.188058 
L 246.826426 65.844736 
L 246.918823 65.499905 
L 247.005737 65.153651 
L 247.087147 64.806062 
L 247.163032 64.457225 
L 247.233373 64.107228 
L 247.298152 63.756159 
L 247.357352 63.404107 
L 247.41096 63.051159 
L 247.45896 62.697405 
L 247.501343 62.342935 
L 247.538095 61.987836 
L 247.56921 61.632199 
L 247.594677 61.276113 
L 247.614492 60.919668 
L 247.628649 60.562954 
L 247.637145 60.206059 
L 247.639977 59.849075 
L 247.639977 59.849075 
L 247.637145 59.492091 
L 247.628649 59.135197 
L 247.614492 58.778482 
L 247.594677 58.422037 
L 247.56921 58.065951 
L 247.538095 57.710314 
L 247.501343 57.355216 
L 247.45896 57.000745 
L 247.41096 56.646991 
L 247.357352 56.294044 
L 247.298152 55.941991 
L 247.233373 55.590922 
L 247.163032 55.240925 
L 247.087147 54.892088 
L 247.005737 54.544499 
L 246.918823 54.198245 
L 246.826426 53.853414 
L 246.728569 53.510093 
L 246.625278 53.168367 
L 246.516577 52.828323 
L 246.402496 52.490046 
L 246.283061 52.153622 
L 246.158304 51.819135 
L 246.028256 51.48667 
L 245.892949 51.15631 
L 245.752417 50.828138 
L 245.606697 50.502237 
L 245.455824 50.17869 
L 245.299837 49.857576 
L 245.138775 49.538978 
L 244.972678 49.222976 
L 244.801588 48.909649 
L 244.625549 48.599075 
L 244.444604 48.291334 
L 244.258799 47.986502 
L 244.068182 47.684657 
L 243.872799 47.385874 
L 243.6727 47.090228 
L 243.467936 46.797795 
L 243.258558 46.508647 
L 243.044619 46.222857 
L 242.826172 45.940498 
L 242.603273 45.66164 
L 242.375977 45.386354 
L 242.144343 45.114709 
L 241.908427 44.846773 
L 241.668291 44.582613 
L 241.423993 44.322297 
L 241.175596 44.06589 
L 240.923162 43.813456 
L 240.666755 43.565059 
L 240.406439 43.320762 
L 240.14228 43.080625 
L 239.874344 42.84471 
L 239.602698 42.613075 
L 239.327412 42.38578 
L 239.048554 42.162881 
L 238.766195 41.944434 
L 238.480406 41.730494 
L 238.191258 41.521116 
L 237.898824 41.316352 
L 237.603179 41.116253 
L 237.304396 40.920871 
L 237.00255 40.730253 
L 236.697718 40.544448 
L 236.389977 40.363504 
L 236.079404 40.187464 
L 235.766076 40.016375 
L 235.450074 39.850278 
L 235.131476 39.689215 
L 234.810363 39.533228 
L 234.486815 39.382355 
L 234.160914 39.236635 
L 233.832742 39.096104 
L 233.502382 38.960797 
L 233.169917 38.830748 
L 232.83543 38.705991 
L 232.499006 38.586557 
L 232.16073 38.472475 
L 231.820686 38.363775 
L 231.47896 38.260483 
L 231.135638 38.162627 
L 230.790807 38.070229 
L 230.444553 37.983315 
L 230.096964 37.901905 
L 229.748127 37.82602 
L 229.39813 37.75568 
L 229.047061 37.690901 
L 228.695009 37.6317 
L 228.342061 37.578093 
L 227.988307 37.530092 
L 227.633837 37.48771 
L 227.278738 37.450957 
L 226.923101 37.419843 
L 226.567015 37.394375 
L 226.21057 37.37456 
L 225.853856 37.360403 
L 225.496961 37.351907 
L 225.139977 37.349075 
L 69.093477 37.349075 
L 68.736493 37.351907 
L 68.379599 37.360403 
L 68.022884 37.37456 
L 67.666439 37.394375 
L 67.310353 37.419843 
L 66.954716 37.450957 
L 66.599618 37.48771 
L 66.245147 37.530092 
L 65.891393 37.578093 
L 65.538446 37.6317 
L 65.186393 37.690901 
L 64.835324 37.75568 
L 64.485327 37.82602 
L 64.13649 37.901905 
L 63.788901 37.983315 
L 63.442647 38.070229 
L 63.097816 38.162627 
L 62.754495 38.260483 
L 62.412769 38.363775 
L 62.072725 38.472475 
L 61.734448 38.586557 
L 61.398024 38.705991 
L 61.063537 38.830748 
L 60.731072 38.960797 
L 60.400712 39.096104 
L 60.07254 39.236635 
L 59.746639 39.382355 
L 59.423092 39.533228 
L 59.101978 39.689215 
L 58.78338 39.850278 
L 58.467378 40.016375 
L 58.154051 40.187464 
L 57.843477 40.363504 
L 57.535736 40.544448 
L 57.230904 40.730253 
L 56.929059 40.920871 
L 56.630276 41.116253 
L 56.33463 41.316352 
L 56.042197 41.521116 
L 55.753049 41.730494 
L 55.467259 41.944434 
L 55.1849 42.162881 
L 54.906042 42.38578 
L 54.630756 42.613075 
L 54.359111 42.84471 
L 54.091175 43.080625 
L 53.827015 43.320762 
L 53.566699 43.565059 
L 53.310292 43.813456 
L 53.057858 44.06589 
L 52.809461 44.322297 
L 52.565164 44.582613 
L 52.325027 44.846773 
L 52.089112 45.114709 
L 51.857477 45.386354 
L 51.630182 45.66164 
L 51.407283 45.940498 
L 51.188836 46.222857 
L 50.974896 46.508647 
L 50.765518 46.797795 
L 50.560754 47.090228 
L 50.360655 47.385874 
L 50.165273 47.684657 
L 49.974655 47.986502 
L 49.78885 48.291334 
L 49.607906 48.599075 
L 49.431866 48.909649 
L 49.260776 49.222976 
L 49.09468 49.538978 
L 48.933617 49.857576 
L 48.77763 50.17869 
L 48.626757 50.502237 
L 48.481037 50.828138 
L 48.340506 51.15631 
L 48.205199 51.48667 
L 48.07515 51.819135 
L 47.950393 52.153622 
L 47.830959 52.490046 
L 47.716877 52.828323 
L 47.608177 53.168367 
L 47.504885 53.510093 
L 47.407029 53.853414 
L 47.314631 54.198245 
L 47.227717 54.544499 
L 47.146307 54.892088 
L 47.070422 55.240925 
L 47.000081 55.590922 
L 46.935303 55.941991 
L 46.876102 56.294044 
L 46.822495 56.646991 
L 46.774494 57.000745 
L 46.732112 57.355216 
L 46.695359 57.710314 
L 46.664245 58.065951 
L 46.638777 58.422037 
L 46.618962 58.778482 
L 46.604805 59.135197 
L 46.596309 59.492091 
L 46.593477 59.849075 
L 46.593477 59.849075 
L 46.596309 60.206059 
L 46.604805 60.562954 
L 46.618962 60.919668 
L 46.638777 61.276113 
L 46.664245 61.632199 
L 46.695359 61.987836 
L 46.732112 62.342935 
L 46.774494 62.697405 
L 46.822495 63.051159 
L 46.876102 63.404107 
L 46.935303 63.756159 
L 47.000081 64.107228 
L 47.070422 64.457225 
L 47.146307 64.806062 
L 47.227717 65.153651 
L 47.314631 65.499905 
L 47.407029 65.844736 
L 47.504885 66.188058 
L 47.608177 66.529784 
L 47.716877 66.869828 
L 47.830959 67.208104 
L 47.950393 67.544528 
L 48.07515 67.879015 
L 48.205199 68.21148 
L 48.340506 68.541841 
L 48.481037 68.870012 
L 48.626757 69.195913 
L 48.77763 69.519461 
L 48.933617 69.840574 
L 49.09468 70.159172 
L 49.260776 70.475174 
L 49.431866 70.788502 
L 49.607906 71.099075 
L 49.78885 71.406816 
L 49.974655 71.711648 
L 50.165273 72.013494 
L 50.360655 72.312277 
L 50.560754 72.607922 
L 50.765518 72.900356 
L 50.974896 73.189504 
L 51.188836 73.475293 
L 51.407283 73.757652 
L 51.630182 74.03651 
L 51.857477 74.311796 
L 52.089112 74.583442 
L 52.325027 74.851378 
L 52.565164 75.115537 
L 52.809461 75.375853 
L 53.057858 75.63226 
L 53.310292 75.884694 
L 53.566699 76.133091 
L 53.827015 76.377389 
L 54.091175 76.617525 
L 54.359111 76.853441 
L 54.630756 77.085075 
L 54.906042 77.312371 
L 55.1849 77.53527 
L 55.467259 77.753717 
L 55.753049 77.967656 
L 56.042197 78.177034 
L 56.33463 78.381798 
L 56.630276 78.581897 
L 56.929059 78.77728 
L 57.230904 78.967897 
L 57.535736 79.153702 
L 57.843477 79.334647 
L 58.154051 79.510686 
L 58.467378 79.681776 
L 58.78338 79.847873 
L 59.101978 80.008935 
L 59.423092 80.164922 
L 59.746639 80.315795 
L 60.07254 80.461515 
L 60.400712 80.602047 
L 60.731072 80.737354 
L 61.063537 80.867402 
L 61.398024 80.992159 
L 61.734448 81.111594 
L 62.072725 81.225675 
L 62.412769 81.334376 
L 62.754495 81.437667 
L 63.097816 81.535524 
L 63.442647 81.627921 
L 63.788901 81.714835 
L 64.13649 81.796245 
L 64.485327 81.87213 
L 64.835324 81.942471 
L 65.186393 82.00725 
L 65.538446 82.06645 
L 65.891393 82.120058 
L 66.245147 82.168058 
L 66.599618 82.210441 
L 66.954716 82.247193 
L 67.310353 82.278308 
L 67.666439 82.303775 
L 68.022884 82.32359 
L 68.379599 82.337747 
L 68.736493 82.346243 
L 69.093477 82.349075 
L 225.139977 82.349075 
z
" clip-path="url(#p28af0a4ec6)" style="fill: none; stroke: #000000; stroke-width: 2; stroke-linecap: round"/>
   </g>
   <g id="patch_3">
    <path d="M 30.116727 172.349075 
L 39.116727 136.349075 
L 255.116727 136.349075 
L 237.116727 208.349075 
L 21.116727 208.349075 
L 30.116727 172.349075 
z
" clip-path="url(#p28af0a4ec6)" style="fill: none; stroke: #000000; stroke-width: 2; stroke-linecap: round"/>
   </g>
   <g id="line2d_1">
    <path d="M 147.116727 82.349075 
L 147.116727 109.349075 
L 147.116727 127.349075 
" clip-path="url(#p28af0a4ec6)" style="fill: none; stroke: #000000; stroke-width: 2; stroke-linecap: round"/>
   </g>
   <g id="patch_4">
    <path d="M 149.816727 127.349075 
L 147.116727 136.349075 
L 144.416727 127.349075 
z
" clip-path="url(#p28af0a4ec6)"/>
   </g>
   <g id="line2d_2">
    <path d="M 129.116727 208.349075 
L 129.116727 235.349075 
L 129.116727 253.349075 
" clip-path="url(#p28af0a4ec6)" style="fill: none; stroke: #000000; stroke-width: 2; stroke-linecap: round"/>
   </g>
   <g id="patch_5">
    <path d="M 131.816727 253.349075 
L 129.116727 262.349075 
L 126.416727 253.349075 
z
" clip-path="url(#p28af0a4ec6)"/>
   </g>
   <g id="line2d_3">
    <path d="M 21.116727 298.349075 
L 21.116727 262.349075 
L 237.116727 262.349075 
L 237.116727 334.349075 
L 21.116727 334.349075 
L 21.116727 298.349075 
" clip-path="url(#p28af0a4ec6)" style="fill: none; stroke: #000000; stroke-width: 2; stroke-linecap: round"/>
   </g>
   <g id="line2d_4">
    <path d="M 129.116727 334.349075 
L 129.116727 361.349075 
L 129.116727 379.349075 
" clip-path="url(#p28af0a4ec6)" style="fill: none; stroke: #000000; stroke-width: 2; stroke-linecap: round"/>
   </g>
   <g id="patch_6">
    <path d="M 131.816727 379.349075 
L 129.116727 388.349075 
L 126.416727 379.349075 
z
" clip-path="url(#p28af0a4ec6)"/>
   </g>
   <g id="line2d_5">
    <path d="M 21.116727 424.349075 
L 21.116727 388.349075 
L 237.116727 388.349075 
L 237.116727 460.349075 
L 21.116727 460.349075 
L 21.116727 424.349075 
" clip-path="url(#p28af0a4ec6)" style="fill: none; stroke: #000000; stroke-width: 2; stroke-linecap: round"/>
   </g>
   <g id="line2d_6">
    <path d="M 129.116727 460.349075 
L 129.116727 487.349075 
L 129.116727 505.349075 
" clip-path="url(#p28af0a4ec6)" style="fill: none; stroke: #000000; stroke-width: 2; stroke-linecap: round"/>
   </g>
   <g id="patch_7">
    <path d="M 131.816727 505.349075 
L 129.116727 514.349075 
L 126.416727 505.349075 
z
" clip-path="url(#p28af0a4ec6)"/>
   </g>
   <g id="line2d_7">
    <path d="M 21.116727 550.349075 
L 21.116727 514.349075 
L 237.116727 514.349075 
L 237.116727 586.349075 
L 21.116727 586.349075 
L 21.116727 550.349075 
" clip-path="url(#p28af0a4ec6)" style="fill: none; stroke: #000000; stroke-width: 2; stroke-linecap: round"/>
   </g>
   <g id="line2d_8">
    <path d="M 129.116727 586.349075 
L 129.116727 613.349075 
L 129.116727 631.349075 
" clip-path="url(#p28af0a4ec6)" style="fill: none; stroke: #000000; stroke-width: 2; stroke-linecap: round"/>
   </g>
   <g id="patch_8">
    <path d="M 131.816727 631.349075 
L 129.116727 640.349075 
L 126.416727 631.349075 
z
" clip-path="url(#p28af0a4ec6)"/>
   </g>
   <g id="line2d_9">
    <path d="M 242.890227 676.349075 
L 241.956148 671.745497 
L 239.169249 667.21751 
L 234.575291 662.839463 
L 228.249706 658.683243 
L 220.29636 654.817096 
L 210.845847 651.304503 
L 200.053344 648.203142 
L 188.096064 645.563936 
L 175.170345 643.430221 
L 161.488427 641.837032 
L 147.274966 640.810531 
L 132.763347 640.367571 
L 118.191851 640.515427 
L 103.799742 641.25167 
L 89.823336 642.564212 
L 76.492127 644.4315 
L 64.025012 646.822874 
L 52.626702 649.699067 
L 42.484355 653.012853 
L 33.76451 656.709819 
L 26.610346 660.729261 
L 21.139333 665.005179 
L 17.441306 669.467365 
L 15.576987 674.042547 
L 15.576987 678.655603 
L 17.441306 683.230786 
L 21.139333 687.692971 
L 26.610346 691.96889 
L 33.76451 695.988332 
L 42.484355 699.685297 
L 52.626702 702.999083 
L 64.025012 705.875276 
L 76.492127 708.26665 
L 89.823336 710.133938 
L 103.799742 711.44648 
L 118.191851 712.182723 
L 132.763347 712.330579 
L 147.274966 711.887619 
L 161.488427 710.861118 
L 175.170345 709.26793 
L 188.096064 707.134215 
L 200.053344 704.495009 
L 210.845847 701.393647 
L 220.29636 697.881054 
L 228.249706 694.014907 
L 234.575291 689.858687 
L 239.169249 685.48064 
L 241.956148 680.952653 
L 242.890227 676.349075 
" clip-path="url(#p28af0a4ec6)" style="fill: none; stroke: #000000; stroke-width: 2; stroke-linecap: round"/>
   </g>
   <g id="text_1">
    <!-- Data Preprocessing: Start -->
    <g transform="translate(67.234891 63.298294) scale(0.125 -0.125)">
     <defs>
      <path id="DejaVuSans-44" d="M 1259 4147 
L 1259 519 
L 2022 519 
Q 2988 519 3436 956 
Q 3884 1394 3884 2338 
Q 3884 3275 3436 3711 
Q 2988 4147 2022 4147 
L 1259 4147 
z
M 628 4666 
L 1925 4666 
Q 3281 4666 3915 4102 
Q 4550 3538 4550 2338 
Q 4550 1131 3912 565 
Q 3275 0 1925 0 
L 628 0 
L 628 4666 
z
" transform="scale(0.015625)"/>
      <path id="DejaVuSans-61" d="M 2194 1759 
Q 1497 1759 1228 1600 
Q 959 1441 959 1056 
Q 959 750 1161 570 
Q 1363 391 1709 391 
Q 2188 391 2477 730 
Q 2766 1069 2766 1631 
L 2766 1759 
L 2194 1759 
z
M 3341 1997 
L 3341 0 
L 2766 0 
L 2766 531 
Q 2569 213 2275 61 
Q 1981 -91 1556 -91 
Q 1019 -91 701 211 
Q 384 513 384 1019 
Q 384 1609 779 1909 
Q 1175 2209 1959 2209 
L 2766 2209 
L 2766 2266 
Q 2766 2663 2505 2880 
Q 2244 3097 1772 3097 
Q 1472 3097 1187 3025 
Q 903 2953 641 2809 
L 641 3341 
Q 956 3463 1253 3523 
Q 1550 3584 1831 3584 
Q 2591 3584 2966 3190 
Q 3341 2797 3341 1997 
z
" transform="scale(0.015625)"/>
      <path id="DejaVuSans-74" d="M 1172 4494 
L 1172 3500 
L 2356 3500 
L 2356 3053 
L 1172 3053 
L 1172 1153 
Q 1172 725 1289 603 
Q 1406 481 1766 481 
L 2356 481 
L 2356 0 
L 1766 0 
Q 1100 0 847 248 
Q 594 497 594 1153 
L 594 3053 
L 172 3053 
L 172 3500 
L 594 3500 
L 594 4494 
L 1172 4494 
z
" transform="scale(0.015625)"/>
      <path id="DejaVuSans-20" transform="scale(0.015625)"/>
      <path id="DejaVuSans-50" d="M 1259 4147 
L 1259 2394 
L 2053 2394 
Q 2494 2394 2734 2622 
Q 2975 2850 2975 3272 
Q 2975 3691 2734 3919 
Q 2494 4147 2053 4147 
L 1259 4147 
z
M 628 4666 
L 2053 4666 
Q 2838 4666 3239 4311 
Q 3641 3956 3641 3272 
Q 3641 2581 3239 2228 
Q 2838 1875 2053 1875 
L 1259 1875 
L 1259 0 
L 628 0 
L 628 4666 
z
" transform="scale(0.015625)"/>
      <path id="DejaVuSans-72" d="M 2631 2963 
Q 2534 3019 2420 3045 
Q 2306 3072 2169 3072 
Q 1681 3072 1420 2755 
Q 1159 2438 1159 1844 
L 1159 0 
L 581 0 
L 581 3500 
L 1159 3500 
L 1159 2956 
Q 1341 3275 1631 3429 
Q 1922 3584 2338 3584 
Q 2397 3584 2469 3576 
Q 2541 3569 2628 3553 
L 2631 2963 
z
" transform="scale(0.015625)"/>
      <path id="DejaVuSans-65" d="M 3597 1894 
L 3597 1613 
L 953 1613 
Q 991 1019 1311 708 
Q 1631 397 2203 397 
Q 2534 397 2845 478 
Q 3156 559 3463 722 
L 3463 178 
Q 3153 47 2828 -22 
Q 2503 -91 2169 -91 
Q 1331 -91 842 396 
Q 353 884 353 1716 
Q 353 2575 817 3079 
Q 1281 3584 2069 3584 
Q 2775 3584 3186 3129 
Q 3597 2675 3597 1894 
z
M 3022 2063 
Q 3016 2534 2758 2815 
Q 2500 3097 2075 3097 
Q 1594 3097 1305 2825 
Q 1016 2553 972 2059 
L 3022 2063 
z
" transform="scale(0.015625)"/>
      <path id="DejaVuSans-70" d="M 1159 525 
L 1159 -1331 
L 581 -1331 
L 581 3500 
L 1159 3500 
L 1159 2969 
Q 1341 3281 1617 3432 
Q 1894 3584 2278 3584 
Q 2916 3584 3314 3078 
Q 3713 2572 3713 1747 
Q 3713 922 3314 415 
Q 2916 -91 2278 -91 
Q 1894 -91 1617 61 
Q 1341 213 1159 525 
z
M 3116 1747 
Q 3116 2381 2855 2742 
Q 2594 3103 2138 3103 
Q 1681 3103 1420 2742 
Q 1159 2381 1159 1747 
Q 1159 1113 1420 752 
Q 1681 391 2138 391 
Q 2594 391 2855 752 
Q 3116 1113 3116 1747 
z
" transform="scale(0.015625)"/>
      <path id="DejaVuSans-6f" d="M 1959 3097 
Q 1497 3097 1228 2736 
Q 959 2375 959 1747 
Q 959 1119 1226 758 
Q 1494 397 1959 397 
Q 2419 397 2687 759 
Q 2956 1122 2956 1747 
Q 2956 2369 2687 2733 
Q 2419 3097 1959 3097 
z
M 1959 3584 
Q 2709 3584 3137 3096 
Q 3566 2609 3566 1747 
Q 3566 888 3137 398 
Q 2709 -91 1959 -91 
Q 1206 -91 779 398 
Q 353 888 353 1747 
Q 353 2609 779 3096 
Q 1206 3584 1959 3584 
z
" transform="scale(0.015625)"/>
      <path id="DejaVuSans-63" d="M 3122 3366 
L 3122 2828 
Q 2878 2963 2633 3030 
Q 2388 3097 2138 3097 
Q 1578 3097 1268 2742 
Q 959 2388 959 1747 
Q 959 1106 1268 751 
Q 1578 397 2138 397 
Q 2388 397 2633 464 
Q 2878 531 3122 666 
L 3122 134 
Q 2881 22 2623 -34 
Q 2366 -91 2075 -91 
Q 1284 -91 818 406 
Q 353 903 353 1747 
Q 353 2603 823 3093 
Q 1294 3584 2113 3584 
Q 2378 3584 2631 3529 
Q 2884 3475 3122 3366 
z
" transform="scale(0.015625)"/>
      <path id="DejaVuSans-73" d="M 2834 3397 
L 2834 2853 
Q 2591 2978 2328 3040 
Q 2066 3103 1784 3103 
Q 1356 3103 1142 2972 
Q 928 2841 928 2578 
Q 928 2378 1081 2264 
Q 1234 2150 1697 2047 
L 1894 2003 
Q 2506 1872 2764 1633 
Q 3022 1394 3022 966 
Q 3022 478 2636 193 
Q 2250 -91 1575 -91 
Q 1294 -91 989 -36 
Q 684 19 347 128 
L 347 722 
Q 666 556 975 473 
Q 1284 391 1588 391 
Q 1994 391 2212 530 
Q 2431 669 2431 922 
Q 2431 1156 2273 1281 
Q 2116 1406 1581 1522 
L 1381 1569 
Q 847 1681 609 1914 
Q 372 2147 372 2553 
Q 372 3047 722 3315 
Q 1072 3584 1716 3584 
Q 2034 3584 2315 3537 
Q 2597 3491 2834 3397 
z
" transform="scale(0.015625)"/>
      <path id="DejaVuSans-69" d="M 603 3500 
L 1178 3500 
L 1178 0 
L 603 0 
L 603 3500 
z
M 603 4863 
L 1178 4863 
L 1178 4134 
L 603 4134 
L 603 4863 
z
" transform="scale(0.015625)"/>
      <path id="DejaVuSans-6e" d="M 3513 2113 
L 3513 0 
L 2938 0 
L 2938 2094 
Q 2938 2591 2744 2837 
Q 2550 3084 2163 3084 
Q 1697 3084 1428 2787 
Q 1159 2491 1159 1978 
L 1159 0 
L 581 0 
L 581 3500 
L 1159 3500 
L 1159 2956 
Q 1366 3272 1645 3428 
Q 1925 3584 2291 3584 
Q 2894 3584 3203 3211 
Q 3513 2838 3513 2113 
z
" transform="scale(0.015625)"/>
      <path id="DejaVuSans-67" d="M 2906 1791 
Q 2906 2416 2648 2759 
Q 2391 3103 1925 3103 
Q 1463 3103 1205 2759 
Q 947 2416 947 1791 
Q 947 1169 1205 825 
Q 1463 481 1925 481 
Q 2391 481 2648 825 
Q 2906 1169 2906 1791 
z
M 3481 434 
Q 3481 -459 3084 -895 
Q 2688 -1331 1869 -1331 
Q 1566 -1331 1297 -1286 
Q 1028 -1241 775 -1147 
L 775 -588 
Q 1028 -725 1275 -790 
Q 1522 -856 1778 -856 
Q 2344 -856 2625 -561 
Q 2906 -266 2906 331 
L 2906 616 
Q 2728 306 2450 153 
Q 2172 0 1784 0 
Q 1141 0 747 490 
Q 353 981 353 1791 
Q 353 2603 747 3093 
Q 1141 3584 1784 3584 
Q 2172 3584 2450 3431 
Q 2728 3278 2906 2969 
L 2906 3500 
L 3481 3500 
L 3481 434 
z
" transform="scale(0.015625)"/>
      <path id="DejaVuSans-3a" d="M 750 794 
L 1409 794 
L 1409 0 
L 750 0 
L 750 794 
z
M 750 3309 
L 1409 3309 
L 1409 2516 
L 750 2516 
L 750 3309 
z
" transform="scale(0.015625)"/>
      <path id="DejaVuSans-53" d="M 3425 4513 
L 3425 3897 
Q 3066 4069 2747 4153 
Q 2428 4238 2131 4238 
Q 1616 4238 1336 4038 
Q 1056 3838 1056 3469 
Q 1056 3159 1242 3001 
Q 1428 2844 1947 2747 
L 2328 2669 
Q 3034 2534 3370 2195 
Q 3706 1856 3706 1288 
Q 3706 609 3251 259 
Q 2797 -91 1919 -91 
Q 1588 -91 1214 -16 
Q 841 59 441 206 
L 441 856 
Q 825 641 1194 531 
Q 1563 422 1919 422 
Q 2459 422 2753 634 
Q 3047 847 3047 1241 
Q 3047 1584 2836 1778 
Q 2625 1972 2144 2069 
L 1759 2144 
Q 1053 2284 737 2584 
Q 422 2884 422 3419 
Q 422 4038 858 4394 
Q 1294 4750 2059 4750 
Q 2388 4750 2728 4690 
Q 3069 4631 3425 4513 
z
" transform="scale(0.015625)"/>
     </defs>
     <use xlink:href="#DejaVuSans-44"/>
     <use xlink:href="#DejaVuSans-61" x="77.001953"/>
     <use xlink:href="#DejaVuSans-74" x="138.28125"/>
     <use xlink:href="#DejaVuSans-61" x="177.490234"/>
     <use xlink:href="#DejaVuSans-20" x="238.769531"/>
     <use xlink:href="#DejaVuSans-50" x="270.556641"/>
     <use xlink:href="#DejaVuSans-72" x="329.109375"/>
     <use xlink:href="#DejaVuSans-65" x="367.972656"/>
     <use xlink:href="#DejaVuSans-70" x="429.496094"/>
     <use xlink:href="#DejaVuSans-72" x="492.972656"/>
     <use xlink:href="#DejaVuSans-6f" x="531.835938"/>
     <use xlink:href="#DejaVuSans-63" x="593.017578"/>
     <use xlink:href="#DejaVuSans-65" x="647.998047"/>
     <use xlink:href="#DejaVuSans-73" x="709.521484"/>
     <use xlink:href="#DejaVuSans-73" x="761.621094"/>
     <use xlink:href="#DejaVuSans-69" x="813.720703"/>
     <use xlink:href="#DejaVuSans-6e" x="841.503906"/>
     <use xlink:href="#DejaVuSans-67" x="904.882812"/>
     <use xlink:href="#DejaVuSans-3a" x="968.359375"/>
     <use xlink:href="#DejaVuSans-20" x="1002.050781"/>
     <use xlink:href="#DejaVuSans-53" x="1033.837891"/>
     <use xlink:href="#DejaVuSans-74" x="1097.314453"/>
     <use xlink:href="#DejaVuSans-61" x="1136.523438"/>
     <use xlink:href="#DejaVuSans-72" x="1197.802734"/>
     <use xlink:href="#DejaVuSans-74" x="1238.916016"/>
    </g>
   </g>
   <g id="text_2">
    <!-- Retrieve and read data from sources -->
    <g transform="translate(51.139774 174.970481) scale(0.095 -0.095)">
     <defs>
      <path id="DejaVuSans-52" d="M 2841 2188 
Q 3044 2119 3236 1894 
Q 3428 1669 3622 1275 
L 4263 0 
L 3584 0 
L 2988 1197 
Q 2756 1666 2539 1819 
Q 2322 1972 1947 1972 
L 1259 1972 
L 1259 0 
L 628 0 
L 628 4666 
L 2053 4666 
Q 2853 4666 3247 4331 
Q 3641 3997 3641 3322 
Q 3641 2881 3436 2590 
Q 3231 2300 2841 2188 
z
M 1259 4147 
L 1259 2491 
L 2053 2491 
Q 2509 2491 2742 2702 
Q 2975 2913 2975 3322 
Q 2975 3731 2742 3939 
Q 2509 4147 2053 4147 
L 1259 4147 
z
" transform="scale(0.015625)"/>
      <path id="DejaVuSans-76" d="M 191 3500 
L 800 3500 
L 1894 563 
L 2988 3500 
L 3597 3500 
L 2284 0 
L 1503 0 
L 191 3500 
z
" transform="scale(0.015625)"/>
      <path id="DejaVuSans-64" d="M 2906 2969 
L 2906 4863 
L 3481 4863 
L 3481 0 
L 2906 0 
L 2906 525 
Q 2725 213 2448 61 
Q 2172 -91 1784 -91 
Q 1150 -91 751 415 
Q 353 922 353 1747 
Q 353 2572 751 3078 
Q 1150 3584 1784 3584 
Q 2172 3584 2448 3432 
Q 2725 3281 2906 2969 
z
M 947 1747 
Q 947 1113 1208 752 
Q 1469 391 1925 391 
Q 2381 391 2643 752 
Q 2906 1113 2906 1747 
Q 2906 2381 2643 2742 
Q 2381 3103 1925 3103 
Q 1469 3103 1208 2742 
Q 947 2381 947 1747 
z
" transform="scale(0.015625)"/>
      <path id="DejaVuSans-66" d="M 2375 4863 
L 2375 4384 
L 1825 4384 
Q 1516 4384 1395 4259 
Q 1275 4134 1275 3809 
L 1275 3500 
L 2222 3500 
L 2222 3053 
L 1275 3053 
L 1275 0 
L 697 0 
L 697 3053 
L 147 3053 
L 147 3500 
L 697 3500 
L 697 3744 
Q 697 4328 969 4595 
Q 1241 4863 1831 4863 
L 2375 4863 
z
" transform="scale(0.015625)"/>
      <path id="DejaVuSans-6d" d="M 3328 2828 
Q 3544 3216 3844 3400 
Q 4144 3584 4550 3584 
Q 5097 3584 5394 3201 
Q 5691 2819 5691 2113 
L 5691 0 
L 5113 0 
L 5113 2094 
Q 5113 2597 4934 2840 
Q 4756 3084 4391 3084 
Q 3944 3084 3684 2787 
Q 3425 2491 3425 1978 
L 3425 0 
L 2847 0 
L 2847 2094 
Q 2847 2600 2669 2842 
Q 2491 3084 2119 3084 
Q 1678 3084 1418 2786 
Q 1159 2488 1159 1978 
L 1159 0 
L 581 0 
L 581 3500 
L 1159 3500 
L 1159 2956 
Q 1356 3278 1631 3431 
Q 1906 3584 2284 3584 
Q 2666 3584 2933 3390 
Q 3200 3197 3328 2828 
z
" transform="scale(0.015625)"/>
      <path id="DejaVuSans-75" d="M 544 1381 
L 544 3500 
L 1119 3500 
L 1119 1403 
Q 1119 906 1312 657 
Q 1506 409 1894 409 
Q 2359 409 2629 706 
Q 2900 1003 2900 1516 
L 2900 3500 
L 3475 3500 
L 3475 0 
L 2900 0 
L 2900 538 
Q 2691 219 2414 64 
Q 2138 -91 1772 -91 
Q 1169 -91 856 284 
Q 544 659 544 1381 
z
M 1991 3584 
L 1991 3584 
z
" transform="scale(0.015625)"/>
     </defs>
     <use xlink:href="#DejaVuSans-52"/>
     <use xlink:href="#DejaVuSans-65" x="64.982422"/>
     <use xlink:href="#DejaVuSans-74" x="126.505859"/>
     <use xlink:href="#DejaVuSans-72" x="165.714844"/>
     <use xlink:href="#DejaVuSans-69" x="206.828125"/>
     <use xlink:href="#DejaVuSans-65" x="234.611328"/>
     <use xlink:href="#DejaVuSans-76" x="296.134766"/>
     <use xlink:href="#DejaVuSans-65" x="355.314453"/>
     <use xlink:href="#DejaVuSans-20" x="416.837891"/>
     <use xlink:href="#DejaVuSans-61" x="448.625"/>
     <use xlink:href="#DejaVuSans-6e" x="509.904297"/>
     <use xlink:href="#DejaVuSans-64" x="573.283203"/>
     <use xlink:href="#DejaVuSans-20" x="636.759766"/>
     <use xlink:href="#DejaVuSans-72" x="668.546875"/>
     <use xlink:href="#DejaVuSans-65" x="707.410156"/>
     <use xlink:href="#DejaVuSans-61" x="768.933594"/>
     <use xlink:href="#DejaVuSans-64" x="830.212891"/>
     <use xlink:href="#DejaVuSans-20" x="893.689453"/>
     <use xlink:href="#DejaVuSans-64" x="925.476562"/>
     <use xlink:href="#DejaVuSans-61" x="988.953125"/>
     <use xlink:href="#DejaVuSans-74" x="1050.232422"/>
     <use xlink:href="#DejaVuSans-61" x="1089.441406"/>
     <use xlink:href="#DejaVuSans-20" x="1150.720703"/>
     <use xlink:href="#DejaVuSans-66" x="1182.507812"/>
     <use xlink:href="#DejaVuSans-72" x="1217.712891"/>
     <use xlink:href="#DejaVuSans-6f" x="1256.576172"/>
     <use xlink:href="#DejaVuSans-6d" x="1317.757812"/>
     <use xlink:href="#DejaVuSans-20" x="1415.169922"/>
     <use xlink:href="#DejaVuSans-73" x="1446.957031"/>
     <use xlink:href="#DejaVuSans-6f" x="1499.056641"/>
     <use xlink:href="#DejaVuSans-75" x="1560.238281"/>
     <use xlink:href="#DejaVuSans-72" x="1623.617188"/>
     <use xlink:href="#DejaVuSans-63" x="1662.480469"/>
     <use xlink:href="#DejaVuSans-65" x="1717.460938"/>
     <use xlink:href="#DejaVuSans-73" x="1778.984375"/>
    </g>
   </g>
   <g id="text_3">
    <!-- Reading time and readability score analysis -->
    <g transform="translate(25.373016 300.970481) scale(0.095 -0.095)">
     <defs>
      <path id="DejaVuSans-62" d="M 3116 1747 
Q 3116 2381 2855 2742 
Q 2594 3103 2138 3103 
Q 1681 3103 1420 2742 
Q 1159 2381 1159 1747 
Q 1159 1113 1420 752 
Q 1681 391 2138 391 
Q 2594 391 2855 752 
Q 3116 1113 3116 1747 
z
M 1159 2969 
Q 1341 3281 1617 3432 
Q 1894 3584 2278 3584 
Q 2916 3584 3314 3078 
Q 3713 2572 3713 1747 
Q 3713 922 3314 415 
Q 2916 -91 2278 -91 
Q 1894 -91 1617 61 
Q 1341 213 1159 525 
L 1159 0 
L 581 0 
L 581 4863 
L 1159 4863 
L 1159 2969 
z
" transform="scale(0.015625)"/>
      <path id="DejaVuSans-6c" d="M 603 4863 
L 1178 4863 
L 1178 0 
L 603 0 
L 603 4863 
z
" transform="scale(0.015625)"/>
      <path id="DejaVuSans-79" d="M 2059 -325 
Q 1816 -950 1584 -1140 
Q 1353 -1331 966 -1331 
L 506 -1331 
L 506 -850 
L 844 -850 
Q 1081 -850 1212 -737 
Q 1344 -625 1503 -206 
L 1606 56 
L 191 3500 
L 800 3500 
L 1894 763 
L 2988 3500 
L 3597 3500 
L 2059 -325 
z
" transform="scale(0.015625)"/>
     </defs>
     <use xlink:href="#DejaVuSans-52"/>
     <use xlink:href="#DejaVuSans-65" x="64.982422"/>
     <use xlink:href="#DejaVuSans-61" x="126.505859"/>
     <use xlink:href="#DejaVuSans-64" x="187.785156"/>
     <use xlink:href="#DejaVuSans-69" x="251.261719"/>
     <use xlink:href="#DejaVuSans-6e" x="279.044922"/>
     <use xlink:href="#DejaVuSans-67" x="342.423828"/>
     <use xlink:href="#DejaVuSans-20" x="405.900391"/>
     <use xlink:href="#DejaVuSans-74" x="437.6875"/>
     <use xlink:href="#DejaVuSans-69" x="476.896484"/>
     <use xlink:href="#DejaVuSans-6d" x="504.679688"/>
     <use xlink:href="#DejaVuSans-65" x="602.091797"/>
     <use xlink:href="#DejaVuSans-20" x="663.615234"/>
     <use xlink:href="#DejaVuSans-61" x="695.402344"/>
     <use xlink:href="#DejaVuSans-6e" x="756.681641"/>
     <use xlink:href="#DejaVuSans-64" x="820.060547"/>
     <use xlink:href="#DejaVuSans-20" x="883.537109"/>
     <use xlink:href="#DejaVuSans-72" x="915.324219"/>
     <use xlink:href="#DejaVuSans-65" x="954.1875"/>
     <use xlink:href="#DejaVuSans-61" x="1015.710938"/>
     <use xlink:href="#DejaVuSans-64" x="1076.990234"/>
     <use xlink:href="#DejaVuSans-61" x="1140.466797"/>
     <use xlink:href="#DejaVuSans-62" x="1201.746094"/>
     <use xlink:href="#DejaVuSans-69" x="1265.222656"/>
     <use xlink:href="#DejaVuSans-6c" x="1293.005859"/>
     <use xlink:href="#DejaVuSans-69" x="1320.789062"/>
     <use xlink:href="#DejaVuSans-74" x="1348.572266"/>
     <use xlink:href="#DejaVuSans-79" x="1387.78125"/>
     <use xlink:href="#DejaVuSans-20" x="1446.960938"/>
     <use xlink:href="#DejaVuSans-73" x="1478.748047"/>
     <use xlink:href="#DejaVuSans-63" x="1530.847656"/>
     <use xlink:href="#DejaVuSans-6f" x="1585.828125"/>
     <use xlink:href="#DejaVuSans-72" x="1647.009766"/>
     <use xlink:href="#DejaVuSans-65" x="1685.873047"/>
     <use xlink:href="#DejaVuSans-20" x="1747.396484"/>
     <use xlink:href="#DejaVuSans-61" x="1779.183594"/>
     <use xlink:href="#DejaVuSans-6e" x="1840.462891"/>
     <use xlink:href="#DejaVuSans-61" x="1903.841797"/>
     <use xlink:href="#DejaVuSans-6c" x="1965.121094"/>
     <use xlink:href="#DejaVuSans-79" x="1992.904297"/>
     <use xlink:href="#DejaVuSans-73" x="2052.083984"/>
     <use xlink:href="#DejaVuSans-69" x="2104.183594"/>
     <use xlink:href="#DejaVuSans-73" x="2131.966797"/>
    </g>
   </g>
   <g id="text_4">
    <!-- Lemmatize texts -->
    <g transform="translate(85.33993 427.246419) scale(0.105 -0.105)">
     <defs>
      <path id="DejaVuSans-4c" d="M 628 4666 
L 1259 4666 
L 1259 531 
L 3531 531 
L 3531 0 
L 628 0 
L 628 4666 
z
" transform="scale(0.015625)"/>
      <path id="DejaVuSans-7a" d="M 353 3500 
L 3084 3500 
L 3084 2975 
L 922 459 
L 3084 459 
L 3084 0 
L 275 0 
L 275 525 
L 2438 3041 
L 353 3041 
L 353 3500 
z
" transform="scale(0.015625)"/>
      <path id="DejaVuSans-78" d="M 3513 3500 
L 2247 1797 
L 3578 0 
L 2900 0 
L 1881 1375 
L 863 0 
L 184 0 
L 1544 1831 
L 300 3500 
L 978 3500 
L 1906 2253 
L 2834 3500 
L 3513 3500 
z
" transform="scale(0.015625)"/>
     </defs>
     <use xlink:href="#DejaVuSans-4c"/>
     <use xlink:href="#DejaVuSans-65" x="53.962891"/>
     <use xlink:href="#DejaVuSans-6d" x="115.486328"/>
     <use xlink:href="#DejaVuSans-6d" x="212.898438"/>
     <use xlink:href="#DejaVuSans-61" x="310.310547"/>
     <use xlink:href="#DejaVuSans-74" x="371.589844"/>
     <use xlink:href="#DejaVuSans-69" x="410.798828"/>
     <use xlink:href="#DejaVuSans-7a" x="438.582031"/>
     <use xlink:href="#DejaVuSans-65" x="491.072266"/>
     <use xlink:href="#DejaVuSans-20" x="552.595703"/>
     <use xlink:href="#DejaVuSans-74" x="584.382812"/>
     <use xlink:href="#DejaVuSans-65" x="623.591797"/>
     <use xlink:href="#DejaVuSans-78" x="683.365234"/>
     <use xlink:href="#DejaVuSans-74" x="742.544922"/>
     <use xlink:href="#DejaVuSans-73" x="781.753906"/>
    </g>
   </g>
   <g id="text_5">
    <!-- Remove stopwords -->
    <g transform="translate(79.163797 553.246419) scale(0.105 -0.105)">
     <defs>
      <path id="DejaVuSans-77" d="M 269 3500 
L 844 3500 
L 1563 769 
L 2278 3500 
L 2956 3500 
L 3675 769 
L 4391 3500 
L 4966 3500 
L 4050 0 
L 3372 0 
L 2619 2869 
L 1863 0 
L 1184 0 
L 269 3500 
z
" transform="scale(0.015625)"/>
     </defs>
     <use xlink:href="#DejaVuSans-52"/>
     <use xlink:href="#DejaVuSans-65" x="64.982422"/>
     <use xlink:href="#DejaVuSans-6d" x="126.505859"/>
     <use xlink:href="#DejaVuSans-6f" x="223.917969"/>
     <use xlink:href="#DejaVuSans-76" x="285.099609"/>
     <use xlink:href="#DejaVuSans-65" x="344.279297"/>
     <use xlink:href="#DejaVuSans-20" x="405.802734"/>
     <use xlink:href="#DejaVuSans-73" x="437.589844"/>
     <use xlink:href="#DejaVuSans-74" x="489.689453"/>
     <use xlink:href="#DejaVuSans-6f" x="528.898438"/>
     <use xlink:href="#DejaVuSans-70" x="590.080078"/>
     <use xlink:href="#DejaVuSans-77" x="653.556641"/>
     <use xlink:href="#DejaVuSans-6f" x="735.34375"/>
     <use xlink:href="#DejaVuSans-72" x="796.525391"/>
     <use xlink:href="#DejaVuSans-64" x="835.888672"/>
     <use xlink:href="#DejaVuSans-73" x="899.365234"/>
    </g>
   </g>
   <g id="text_6">
    <!-- End: Ready for Sentiment Analysis -->
    <g transform="translate(38.411493 679.246419) scale(0.105 -0.105)">
     <defs>
      <path id="DejaVuSans-45" d="M 628 4666 
L 3578 4666 
L 3578 4134 
L 1259 4134 
L 1259 2753 
L 3481 2753 
L 3481 2222 
L 1259 2222 
L 1259 531 
L 3634 531 
L 3634 0 
L 628 0 
L 628 4666 
z
" transform="scale(0.015625)"/>
      <path id="DejaVuSans-41" d="M 2188 4044 
L 1331 1722 
L 3047 1722 
L 2188 4044 
z
M 1831 4666 
L 2547 4666 
L 4325 0 
L 3669 0 
L 3244 1197 
L 1141 1197 
L 716 0 
L 50 0 
L 1831 4666 
z
" transform="scale(0.015625)"/>
     </defs>
     <use xlink:href="#DejaVuSans-45"/>
     <use xlink:href="#DejaVuSans-6e" x="63.183594"/>
     <use xlink:href="#DejaVuSans-64" x="126.5625"/>
     <use xlink:href="#DejaVuSans-3a" x="190.039062"/>
     <use xlink:href="#DejaVuSans-20" x="223.730469"/>
     <use xlink:href="#DejaVuSans-52" x="255.517578"/>
     <use xlink:href="#DejaVuSans-65" x="320.5"/>
     <use xlink:href="#DejaVuSans-61" x="382.023438"/>
     <use xlink:href="#DejaVuSans-64" x="443.302734"/>
     <use xlink:href="#DejaVuSans-79" x="506.779297"/>
     <use xlink:href="#DejaVuSans-20" x="565.958984"/>
     <use xlink:href="#DejaVuSans-66" x="597.746094"/>
     <use xlink:href="#DejaVuSans-6f" x="632.951172"/>
     <use xlink:href="#DejaVuSans-72" x="694.132812"/>
     <use xlink:href="#DejaVuSans-20" x="735.246094"/>
     <use xlink:href="#DejaVuSans-53" x="767.033203"/>
     <use xlink:href="#DejaVuSans-65" x="830.509766"/>
     <use xlink:href="#DejaVuSans-6e" x="892.033203"/>
     <use xlink:href="#DejaVuSans-74" x="955.412109"/>
     <use xlink:href="#DejaVuSans-69" x="994.621094"/>
     <use xlink:href="#DejaVuSans-6d" x="1022.404297"/>
     <use xlink:href="#DejaVuSans-65" x="1119.816406"/>
     <use xlink:href="#DejaVuSans-6e" x="1181.339844"/>
     <use xlink:href="#DejaVuSans-74" x="1244.71875"/>
     <use xlink:href="#DejaVuSans-20" x="1283.927734"/>
     <use xlink:href="#DejaVuSans-41" x="1315.714844"/>
     <use xlink:href="#DejaVuSans-6e" x="1384.123047"/>
     <use xlink:href="#DejaVuSans-61" x="1447.501953"/>
     <use xlink:href="#DejaVuSans-6c" x="1508.78125"/>
     <use xlink:href="#DejaVuSans-79" x="1536.564453"/>
     <use xlink:href="#DejaVuSans-73" x="1595.744141"/>
     <use xlink:href="#DejaVuSans-69" x="1647.84375"/>
     <use xlink:href="#DejaVuSans-73" x="1675.626953"/>
    </g>
   </g>
  </g>
 </g>
 <defs>
  <clipPath id="p28af0a4ec6">
   <rect x="3.6" y="3.6" width="263.493714" height="742.479654"/>
  </clipPath>
 </defs>
</svg>